<svg version="1.1" id="Layer_1" xmlns="http://www.w3.org/2000/svg" xmlns:xlink="http://www.w3.org/1999/xlink" x="0px" y="0px"
	 width="100%" viewBox="0 0 306 306" enable-background="new 0 0 306 306" xml:space="preserve">
<path fill="#ffffff" opacity="0.000000" stroke="none" 
	d="
M177.000000,307.000000 
	C118.000031,307.000000 59.500057,307.000000 1.000063,307.000000 
	C1.000042,205.000076 1.000042,103.000153 1.000021,1.000172 
	C102.999878,1.000115 204.999756,1.000115 306.999725,1.000057 
	C306.999817,102.999825 306.999817,204.999649 306.999908,306.999756 
	C263.833344,307.000000 220.666672,307.000000 177.000000,307.000000 
M113.500000,301.000000 
	C164.811874,301.000000 216.123917,300.942749 267.435394,301.084167 
	C272.859741,301.099091 277.855652,300.381927 282.733917,297.995697 
	C292.091431,293.418518 299.046539,283.522095 299.037750,273.427368 
	C298.969269,194.793701 299.003357,116.159943 298.996399,37.526218 
	C298.995209,24.221643 286.416168,11.054946 273.223785,11.041771 
	C193.090759,10.961740 112.957420,10.937020 32.825024,11.174477 
	C28.358885,11.187711 23.223368,12.723430 19.578346,15.250795 
	C11.904150,20.571896 9.087765,29.078552 9.073191,38.084435 
	C8.946754,116.218178 9.143524,194.352676 8.881836,272.485748 
	C8.828145,288.516205 23.616615,301.121643 37.531635,301.040802 
	C62.520325,300.895630 87.510468,300.999939 113.500000,301.000000 
z"/>
<path fill="#0A9569" opacity="1.000000" stroke="none" 
	d="
M113.000000,301.000000 
	C87.510468,300.999939 62.520325,300.895630 37.531635,301.040802 
	C23.616615,301.121643 8.828145,288.516205 8.881836,272.485748 
	C9.143524,194.352676 8.946754,116.218178 9.073191,38.084435 
	C9.087765,29.078552 11.904150,20.571896 19.578346,15.250795 
	C23.223368,12.723430 28.358885,11.187711 32.825024,11.174477 
	C112.957420,10.937020 193.090759,10.961740 273.223785,11.041771 
	C286.416168,11.054946 298.995209,24.221643 298.996399,37.526218 
	C299.003357,116.159943 298.969269,194.793701 299.037750,273.427368 
	C299.046539,283.522095 292.091431,293.418518 282.733917,297.995697 
	C277.855652,300.381927 272.859741,301.099091 267.435394,301.084167 
	C216.123917,300.942749 164.811874,301.000000 113.000000,301.000000 
M87.852776,90.931824 
	C103.007477,90.954735 118.162209,90.965950 133.316864,91.005791 
	C140.238434,91.023987 140.997818,91.804604 140.998260,98.740746 
	C141.001389,146.538330 140.999985,194.335907 141.000046,242.133484 
	C141.000046,244.243179 141.000061,246.352890 141.000061,248.972809 
	C149.744186,248.972809 157.862656,249.035828 165.979156,248.937119 
	C168.659225,248.904526 170.084229,247.574234 170.036850,244.548737 
	C169.633499,218.788635 169.223801,193.027649 169.044037,167.265335 
	C168.882507,144.117142 168.989502,120.966896 169.027222,97.817627 
	C169.033615,93.892517 170.711685,91.831947 175.110519,91.928642 
	C185.431122,92.155525 195.760132,92.000366 206.085739,92.000046 
	C212.530930,91.999840 218.976105,92.000000 225.577621,92.000000 
	C225.577621,83.376617 225.577621,75.354164 225.577621,67.339508 
	C178.937546,67.339508 132.720657,67.339508 85.592827,67.339508 
	C86.052528,75.387115 86.491051,83.063866 87.852776,90.931824 
z"/>
<path fill="#ffffff" opacity="1.000000" stroke="none" 
	d="
M87.391174,90.836220 
	C86.491051,83.063866 86.052528,75.387115 85.592827,67.339508 
	C132.720657,67.339508 178.937546,67.339508 225.577621,67.339508 
	C225.577621,75.354164 225.577621,83.376617 225.577621,92.000000 
	C218.976105,92.000000 212.530930,91.999840 206.085739,92.000046 
	C195.760132,92.000366 185.431122,92.155525 175.110519,91.928642 
	C170.711685,91.831947 169.033615,93.892517 169.027222,97.817627 
	C168.989502,120.966896 168.882507,144.117142 169.044037,167.265335 
	C169.223801,193.027649 169.633499,218.788635 170.036850,244.548737 
	C170.084229,247.574234 168.659225,248.904526 165.979156,248.937119 
	C157.862656,249.035828 149.744186,248.972809 141.000061,248.972809 
	C141.000061,246.352890 141.000046,244.243179 141.000046,242.133484 
	C140.999985,194.335907 141.001389,146.538330 140.998260,98.740746 
	C140.997818,91.804604 140.238434,91.023987 133.316864,91.005791 
	C118.162209,90.965950 103.007477,90.954735 87.391174,90.836220 
z"/>
</svg>