<svg width="122" height="122" viewBox="0 0 122 122" fill="none" xmlns="http://www.w3.org/2000/svg">
<g clip-path="url(#clip0_1326_13789)">
<rect width="60.0308" height="60.0308" rx="17.862" transform="matrix(0.706742 -0.707471 0.706742 0.707471 18 60.5979)" fill="url(#paint0_linear_1326_13789)"/>
<rect x="-0.706742" width="81.0411" height="81.0411" transform="matrix(0.706742 -0.707471 0.706742 0.707471 3.79274 60.0979)" stroke="url(#paint1_linear_1326_13789)"/>
<rect x="-0.706742" width="6.00256" height="6.00256" transform="matrix(0.706742 -0.707471 0.706742 0.707471 56.7925 117.156)" fill="#F3F4F8" stroke="url(#paint2_linear_1326_13789)"/>
<rect x="-0.706742" width="6.00257" height="6.00257" transform="matrix(0.706742 -0.707472 0.706742 0.707472 112.792 60.0979)" fill="#F3F4F8" stroke="url(#paint3_linear_1326_13789)"/>
<rect x="-0.706742" width="6.00257" height="6.00257" transform="matrix(0.706742 -0.707471 0.706742 0.707471 -0.207258 60.0979)" fill="#F3F4F8" stroke="url(#paint4_linear_1326_13789)"/>
<g clip-path="url(#clip1_1326_13789)">
<path d="M52.9263 59.0095H50.2546" stroke="#F3F4F8" stroke-width="1.5" stroke-linecap="round" stroke-linejoin="round"/>
<path d="M54.827 54.4188L52.938 52.5278" stroke="#F3F4F8" stroke-width="1.5" stroke-linecap="round" stroke-linejoin="round"/>
<path d="M54.827 63.5994L52.938 65.4903" stroke="#F3F4F8" stroke-width="1.5" stroke-linecap="round" stroke-linejoin="round"/>
<path d="M59.4128 52.5162V49.8418" stroke="#F3F4F8" stroke-width="1.5" stroke-linecap="round" stroke-linejoin="round"/>
<path d="M63.998 54.4188L65.8871 52.5278" stroke="#F3F4F8" stroke-width="1.5" stroke-linecap="round" stroke-linejoin="round"/>
<path d="M68.5666 64.9377L70.8754 67.249C71.3853 67.7593 71.3853 68.5873 70.8754 69.0977L69.4894 70.4851C68.9796 70.9955 68.1524 70.9955 67.6426 70.4851L65.3338 68.1739L63.5931 69.9164C63.2501 70.2597 62.6656 70.1219 62.5128 69.6606L59.1563 59.5796C58.986 59.0692 59.4713 58.5822 59.9823 58.7527L70.0529 62.1127C70.5138 62.2668 70.6514 62.8508 70.3084 63.1941L68.5666 64.9377" stroke="#F3F4F8" stroke-width="1.5" stroke-linecap="round" stroke-linejoin="round"/>
</g>
<rect x="-0.706741" width="6.00257" height="6.00257" transform="matrix(0.706741 -0.707473 0.706741 0.707473 56.7925 3.03931)" fill="#F3F4F8" stroke="url(#paint5_linear_1326_13789)"/>
</g>
<defs>
<linearGradient id="paint0_linear_1326_13789" x1="9.23551" y1="5.5413" x2="60.0308" y2="60.0308" gradientUnits="userSpaceOnUse">
<stop stop-color="#2698EA"/>
<stop offset="1" stop-color="#5A82F6" stop-opacity="0.8"/>
</linearGradient>
<linearGradient id="paint1_linear_1326_13789" x1="40.0205" y1="0" x2="40.0205" y2="80.0411" gradientUnits="userSpaceOnUse">
<stop stop-color="#00D764"/>
<stop offset="1" stop-color="#2698EA"/>
</linearGradient>
<linearGradient id="paint2_linear_1326_13789" x1="2.50128" y1="0" x2="2.50128" y2="5.00256" gradientUnits="userSpaceOnUse">
<stop stop-color="#00D764"/>
<stop offset="1" stop-color="#2698EA"/>
</linearGradient>
<linearGradient id="paint3_linear_1326_13789" x1="2.50128" y1="0" x2="2.50128" y2="5.00257" gradientUnits="userSpaceOnUse">
<stop stop-color="#00D764"/>
<stop offset="1" stop-color="#2698EA"/>
</linearGradient>
<linearGradient id="paint4_linear_1326_13789" x1="2.50128" y1="0" x2="2.50128" y2="5.00257" gradientUnits="userSpaceOnUse">
<stop stop-color="#00D764"/>
<stop offset="1" stop-color="#2698EA"/>
</linearGradient>
<linearGradient id="paint5_linear_1326_13789" x1="2.50129" y1="0" x2="2.50129" y2="5.00257" gradientUnits="userSpaceOnUse">
<stop stop-color="#00D764"/>
<stop offset="1" stop-color="#2698EA"/>
</linearGradient>
<clipPath id="clip0_1326_13789">
<rect width="85.6541" height="85.6541" fill="white" transform="matrix(0.706742 -0.707471 0.706742 0.707471 0 60.5979)"/>
</clipPath>
<clipPath id="clip1_1326_13789">
<rect width="28.0144" height="28.0144" fill="white" transform="translate(46.9998 46.5835) scale(0.999484 1.00052)"/>
</clipPath>
</defs>
</svg>
