<svg width="385" height="295" viewBox="0 0 385 295" fill="none" xmlns="http://www.w3.org/2000/svg">
<path d="M22.9027 192.102H22.4027V192.602H22.9027V192.102ZM22.9027 171.266L22.4928 170.98L22.4027 171.109V171.266H22.9027ZM84.8428 82.6181V82.1181H84.5822L84.433 82.3317L84.8428 82.6181ZM115.718 82.6181H116.218V82.1181H115.718V82.6181ZM115.718 168.993H115.218V169.493H115.718V168.993ZM132.387 168.993H132.887V168.493H132.387V168.993ZM132.387 192.102V192.602H132.887V192.102H132.387ZM115.718 192.102V191.602H115.218V192.102H115.718ZM115.718 219V219.5H116.218V219H115.718ZM89.1995 219H88.6995V219.5H89.1995V219ZM89.1995 192.102H89.6995V191.602H89.1995V192.102ZM90.9043 111.031H91.4043V109.386L90.4889 110.753L90.9043 111.031ZM52.0733 168.993L51.6579 168.715L51.1365 169.493H52.0733V168.993ZM90.9043 168.993V169.493H91.4043V168.993H90.9043ZM23.4027 192.102V190.366H22.4027V192.102H23.4027ZM23.4027 186.893V183.421H22.4027V186.893H23.4027ZM23.4027 179.948V176.475H22.4027V179.948H23.4027ZM23.4027 173.003V171.266H22.4027V173.003H23.4027ZM23.3126 171.553L24.1729 170.321L23.3531 169.749L22.4928 170.98L23.3126 171.553ZM25.8934 167.859L27.614 165.397L26.7942 164.824L25.0737 167.286L25.8934 167.859ZM29.3345 162.934L31.0551 160.472L30.2354 159.899L28.5148 162.361L29.3345 162.934ZM32.7756 158.009L34.4962 155.547L33.6765 154.974L31.9559 157.436L32.7756 158.009ZM36.2168 153.084L37.9373 150.622L37.1176 150.049L35.397 152.512L36.2168 153.084ZM39.6579 148.159L41.3784 145.697L40.5587 145.124L38.8382 147.587L39.6579 148.159ZM43.099 143.235L44.8196 140.772L43.9998 140.199L42.2793 142.662L43.099 143.235ZM46.5401 138.31L48.2607 135.847L47.441 135.274L45.7204 137.737L46.5401 138.31ZM49.9812 133.385L51.7018 130.922L50.8821 130.349L49.1615 132.812L49.9812 133.385ZM53.4224 128.46L55.1429 125.997L54.3232 125.425L52.6026 127.887L53.4224 128.46ZM56.8635 123.535L58.584 121.072L57.7643 120.5L56.0438 122.962L56.8635 123.535ZM60.3046 118.61L62.0252 116.148L61.2054 115.575L59.4849 118.037L60.3046 118.61ZM63.7457 113.685L65.4663 111.223L64.6466 110.65L62.926 113.112L63.7457 113.685ZM67.1868 108.76L68.9074 106.298L68.0877 105.725L66.3671 108.187L67.1868 108.76ZM70.628 103.835L72.3485 101.373L71.5288 100.8L69.8082 103.262L70.628 103.835ZM74.0691 98.9103L75.7896 96.4479L74.9699 95.8751L73.2494 98.3376L74.0691 98.9103ZM77.5102 93.9854L79.2308 91.523L78.411 90.9502L76.6905 93.4127L77.5102 93.9854ZM80.9513 89.0605L82.6719 86.5981L81.8522 86.0253L80.1316 88.4878L80.9513 89.0605ZM84.3924 84.1356L85.2527 82.9044L84.433 82.3317L83.5727 83.5629L84.3924 84.1356ZM84.8428 83.1181H86.3866V82.1181H84.8428V83.1181ZM89.4741 83.1181H92.5617V82.1181H89.4741V83.1181ZM95.6492 83.1181H98.7368V82.1181H95.6492V83.1181ZM101.824 83.1181H104.912V82.1181H101.824V83.1181ZM107.999 83.1181H111.087V82.1181H107.999V83.1181ZM114.174 83.1181H115.718V82.1181H114.174V83.1181ZM115.218 82.6181V84.1605H116.218V82.6181H115.218ZM115.218 87.2453V90.3301H116.218V87.2453H115.218ZM115.218 93.415V96.4998H116.218V93.415H115.218ZM115.218 99.5846V102.669H116.218V99.5846H115.218ZM115.218 105.754V108.839H116.218V105.754H115.218ZM115.218 111.924V115.009H116.218V111.924H115.218ZM115.218 118.094V121.178H116.218V118.094H115.218ZM115.218 124.263V127.348H116.218V124.263H115.218ZM115.218 130.433V133.518H116.218V130.433H115.218ZM115.218 136.603V139.687H116.218V136.603H115.218ZM115.218 142.772V145.857H116.218V142.772H115.218ZM115.218 148.942V152.027H116.218V148.942H115.218ZM115.218 155.112V158.196H116.218V155.112H115.218ZM115.218 161.281V164.366H116.218V161.281H115.218ZM115.218 167.451V168.993H116.218V167.451H115.218ZM115.718 169.493H117.107V168.493H115.718V169.493ZM119.885 169.493H122.664V168.493H119.885V169.493ZM125.442 169.493H128.22V168.493H125.442V169.493ZM130.998 169.493H132.387V168.493H130.998V169.493ZM131.887 168.993V170.438H132.887V168.993H131.887ZM131.887 173.326V176.215H132.887V173.326H131.887ZM131.887 179.104V181.992H132.887V179.104H131.887ZM131.887 184.881V187.769H132.887V184.881H131.887ZM131.887 190.658V192.102H132.887V190.658H131.887ZM132.387 191.602H130.998V192.602H132.387V191.602ZM128.22 191.602H125.442V192.602H128.22V191.602ZM122.664 191.602H119.885V192.602H122.664V191.602ZM117.107 191.602H115.718V192.602H117.107V191.602ZM115.218 192.102V193.784H116.218V192.102H115.218ZM115.218 197.146V200.508H116.218V197.146H115.218ZM115.218 203.87V207.232H116.218V203.87H115.218ZM115.218 210.595V213.957H116.218V210.595H115.218ZM115.218 217.319V219H116.218V217.319H115.218ZM115.718 218.5H114.061V219.5H115.718V218.5ZM110.746 218.5H107.431V219.5H110.746V218.5ZM104.116 218.5H100.801V219.5H104.116V218.5ZM97.4866 218.5H94.1717V219.5H97.4866V218.5ZM90.8569 218.5H89.1995V219.5H90.8569V218.5ZM89.6995 219V217.319H88.6995V219H89.6995ZM89.6995 213.957V210.595H88.6995V213.957H89.6995ZM89.6995 207.232V203.87H88.6995V207.232H89.6995ZM89.6995 200.508V197.146H88.6995V200.508H89.6995ZM89.6995 193.784V192.102H88.6995V193.784H89.6995ZM89.1995 191.602H87.6927V192.602H89.1995V191.602ZM84.6793 191.602H81.6658V192.602H84.6793V191.602ZM78.6523 191.602H75.6388V192.602H78.6523V191.602ZM72.6253 191.602H69.6118V192.602H72.6253V191.602ZM66.5983 191.602H63.5848V192.602H66.5983V191.602ZM60.5713 191.602H57.5578V192.602H60.5713V191.602ZM54.5444 191.602H51.5309V192.602H54.5444V191.602ZM48.5174 191.602H45.5039V192.602H48.5174V191.602ZM42.4904 191.602H39.4769V192.602H42.4904V191.602ZM36.4634 191.602H33.4499V192.602H36.4634V191.602ZM30.4364 191.602H27.423V192.602H30.4364V191.602ZM24.4095 191.602H22.9027V192.602H24.4095V191.602ZM90.4889 110.753L89.6799 111.96L90.5107 112.517L91.3197 111.309L90.4889 110.753ZM88.0619 114.375L86.444 116.79L87.2748 117.347L88.8927 114.932L88.0619 114.375ZM84.826 119.206L83.2081 121.621L84.0389 122.177L85.6568 119.762L84.826 119.206ZM81.5901 124.036L79.9721 126.451L80.8029 127.007L82.4209 124.592L81.5901 124.036ZM78.3542 128.866L76.7362 131.281L77.567 131.838L79.185 129.422L78.3542 128.866ZM75.1183 133.696L73.5003 136.111L74.3311 136.668L75.9491 134.253L75.1183 133.696ZM71.8824 138.526L70.2644 140.941L71.0952 141.498L72.7132 139.083L71.8824 138.526ZM68.6464 143.356L67.0285 145.772L67.8593 146.328L69.4772 143.913L68.6464 143.356ZM65.4105 148.187L63.7926 150.602L64.6234 151.158L66.2413 148.743L65.4105 148.187ZM62.1746 153.017L60.5567 155.432L61.3875 155.989L63.0054 153.573L62.1746 153.017ZM58.9387 157.847L57.3207 160.262L58.1515 160.819L59.7695 158.404L58.9387 157.847ZM55.7028 162.677L54.0848 165.092L54.9156 165.649L56.5336 163.234L55.7028 162.677ZM52.4669 167.507L51.6579 168.715L52.4887 169.272L53.2977 168.064L52.4669 167.507ZM52.0733 169.493H53.6912V168.493H52.0733V169.493ZM56.9272 169.493H60.1631V168.493H56.9272V169.493ZM63.399 169.493H66.6349V168.493H63.399V169.493ZM69.8708 169.493H73.1067V168.493H69.8708V169.493ZM76.3426 169.493H79.5786V168.493H76.3426V169.493ZM82.8145 169.493H86.0504V168.493H82.8145V169.493ZM89.2863 169.493H90.9043V168.493H89.2863V169.493ZM91.4043 168.993V167.544H90.4043V168.993H91.4043ZM91.4043 164.646V161.748H90.4043V164.646H91.4043ZM91.4043 158.85V155.952H90.4043V158.85H91.4043ZM91.4043 153.054V150.156H90.4043V153.054H91.4043ZM91.4043 147.257V144.359H90.4043V147.257H91.4043ZM91.4043 141.461V138.563H90.4043V141.461H91.4043ZM91.4043 135.665V132.767H90.4043V135.665H91.4043ZM91.4043 129.869V126.971H90.4043V129.869H91.4043ZM91.4043 124.072V121.174H90.4043V124.072H91.4043ZM91.4043 118.276V115.378H90.4043V118.276H91.4043ZM91.4043 112.48V111.031H90.4043V112.48H91.4043Z" fill="#3D6BF5"/>
<path d="M158.783 96.8245L157.942 96.2837L157.938 96.2899L158.783 96.8245ZM237.392 96.8245L236.547 97.3592L236.551 97.3653L237.392 96.8245ZM237.392 199.869L236.549 199.332L236.545 199.338L237.392 199.869ZM158.783 199.869L157.936 200.399L157.94 200.406L158.783 199.869ZM221.292 124.669L220.307 124.843L220.309 124.854L220.311 124.865L221.292 124.669ZM214.094 108.947L213.341 109.606L213.347 109.612L213.353 109.619L214.094 108.947ZM182.082 108.947L181.341 108.276L181.335 108.282L181.329 108.289L182.082 108.947ZM174.884 124.669L173.903 124.477L173.901 124.484L173.9 124.492L174.884 124.669ZM174.884 172.403L173.899 172.573L173.899 172.577L174.884 172.403ZM182.082 188.125L181.341 188.796L181.346 188.802L181.352 188.808L182.082 188.125ZM214.283 188.125L215.013 188.808L215.019 188.802L215.024 188.796L214.283 188.125ZM221.481 172.403L222.466 172.577L222.466 172.573L221.481 172.403ZM148.039 148.157C148.039 126.413 151.938 109.514 159.628 97.3591L157.938 96.2899C149.969 108.886 146.039 126.209 146.039 148.157H148.039ZM159.624 97.3653C167.35 85.3478 180.117 79.2614 198.182 79.2614V77.2614C179.627 77.2614 166.128 83.5504 157.942 96.2837L159.624 97.3653ZM198.182 79.2614C216.248 79.2614 228.948 85.3478 236.547 97.3591L238.237 96.2899C230.178 83.5505 216.738 77.2614 198.182 77.2614V79.2614ZM236.551 97.3653C244.364 109.519 248.326 126.415 248.326 148.157H250.326C250.326 126.206 246.332 108.881 238.233 96.2837L236.551 97.3653ZM248.326 148.157C248.326 170.026 244.364 187.05 236.549 199.332L238.236 200.406C246.332 187.684 250.326 170.234 250.326 148.157H248.326ZM236.545 199.338C228.944 211.475 216.244 217.621 198.182 217.621V219.621C216.742 219.621 230.182 213.266 238.24 200.399L236.545 199.338ZM198.182 217.621C180.121 217.621 167.354 211.475 159.627 199.332L157.94 200.406C166.123 213.266 179.623 219.621 198.182 219.621V217.621ZM159.631 199.338C151.939 187.055 148.039 170.028 148.039 148.157H146.039C146.039 170.232 149.969 187.679 157.936 200.399L159.631 199.338ZM224.186 148.157C224.186 138.773 223.552 130.873 222.272 124.473L220.311 124.865C221.557 131.093 222.186 138.852 222.186 148.157H224.186ZM222.276 124.495C221.114 117.907 218.647 112.482 214.835 108.276L213.353 109.619C216.865 113.495 219.196 118.551 220.307 124.843L222.276 124.495ZM214.846 108.289C211.065 103.967 205.446 101.886 198.182 101.886V103.886C205.063 103.886 210.051 105.846 213.341 109.606L214.846 108.289ZM198.182 101.886C190.917 101.886 185.245 103.968 181.341 108.276L182.823 109.619C186.243 105.845 191.304 103.886 198.182 103.886V101.886ZM181.329 108.289C177.654 112.489 175.192 117.902 173.903 124.477L175.865 124.862C177.102 118.556 179.438 113.488 182.834 109.606L181.329 108.289ZM173.9 124.492C172.749 130.884 172.179 138.777 172.179 148.157H174.179C174.179 138.848 174.746 131.082 175.868 124.846L173.9 124.492ZM172.179 148.157C172.179 157.789 172.749 165.932 173.899 172.573L175.869 172.232C174.746 165.741 174.179 157.72 174.179 148.157H172.179ZM173.899 172.577C175.062 179.165 177.529 184.59 181.341 188.796L182.823 187.453C179.31 183.577 176.979 178.521 175.869 172.229L173.899 172.577ZM181.352 188.808C185.258 192.984 190.927 194.997 198.182 194.997V192.997C191.295 192.997 186.23 191.095 182.812 187.441L181.352 188.808ZM198.182 194.997C205.438 194.997 211.107 192.984 215.013 188.808L213.553 187.441C210.135 191.095 205.07 192.997 198.182 192.997V194.997ZM215.024 188.796C218.836 184.59 221.303 179.165 222.466 172.577L220.496 172.229C219.386 178.521 217.054 183.577 213.542 187.453L215.024 188.796ZM222.466 172.573C223.616 165.932 224.186 157.789 224.186 148.157H222.186C222.186 157.72 221.619 165.741 220.496 172.232L222.466 172.573Z" fill="#00D764"/>
<path d="M267.903 192.102H267.403V192.602H267.903V192.102ZM267.903 171.266L267.493 170.98L267.403 171.109V171.266H267.903ZM329.843 82.6181V82.1181H329.582L329.433 82.3317L329.843 82.6181ZM360.718 82.6181H361.218V82.1181H360.718V82.6181ZM360.718 168.993H360.218V169.493H360.718V168.993ZM377.387 168.993H377.887V168.493H377.387V168.993ZM377.387 192.102V192.602H377.887V192.102H377.387ZM360.718 192.102V191.602H360.218V192.102H360.718ZM360.718 219V219.5H361.218V219H360.718ZM334.199 219H333.699V219.5H334.199V219ZM334.199 192.102H334.699V191.602H334.199V192.102ZM335.904 111.031H336.404V109.386L335.489 110.753L335.904 111.031ZM297.073 168.993L296.658 168.715L296.136 169.493H297.073V168.993ZM335.904 168.993V169.493H336.404V168.993H335.904ZM268.403 192.102V190.366H267.403V192.102H268.403ZM268.403 186.893V183.421H267.403V186.893H268.403ZM268.403 179.948V176.475H267.403V179.948H268.403ZM268.403 173.003V171.266H267.403V173.003H268.403ZM268.313 171.553L269.173 170.321L268.353 169.749L267.493 170.98L268.313 171.553ZM270.893 167.859L272.614 165.397L271.794 164.824L270.074 167.286L270.893 167.859ZM274.335 162.934L276.055 160.472L275.235 159.899L273.515 162.361L274.335 162.934ZM277.776 158.009L279.496 155.547L278.676 154.974L276.956 157.436L277.776 158.009ZM281.217 153.084L282.937 150.622L282.118 150.049L280.397 152.512L281.217 153.084ZM284.658 148.159L286.378 145.697L285.559 145.124L283.838 147.587L284.658 148.159ZM288.099 143.235L289.82 140.772L289 140.199L287.279 142.662L288.099 143.235ZM291.54 138.31L293.261 135.847L292.441 135.274L290.72 137.737L291.54 138.31ZM294.981 133.385L296.702 130.922L295.882 130.349L294.162 132.812L294.981 133.385ZM298.422 128.46L300.143 125.997L299.323 125.425L297.603 127.887L298.422 128.46ZM301.863 123.535L303.584 121.072L302.764 120.5L301.044 122.962L301.863 123.535ZM305.305 118.61L307.025 116.148L306.205 115.575L304.485 118.037L305.305 118.61ZM308.746 113.685L310.466 111.223L309.647 110.65L307.926 113.112L308.746 113.685ZM312.187 108.76L313.907 106.298L313.088 105.725L311.367 108.187L312.187 108.76ZM315.628 103.835L317.349 101.373L316.529 100.8L314.808 103.262L315.628 103.835ZM319.069 98.9103L320.79 96.4479L319.97 95.8751L318.249 98.3376L319.069 98.9103ZM322.51 93.9854L324.231 91.523L323.411 90.9502L321.69 93.4127L322.51 93.9854ZM325.951 89.0605L327.672 86.5981L326.852 86.0253L325.132 88.4878L325.951 89.0605ZM329.392 84.1356L330.253 82.9044L329.433 82.3317L328.573 83.5629L329.392 84.1356ZM329.843 83.1181H331.387V82.1181H329.843V83.1181ZM334.474 83.1181H337.562V82.1181H334.474V83.1181ZM340.649 83.1181H343.737V82.1181H340.649V83.1181ZM346.824 83.1181H349.912V82.1181H346.824V83.1181ZM352.999 83.1181H356.087V82.1181H352.999V83.1181ZM359.174 83.1181H360.718V82.1181H359.174V83.1181ZM360.218 82.6181V84.1605H361.218V82.6181H360.218ZM360.218 87.2453V90.3301H361.218V87.2453H360.218ZM360.218 93.415V96.4998H361.218V93.415H360.218ZM360.218 99.5846V102.669H361.218V99.5846H360.218ZM360.218 105.754V108.839H361.218V105.754H360.218ZM360.218 111.924V115.009H361.218V111.924H360.218ZM360.218 118.094V121.178H361.218V118.094H360.218ZM360.218 124.263V127.348H361.218V124.263H360.218ZM360.218 130.433V133.518H361.218V130.433H360.218ZM360.218 136.603V139.687H361.218V136.603H360.218ZM360.218 142.772V145.857H361.218V142.772H360.218ZM360.218 148.942V152.027H361.218V148.942H360.218ZM360.218 155.112V158.196H361.218V155.112H360.218ZM360.218 161.281V164.366H361.218V161.281H360.218ZM360.218 167.451V168.993H361.218V167.451H360.218ZM360.718 169.493H362.107V168.493H360.718V169.493ZM364.885 169.493H367.664V168.493H364.885V169.493ZM370.442 169.493H373.22V168.493H370.442V169.493ZM375.998 169.493H377.387V168.493H375.998V169.493ZM376.887 168.993V170.438H377.887V168.993H376.887ZM376.887 173.326V176.215H377.887V173.326H376.887ZM376.887 179.104V181.992H377.887V179.104H376.887ZM376.887 184.881V187.769H377.887V184.881H376.887ZM376.887 190.658V192.102H377.887V190.658H376.887ZM377.387 191.602H375.998V192.602H377.387V191.602ZM373.22 191.602H370.442V192.602H373.22V191.602ZM367.664 191.602H364.885V192.602H367.664V191.602ZM362.107 191.602H360.718V192.602H362.107V191.602ZM360.218 192.102V193.784H361.218V192.102H360.218ZM360.218 197.146V200.508H361.218V197.146H360.218ZM360.218 203.87V207.232H361.218V203.87H360.218ZM360.218 210.595V213.957H361.218V210.595H360.218ZM360.218 217.319V219H361.218V217.319H360.218ZM360.718 218.5H359.061V219.5H360.718V218.5ZM355.746 218.5H352.431V219.5H355.746V218.5ZM349.116 218.5H345.801V219.5H349.116V218.5ZM342.487 218.5H339.172V219.5H342.487V218.5ZM335.857 218.5H334.199V219.5H335.857V218.5ZM334.699 219V217.319H333.699V219H334.699ZM334.699 213.957V210.595H333.699V213.957H334.699ZM334.699 207.232V203.87H333.699V207.232H334.699ZM334.699 200.508V197.146H333.699V200.508H334.699ZM334.699 193.784V192.102H333.699V193.784H334.699ZM334.199 191.602H332.693V192.602H334.199V191.602ZM329.679 191.602H326.666V192.602H329.679V191.602ZM323.652 191.602H320.639V192.602H323.652V191.602ZM317.625 191.602H314.612V192.602H317.625V191.602ZM311.598 191.602H308.585V192.602H311.598V191.602ZM305.571 191.602H302.558V192.602H305.571V191.602ZM299.544 191.602H296.531V192.602H299.544V191.602ZM293.517 191.602H290.504V192.602H293.517V191.602ZM287.49 191.602H284.477V192.602H287.49V191.602ZM281.463 191.602H278.45V192.602H281.463V191.602ZM275.436 191.602H272.423V192.602H275.436V191.602ZM269.409 191.602H267.903V192.602H269.409V191.602ZM335.489 110.753L334.68 111.96L335.511 112.517L336.32 111.309L335.489 110.753ZM333.062 114.375L331.444 116.79L332.275 117.347L333.893 114.932L333.062 114.375ZM329.826 119.206L328.208 121.621L329.039 122.177L330.657 119.762L329.826 119.206ZM326.59 124.036L324.972 126.451L325.803 127.007L327.421 124.592L326.59 124.036ZM323.354 128.866L321.736 131.281L322.567 131.838L324.185 129.422L323.354 128.866ZM320.118 133.696L318.5 136.111L319.331 136.668L320.949 134.253L320.118 133.696ZM316.882 138.526L315.264 140.941L316.095 141.498L317.713 139.083L316.882 138.526ZM313.646 143.356L312.028 145.772L312.859 146.328L314.477 143.913L313.646 143.356ZM310.411 148.187L308.793 150.602L309.623 151.158L311.241 148.743L310.411 148.187ZM307.175 153.017L305.557 155.432L306.387 155.989L308.005 153.573L307.175 153.017ZM303.939 157.847L302.321 160.262L303.152 160.819L304.769 158.404L303.939 157.847ZM300.703 162.677L299.085 165.092L299.916 165.649L301.534 163.234L300.703 162.677ZM297.467 167.507L296.658 168.715L297.489 169.272L298.298 168.064L297.467 167.507ZM297.073 169.493H298.691V168.493H297.073V169.493ZM301.927 169.493H305.163V168.493H301.927V169.493ZM308.399 169.493H311.635V168.493H308.399V169.493ZM314.871 169.493H318.107V168.493H314.871V169.493ZM321.343 169.493H324.579V168.493H321.343V169.493ZM327.814 169.493H331.05V168.493H327.814V169.493ZM334.286 169.493H335.904V168.493H334.286V169.493ZM336.404 168.993V167.544H335.404V168.993H336.404ZM336.404 164.646V161.748H335.404V164.646H336.404ZM336.404 158.85V155.952H335.404V158.85H336.404ZM336.404 153.054V150.156H335.404V153.054H336.404ZM336.404 147.257V144.359H335.404V147.257H336.404ZM336.404 141.461V138.563H335.404V141.461H336.404ZM336.404 135.665V132.767H335.404V135.665H336.404ZM336.404 129.869V126.971H335.404V129.869H336.404ZM336.404 124.072V121.174H335.404V124.072H336.404ZM336.404 118.276V115.378H335.404V118.276H336.404ZM336.404 112.48V111.031H335.404V112.48H336.404Z" fill="#FFA561"/>
<path d="M77.2831 208H98.4981V179.208H116.114V160.456H98.4981V71.6181H72.3582L8.71329 162.918V179.208H77.2831V208ZM33.5272 160.456L78.2302 93.5907V160.456H33.5272Z" fill="#269DE4"/>
<path d="M134.007 137.157C134.007 177.314 144.614 207.621 183.256 207.621C221.897 207.621 232.505 177.314 232.505 137.157C232.505 97.7579 221.897 67.4508 183.256 67.4508C144.614 67.4508 134.007 97.7579 134.007 137.157ZM211.29 137.157C211.29 164.244 208.449 187.922 183.256 187.922C158.063 187.922 155.222 164.244 155.222 137.157C155.222 111.396 158.063 87.1504 183.256 87.1504C208.449 87.1504 211.29 111.396 211.29 137.157Z" fill="#51EAB8"/>
<path d="M321.272 208H342.486V179.208H360.102V160.456H342.486V71.6181H316.347L252.702 162.918V179.208H321.272V208ZM277.516 160.456L322.219 93.5907V160.456H277.516Z" fill="#E9A7EE"/>
</svg>
