<svg width="121" height="105" viewBox="0 0 121 105" fill="none" xmlns="http://www.w3.org/2000/svg">
<g clip-path="url(#clip0_545_628)">
<path d="M115.093 50.046C115.379 49.1669 116.623 49.1669 116.909 50.046C117.037 50.4389 117.404 50.705 117.817 50.705C118.741 50.705 119.126 51.8874 118.379 52.4298C118.044 52.6725 117.904 53.1033 118.032 53.4964C118.318 54.3749 117.31 55.1044 116.562 54.5619C116.228 54.3193 115.774 54.3193 115.44 54.5619C114.692 55.1044 113.684 54.3749 113.97 53.4964C114.098 53.1033 113.958 52.6725 113.623 52.4298C112.876 51.8874 113.261 50.705 114.185 50.705C114.598 50.705 114.965 50.4389 115.093 50.046Z" fill="#FBC67A"/>
<path d="M36.417 15.1785L15.2025 36.3607C6.41592 45.134 6.41592 59.3582 15.2025 68.1315L36.417 89.3137C45.2036 98.0869 59.4495 98.0869 68.2361 89.3137L89.4506 68.1315C98.2372 59.3582 98.2372 45.134 89.4506 36.3607L68.2361 15.1785C59.4495 6.40525 45.2036 6.40525 36.417 15.1785Z" stroke="#00D764" stroke-dasharray="3 3"/>
<path d="M39.7865 22.5049L22.64 39.6254C15.6591 46.5956 15.6591 57.8966 22.64 64.8668L39.7865 81.9873C46.7673 88.9575 58.0855 88.9575 65.0664 81.9873L82.2129 64.8668C89.1938 57.8966 89.1938 46.5956 82.2129 39.6254L65.0664 22.5049C58.0855 15.5347 46.7673 15.5347 39.7865 22.5049Z" fill="url(#paint0_linear_545_628)"/>
<path d="M88.2726 86.4298C88.5015 85.7265 89.4967 85.7265 89.7256 86.4298C89.8279 86.7441 90.1213 86.957 90.4518 86.957C91.1908 86.957 91.4994 87.9029 90.9012 88.3368C90.6335 88.531 90.5215 88.8757 90.6239 89.1901C90.8525 89.8929 90.0464 90.4765 89.4482 90.0425C89.1806 89.8484 88.8176 89.8484 88.55 90.0425C87.9518 90.4765 87.1457 89.8929 87.3743 89.1901C87.4767 88.8757 87.3647 88.531 87.097 88.3368C86.4988 87.9029 86.8074 86.957 87.5464 86.957C87.8769 86.957 88.1703 86.7441 88.2726 86.4298Z" fill="#FBC67A"/>
<path d="M8.09273 86.9875C8.37883 86.1083 9.62291 86.1083 9.90901 86.9875C10.0369 87.3803 10.4036 87.6464 10.8168 87.6464C11.7406 87.6464 12.1263 88.8288 11.3785 89.3712C11.0439 89.614 10.9039 90.0448 11.0319 90.4379C11.3177 91.3163 10.3101 92.0458 9.5623 91.5033C9.2278 91.2607 8.77394 91.2607 8.43944 91.5033C7.69169 92.0458 6.68406 91.3163 6.96992 90.4379C7.09784 90.0448 6.95784 89.614 6.62323 89.3712C5.87549 88.8288 6.26122 87.6464 7.18499 87.6464C7.59815 87.6464 7.96488 87.3803 8.09273 86.9875Z" fill="#FBC67A"/>
<path d="M10.0928 14.1007C10.3789 13.2216 11.6229 13.2216 11.909 14.1007C12.0369 14.4936 12.4036 14.7597 12.8168 14.7597C13.7406 14.7597 14.1263 15.9421 13.3785 16.4845C13.0439 16.7272 12.9039 17.158 13.0319 17.5511C13.3177 18.4296 12.3101 19.1591 11.5623 18.6166C11.2278 18.374 10.774 18.374 10.4395 18.6166C9.69168 19.1591 8.68406 18.4296 8.96992 17.5511C9.09784 17.158 8.95784 16.7272 8.62323 16.4845C7.87549 15.9421 8.26122 14.7597 9.18499 14.7597C9.59815 14.7597 9.96488 14.4936 10.0928 14.1007Z" fill="#FBC67A"/>
<path d="M89.0928 3.11642C89.3789 2.23723 90.6229 2.23723 90.909 3.11642C91.0369 3.5093 91.4036 3.77535 91.8168 3.77535C92.7406 3.77535 93.1263 4.95774 92.3785 5.50018C92.0439 5.74292 91.9039 6.17372 92.0319 6.56681C92.3177 7.44525 91.3101 8.17474 90.5623 7.6323C90.2278 7.38964 89.774 7.38964 89.4395 7.6323C88.6917 8.17474 87.6841 7.44525 87.9699 6.56681C88.0979 6.17372 87.9579 5.74292 87.6233 5.50018C86.8755 4.95774 87.2612 3.77535 88.185 3.77535C88.5982 3.77535 88.9649 3.5093 89.0928 3.11642Z" fill="#FBC67A"/>
<path d="M63.9951 43.9159C63.9951 44.5512 63.4779 45.0683 62.8426 45.0683H46.9838C46.3485 45.0683 45.8313 44.5512 45.8313 43.9159C45.8313 43.2805 46.3485 42.7634 46.9838 42.7634H62.8475C63.4829 42.7683 63.9951 43.2805 63.9951 43.9159ZM62.8475 48.4765H46.9838C46.3485 48.4765 45.8313 48.9936 45.8313 49.629C45.8313 50.2643 46.3485 50.7814 46.9838 50.7814H62.8475C63.4829 50.7814 64 50.2643 64 49.629C63.9951 48.9936 63.4829 48.4765 62.8475 48.4765ZM62.8475 54.1896H46.9838C46.3485 54.1896 45.8313 54.7068 45.8313 55.3421C45.8313 55.9774 46.3485 56.4946 46.9838 56.4946H62.8475C63.4829 56.4946 64 55.9774 64 55.3421C63.9951 54.7068 63.4829 54.1896 62.8475 54.1896ZM62.8475 59.9027H46.9838C46.3485 59.9027 45.8313 60.4199 45.8313 61.0552C45.8313 61.6905 46.3485 62.2077 46.9838 62.2077H62.8475C63.4829 62.2077 64 61.6905 64 61.0552C63.9951 60.4199 63.4829 59.9027 62.8475 59.9027ZM41.9159 42C40.857 42 40 42.857 40 43.9159C40 44.9748 40.857 45.8367 41.9159 45.8367C42.9748 45.8367 43.8317 44.9748 43.8317 43.9159C43.8317 42.857 42.9748 42 41.9159 42ZM41.9159 47.7131C40.857 47.7131 40 48.5701 40 49.629C40 50.6879 40.857 51.5448 41.9159 51.5448C42.9748 51.5448 43.8317 50.6879 43.8317 49.629C43.8317 48.5701 42.9748 47.7131 41.9159 47.7131ZM41.9159 53.4262C40.857 53.4262 40 54.2832 40 55.3421C40 56.401 40.857 57.258 41.9159 57.258C42.9748 57.258 43.8317 56.401 43.8317 55.3421C43.8317 54.2832 42.9748 53.4262 41.9159 53.4262ZM41.9159 59.1344C40.857 59.1344 40 59.9914 40 61.0503C40 62.1092 40.857 62.9661 41.9159 62.9661C42.9748 62.9661 43.8317 62.1092 43.8317 61.0503C43.8317 59.9963 42.9748 59.1344 41.9159 59.1344Z" fill="#3E47DD"/>
</g>
<defs>
<linearGradient id="paint0_linear_545_628" x1="31.2132" y1="31.0651" x2="73.5751" y2="73.4915" gradientUnits="userSpaceOnUse">
<stop stop-color="#00D764"/>
<stop offset="1" stop-color="#2698EA"/>
</linearGradient>
<clipPath id="clip0_545_628">
<rect width="121" height="105" fill="white"/>
</clipPath>
</defs>
</svg>
