<svg width="38" height="47" viewBox="0 0 38 47" fill="none" xmlns="http://www.w3.org/2000/svg">
<g clip-path="url(#clip0_1314_9972)">
<path d="M24.2607 3.62956C19.2938 1.4856 22.9631 6.38003 24.2144 7.98023C26.6955 11.154 27.2637 14.7967 26.6526 18.1041C26.0865 21.2051 24.1488 23.8791 21.7081 26.0058C20.8413 26.7612 12.0116 30.831 11.937 30.3903C11.7667 29.4045 15.0784 26.3591 15.6072 25.4664C16.4601 24.0273 18.2546 20.0489 15.2668 18.6115C12.8928 17.4651 11.8706 19.5263 11.0783 20.7484C9.49068 23.1738 7.53564 25.2234 5.7592 27.5239C4.53833 29.0996 1.96771 30.6837 1.9376 32.7474C1.89635 35.067 3.82127 35.0811 5.96873 35.73C8.39244 36.4547 10.374 37.2579 12.4728 38.633C13.6924 39.4375 14.9675 40.3181 16.0336 41.2736C17.0751 42.2097 17.8098 43.8563 18.7963 44.6384C20.621 46.0863 21.7407 45.6139 21.4524 43.2911C21.1316 40.711 18.2099 38.2768 16.1113 36.4412C13.3606 34.02 15.8715 34.7215 18.5377 34.1432C21.7987 33.4394 24.4099 32.2726 26.7772 30.4183C33.97 24.747 37.7476 9.45119 24.2607 3.62956Z" fill="#FFA561"/>
</g>
<defs>
<clipPath id="clip0_1314_9972">
<rect width="40" height="24" fill="white" transform="matrix(-0.396305 0.918119 0.918119 0.396305 15.8522 0)"/>
</clipPath>
</defs>
</svg>
