<svg width="718" height="744" viewBox="0 0 718 744" fill="none" xmlns="http://www.w3.org/2000/svg">
<circle cx="314" cy="733" r="11" fill="url(#paint0_linear_1504_19654)"/>
<path fill-rule="evenodd" clip-rule="evenodd" d="M246.286 523.447C279.308 556.745 279.308 610.73 246.286 644.027C213.265 677.324 159.726 677.324 126.704 644.027L24.7657 541.239C-8.25604 507.942 -8.25598 453.956 24.7658 420.659C57.7875 387.362 111.326 387.362 144.348 420.659L246.286 523.447ZM663.195 390.121C696.217 423.418 696.217 477.404 663.195 510.701C630.173 543.998 576.634 543.998 543.613 510.701L441.674 407.913C408.653 374.615 408.653 320.63 441.674 287.333C474.696 254.036 528.235 254.036 561.257 287.333L663.195 390.121ZM519.929 643.776C552.951 610.479 552.951 556.494 519.929 523.196L284.668 285.973C251.646 252.676 198.107 252.676 165.085 285.973C132.063 319.27 132.063 373.255 165.085 406.553L400.347 643.776C433.368 677.073 486.907 677.073 519.929 643.776Z" fill="url(#paint1_linear_1504_19654)"/>
<path fill-rule="evenodd" clip-rule="evenodd" d="M246.286 523.447C279.308 556.745 279.308 610.73 246.286 644.027C213.265 677.324 159.726 677.324 126.704 644.027L24.7657 541.239C-8.25604 507.942 -8.25598 453.956 24.7658 420.659C57.7875 387.362 111.326 387.362 144.348 420.659L246.286 523.447ZM663.195 390.121C696.217 423.418 696.217 477.404 663.195 510.701C630.173 543.998 576.634 543.998 543.613 510.701L441.674 407.913C408.653 374.615 408.653 320.63 441.674 287.333C474.696 254.036 528.235 254.036 561.257 287.333L663.195 390.121ZM519.929 643.776C552.951 610.479 552.951 556.494 519.929 523.196L284.668 285.973C251.646 252.676 198.107 252.676 165.085 285.973C132.063 319.27 132.063 373.255 165.085 406.553L400.347 643.776C433.368 677.073 486.907 677.073 519.929 643.776Z" fill="url(#paint2_linear_1504_19654)"/>
<g clip-path="url(#clip0_1504_19654)">
<g filter="url(#filter0_d_1504_19654)">
<rect x="98" y="117" width="496" height="380" rx="21.9458" fill="url(#paint3_linear_1504_19654)"/>
</g>
<rect x="100" y="119" width="492" height="376" rx="19.9507" fill="#2F3142"/>
<circle opacity="0.2" cx="105.5" cy="318.5" r="3.61084" fill="#15141E" stroke="#444444" stroke-width="0.221675"/>
<circle opacity="0.2" cx="105.5" cy="282.5" r="3.61084" fill="#15141E" stroke="#444444" stroke-width="0.221675"/>
<circle opacity="0.2" cx="105" cy="330" r="2.11084" fill="#15141E" stroke="#444444" stroke-width="0.221675"/>
<circle opacity="0.2" cx="106" cy="295" r="1.11084" fill="#15141E" stroke="#444444" stroke-width="0.221675"/>
<g opacity="0.5">
<circle opacity="0.2" cx="106" cy="306" r="2" fill="#D5D5D5"/>
<circle cx="105.5" cy="305.5" r="1.5" fill="#070707"/>
<circle cx="105.5" cy="306.5" r="1.38916" stroke="url(#paint4_radial_1504_19654)" stroke-width="0.221675"/>
<circle cx="105.5" cy="306.5" r="1.38916" stroke="url(#paint5_linear_1504_19654)" stroke-width="0.221675"/>
<g opacity="0.5">
<circle cx="105" cy="306" r="1" fill="url(#paint6_linear_1504_19654)"/>
<circle cx="105" cy="306" r="1" fill="url(#paint7_linear_1504_19654)"/>
</g>
<circle cx="105.5" cy="306.5" r="0.5" fill="#0C0B0B"/>
</g>
<rect x="113.778" y="132.778" width="464.443" height="348.443" rx="6.87192" fill="#252836" stroke="#2F3142" stroke-width="0.44335"/>
</g>
<g filter="url(#filter1_d_1504_19654)">
<rect x="58" y="369" width="207" height="255.827" rx="12" fill="#2F3142"/>
</g>
<g filter="url(#filter2_d_1504_19654)">
<ellipse cx="160.995" cy="623.82" rx="25.2439" ry="25.1799" fill="#FFA561"/>
</g>
<path d="M156.956 623.82L159.985 626.842" stroke="#F3F4F8" stroke-width="1.5" stroke-linecap="round" stroke-linejoin="round"/>
<path d="M165.034 621.806L159.985 626.842" stroke="#F3F4F8" stroke-width="1.5" stroke-linecap="round" stroke-linejoin="round"/>
<path d="M167.054 631.878H154.937C153.821 631.878 152.917 630.976 152.917 629.863V617.777C152.917 616.664 153.821 615.763 154.937 615.763H167.054C168.169 615.763 169.073 616.664 169.073 617.777V629.863C169.073 630.976 168.169 631.878 167.054 631.878Z" stroke="#F3F4F8" stroke-width="1.5" stroke-linecap="round" stroke-linejoin="round"/>
<path d="M116.255 542.961H114.212V549.216H116.255C118.262 549.216 119.576 548.037 119.576 546.111C119.576 544.176 118.262 542.961 116.255 542.961ZM115.238 548.379V543.798H116.255C117.731 543.798 118.523 544.68 118.523 546.111C118.523 547.533 117.731 548.379 116.255 548.379H115.238ZM121.618 546.606C121.618 545.553 122.086 545.238 122.842 545.238H123.103V544.176C122.401 544.176 121.906 544.482 121.618 544.977V544.257H120.592V549.216H121.618V546.606ZM123.705 546.714C123.705 548.244 124.74 549.297 126.027 549.297C126.855 549.297 127.449 548.901 127.764 548.478V549.216H128.799V544.257H127.764V544.977C127.458 544.572 126.882 544.176 126.045 544.176C124.74 544.176 123.705 545.184 123.705 546.714ZM127.764 546.732C127.764 547.803 127.035 548.406 126.261 548.406C125.496 548.406 124.758 547.785 124.758 546.714C124.758 545.643 125.496 545.067 126.261 545.067C127.035 545.067 127.764 545.67 127.764 546.732ZM129.804 546.714C129.804 548.244 130.839 549.297 132.144 549.297C132.954 549.297 133.548 548.892 133.863 548.469V549.297C133.863 550.287 133.269 550.773 132.477 550.773C131.766 550.773 131.217 550.422 131.064 549.909H130.047C130.173 551.007 131.154 551.664 132.477 551.664C134.025 551.664 134.898 550.647 134.898 549.297V544.257H133.863V544.977C133.557 544.554 132.954 544.176 132.144 544.176C130.839 544.176 129.804 545.184 129.804 546.714ZM133.863 546.732C133.863 547.803 133.134 548.406 132.36 548.406C131.595 548.406 130.857 547.785 130.857 546.714C130.857 545.643 131.595 545.067 132.36 545.067C133.134 545.067 133.863 545.67 133.863 546.732ZM142.562 544.356C142.625 543.501 142.04 542.817 140.951 542.817C139.88 542.817 139.214 543.438 139.214 544.257C139.214 544.698 139.34 545.031 139.691 545.454C138.701 545.859 138.224 546.57 138.224 547.416C138.224 548.586 139.124 549.333 140.474 549.333C141.347 549.333 142.04 549.045 142.643 548.442L143.417 549.216H144.758L143.237 547.704C143.309 547.587 143.39 547.461 143.462 547.335L144.272 545.949H143.165L142.526 547.002L140.87 545.355C140.429 544.878 140.24 544.599 140.24 544.257C140.24 543.924 140.501 543.654 140.906 543.654C141.293 543.654 141.554 543.897 141.536 544.356H142.562ZM140.474 548.46C139.736 548.46 139.25 547.983 139.25 547.38C139.25 546.822 139.583 546.39 140.312 546.102L141.968 547.767C141.536 548.226 141.059 548.46 140.474 548.46ZM147.426 546.714C147.426 548.244 148.461 549.297 149.766 549.297C150.576 549.297 151.17 548.919 151.485 548.469V549.216H152.52V542.556H151.485V544.95C151.107 544.482 150.423 544.176 149.775 544.176C148.461 544.176 147.426 545.184 147.426 546.714ZM151.485 546.732C151.485 547.803 150.756 548.406 149.982 548.406C149.217 548.406 148.479 547.785 148.479 546.714C148.479 545.643 149.217 545.067 149.982 545.067C150.756 545.067 151.485 545.67 151.485 546.732ZM154.894 546.606C154.894 545.553 155.362 545.238 156.118 545.238H156.379V544.176C155.677 544.176 155.182 544.482 154.894 544.977V544.257H153.868V549.216H154.894V546.606ZM162.047 546.732C162.047 545.175 160.931 544.176 159.518 544.176C158.105 544.176 156.989 545.175 156.989 546.732C156.989 548.289 158.06 549.297 159.473 549.297C160.895 549.297 162.047 548.289 162.047 546.732ZM158.033 546.732C158.033 545.607 158.726 545.067 159.5 545.067C160.265 545.067 160.994 545.607 160.994 546.732C160.994 547.857 160.238 548.406 159.473 548.406C158.699 548.406 158.033 547.857 158.033 546.732ZM164.087 544.986V544.257H163.061V551.574H164.087V548.496C164.411 548.883 164.996 549.297 165.815 549.297C167.12 549.297 168.146 548.244 168.146 546.714C168.146 545.184 167.12 544.176 165.815 544.176C165.005 544.176 164.402 544.572 164.087 544.986ZM167.102 546.714C167.102 547.785 166.364 548.406 165.59 548.406C164.825 548.406 164.087 547.803 164.087 546.732C164.087 545.67 164.825 545.067 165.59 545.067C166.364 545.067 167.102 545.643 167.102 546.714ZM173.452 548.037L172.057 544.257H170.914L172.867 549.135L171.859 551.547H172.921L175.963 544.257H174.901L173.452 548.037ZM181.462 546.732C181.462 545.175 180.346 544.176 178.933 544.176C177.52 544.176 176.404 545.175 176.404 546.732C176.404 548.289 177.475 549.297 178.888 549.297C180.31 549.297 181.462 548.289 181.462 546.732ZM177.448 546.732C177.448 545.607 178.141 545.067 178.915 545.067C179.68 545.067 180.409 545.607 180.409 546.732C180.409 547.857 179.653 548.406 178.888 548.406C178.114 548.406 177.448 547.857 177.448 546.732ZM186.967 544.257H185.941V547.02C185.941 547.929 185.446 548.397 184.69 548.397C183.943 548.397 183.448 547.929 183.448 547.02V544.257H182.431V547.173C182.431 548.559 183.313 549.288 184.474 549.288C185.059 549.288 185.617 549.045 185.941 548.622V549.216H186.967V544.257ZM189.347 546.606C189.347 545.553 189.815 545.238 190.571 545.238H190.832V544.176C190.13 544.176 189.635 544.482 189.347 544.977V544.257H188.321V549.216H189.347V546.606ZM194.239 549.216H195.274V545.094H196.192V544.257H195.274V543.906C195.274 543.339 195.49 543.123 196.12 543.123V542.268C194.824 542.268 194.239 542.763 194.239 543.906V544.257H193.654V545.094H194.239V549.216ZM197.101 549.216H198.127V544.257H197.101V549.216ZM197.623 543.6C197.983 543.6 198.271 543.312 198.271 542.943C198.271 542.574 197.983 542.286 197.623 542.286C197.254 542.286 196.966 542.574 196.966 542.943C196.966 543.312 197.254 543.6 197.623 543.6ZM199.474 549.216H200.5V542.556H199.474V549.216ZM203.935 545.04C204.7 545.04 205.303 545.526 205.321 546.291H202.576C202.684 545.508 203.242 545.04 203.935 545.04ZM206.257 547.74H205.15C204.961 548.127 204.61 548.433 203.98 548.433C203.224 548.433 202.639 547.938 202.567 547.119H206.356C206.383 546.948 206.392 546.786 206.392 546.615C206.392 545.157 205.393 544.176 203.98 544.176C202.513 544.176 201.505 545.175 201.505 546.732C201.505 548.289 202.558 549.297 203.98 549.297C205.195 549.297 205.978 548.604 206.257 547.74Z" fill="#B1B1B5"/>
<rect x="81.7344" y="486.342" width="158.522" height="90.6403" rx="4.5" stroke="#FBC67A" stroke-dasharray="2 2"/>
<path d="M170.083 516.05H151.907" stroke="#FFA561" stroke-width="1.5" stroke-linecap="round" stroke-linejoin="round"/>
<path d="M168.063 511.961H161.529C161.195 511.961 160.882 511.796 160.694 511.52L159.275 509.44C159.088 509.165 158.776 509 158.441 509H153.927C152.811 509 151.907 509.901 151.907 511.014V523.101C151.907 524.214 152.811 525.115 153.927 525.115H168.063C169.179 525.115 170.083 524.214 170.083 523.101V513.976C170.083 512.864 169.179 511.961 168.063 511.961V511.961Z" stroke="#FFA561" stroke-width="1.5" stroke-linecap="round" stroke-linejoin="round"/>
<path d="M112.011 443.544V448.724L108.581 443.544H107.441V450.504H108.581V445.314L112.011 450.504H113.151V443.544H112.011ZM119.898 447.744C119.898 446.014 118.658 444.904 117.088 444.904C115.518 444.904 114.278 446.014 114.278 447.744C114.278 449.474 115.468 450.594 117.038 450.594C118.618 450.594 119.898 449.474 119.898 447.744ZM115.438 447.744C115.438 446.494 116.208 445.894 117.068 445.894C117.918 445.894 118.728 446.494 118.728 447.744C118.728 448.994 117.888 449.604 117.038 449.604C116.178 449.604 115.438 448.994 115.438 447.744ZM123.623 450.504H124.763V443.104H123.623V450.504ZM125.879 447.724C125.879 449.424 127.029 450.594 128.459 450.594C129.379 450.594 130.039 450.154 130.389 449.684V450.504H131.539V444.994H130.389V445.794C130.049 445.344 129.409 444.904 128.479 444.904C127.029 444.904 125.879 446.024 125.879 447.724ZM130.389 447.744C130.389 448.934 129.579 449.604 128.719 449.604C127.869 449.604 127.049 448.914 127.049 447.724C127.049 446.534 127.869 445.894 128.719 445.894C129.579 445.894 130.389 446.564 130.389 447.744ZM134.177 447.604C134.177 446.434 134.697 446.084 135.537 446.084H135.827V444.904C135.047 444.904 134.497 445.244 134.177 445.794V444.994H133.037V450.504H134.177V447.604ZM136.495 447.724C136.495 449.424 137.645 450.594 139.095 450.594C139.995 450.594 140.655 450.144 141.005 449.674V450.594C141.005 451.694 140.345 452.234 139.465 452.234C138.675 452.234 138.065 451.844 137.895 451.274H136.765C136.905 452.494 137.995 453.224 139.465 453.224C141.185 453.224 142.155 452.094 142.155 450.594V444.994H141.005V445.794C140.665 445.324 139.995 444.904 139.095 444.904C137.645 444.904 136.495 446.024 136.495 447.724ZM141.005 447.744C141.005 448.934 140.195 449.604 139.335 449.604C138.485 449.604 137.665 448.914 137.665 447.724C137.665 446.534 138.485 445.894 139.335 445.894C140.195 445.894 141.005 446.564 141.005 447.744ZM145.972 445.864C146.822 445.864 147.492 446.404 147.512 447.254H144.462C144.582 446.384 145.202 445.864 145.972 445.864ZM148.552 448.864H147.322C147.112 449.294 146.722 449.634 146.022 449.634C145.182 449.634 144.532 449.084 144.452 448.174H148.662C148.692 447.984 148.702 447.804 148.702 447.614C148.702 445.994 147.592 444.904 146.022 444.904C144.392 444.904 143.272 446.014 143.272 447.744C143.272 449.474 144.442 450.594 146.022 450.594C147.372 450.594 148.242 449.824 148.552 448.864ZM150.964 447.604C150.964 446.434 151.484 446.084 152.324 446.084H152.614V444.904C151.834 444.904 151.284 445.244 150.964 445.794V444.994H149.824V450.504H150.964V447.604ZM156.439 448.974C156.439 450.094 157.049 450.504 158.029 450.504H158.929V449.554H158.229C157.749 449.554 157.589 449.384 157.589 448.974V445.924H158.929V444.994H157.589V443.624H156.439V444.994H155.789V445.924H156.439V448.974ZM159.98 450.504H161.12V447.424C161.12 446.414 161.67 445.894 162.51 445.894C163.34 445.894 163.89 446.414 163.89 447.424V450.504H165.02V447.254C165.02 445.714 164.06 444.904 162.83 444.904C162.12 444.904 161.5 445.174 161.12 445.634V443.104H159.98V450.504ZM166.094 447.724C166.094 449.424 167.244 450.594 168.674 450.594C169.594 450.594 170.254 450.154 170.604 449.684V450.504H171.754V444.994H170.604V445.794C170.264 445.344 169.624 444.904 168.694 444.904C167.244 444.904 166.094 446.024 166.094 447.724ZM170.604 447.744C170.604 448.934 169.794 449.604 168.934 449.604C168.084 449.604 167.264 448.914 167.264 447.724C167.264 446.534 168.084 445.894 168.934 445.894C169.794 445.894 170.604 446.564 170.604 447.744ZM177.161 450.504H178.291V447.254C178.291 445.714 177.321 444.904 176.031 444.904C175.371 444.904 174.761 445.174 174.391 445.624V444.994H173.251V450.504H174.391V447.424C174.391 446.414 174.941 445.894 175.781 445.894C176.611 445.894 177.161 446.414 177.161 447.424V450.504ZM182.173 445.014H183.283C183.353 444.504 183.723 444.024 184.523 444.024C185.303 444.024 185.713 444.444 185.713 445.074C185.713 445.854 185.083 446.154 184.053 446.164H183.783V447.104H184.043C185.233 447.104 185.853 447.434 185.853 448.394C185.853 449.074 185.433 449.594 184.583 449.594C183.723 449.594 183.223 449.074 183.173 448.394H182.073C182.143 449.824 183.213 450.544 184.593 450.544C186.113 450.544 186.933 449.664 186.933 448.504C186.933 447.494 186.443 446.864 185.683 446.634V446.594C186.253 446.404 186.803 445.814 186.803 444.944C186.803 443.884 186.013 443.044 184.563 443.044C183.233 443.044 182.253 443.754 182.173 445.014ZM190.878 450.504H192.018V445.744L194.148 450.504H194.938L197.058 445.744V450.504H198.198V443.554H196.978L194.548 449.004L192.108 443.554H190.878V450.504ZM203.617 448.514C203.617 449.184 203.147 449.574 202.377 449.574H200.837V447.404H202.337C203.097 447.404 203.617 447.824 203.617 448.514ZM203.437 445.484C203.437 446.124 202.987 446.474 202.247 446.474H200.837V444.484H202.247C202.987 444.484 203.437 444.854 203.437 445.484ZM204.757 448.634C204.757 447.804 204.157 447.064 203.417 446.934C204.087 446.694 204.597 446.184 204.597 445.344C204.597 444.364 203.817 443.554 202.347 443.554H199.697V450.504H202.477C203.897 450.504 204.757 449.694 204.757 448.634Z" fill="#B1B1B5"/>
<path d="M105.228 422.701C105.228 425.887 107.46 427.399 110.088 427.399C112.698 427.399 115.002 425.887 115.002 422.701V414.763H112.95V422.737C112.95 424.681 111.852 425.599 110.106 425.599C108.378 425.599 107.28 424.681 107.28 422.737V414.763H105.228V422.701ZM119.726 418.813V417.355H117.674V431.989H119.726V425.833C120.374 426.607 121.544 427.435 123.182 427.435C125.792 427.435 127.844 425.329 127.844 422.269C127.844 419.209 125.792 417.193 123.182 417.193C121.562 417.193 120.356 417.985 119.726 418.813ZM125.756 422.269C125.756 424.411 124.28 425.653 122.732 425.653C121.202 425.653 119.726 424.447 119.726 422.305C119.726 420.181 121.202 418.975 122.732 418.975C124.28 418.975 125.756 420.127 125.756 422.269ZM129.873 427.273H131.925V413.953H129.873V427.273ZM144.069 422.305C144.069 419.191 141.837 417.193 139.011 417.193C136.185 417.193 133.953 419.191 133.953 422.305C133.953 425.419 136.095 427.435 138.921 427.435C141.765 427.435 144.069 425.419 144.069 422.305ZM136.041 422.305C136.041 420.055 137.427 418.975 138.975 418.975C140.505 418.975 141.963 420.055 141.963 422.305C141.963 424.555 140.451 425.653 138.921 425.653C137.373 425.653 136.041 424.555 136.041 422.305ZM145.414 422.269C145.414 425.329 147.484 427.435 150.058 427.435C151.714 427.435 152.902 426.643 153.532 425.797V427.273H155.602V417.355H153.532V418.795C152.92 417.985 151.768 417.193 150.094 417.193C147.484 417.193 145.414 419.209 145.414 422.269ZM153.532 422.305C153.532 424.447 152.074 425.653 150.526 425.653C148.996 425.653 147.52 424.411 147.52 422.269C147.52 420.127 148.996 418.975 150.526 418.975C152.074 418.975 153.532 420.181 153.532 422.305ZM157.613 422.269C157.613 425.329 159.683 427.435 162.293 427.435C163.913 427.435 165.101 426.679 165.731 425.779V427.273H167.801V413.953H165.731V418.741C164.975 417.805 163.607 417.193 162.311 417.193C159.683 417.193 157.613 419.209 157.613 422.269ZM165.731 422.305C165.731 424.447 164.273 425.653 162.725 425.653C161.195 425.653 159.719 424.411 159.719 422.269C159.719 420.127 161.195 418.975 162.725 418.975C164.273 418.975 165.731 420.181 165.731 422.305ZM175.424 427.273H177.494V419.029H179.33V417.355H177.494V416.653C177.494 415.519 177.926 415.087 179.186 415.087V413.377C176.594 413.377 175.424 414.367 175.424 416.653V417.355H174.254V419.029H175.424V427.273ZM181.149 427.273H183.201V417.355H181.149V427.273ZM182.193 416.041C182.913 416.041 183.489 415.465 183.489 414.727C183.489 413.989 182.913 413.413 182.193 413.413C181.455 413.413 180.879 413.989 180.879 414.727C180.879 415.465 181.455 416.041 182.193 416.041ZM185.895 427.273H187.947V413.953H185.895V427.273ZM194.817 418.921C196.347 418.921 197.553 419.893 197.589 421.423H192.099C192.315 419.857 193.431 418.921 194.817 418.921ZM199.461 424.321H197.247C196.869 425.095 196.167 425.707 194.907 425.707C193.395 425.707 192.225 424.717 192.081 423.079H199.659C199.713 422.737 199.731 422.413 199.731 422.071C199.731 419.155 197.733 417.193 194.907 417.193C191.973 417.193 189.957 419.191 189.957 422.305C189.957 425.419 192.063 427.435 194.907 427.435C197.337 427.435 198.903 426.049 199.461 424.321ZM209.148 424.501C209.04 420.919 203.442 422.035 203.442 420.037C203.442 419.371 204.018 418.921 205.116 418.921C206.232 418.921 206.898 419.515 206.97 420.379H209.022C208.914 418.399 207.438 417.193 205.188 417.193C202.848 417.193 201.372 418.471 201.372 420.055C201.372 423.691 207.132 422.575 207.132 424.519C207.132 425.203 206.502 425.707 205.314 425.707C204.18 425.707 203.406 425.041 203.334 424.231H201.21C201.3 426.031 202.974 427.435 205.35 427.435C207.69 427.435 209.148 426.175 209.148 424.501Z" fill="#F3F4F8"/>
<g filter="url(#filter3_d_1504_19654)">
<rect x="447" y="691.415" width="288" height="243" rx="12" transform="rotate(-120 447 691.415)" fill="#2F3142"/>
</g>
<rect x="427.646" y="601.428" width="175.444" height="18.1259" rx="9.06294" transform="rotate(-30 427.646 601.428)" fill="#252836"/>
<rect x="427.646" y="601.428" width="69.5726" height="18.1259" rx="9.06294" transform="rotate(-30 427.646 601.428)" fill="url(#paint8_linear_1504_19654)"/>
<path d="M408.365 556.658L409.404 556.058L403.767 551.275L402.624 551.935L403.948 559.208L404.978 558.613L404.701 557.133L407.222 555.678L408.365 556.658ZM406.479 555.033L404.514 556.168L403.886 552.801L406.479 555.033ZM413.728 553.562L414.706 552.997L413.081 550.182C412.311 548.848 411.066 548.632 409.949 549.277C409.377 549.607 408.984 550.146 408.889 550.72L408.574 550.175L407.586 550.745L410.341 555.517L411.329 554.947L409.789 552.279C409.284 551.405 409.5 550.679 410.227 550.259C410.946 549.844 411.683 550.02 412.188 550.894L413.728 553.562ZM414.246 550.052C415.096 551.524 416.677 551.963 417.933 551.238C418.713 550.788 419.074 550.094 419.127 549.486L419.542 550.205L420.538 549.63L416.838 543.221L415.842 543.796L417.172 546.1C416.548 545.859 415.72 545.945 415.097 546.305C413.832 547.035 413.396 548.58 414.246 550.052ZM418.162 547.814C418.757 548.845 418.391 549.83 417.646 550.26C416.91 550.685 415.855 550.498 415.26 549.467C414.665 548.436 415.055 547.472 415.791 547.047C416.536 546.617 417.572 546.792 418.162 547.814ZM421.372 545.799C420.787 544.786 421.062 544.223 421.79 543.803L422.041 543.658L421.451 542.636C420.776 543.026 420.469 543.596 420.467 544.232L420.067 543.539L419.08 544.109L421.835 548.881L422.822 548.311L421.372 545.799ZM424.848 541.784C425.584 541.359 426.434 541.491 426.876 542.217L424.235 543.742C423.904 542.929 424.181 542.169 424.848 541.784ZM428.582 543.092L427.517 543.707C427.55 544.184 427.382 544.674 426.776 545.024C426.049 545.444 425.211 545.292 424.686 544.544L428.332 542.439C428.263 542.26 428.182 542.099 428.087 541.934C427.277 540.531 425.771 540.142 424.411 540.927C422.999 541.742 422.585 543.263 423.45 544.762C424.315 546.26 425.888 546.645 427.256 545.855C428.425 545.18 428.794 544.078 428.582 543.092ZM431.43 543.341L432.469 542.741L431.396 538.661L434.392 541.631L435.431 541.031L434.157 535.404L433.187 535.964L434.405 540.353L431.23 537.094L430.199 537.689L431.401 542.111L428.19 538.849L427.186 539.429L431.43 543.341Z" fill="#F3F4F8"/>
<path d="M416.415 564.295C415.944 563.671 415.092 563.331 414.108 563.899C412.847 564.627 412.873 565.887 413.785 567.467C414.713 569.074 415.69 569.887 417.159 569.039C418.239 568.415 418.395 567.355 417.843 566.399C417.235 565.346 416.238 565.108 415.331 565.632C414.804 565.936 414.433 566.446 414.424 567.006C413.681 565.67 413.768 564.973 414.481 564.561C414.98 564.273 415.355 564.362 415.688 564.715L416.415 564.295ZM415.541 566.397C416.207 566.013 416.759 566.267 417.107 566.87C417.451 567.465 417.319 568.068 416.737 568.404C416.065 568.792 415.458 568.589 415.098 567.965C414.71 567.293 415.022 566.697 415.541 566.397ZM421.658 566.441L422.454 565.981L420.622 562.808L421.329 562.4L420.957 561.756L420.25 562.164L420.094 561.893C419.842 561.457 419.913 561.195 420.398 560.915L420.018 560.256C419.02 560.832 418.79 561.474 419.298 562.353L419.454 562.624L419.003 562.884L419.375 563.528L419.826 563.268L421.658 566.441ZM423.861 565.169L424.651 564.713L422.447 560.895L421.657 561.351L423.861 565.169ZM421.767 560.614C422.044 560.454 422.138 560.104 421.974 559.82C421.81 559.536 421.46 559.442 421.183 559.602C420.899 559.766 420.805 560.116 420.969 560.4C421.133 560.684 421.483 560.778 421.767 560.614ZM425.688 564.114L426.478 563.658L423.518 558.531L422.728 558.987L425.688 564.114ZM427.266 558.917C427.855 558.577 428.535 558.683 428.889 559.264L426.776 560.484C426.511 559.833 426.732 559.225 427.266 558.917ZM430.253 559.963L429.401 560.455C429.428 560.837 429.294 561.229 428.809 561.509C428.227 561.845 427.556 561.724 427.137 561.125L430.054 559.441C429.998 559.298 429.933 559.169 429.857 559.037C429.209 557.915 428.004 557.604 426.917 558.232C425.787 558.884 425.455 560.101 426.147 561.299C426.839 562.498 428.098 562.806 429.193 562.174C430.128 561.634 430.423 560.752 430.253 559.963ZM434.022 557.88C433.184 556.525 431.278 558.199 430.834 557.43C430.686 557.173 430.808 556.872 431.23 556.628C431.66 556.38 432.048 556.461 432.268 556.777L433.058 556.321C432.576 555.583 431.74 555.447 430.874 555.947C429.973 556.467 429.689 557.287 430.041 557.897C430.849 559.296 432.818 557.587 433.25 558.335C433.402 558.598 433.272 558.932 432.814 559.196C432.378 559.448 431.932 559.364 431.724 559.068L430.907 559.54C431.341 560.213 432.298 560.381 433.212 559.853C434.113 559.333 434.394 558.524 434.022 557.88Z" fill="#B1B1B5"/>
<path d="M469.976 531.792L471.66 534.708L472.408 534.276C472.324 533.826 472.487 533.39 472.952 533.122C473.61 532.742 474.151 532.928 474.531 533.586C474.891 534.21 474.855 534.85 474.176 535.242C473.642 535.55 473.122 535.481 472.77 535.111L472.001 535.555C472.575 536.277 473.509 536.504 474.549 535.904C475.72 535.228 475.855 534.134 475.275 533.13C474.835 532.367 473.921 531.666 472.681 532.382C472.231 532.642 471.942 533.086 471.899 533.443L471.103 532.065L473.424 530.725L473.024 530.032L469.976 531.792ZM477.774 533.432C477.61 533.148 477.26 533.055 476.983 533.215C476.699 533.379 476.606 533.728 476.77 534.012C476.934 534.296 477.283 534.39 477.567 534.226C477.844 534.066 477.938 533.716 477.774 533.432ZM478.116 530.325C477.718 530.804 477.639 531.45 477.991 532.06C478.523 532.982 479.615 533.145 480.654 532.545C481.7 531.941 482.105 530.914 481.573 529.992C481.225 529.389 480.625 529.135 480.001 529.237C480.293 528.8 480.377 528.225 480.065 527.685C479.645 526.957 478.73 526.636 477.614 527.28C476.499 527.924 476.316 528.87 476.74 529.605C477.064 530.166 477.563 530.358 478.116 530.325ZM478.914 529.532C478.388 529.836 477.826 529.726 477.562 529.269C477.254 528.735 477.454 528.25 477.994 527.938C478.549 527.618 479.066 527.698 479.366 528.218C479.63 528.675 479.441 529.228 478.914 529.532ZM479.258 530.127C479.854 529.783 480.453 529.844 480.781 530.412C481.073 530.918 480.912 531.519 480.274 531.887C479.63 532.259 479.026 532.109 478.73 531.596C478.39 531.008 478.676 530.463 479.258 530.127ZM485.11 529.807L485.899 529.351L483.995 526.053L487.375 528.499L487.922 528.183L487.487 524.037L489.391 527.335L490.181 526.879L487.401 522.064L486.556 522.552L487.052 527.3L483.182 524.5L482.33 524.992L485.11 529.807ZM493.139 523.333C493.407 523.797 493.237 524.255 492.704 524.563L491.637 525.179L490.769 523.676L491.808 523.076C492.335 522.772 492.863 522.855 493.139 523.333ZM491.802 521.306C492.058 521.749 491.887 522.171 491.374 522.467L490.397 523.031L489.601 521.653L490.578 521.089C491.091 520.793 491.55 520.869 491.802 521.306ZM493.977 522.96C493.645 522.385 492.933 522.112 492.368 522.318C492.737 521.884 492.886 521.327 492.55 520.745C492.158 520.066 491.294 519.816 490.275 520.404L488.439 521.464L491.219 526.28L493.145 525.168C494.129 524.6 494.401 523.694 493.977 522.96ZM496.046 524.907L496.725 524.515L494.457 516.78L493.772 517.175L496.046 524.907ZM500.585 519.628C499.852 518.442 498.183 519.907 497.795 519.234C497.665 519.009 497.772 518.746 498.142 518.532C498.518 518.315 498.857 518.386 499.05 518.663L499.741 518.264C499.319 517.618 498.588 517.499 497.83 517.936C497.042 518.391 496.793 519.109 497.101 519.642C497.808 520.867 499.531 519.371 499.909 520.026C500.042 520.256 499.928 520.548 499.528 520.779C499.146 521 498.756 520.926 498.574 520.667L497.859 521.08C498.239 521.669 499.076 521.816 499.876 521.354C500.664 520.899 500.91 520.191 500.585 519.628Z" fill="#B1B1B5"/>
<path opacity="0.7" d="M483.175 430.417C482.921 429.976 482.66 429.542 482.394 429.113L481.969 429.377C481.438 428.522 480.883 427.69 480.305 426.882L480.712 426.592C480.12 425.764 479.505 424.961 478.867 424.183L478.481 424.499C477.843 423.722 477.184 422.969 476.503 422.242L476.868 421.9C476.175 421.159 475.459 420.444 474.724 419.756L474.383 420.121C473.65 419.435 472.897 418.775 472.126 418.144L472.442 417.757C471.658 417.114 470.854 416.499 470.034 415.912L469.743 416.319C468.927 415.736 468.094 415.182 467.246 414.656L467.509 414.231C466.648 413.698 465.771 413.194 464.88 412.719L464.645 413.161C463.76 412.69 462.862 412.249 461.951 411.838L462.157 411.383C461.234 410.967 460.299 410.581 459.353 410.227L459.177 410.695C458.24 410.344 457.292 410.023 456.335 409.734L456.479 409.255C455.511 408.963 454.534 408.702 453.549 408.473L453.436 408.96C452.462 408.734 451.48 408.539 450.492 408.377L450.574 407.883C449.577 407.719 448.574 407.587 447.567 407.488L447.518 407.986C446.523 407.888 445.525 407.822 444.524 407.789L444.54 407.29C443.531 407.257 442.519 407.256 441.507 407.289L441.523 407.789C440.525 407.822 439.527 407.887 438.529 407.985L438.48 407.488C437.477 407.587 436.473 407.719 435.473 407.885L435.554 408.378C434.571 408.541 433.589 408.737 432.612 408.965L432.498 408.479C431.517 408.708 430.541 408.971 429.57 409.267L429.715 409.745C428.763 410.035 427.816 410.358 426.875 410.713L426.698 410.246C425.757 410.601 424.823 410.99 423.897 411.411L424.104 411.866C423.2 412.277 422.303 412.72 421.416 413.195L421.18 412.754C420.735 412.992 420.292 413.238 419.852 413.493C419.411 413.747 418.977 414.007 418.548 414.274L418.812 414.698C417.957 415.229 417.125 415.784 416.317 416.362L416.026 415.955C415.198 416.546 414.395 417.161 413.617 417.798L413.933 418.185C413.155 418.822 412.402 419.481 411.674 420.161L411.333 419.795C410.591 420.489 409.875 421.203 409.186 421.937L409.551 422.28C408.864 423.012 408.204 423.764 407.571 424.534L407.185 424.217C406.541 425.001 405.925 425.803 405.337 426.623L405.744 426.914C405.159 427.729 404.604 428.561 404.077 429.409L403.652 429.145C403.117 430.005 402.612 430.881 402.136 431.772L402.577 432.007C402.105 432.891 401.662 433.789 401.25 434.699L400.794 434.492C400.376 435.414 399.989 436.348 399.633 437.294L400.101 437.47C399.748 438.407 399.426 439.354 399.135 440.311L398.656 440.166C398.362 441.133 398.099 442.11 397.868 443.094L398.355 443.209C398.127 444.182 397.93 445.164 397.766 446.151L397.273 446.069C397.107 447.065 396.973 448.068 396.872 449.075L397.369 449.125C397.27 450.119 397.202 451.117 397.168 452.118L396.668 452.101C396.633 453.11 396.631 454.122 396.663 455.135L397.162 455.119C397.193 456.117 397.257 457.115 397.354 458.113L396.856 458.161C396.954 459.165 397.085 460.169 397.249 461.17L397.743 461.089C397.904 462.072 398.099 463.054 398.326 464.032L397.839 464.145C398.068 465.126 398.33 466.103 398.625 467.074L399.103 466.929C399.392 467.882 399.714 468.829 400.07 469.77L399.602 469.947C399.957 470.888 400.345 471.822 400.765 472.749L401.221 472.542C401.632 473.446 402.074 474.343 402.549 475.23L402.108 475.466C402.346 475.911 402.592 476.354 402.847 476.794C403.101 477.235 403.361 477.669 403.628 478.098L404.052 477.834C404.583 478.689 405.139 479.521 405.716 480.328L405.31 480.619C405.901 481.447 406.517 482.25 407.154 483.028L407.541 482.711C408.178 483.489 408.838 484.242 409.518 484.969L409.153 485.311C409.847 486.052 410.562 486.767 411.297 487.455L411.639 487.09C412.372 487.776 413.125 488.435 413.896 489.067L413.579 489.454C414.364 490.097 415.167 490.712 415.988 491.298L416.279 490.892C417.094 491.474 417.927 492.029 418.776 492.554L418.512 492.979C419.374 493.513 420.251 494.017 421.142 494.492L421.377 494.05C422.261 494.521 423.16 494.962 424.071 495.372L423.865 495.828C424.788 496.244 425.723 496.63 426.669 496.984L426.844 496.516C427.781 496.867 428.73 497.188 429.687 497.477L429.542 497.955C430.51 498.248 431.488 498.509 432.473 498.738L432.586 498.251C433.56 498.477 434.542 498.672 435.529 498.834L435.448 499.328C436.445 499.492 437.448 499.624 438.455 499.723L438.504 499.225C439.498 499.323 440.497 499.389 441.498 499.421L441.482 499.921C442.491 499.954 443.502 499.954 444.515 499.921L444.499 499.422C445.496 499.389 446.495 499.324 447.492 499.225L447.541 499.723C448.545 499.624 449.548 499.492 450.549 499.326L450.467 498.833C451.451 498.67 452.432 498.474 453.41 498.245L453.524 498.732C454.504 498.503 455.481 498.24 456.452 497.944L456.306 497.466C457.259 497.176 458.206 496.853 459.147 496.497L459.324 496.965C460.264 496.609 461.199 496.221 462.125 495.8L461.918 495.345C462.822 494.934 463.719 494.491 464.606 494.016L464.842 494.457C465.287 494.219 465.73 493.972 466.17 493.718C466.61 493.464 467.045 493.204 467.474 492.937L467.21 492.513C468.065 491.982 468.897 491.427 469.705 490.849L469.995 491.256C470.823 490.664 471.627 490.05 472.405 489.413L472.088 489.026C472.867 488.389 473.62 487.73 474.348 487.05L474.689 487.415C475.431 486.722 476.146 486.008 476.835 485.273L476.471 484.931C477.158 484.199 477.818 483.447 478.451 482.677L478.837 482.994C479.481 482.21 480.097 481.408 480.685 480.588L480.278 480.296C480.862 479.482 481.418 478.65 481.945 477.802L482.37 478.066C482.905 477.206 483.41 476.329 483.886 475.439L483.445 475.203C483.917 474.32 484.36 473.422 484.772 472.512L485.228 472.719C485.645 471.797 486.033 470.862 486.389 469.917L485.921 469.741C486.274 468.804 486.596 467.857 486.887 466.9L487.365 467.045C487.66 466.078 487.923 465.101 488.153 464.116L487.666 464.002C487.895 463.029 488.091 462.047 488.256 461.06L488.749 461.142C488.915 460.146 489.049 459.143 489.15 458.136L488.652 458.086C488.752 457.092 488.819 456.093 488.854 455.092L489.354 455.11C489.389 454.101 489.39 453.089 489.359 452.076L488.859 452.092C488.828 451.094 488.765 450.096 488.668 449.098L489.165 449.05C489.068 448.046 488.937 447.042 488.773 446.041L488.279 446.122C488.118 445.138 487.923 444.157 487.695 443.179L488.182 443.066C487.954 442.085 487.692 441.108 487.397 440.137L486.919 440.282C486.629 439.329 486.307 438.382 485.952 437.441L486.42 437.264C486.065 436.323 485.677 435.389 485.256 434.462L484.801 434.669C484.39 433.765 483.948 432.868 483.473 431.981L483.914 431.745C483.675 431.3 483.429 430.857 483.175 430.417Z" stroke="url(#paint9_linear_1504_19654)" stroke-dasharray="3 3"/>
<path d="M469.301 514.525L470.912 513.595L473.922 518.808L474.909 518.238L471.899 513.025L473.501 512.1L473.036 511.294L468.836 513.719L469.301 514.525ZM480.678 511.721C479.813 510.223 478.184 509.881 476.824 510.666C475.465 511.451 474.946 513.033 475.811 514.531C476.676 516.029 478.266 516.404 479.626 515.619C480.994 514.829 481.543 513.219 480.678 511.721ZM476.816 513.951C476.191 512.868 476.557 511.964 477.302 511.534C478.038 511.109 479.04 511.223 479.665 512.306C480.29 513.388 479.867 514.337 479.131 514.762C478.386 515.192 477.441 515.033 476.816 513.951Z" fill="#F3F4F8"/>
<path d="M531.344 501.951L532.12 501.503L531.512 500.449L532.157 500.077L531.761 499.392L531.116 499.764L529.24 496.514L528.284 497.066L527.884 501.75L528.228 502.345L530.736 500.897L531.344 501.951ZM528.74 501.136L528.963 497.746L530.375 500.192L528.74 501.136ZM537.856 495.641C537.164 494.443 535.861 494.17 534.773 494.798C533.685 495.426 533.27 496.691 533.962 497.889C534.654 499.088 535.927 499.388 537.015 498.76C538.109 498.128 538.548 496.84 537.856 495.641ZM534.766 497.425C534.266 496.559 534.559 495.836 535.155 495.492C535.744 495.152 536.545 495.243 537.045 496.109C537.545 496.975 537.207 497.734 536.619 498.074C536.023 498.418 535.266 498.291 534.766 497.425ZM539.838 497.047L540.634 496.587L538.802 493.414L539.509 493.006L539.137 492.361L538.43 492.769L538.274 492.499C538.022 492.063 538.093 491.8 538.578 491.52L538.198 490.862C537.2 491.438 536.97 492.079 537.478 492.959L537.634 493.229L537.183 493.489L537.555 494.134L538.006 493.874L539.838 497.047ZM544.277 494.484L545.074 494.024L542.158 488.973L540.717 489.805L541.133 490.526L541.777 490.154L544.277 494.484ZM546.057 493.364L549.424 491.42L549.044 490.762L546.848 492.03C547.23 490.82 547.937 489.165 547.229 487.939C546.705 487.031 545.767 486.751 544.742 487.343C543.848 487.859 543.45 488.8 544.054 489.911L544.816 489.471C544.509 488.891 544.583 488.331 545.137 488.011C545.726 487.671 546.162 487.899 546.466 488.426C547.038 489.416 546.312 491.055 545.725 492.789L546.057 493.364ZM552.061 489.99L552.851 489.534L550.947 486.236L554.327 488.682L554.874 488.366L554.439 484.22L556.343 487.518L557.133 487.062L554.353 482.246L553.508 482.734L554.004 487.482L550.133 484.682L549.281 485.174L552.061 489.99ZM560.091 483.516C560.359 483.98 560.189 484.438 559.656 484.746L558.589 485.362L557.721 483.859L558.76 483.259C559.286 482.955 559.815 483.037 560.091 483.516ZM558.754 481.488C559.01 481.932 558.838 482.354 558.326 482.65L557.349 483.214L556.553 481.835L557.53 481.271C558.042 480.975 558.502 481.052 558.754 481.488ZM560.929 483.143C560.597 482.568 559.885 482.295 559.32 482.501C559.688 482.067 559.838 481.509 559.502 480.927C559.11 480.248 558.245 479.999 557.227 480.587L555.391 481.647L558.171 486.462L560.097 485.35C561.081 484.782 561.353 483.877 560.929 483.143Z" fill="#B1B1B5"/>
<path d="M528.923 484.813C529.213 485.316 529.172 485.824 528.644 486.129C528.116 486.434 527.663 486.211 527.364 485.713L526.369 486.288C526.999 487.379 528.11 487.604 529.149 487.004C530.188 486.404 530.549 485.329 529.919 484.238L527.414 479.9L526.418 480.475L528.923 484.813ZM530.776 482.774C531.626 484.246 533.207 484.684 534.446 483.969C535.242 483.509 535.594 482.798 535.662 482.216L536.072 482.926L537.068 482.351L534.313 477.579L533.317 478.154L533.717 478.847C533.198 478.627 532.423 478.566 531.618 479.031C530.362 479.756 529.926 481.301 530.776 482.774ZM534.692 480.536C535.287 481.566 534.92 482.552 534.176 482.982C533.44 483.407 532.384 483.219 531.789 482.189C531.194 481.158 531.585 480.194 532.321 479.769C533.065 479.339 534.102 479.514 534.692 480.536ZM541.751 479.647L542.729 479.082L541.104 476.268C540.334 474.934 539.089 474.718 537.972 475.363C537.401 475.693 537.007 476.232 536.912 476.806L536.597 476.261L535.61 476.831L538.365 481.602L539.352 481.032L537.812 478.365C537.307 477.49 537.523 476.765 538.251 476.345C538.969 475.93 539.706 476.105 540.211 476.98L541.751 479.647ZM543.678 473.177C544.414 472.752 545.264 472.885 545.707 473.611L543.065 475.136C542.734 474.322 543.011 473.562 543.678 473.177ZM547.412 474.485L546.347 475.1C546.38 475.577 546.212 476.067 545.606 476.417C544.879 476.837 544.041 476.686 543.517 475.938L547.163 473.833C547.093 473.653 547.012 473.492 546.917 473.328C546.107 471.925 544.601 471.536 543.241 472.321C541.83 473.136 541.415 474.657 542.28 476.155C543.145 477.653 544.718 478.038 546.086 477.248C547.255 476.573 547.624 475.471 547.412 474.485Z" fill="#F3F4F8"/>
<g filter="url(#filter4_d_1504_19654)">
<ellipse cx="443.514" cy="454.477" rx="31.7614" ry="31.7203" transform="rotate(-30 443.514 454.477)" fill="url(#paint10_linear_1504_19654)"/>
</g>
<g clip-path="url(#clip1_1504_19654)">
<path d="M445.575 443.966L441.033 442.752C440.431 442.591 439.788 442.675 439.248 442.987L431.942 447.205C430.816 447.855 430.43 449.292 431.079 450.417L439.303 464.661C439.952 465.785 441.39 466.169 442.515 465.519L452.703 459.637C453.828 458.988 454.214 457.551 453.565 456.426L447.003 445.06C446.691 444.52 446.178 444.127 445.575 443.966V443.966Z" stroke="#3E47DD" stroke-width="1.5" stroke-linecap="round" stroke-linejoin="round"/>
<path d="M447.104 445.235L443.029 447.587C442.467 447.912 441.747 447.72 441.423 447.158L439.073 443.088" stroke="#3E47DD" stroke-width="1.5" stroke-linecap="round" stroke-linejoin="round"/>
<path d="M440.716 452.992L444.241 459.097" stroke="#3E47DD" stroke-width="1.5" stroke-linecap="round" stroke-linejoin="round"/>
<path d="M445.103 455.886L444.241 459.097" stroke="#3E47DD" stroke-width="1.5" stroke-linecap="round" stroke-linejoin="round"/>
<path d="M441.028 458.238L444.241 459.097" stroke="#3E47DD" stroke-width="1.5" stroke-linecap="round" stroke-linejoin="round"/>
</g>
<rect opacity="0.6" x="196.5" y="229.031" width="325.495" height="85.469" rx="12.5" fill="#2F3142" stroke="#B1B1B5" stroke-dasharray="3 3"/>
<g filter="url(#filter5_d_1504_19654)">
<rect x="307.509" y="199" width="323.491" height="84.469" rx="12" fill="#2F3142"/>
</g>
<path d="M384.581 248.966V252.334H385.445C385.597 251.902 385.957 251.606 386.493 251.606C387.253 251.606 387.629 252.038 387.629 252.798C387.629 253.518 387.277 254.054 386.493 254.054C385.877 254.054 385.461 253.734 385.341 253.238H384.453C384.589 254.15 385.285 254.814 386.485 254.814C387.837 254.814 388.501 253.934 388.501 252.774C388.501 251.894 388.061 250.83 386.629 250.83C386.109 250.83 385.637 251.07 385.421 251.358V249.766H388.101V248.966H384.581ZM389.451 251.822C389.451 253.518 389.899 254.798 391.531 254.798C393.163 254.798 393.611 253.518 393.611 251.822C393.611 250.158 393.163 248.878 391.531 248.878C389.899 248.878 389.451 250.158 389.451 251.822ZM392.715 251.822C392.715 252.966 392.595 253.966 391.531 253.966C390.467 253.966 390.347 252.966 390.347 251.822C390.347 250.734 390.467 249.71 391.531 249.71C392.595 249.71 392.715 250.734 392.715 251.822ZM396.886 254.814H397.806V251.15H398.622V250.406H397.806V250.094C397.806 249.59 397.998 249.398 398.558 249.398V248.638C397.406 248.638 396.886 249.078 396.886 250.094V250.406H396.366V251.15H396.886V254.814ZM399.43 254.814H400.342V250.406H399.43V254.814ZM399.894 249.822C400.214 249.822 400.47 249.566 400.47 249.238C400.47 248.91 400.214 248.654 399.894 248.654C399.566 248.654 399.31 248.91 399.31 249.238C399.31 249.566 399.566 249.822 399.894 249.822ZM401.539 254.814H402.451V248.894H401.539V254.814ZM405.505 251.102C406.185 251.102 406.721 251.534 406.737 252.214H404.297C404.393 251.518 404.889 251.102 405.505 251.102ZM407.569 253.502H406.585C406.417 253.846 406.105 254.118 405.545 254.118C404.873 254.118 404.353 253.678 404.289 252.95H407.657C407.681 252.798 407.689 252.654 407.689 252.502C407.689 251.206 406.801 250.334 405.545 250.334C404.241 250.334 403.345 251.222 403.345 252.606C403.345 253.99 404.281 254.886 405.545 254.886C406.625 254.886 407.321 254.27 407.569 253.502ZM411.874 253.582C411.826 251.99 409.338 252.486 409.338 251.598C409.338 251.302 409.594 251.102 410.082 251.102C410.578 251.102 410.874 251.366 410.906 251.75H411.818C411.77 250.87 411.114 250.334 410.114 250.334C409.074 250.334 408.418 250.902 408.418 251.606C408.418 253.222 410.978 252.726 410.978 253.59C410.978 253.894 410.698 254.118 410.17 254.118C409.666 254.118 409.322 253.822 409.29 253.462H408.346C408.386 254.262 409.13 254.886 410.186 254.886C411.226 254.886 411.874 254.326 411.874 253.582Z" fill="#FBC67A"/>
<path d="M574.07 244.69H575.03L573.038 239.122H571.982L569.99 244.69H570.942L571.342 243.554H573.67L574.07 244.69ZM573.414 242.81H571.598L572.51 240.226L573.414 242.81ZM576.808 241.69V239.874H577.816C578.528 239.874 578.848 240.21 578.848 240.786C578.848 241.346 578.528 241.69 577.816 241.69H576.808ZM579.784 240.786C579.784 239.882 579.136 239.13 577.816 239.13H575.896V244.69H576.808V242.434H577.816C579.264 242.434 579.784 241.578 579.784 240.786ZM581.566 241.69V239.874H582.574C583.286 239.874 583.606 240.21 583.606 240.786C583.606 241.346 583.286 241.69 582.574 241.69H581.566ZM584.542 240.786C584.542 239.882 583.894 239.13 582.574 239.13H580.654V244.69H581.566V242.434H582.574C584.022 242.434 584.542 241.578 584.542 240.786ZM588.364 240.794C588.364 241.346 588.044 241.738 587.332 241.738H586.324V239.874H587.332C588.044 239.874 588.364 240.234 588.364 240.794ZM585.412 239.13V244.69H586.324V242.466H587.02L588.3 244.69H589.388L588.012 242.386C588.948 242.154 589.3 241.45 589.3 240.794C589.3 239.89 588.652 239.13 587.332 239.13H585.412ZM595.842 241.898C595.842 240.234 594.586 239.058 593.002 239.058C591.434 239.058 590.162 240.234 590.162 241.898C590.162 243.57 591.434 244.746 593.002 244.746C594.586 244.746 595.842 243.57 595.842 241.898ZM591.098 241.898C591.098 240.642 591.898 239.858 593.002 239.858C594.106 239.858 594.906 240.642 594.906 241.898C594.906 243.154 594.106 243.954 593.002 243.954C591.898 243.954 591.098 243.154 591.098 241.898ZM598.916 243.754L597.268 239.13H596.292L598.388 244.69H599.444L601.532 239.13H600.572L598.916 243.754ZM605.366 239.122H602.294V244.69H605.366V243.946H603.206V242.242H605.126V241.498H603.206V239.866H605.366V239.122ZM608.306 239.13H606.49V244.69H608.306C610.09 244.69 611.258 243.642 611.258 241.93C611.258 240.21 610.09 239.13 608.306 239.13ZM607.402 243.946V239.874H608.306C609.618 239.874 610.322 240.658 610.322 241.93C610.322 243.194 609.618 243.946 608.306 243.946H607.402Z" fill="#00D764"/>
<path d="M561.342 238.437L555.064 244.797L552.211 241.906" stroke="#00D764" stroke-width="0.994105" stroke-linecap="round" stroke-linejoin="round"/>
<path d="M388.531 238.541C388.531 239.211 388.061 239.601 387.291 239.601H385.751V237.431H387.251C388.011 237.431 388.531 237.851 388.531 238.541ZM388.351 235.511C388.351 236.151 387.901 236.501 387.161 236.501H385.751V234.511H387.161C387.901 234.511 388.351 234.881 388.351 235.511ZM389.671 238.661C389.671 237.831 389.071 237.091 388.331 236.961C389.001 236.721 389.511 236.211 389.511 235.371C389.511 234.391 388.731 233.581 387.261 233.581H384.611V240.531H387.391C388.811 240.531 389.671 239.721 389.671 238.661ZM395.9 235.021H394.76V238.091C394.76 239.101 394.21 239.621 393.37 239.621C392.54 239.621 391.99 239.101 391.99 238.091V235.021H390.86V238.261C390.86 239.801 391.84 240.611 393.13 240.611C393.78 240.611 394.4 240.341 394.76 239.871V240.531H395.9V235.021ZM401.514 238.991C401.454 237.001 398.344 237.621 398.344 236.511C398.344 236.141 398.664 235.891 399.274 235.891C399.894 235.891 400.264 236.221 400.304 236.701H401.444C401.384 235.601 400.564 234.931 399.314 234.931C398.014 234.931 397.194 235.641 397.194 236.521C397.194 238.541 400.394 237.921 400.394 239.001C400.394 239.381 400.044 239.661 399.384 239.661C398.754 239.661 398.324 239.291 398.284 238.841H397.104C397.154 239.841 398.084 240.621 399.404 240.621C400.704 240.621 401.514 239.921 401.514 238.991ZM402.746 240.531H403.886V235.021H402.746V240.531ZM403.326 234.291C403.726 234.291 404.046 233.971 404.046 233.561C404.046 233.151 403.726 232.831 403.326 232.831C402.916 232.831 402.596 233.151 402.596 233.561C402.596 233.971 402.916 234.291 403.326 234.291ZM409.293 240.531H410.423V237.281C410.423 235.741 409.453 234.931 408.163 234.931C407.503 234.931 406.893 235.201 406.523 235.651V235.021H405.383V240.531H406.523V237.451C406.523 236.441 407.073 235.921 407.913 235.921C408.743 235.921 409.293 236.441 409.293 237.451V240.531ZM414.197 235.891C415.047 235.891 415.717 236.431 415.737 237.281H412.687C412.807 236.411 413.427 235.891 414.197 235.891ZM416.777 238.891H415.547C415.337 239.321 414.947 239.661 414.247 239.661C413.407 239.661 412.757 239.111 412.677 238.201H416.887C416.917 238.011 416.927 237.831 416.927 237.641C416.927 236.021 415.817 234.931 414.247 234.931C412.617 234.931 411.497 236.041 411.497 237.771C411.497 239.501 412.667 240.621 414.247 240.621C415.597 240.621 416.467 239.851 416.777 238.891ZM422.159 238.991C422.099 237.001 418.989 237.621 418.989 236.511C418.989 236.141 419.309 235.891 419.919 235.891C420.539 235.891 420.909 236.221 420.949 236.701H422.089C422.029 235.601 421.209 234.931 419.959 234.931C418.659 234.931 417.839 235.641 417.839 236.521C417.839 238.541 421.039 237.921 421.039 239.001C421.039 239.381 420.689 239.661 420.029 239.661C419.399 239.661 418.969 239.291 418.929 238.841H417.749C417.799 239.841 418.729 240.621 420.049 240.621C421.349 240.621 422.159 239.921 422.159 238.991ZM427.501 238.991C427.441 237.001 424.331 237.621 424.331 236.511C424.331 236.141 424.651 235.891 425.261 235.891C425.881 235.891 426.251 236.221 426.291 236.701H427.431C427.371 235.601 426.551 234.931 425.301 234.931C424.001 234.931 423.181 235.641 423.181 236.521C423.181 238.541 426.381 237.921 426.381 239.001C426.381 239.381 426.031 239.661 425.371 239.661C424.741 239.661 424.311 239.291 424.271 238.841H423.091C423.141 239.841 424.071 240.621 425.391 240.621C426.691 240.621 427.501 239.921 427.501 238.991ZM436.02 238.561C436.02 236.021 432.34 237.001 432.34 235.431C432.34 234.761 432.85 234.441 433.51 234.461C434.23 234.481 434.64 234.911 434.68 235.381H435.94C435.84 234.191 434.9 233.491 433.57 233.491C432.15 233.491 431.18 234.251 431.18 235.471C431.18 238.031 434.87 236.941 434.87 238.621C434.87 239.211 434.42 239.641 433.62 239.641C432.83 239.641 432.43 239.181 432.38 238.611H431.16C431.16 239.841 432.23 240.601 433.62 240.601C435.17 240.601 436.02 239.601 436.02 238.561ZM437.545 239.001C437.545 240.121 438.155 240.531 439.135 240.531H440.035V239.581H439.335C438.855 239.581 438.695 239.411 438.695 239.001V235.951H440.035V235.021H438.695V233.651H437.545V235.021H436.895V235.951H437.545V239.001ZM442.226 237.631C442.226 236.461 442.746 236.111 443.586 236.111H443.876V234.931C443.096 234.931 442.546 235.271 442.226 235.821V235.021H441.086V240.531H442.226V237.631ZM444.544 237.751C444.544 239.451 445.694 240.621 447.124 240.621C448.044 240.621 448.704 240.181 449.054 239.711V240.531H450.204V235.021H449.054V235.821C448.714 235.371 448.074 234.931 447.144 234.931C445.694 234.931 444.544 236.051 444.544 237.751ZM449.054 237.771C449.054 238.961 448.244 239.631 447.384 239.631C446.534 239.631 445.714 238.941 445.714 237.751C445.714 236.561 446.534 235.921 447.384 235.921C448.244 235.921 449.054 236.591 449.054 237.771ZM451.881 239.001C451.881 240.121 452.491 240.531 453.471 240.531H454.371V239.581H453.671C453.191 239.581 453.031 239.411 453.031 239.001V235.951H454.371V235.021H453.031V233.651H451.881V235.021H451.231V235.951H451.881V239.001ZM457.742 235.891C458.592 235.891 459.262 236.431 459.282 237.281H456.232C456.352 236.411 456.972 235.891 457.742 235.891ZM460.322 238.891H459.092C458.882 239.321 458.492 239.661 457.792 239.661C456.952 239.661 456.302 239.111 456.222 238.201H460.432C460.462 238.011 460.472 237.831 460.472 237.641C460.472 236.021 459.362 234.931 457.792 234.931C456.162 234.931 455.042 236.041 455.042 237.771C455.042 239.501 456.212 240.621 457.792 240.621C459.142 240.621 460.012 239.851 460.322 238.891ZM461.214 237.751C461.214 239.451 462.364 240.621 463.814 240.621C464.714 240.621 465.374 240.171 465.724 239.701V240.621C465.724 241.721 465.064 242.261 464.184 242.261C463.394 242.261 462.784 241.871 462.614 241.301H461.484C461.624 242.521 462.714 243.251 464.184 243.251C465.904 243.251 466.874 242.121 466.874 240.621V235.021H465.724V235.821C465.384 235.351 464.714 234.931 463.814 234.931C462.364 234.931 461.214 236.051 461.214 237.751ZM465.724 237.771C465.724 238.961 464.914 239.631 464.054 239.631C463.204 239.631 462.384 238.941 462.384 237.751C462.384 236.561 463.204 235.921 464.054 235.921C464.914 235.921 465.724 236.591 465.724 237.771ZM470.541 239.221L468.991 235.021H467.721L469.891 240.441L468.771 243.121H469.951L473.331 235.021H472.151L470.541 239.221ZM475.371 239.871C475.371 239.461 475.051 239.141 474.651 239.141C474.241 239.141 473.921 239.461 473.921 239.871C473.921 240.281 474.241 240.601 474.651 240.601C475.051 240.601 475.371 240.281 475.371 239.871ZM477.744 235.831V235.021H476.604V243.151H477.744V239.731C478.104 240.161 478.754 240.621 479.664 240.621C481.114 240.621 482.254 239.451 482.254 237.751C482.254 236.051 481.114 234.931 479.664 234.931C478.764 234.931 478.094 235.371 477.744 235.831ZM481.094 237.751C481.094 238.941 480.274 239.631 479.414 239.631C478.564 239.631 477.744 238.961 477.744 237.771C477.744 236.591 478.564 235.921 479.414 235.921C480.274 235.921 481.094 236.561 481.094 237.751ZM483.001 237.751C483.001 239.451 484.151 240.621 485.601 240.621C486.501 240.621 487.161 240.201 487.511 239.701V240.531H488.661V233.131H487.511V235.791C487.091 235.271 486.331 234.931 485.611 234.931C484.151 234.931 483.001 236.051 483.001 237.751ZM487.511 237.771C487.511 238.961 486.701 239.631 485.841 239.631C484.991 239.631 484.171 238.941 484.171 237.751C484.171 236.561 484.991 235.921 485.841 235.921C486.701 235.921 487.511 236.591 487.511 237.771ZM490.298 240.531H491.448V235.951H492.468V235.021H491.448V234.631C491.448 234.001 491.688 233.761 492.388 233.761V232.811C490.948 232.811 490.298 233.361 490.298 234.631V235.021H489.648V235.951H490.298V240.531Z" fill="#F3F4F8"/>
<path d="M360.905 233.794H351.158C350.659 233.794 350.192 233.543 349.912 233.125L347.796 229.974C347.515 229.558 347.05 229.307 346.551 229.307H339.817C338.152 229.307 336.804 230.673 336.804 232.359V250.67C336.804 252.356 338.152 253.722 339.817 253.722H360.905C362.569 253.722 363.918 252.356 363.918 250.67V236.845C363.918 235.161 362.569 233.794 360.905 233.794V233.794Z" stroke="url(#paint11_linear_1504_19654)" stroke-width="2.4817" stroke-linecap="round" stroke-linejoin="round"/>
<g filter="url(#filter6_d_1504_19654)">
<rect x="36" y="185" width="132" height="131" rx="12" fill="#2F3142"/>
</g>
<path d="M60.1353 289.426H61.2753V286.386H63.5753V285.456H61.2753V283.406H64.2253V282.476H60.1353V289.426ZM67.6017 284.786C68.4517 284.786 69.1217 285.326 69.1417 286.176H66.0917C66.2117 285.306 66.8317 284.786 67.6017 284.786ZM70.1817 287.786H68.9517C68.7417 288.216 68.3517 288.556 67.6517 288.556C66.8117 288.556 66.1617 288.006 66.0817 287.096H70.2917C70.3217 286.906 70.3317 286.726 70.3317 286.536C70.3317 284.916 69.2217 283.826 67.6517 283.826C66.0217 283.826 64.9017 284.936 64.9017 286.666C64.9017 288.396 66.0717 289.516 67.6517 289.516C69.0017 289.516 69.8717 288.746 70.1817 287.786ZM72.5936 284.736V282.026H71.4536V289.426H72.5936V288.626C72.9536 289.106 73.6036 289.516 74.5136 289.516C75.9636 289.516 77.1036 288.346 77.1036 286.646C77.1036 284.946 75.9736 283.826 74.5136 283.826C73.6436 283.826 72.9536 284.236 72.5936 284.736ZM75.9436 286.646C75.9436 287.836 75.1236 288.526 74.2636 288.526C73.4136 288.526 72.5936 287.856 72.5936 286.666C72.5936 285.486 73.4136 284.816 74.2636 284.816C75.1236 284.816 75.9436 285.456 75.9436 286.646ZM79.371 286.526C79.371 285.356 79.891 285.006 80.731 285.006H81.021V283.826C80.241 283.826 79.691 284.166 79.371 284.716V283.916H78.231V289.426H79.371V286.526ZM87.0588 283.916H85.9188V286.986C85.9188 287.996 85.3688 288.516 84.5288 288.516C83.6988 288.516 83.1488 287.996 83.1488 286.986V283.916H82.0188V287.156C82.0188 288.696 82.9988 289.506 84.2888 289.506C84.9388 289.506 85.5588 289.236 85.9188 288.766V289.426H87.0588V283.916ZM88.183 286.646C88.183 288.346 89.333 289.516 90.763 289.516C91.683 289.516 92.343 289.076 92.693 288.606V289.426H93.843V283.916H92.693V284.716C92.353 284.266 91.713 283.826 90.783 283.826C89.333 283.826 88.183 284.946 88.183 286.646ZM92.693 286.666C92.693 287.856 91.883 288.526 91.023 288.526C90.173 288.526 89.353 287.836 89.353 286.646C89.353 285.456 90.173 284.816 91.023 284.816C91.883 284.816 92.693 285.486 92.693 286.666ZM96.4803 286.526C96.4803 285.356 97.0003 285.006 97.8403 285.006H98.1303V283.826C97.3503 283.826 96.8003 284.166 96.4803 284.716V283.916H95.3403V289.426H96.4803V286.526ZM101.348 288.116L99.7982 283.916H98.5282L100.698 289.336L99.5782 292.016H100.758L104.138 283.916H102.958L101.348 288.116ZM107.356 289.326H112.216V288.376H109.046C110.216 287.306 112.016 285.956 112.016 284.186C112.016 282.876 111.176 281.986 109.696 281.986C108.406 281.986 107.386 282.756 107.346 284.336H108.446C108.476 283.516 108.906 282.956 109.706 282.956C110.556 282.956 110.886 283.476 110.886 284.236C110.886 285.666 109.076 286.986 107.356 288.496V289.326ZM113.218 285.686C113.218 287.806 113.778 289.406 115.818 289.406C117.858 289.406 118.418 287.806 118.418 285.686C118.418 283.606 117.858 282.006 115.818 282.006C113.778 282.006 113.218 283.606 113.218 285.686ZM117.298 285.686C117.298 287.116 117.148 288.366 115.818 288.366C114.488 288.366 114.338 287.116 114.338 285.686C114.338 284.326 114.488 283.046 115.818 283.046C117.148 283.046 117.298 284.326 117.298 285.686ZM119.534 289.326H124.394V288.376H121.224C122.394 287.306 124.194 285.956 124.194 284.186C124.194 282.876 123.354 281.986 121.874 281.986C120.584 281.986 119.564 282.756 119.524 284.336H120.624C120.654 283.516 121.084 282.956 121.884 282.956C122.734 282.956 123.064 283.476 123.064 284.236C123.064 285.666 121.254 286.986 119.534 288.496V289.326ZM126.175 289.426H127.325V282.136H125.245V283.176H126.175V289.426Z" fill="#B1B1B5"/>
<path d="M64.0146 261.355H60.8366V271.085H64.0146C67.1366 271.085 69.1806 269.251 69.1806 266.255C69.1806 263.245 67.1366 261.355 64.0146 261.355ZM62.4326 269.783V262.657H64.0146C66.3106 262.657 67.5426 264.029 67.5426 266.255C67.5426 268.467 66.3106 269.783 64.0146 269.783H62.4326ZM74.0104 264.589C75.2004 264.589 76.1384 265.345 76.1664 266.535H71.8964C72.0644 265.317 72.9324 264.589 74.0104 264.589ZM77.6224 268.789H75.9004C75.6064 269.391 75.0604 269.867 74.0804 269.867C72.9044 269.867 71.9944 269.097 71.8824 267.823H77.7764C77.8184 267.557 77.8324 267.305 77.8324 267.039C77.8324 264.771 76.2784 263.245 74.0804 263.245C71.7984 263.245 70.2304 264.799 70.2304 267.221C70.2304 269.643 71.8684 271.211 74.0804 271.211C75.9704 271.211 77.1884 270.133 77.6224 268.789ZM85.157 268.929C85.073 266.143 80.719 267.011 80.719 265.457C80.719 264.939 81.167 264.589 82.021 264.589C82.889 264.589 83.407 265.051 83.463 265.723H85.059C84.975 264.183 83.827 263.245 82.077 263.245C80.257 263.245 79.109 264.239 79.109 265.471C79.109 268.299 83.589 267.431 83.589 268.943C83.589 269.475 83.099 269.867 82.175 269.867C81.293 269.867 80.691 269.349 80.635 268.719H78.983C79.053 270.119 80.355 271.211 82.203 271.211C84.023 271.211 85.157 270.231 85.157 268.929ZM86.8815 271.085H88.4775V263.371H86.8815V271.085ZM87.6935 262.349C88.2535 262.349 88.7015 261.901 88.7015 261.327C88.7015 260.753 88.2535 260.305 87.6935 260.305C87.1195 260.305 86.6715 260.753 86.6715 261.327C86.6715 261.901 87.1195 262.349 87.6935 262.349ZM90.0409 267.193C90.0409 269.573 91.6509 271.211 93.6809 271.211C94.9409 271.211 95.8649 270.581 96.3549 269.923V271.211C96.3549 272.751 95.4309 273.507 94.1989 273.507C93.0929 273.507 92.2389 272.961 92.0009 272.163H90.4189C90.6149 273.871 92.1409 274.893 94.1989 274.893C96.6069 274.893 97.9649 273.311 97.9649 271.211V263.371H96.3549V264.491C95.8789 263.833 94.9409 263.245 93.6809 263.245C91.6509 263.245 90.0409 264.813 90.0409 267.193ZM96.3549 267.221C96.3549 268.887 95.2209 269.825 94.0169 269.825C92.8269 269.825 91.6789 268.859 91.6789 267.193C91.6789 265.527 92.8269 264.631 94.0169 264.631C95.2209 264.631 96.3549 265.569 96.3549 267.221ZM105.535 271.085H107.117V266.535C107.117 264.379 105.759 263.245 103.953 263.245C103.029 263.245 102.175 263.623 101.657 264.253V263.371H100.061V271.085H101.657V266.773C101.657 265.359 102.427 264.631 103.603 264.631C104.765 264.631 105.535 265.359 105.535 266.773V271.085ZM112.986 271.085H114.596V264.673H116.024V263.371H114.596V262.825C114.596 261.943 114.932 261.607 115.912 261.607V260.277C113.896 260.277 112.986 261.047 112.986 262.825V263.371H112.076V264.673H112.986V271.085ZM117.438 271.085H119.034V263.371H117.438V271.085ZM118.25 262.349C118.81 262.349 119.258 261.901 119.258 261.327C119.258 260.753 118.81 260.305 118.25 260.305C117.676 260.305 117.228 260.753 117.228 261.327C117.228 261.901 117.676 262.349 118.25 262.349ZM121.13 271.085H122.726V260.725H121.13V271.085ZM128.069 264.589C129.259 264.589 130.197 265.345 130.225 266.535H125.955C126.123 265.317 126.991 264.589 128.069 264.589ZM131.681 268.789H129.959C129.665 269.391 129.119 269.867 128.139 269.867C126.963 269.867 126.053 269.097 125.941 267.823H131.835C131.877 267.557 131.891 267.305 131.891 267.039C131.891 264.771 130.337 263.245 128.139 263.245C125.857 263.245 124.289 264.799 124.289 267.221C124.289 269.643 125.927 271.211 128.139 271.211C130.029 271.211 131.247 270.133 131.681 268.789ZM139.216 268.929C139.132 266.143 134.778 267.011 134.778 265.457C134.778 264.939 135.226 264.589 136.08 264.589C136.948 264.589 137.466 265.051 137.522 265.723H139.118C139.034 264.183 137.886 263.245 136.136 263.245C134.316 263.245 133.168 264.239 133.168 265.471C133.168 268.299 137.648 267.431 137.648 268.943C137.648 269.475 137.158 269.867 136.234 269.867C135.352 269.867 134.75 269.349 134.694 268.719H133.042C133.112 270.119 134.414 271.211 136.262 271.211C138.082 271.211 139.216 270.231 139.216 268.929Z" fill="#F3F4F8"/>
<ellipse cx="147.692" cy="234.76" rx="2.03077" ry="2.03101" fill="#F3F4F8"/>
<ellipse cx="147.692" cy="229.682" rx="2.03077" ry="2.03101" fill="#F3F4F8"/>
<ellipse cx="147.692" cy="224.605" rx="2.03077" ry="2.03101" fill="#F3F4F8"/>
<g clip-path="url(#clip2_1504_19654)">
<path d="M87.4466 221.118H76.4956C75.9355 221.118 75.4109 220.84 75.0961 220.377L72.7184 216.882C72.4036 216.42 71.8807 216.142 71.3206 216.142H63.7542C61.8842 216.142 60.3696 217.657 60.3696 219.527V239.837C60.3696 241.707 61.8842 243.222 63.7542 243.222H87.4466C89.3166 243.222 90.8312 241.707 90.8312 239.837V224.503C90.8312 222.635 89.3166 221.118 87.4466 221.118V221.118Z" stroke="url(#paint12_linear_1504_19654)" stroke-width="1.5" stroke-linecap="round" stroke-linejoin="round"/>
<path d="M75.6001 236.452V227.99" stroke="url(#paint13_linear_1504_19654)" stroke-width="1.5" stroke-linecap="round" stroke-linejoin="round"/>
<path d="M72.4185 233.27L75.6 236.452" stroke="url(#paint14_linear_1504_19654)" stroke-width="1.5" stroke-linecap="round" stroke-linejoin="round"/>
<path d="M78.7816 233.27L75.6001 236.452" stroke="url(#paint15_linear_1504_19654)" stroke-width="1.5" stroke-linecap="round" stroke-linejoin="round"/>
</g>
<g filter="url(#filter7_d_1504_19654)">
<rect x="195" y="90" width="493" height="74" rx="12" fill="#2F3142"/>
</g>
<path d="M499.61 130.806H500.76V123.516H498.68V124.556H499.61V130.806ZM503.656 130.146C503.656 129.736 503.336 129.416 502.936 129.416C502.526 129.416 502.206 129.736 502.206 130.146C502.206 130.556 502.526 130.876 502.936 130.876C503.336 130.876 503.656 130.556 503.656 130.146ZM504.718 125.316H505.828C505.898 124.806 506.268 124.326 507.068 124.326C507.848 124.326 508.258 124.746 508.258 125.376C508.258 126.156 507.628 126.456 506.598 126.466H506.328V127.406H506.588C507.778 127.406 508.398 127.736 508.398 128.696C508.398 129.376 507.978 129.896 507.128 129.896C506.268 129.896 505.768 129.376 505.718 128.696H504.618C504.688 130.126 505.758 130.846 507.138 130.846C508.658 130.846 509.478 129.966 509.478 128.806C509.478 127.796 508.988 127.166 508.228 126.936V126.896C508.798 126.706 509.348 126.116 509.348 125.246C509.348 124.186 508.558 123.346 507.108 123.346C505.778 123.346 504.798 124.056 504.718 125.316ZM516.593 123.766C514.633 123.766 513.043 125.236 513.043 127.316C513.043 129.406 514.633 130.866 516.593 130.866C518.463 130.866 519.823 129.496 520.033 127.886V126.996H516.203V127.906H518.813C518.643 129.076 517.853 129.836 516.593 129.836C515.213 129.836 514.213 128.846 514.213 127.316C514.213 125.786 515.213 124.806 516.593 124.806C517.423 124.806 518.083 125.156 518.453 125.856H519.823C519.293 124.496 518.043 123.766 516.593 123.766ZM525.078 128.816C525.078 129.486 524.608 129.876 523.838 129.876H522.298V127.706H523.798C524.558 127.706 525.078 128.126 525.078 128.816ZM524.898 125.786C524.898 126.426 524.448 126.776 523.708 126.776H522.298V124.786H523.708C524.448 124.786 524.898 125.156 524.898 125.786ZM526.218 128.936C526.218 128.106 525.618 127.366 524.878 127.236C525.548 126.996 526.058 126.486 526.058 125.646C526.058 124.666 525.278 123.856 523.808 123.856H521.158V130.806H523.938C525.358 130.806 526.218 129.996 526.218 128.936Z" fill="#FFA561"/>
<path d="M392.188 124.786H394.048V130.806H395.188V124.786H397.038V123.856H392.188V124.786ZM400.513 126.166C401.363 126.166 402.033 126.706 402.053 127.556H399.003C399.123 126.686 399.743 126.166 400.513 126.166ZM403.093 129.166H401.863C401.653 129.596 401.263 129.936 400.563 129.936C399.723 129.936 399.073 129.386 398.993 128.476H403.203C403.233 128.286 403.243 128.106 403.243 127.916C403.243 126.296 402.133 125.206 400.563 125.206C398.933 125.206 397.813 126.316 397.813 128.046C397.813 129.776 398.983 130.896 400.563 130.896C401.913 130.896 402.783 130.126 403.093 129.166ZM403.985 128.026C403.985 129.726 405.135 130.896 406.565 130.896C407.485 130.896 408.145 130.456 408.495 129.986V130.806H409.645V125.296H408.495V126.096C408.155 125.646 407.515 125.206 406.585 125.206C405.135 125.206 403.985 126.326 403.985 128.026ZM408.495 128.046C408.495 129.236 407.685 129.906 406.825 129.906C405.975 129.906 405.155 129.216 405.155 128.026C405.155 126.836 405.975 126.196 406.825 126.196C407.685 126.196 408.495 126.866 408.495 128.046ZM418.952 130.806H420.082V127.556C420.082 126.016 419.102 125.206 417.812 125.206C417.012 125.206 416.232 125.626 415.892 126.296C415.512 125.576 414.782 125.206 413.912 125.206C413.252 125.206 412.652 125.476 412.282 125.926V125.296H411.142V130.806H412.282V127.726C412.282 126.716 412.832 126.196 413.672 126.196C414.502 126.196 415.052 126.716 415.052 127.726V130.806H416.182V127.726C416.182 126.716 416.732 126.196 417.572 126.196C418.402 126.196 418.952 126.716 418.952 127.726V130.806ZM424.27 130.806H425.42V126.226H426.44V125.296H425.42V124.906C425.42 124.276 425.66 124.036 426.36 124.036V123.086C424.92 123.086 424.27 123.636 424.27 124.906V125.296H423.62V126.226H424.27V130.806ZM432.701 128.046C432.701 126.316 431.461 125.206 429.891 125.206C428.321 125.206 427.081 126.316 427.081 128.046C427.081 129.776 428.271 130.896 429.841 130.896C431.421 130.896 432.701 129.776 432.701 128.046ZM428.241 128.046C428.241 126.796 429.011 126.196 429.871 126.196C430.721 126.196 431.531 126.796 431.531 128.046C431.531 129.296 430.691 129.906 429.841 129.906C428.981 129.906 428.241 129.296 428.241 128.046ZM433.828 130.806H434.968V123.406H433.828V130.806ZM436.084 128.026C436.084 129.726 437.234 130.896 438.684 130.896C439.584 130.896 440.244 130.476 440.594 129.976V130.806H441.744V123.406H440.594V126.066C440.174 125.546 439.414 125.206 438.694 125.206C437.234 125.206 436.084 126.326 436.084 128.026ZM440.594 128.046C440.594 129.236 439.784 129.906 438.924 129.906C438.074 129.906 437.254 129.216 437.254 128.026C437.254 126.836 438.074 126.196 438.924 126.196C439.784 126.196 440.594 126.866 440.594 128.046ZM445.562 126.166C446.412 126.166 447.082 126.706 447.102 127.556H444.052C444.172 126.686 444.792 126.166 445.562 126.166ZM448.142 129.166H446.912C446.702 129.596 446.312 129.936 445.612 129.936C444.772 129.936 444.122 129.386 444.042 128.476H448.252C448.282 128.286 448.292 128.106 448.292 127.916C448.292 126.296 447.182 125.206 445.612 125.206C443.982 125.206 442.862 126.316 442.862 128.046C442.862 129.776 444.032 130.896 445.612 130.896C446.962 130.896 447.832 130.126 448.142 129.166ZM450.554 127.906C450.554 126.736 451.074 126.386 451.914 126.386H452.204V125.206C451.424 125.206 450.874 125.546 450.554 126.096V125.296H449.414V130.806H450.554V127.906Z" fill="#FBC67A"/>
<path d="M276.448 123.826C277.181 123.826 277.825 123.969 278.378 124.256C278.938 124.542 279.368 124.952 279.668 125.486C279.975 126.012 280.128 126.626 280.128 127.326C280.128 128.026 279.975 128.639 279.668 129.166C279.368 129.686 278.938 130.089 278.378 130.376C277.825 130.662 277.181 130.806 276.448 130.806H274.008V123.826H276.448ZM276.398 129.616C277.131 129.616 277.698 129.416 278.098 129.016C278.498 128.616 278.698 128.052 278.698 127.326C278.698 126.599 278.498 126.032 278.098 125.626C277.698 125.212 277.131 125.006 276.398 125.006H275.408V129.616H276.398ZM286.326 127.916C286.326 128.116 286.313 128.296 286.286 128.456H282.236C282.269 128.856 282.409 129.169 282.656 129.396C282.903 129.622 283.206 129.736 283.566 129.736C284.086 129.736 284.456 129.512 284.676 129.066H286.186C286.026 129.599 285.719 130.039 285.266 130.386C284.813 130.726 284.256 130.896 283.596 130.896C283.063 130.896 282.583 130.779 282.156 130.546C281.736 130.306 281.406 129.969 281.166 129.536C280.933 129.102 280.816 128.602 280.816 128.036C280.816 127.462 280.933 126.959 281.166 126.526C281.399 126.092 281.726 125.759 282.146 125.526C282.566 125.292 283.049 125.176 283.596 125.176C284.123 125.176 284.593 125.289 285.006 125.516C285.426 125.742 285.749 126.066 285.976 126.486C286.209 126.899 286.326 127.376 286.326 127.916ZM284.876 127.516C284.869 127.156 284.739 126.869 284.486 126.656C284.233 126.436 283.923 126.326 283.556 126.326C283.209 126.326 282.916 126.432 282.676 126.646C282.443 126.852 282.299 127.142 282.246 127.516H284.876ZM289.468 130.896C289.014 130.896 288.608 130.816 288.248 130.656C287.888 130.489 287.601 130.266 287.388 129.986C287.181 129.706 287.068 129.396 287.048 129.056H288.458C288.484 129.269 288.588 129.446 288.768 129.586C288.954 129.726 289.184 129.796 289.458 129.796C289.724 129.796 289.931 129.742 290.078 129.636C290.231 129.529 290.308 129.392 290.308 129.226C290.308 129.046 290.214 128.912 290.028 128.826C289.848 128.732 289.558 128.632 289.158 128.526C288.744 128.426 288.404 128.322 288.138 128.216C287.878 128.109 287.651 127.946 287.458 127.726C287.271 127.506 287.178 127.209 287.178 126.836C287.178 126.529 287.264 126.249 287.438 125.996C287.618 125.742 287.871 125.542 288.198 125.396C288.531 125.249 288.921 125.176 289.368 125.176C290.028 125.176 290.554 125.342 290.948 125.676C291.341 126.002 291.558 126.446 291.598 127.006H290.258C290.238 126.786 290.144 126.612 289.978 126.486C289.818 126.352 289.601 126.286 289.328 126.286C289.074 126.286 288.878 126.332 288.738 126.426C288.604 126.519 288.538 126.649 288.538 126.816C288.538 127.002 288.631 127.146 288.818 127.246C289.004 127.339 289.294 127.436 289.688 127.536C290.088 127.636 290.418 127.739 290.678 127.846C290.938 127.952 291.161 128.119 291.348 128.346C291.541 128.566 291.641 128.859 291.648 129.226C291.648 129.546 291.558 129.832 291.378 130.086C291.204 130.339 290.951 130.539 290.618 130.686C290.291 130.826 289.908 130.896 289.468 130.896ZM293.507 124.606C293.26 124.606 293.054 124.529 292.887 124.376C292.727 124.216 292.647 124.019 292.647 123.786C292.647 123.552 292.727 123.359 292.887 123.206C293.054 123.046 293.26 122.966 293.507 122.966C293.754 122.966 293.957 123.046 294.117 123.206C294.284 123.359 294.367 123.552 294.367 123.786C294.367 124.019 294.284 124.216 294.117 124.376C293.957 124.529 293.754 124.606 293.507 124.606ZM294.197 125.266V130.806H292.797V125.266H294.197ZM297.75 125.176C298.163 125.176 298.527 125.259 298.84 125.426C299.153 125.586 299.4 125.796 299.58 126.056V125.266H300.99V130.846C300.99 131.359 300.887 131.816 300.68 132.216C300.473 132.622 300.163 132.942 299.75 133.176C299.337 133.416 298.837 133.536 298.25 133.536C297.463 133.536 296.817 133.352 296.31 132.986C295.81 132.619 295.527 132.119 295.46 131.486H296.85C296.923 131.739 297.08 131.939 297.32 132.086C297.567 132.239 297.863 132.316 298.21 132.316C298.617 132.316 298.947 132.192 299.2 131.946C299.453 131.706 299.58 131.339 299.58 130.846V129.986C299.4 130.246 299.15 130.462 298.83 130.636C298.517 130.809 298.157 130.896 297.75 130.896C297.283 130.896 296.857 130.776 296.47 130.536C296.083 130.296 295.777 129.959 295.55 129.526C295.33 129.086 295.22 128.582 295.22 128.016C295.22 127.456 295.33 126.959 295.55 126.526C295.777 126.092 296.08 125.759 296.46 125.526C296.847 125.292 297.277 125.176 297.75 125.176ZM299.58 128.036C299.58 127.696 299.513 127.406 299.38 127.166C299.247 126.919 299.067 126.732 298.84 126.606C298.613 126.472 298.37 126.406 298.11 126.406C297.85 126.406 297.61 126.469 297.39 126.596C297.17 126.722 296.99 126.909 296.85 127.156C296.717 127.396 296.65 127.682 296.65 128.016C296.65 128.349 296.717 128.642 296.85 128.896C296.99 129.142 297.17 129.332 297.39 129.466C297.617 129.599 297.857 129.666 298.11 129.666C298.37 129.666 298.613 129.602 298.84 129.476C299.067 129.342 299.247 129.156 299.38 128.916C299.513 128.669 299.58 128.376 299.58 128.036ZM305.427 125.186C306.087 125.186 306.621 125.396 307.027 125.816C307.434 126.229 307.637 126.809 307.637 127.556V130.806H306.237V127.746C306.237 127.306 306.127 126.969 305.907 126.736C305.687 126.496 305.387 126.376 305.007 126.376C304.621 126.376 304.314 126.496 304.087 126.736C303.867 126.969 303.757 127.306 303.757 127.746V130.806H302.357V125.266H303.757V125.956C303.944 125.716 304.181 125.529 304.467 125.396C304.761 125.256 305.081 125.186 305.427 125.186ZM310.992 128.016C310.992 127.456 311.102 126.959 311.322 126.526C311.548 126.092 311.852 125.759 312.232 125.526C312.618 125.292 313.048 125.176 313.522 125.176C313.935 125.176 314.295 125.259 314.602 125.426C314.915 125.592 315.165 125.802 315.352 126.056V125.266H316.762V130.806H315.352V129.996C315.172 130.256 314.922 130.472 314.602 130.646C314.288 130.812 313.925 130.896 313.512 130.896C313.045 130.896 312.618 130.776 312.232 130.536C311.852 130.296 311.548 129.959 311.322 129.526C311.102 129.086 310.992 128.582 310.992 128.016ZM315.352 128.036C315.352 127.696 315.285 127.406 315.152 127.166C315.018 126.919 314.838 126.732 314.612 126.606C314.385 126.472 314.142 126.406 313.882 126.406C313.622 126.406 313.382 126.469 313.162 126.596C312.942 126.722 312.762 126.909 312.622 127.156C312.488 127.396 312.422 127.682 312.422 128.016C312.422 128.349 312.488 128.642 312.622 128.896C312.762 129.142 312.942 129.332 313.162 129.466C313.388 129.599 313.628 129.666 313.882 129.666C314.142 129.666 314.385 129.602 314.612 129.476C314.838 129.342 315.018 129.156 315.152 128.916C315.285 128.669 315.352 128.376 315.352 128.036ZM320.249 130.896C319.796 130.896 319.389 130.816 319.029 130.656C318.669 130.489 318.382 130.266 318.169 129.986C317.962 129.706 317.849 129.396 317.829 129.056H319.239C319.266 129.269 319.369 129.446 319.549 129.586C319.736 129.726 319.966 129.796 320.239 129.796C320.506 129.796 320.712 129.742 320.859 129.636C321.012 129.529 321.089 129.392 321.089 129.226C321.089 129.046 320.996 128.912 320.809 128.826C320.629 128.732 320.339 128.632 319.939 128.526C319.526 128.426 319.186 128.322 318.919 128.216C318.659 128.109 318.432 127.946 318.239 127.726C318.052 127.506 317.959 127.209 317.959 126.836C317.959 126.529 318.046 126.249 318.219 125.996C318.399 125.742 318.652 125.542 318.979 125.396C319.312 125.249 319.702 125.176 320.149 125.176C320.809 125.176 321.336 125.342 321.729 125.676C322.122 126.002 322.339 126.446 322.379 127.006H321.039C321.019 126.786 320.926 126.612 320.759 126.486C320.599 126.352 320.382 126.286 320.109 126.286C319.856 126.286 319.659 126.332 319.519 126.426C319.386 126.519 319.319 126.649 319.319 126.816C319.319 127.002 319.412 127.146 319.599 127.246C319.786 127.339 320.076 127.436 320.469 127.536C320.869 127.636 321.199 127.739 321.459 127.846C321.719 127.952 321.942 128.119 322.129 128.346C322.322 128.566 322.422 128.859 322.429 129.226C322.429 129.546 322.339 129.832 322.159 130.086C321.986 130.339 321.732 130.539 321.399 130.686C321.072 130.826 320.689 130.896 320.249 130.896ZM325.698 130.896C325.245 130.896 324.838 130.816 324.478 130.656C324.118 130.489 323.832 130.266 323.618 129.986C323.412 129.706 323.298 129.396 323.278 129.056H324.688C324.715 129.269 324.818 129.446 324.998 129.586C325.185 129.726 325.415 129.796 325.688 129.796C325.955 129.796 326.162 129.742 326.308 129.636C326.462 129.529 326.538 129.392 326.538 129.226C326.538 129.046 326.445 128.912 326.258 128.826C326.078 128.732 325.788 128.632 325.388 128.526C324.975 128.426 324.635 128.322 324.368 128.216C324.108 128.109 323.882 127.946 323.688 127.726C323.502 127.506 323.408 127.209 323.408 126.836C323.408 126.529 323.495 126.249 323.668 125.996C323.848 125.742 324.102 125.542 324.428 125.396C324.762 125.249 325.152 125.176 325.598 125.176C326.258 125.176 326.785 125.342 327.178 125.676C327.572 126.002 327.788 126.446 327.828 127.006H326.488C326.468 126.786 326.375 126.612 326.208 126.486C326.048 126.352 325.832 126.286 325.558 126.286C325.305 126.286 325.108 126.332 324.968 126.426C324.835 126.519 324.768 126.649 324.768 126.816C324.768 127.002 324.862 127.146 325.048 127.246C325.235 127.339 325.525 127.436 325.918 127.536C326.318 127.636 326.648 127.739 326.908 127.846C327.168 127.952 327.392 128.119 327.578 128.346C327.772 128.566 327.872 128.859 327.878 129.226C327.878 129.546 327.788 129.832 327.608 130.086C327.435 130.339 327.182 130.539 326.848 130.686C326.522 130.826 326.138 130.896 325.698 130.896ZM334.177 127.916C334.177 128.116 334.164 128.296 334.137 128.456H330.087C330.121 128.856 330.261 129.169 330.507 129.396C330.754 129.622 331.057 129.736 331.417 129.736C331.937 129.736 332.307 129.512 332.527 129.066H334.037C333.877 129.599 333.571 130.039 333.117 130.386C332.664 130.726 332.107 130.896 331.447 130.896C330.914 130.896 330.434 130.779 330.007 130.546C329.587 130.306 329.257 129.969 329.017 129.536C328.784 129.102 328.667 128.602 328.667 128.036C328.667 127.462 328.784 126.959 329.017 126.526C329.251 126.092 329.577 125.759 329.997 125.526C330.417 125.292 330.901 125.176 331.447 125.176C331.974 125.176 332.444 125.289 332.857 125.516C333.277 125.742 333.601 126.066 333.827 126.486C334.061 126.899 334.177 127.376 334.177 127.916ZM332.727 127.516C332.721 127.156 332.591 126.869 332.337 126.656C332.084 126.436 331.774 126.326 331.407 126.326C331.061 126.326 330.767 126.432 330.527 126.646C330.294 126.852 330.151 127.142 330.097 127.516H332.727ZM336.829 126.416V129.096C336.829 129.282 336.873 129.419 336.959 129.506C337.053 129.586 337.206 129.626 337.419 129.626H338.069V130.806H337.189C336.009 130.806 335.419 130.232 335.419 129.086V126.416H334.759V125.266H335.419V123.896H336.829V125.266H338.069V126.416H336.829ZM341.196 130.896C340.743 130.896 340.336 130.816 339.976 130.656C339.616 130.489 339.33 130.266 339.116 129.986C338.91 129.706 338.796 129.396 338.776 129.056H340.186C340.213 129.269 340.316 129.446 340.496 129.586C340.683 129.726 340.913 129.796 341.186 129.796C341.453 129.796 341.66 129.742 341.806 129.636C341.96 129.529 342.036 129.392 342.036 129.226C342.036 129.046 341.943 128.912 341.756 128.826C341.576 128.732 341.286 128.632 340.886 128.526C340.473 128.426 340.133 128.322 339.866 128.216C339.606 128.109 339.38 127.946 339.186 127.726C339 127.506 338.906 127.209 338.906 126.836C338.906 126.529 338.993 126.249 339.166 125.996C339.346 125.742 339.6 125.542 339.926 125.396C340.26 125.249 340.65 125.176 341.096 125.176C341.756 125.176 342.283 125.342 342.676 125.676C343.07 126.002 343.286 126.446 343.326 127.006H341.986C341.966 126.786 341.873 126.612 341.706 126.486C341.546 126.352 341.33 126.286 341.056 126.286C340.803 126.286 340.606 126.332 340.466 126.426C340.333 126.519 340.266 126.649 340.266 126.816C340.266 127.002 340.36 127.146 340.546 127.246C340.733 127.339 341.023 127.436 341.416 127.536C341.816 127.636 342.146 127.739 342.406 127.846C342.666 127.952 342.89 128.119 343.076 128.346C343.27 128.566 343.37 128.859 343.376 129.226C343.376 129.546 343.286 129.832 343.106 130.086C342.933 130.339 342.68 130.539 342.346 130.686C342.02 130.826 341.636 130.896 341.196 130.896Z" fill="#FFA561"/>
<rect x="212.069" y="109.528" width="39.1589" height="35.9722" rx="8" fill="#FFA561"/>
<g clip-path="url(#clip3_1504_19654)">
<path d="M236.418 123.1H231.545C231.296 123.1 231.062 122.973 230.922 122.762L229.864 121.17C229.724 120.96 229.491 120.833 229.242 120.833H225.875C225.043 120.833 224.369 121.523 224.369 122.375V131.625C224.369 132.477 225.043 133.167 225.875 133.167H236.418C237.25 133.167 237.924 132.477 237.924 131.625V124.641C237.924 123.79 237.25 123.1 236.418 123.1V123.1Z" stroke="#F3F4F8" stroke-width="0.856889" stroke-linecap="round" stroke-linejoin="round"/>
<path d="M231.146 130.083V126.229" stroke="#F3F4F8" stroke-width="0.856889" stroke-linecap="round" stroke-linejoin="round"/>
<path d="M229.73 128.634L231.146 130.083" stroke="#F3F4F8" stroke-width="0.856889" stroke-linecap="round" stroke-linejoin="round"/>
<path d="M232.562 128.634L231.146 130.083" stroke="#F3F4F8" stroke-width="0.856889" stroke-linecap="round" stroke-linejoin="round"/>
</g>
<rect opacity="0.1" x="559.479" y="111.583" width="109.444" height="30.8333" rx="4" fill="#B1B1B5"/>
<ellipse cx="653.359" cy="130.597" rx="1.5061" ry="1.54166" fill="#FFA561"/>
<ellipse cx="653.359" cy="126.486" rx="1.5061" ry="1.54167" fill="#FFA561"/>
<path d="M579.926 129.891H581.161C582.185 129.891 583.014 129.042 583.014 127.995V125.466C583.014 124.419 582.185 123.57 581.161 123.57H576.221C575.198 123.57 574.368 124.419 574.368 125.466V127.995C574.368 129.042 575.198 129.891 576.221 129.891" stroke="#FFA561" stroke-linecap="round" stroke-linejoin="round"/>
<path d="M581.161 126.098H579.926C578.903 126.098 578.073 126.947 578.073 127.995V130.523C578.073 131.571 578.903 132.42 579.926 132.42H584.866C585.89 132.42 586.719 131.571 586.719 130.523V127.995C586.719 126.947 585.89 126.098 584.866 126.098" stroke="#FFA561" stroke-linecap="round" stroke-linejoin="round"/>
<path d="M619.036 122.371V129.563" stroke="#FFA561" stroke-linecap="round" stroke-linejoin="round"/>
<path d="M617.53 128.022L619.036 129.563L620.542 128.022" stroke="#FFA561" stroke-linecap="round" stroke-linejoin="round"/>
<path d="M617.028 125.967H615.523C614.968 125.967 614.519 126.427 614.519 126.995V130.591C614.519 131.158 614.968 131.618 615.523 131.618H622.549C623.104 131.618 623.553 131.158 623.553 130.591V126.995C623.553 126.427 623.104 125.967 622.549 125.967H621.044" stroke="#FFA561" stroke-linecap="round" stroke-linejoin="round"/>
<ellipse cx="653.359" cy="122.375" rx="1.5061" ry="1.54167" fill="#FFA561"/>
<circle cx="657" cy="16" r="16" fill="url(#paint16_linear_1504_19654)"/>
<defs>
<filter id="filter0_d_1504_19654" x="66.3599" y="85.3599" width="590.92" height="474.92" filterUnits="userSpaceOnUse" color-interpolation-filters="sRGB">
<feFlood flood-opacity="0" result="BackgroundImageFix"/>
<feColorMatrix in="SourceAlpha" type="matrix" values="0 0 0 0 0 0 0 0 0 0 0 0 0 0 0 0 0 0 127 0" result="hardAlpha"/>
<feOffset dx="15.8201" dy="15.8201"/>
<feGaussianBlur stdDeviation="23.7301"/>
<feColorMatrix type="matrix" values="0 0 0 0 0 0 0 0 0 0 0 0 0 0 0 0 0 0 0.4 0"/>
<feBlend mode="normal" in2="BackgroundImageFix" result="effect1_dropShadow_1504_19654"/>
<feBlend mode="normal" in="SourceGraphic" in2="effect1_dropShadow_1504_19654" result="shape"/>
</filter>
<filter id="filter1_d_1504_19654" x="39.6854" y="358.011" width="243.629" height="292.457" filterUnits="userSpaceOnUse" color-interpolation-filters="sRGB">
<feFlood flood-opacity="0" result="BackgroundImageFix"/>
<feColorMatrix in="SourceAlpha" type="matrix" values="0 0 0 0 0 0 0 0 0 0 0 0 0 0 0 0 0 0 127 0" result="hardAlpha"/>
<feOffset dy="7.32585"/>
<feGaussianBlur stdDeviation="9.15732"/>
<feColorMatrix type="matrix" values="0 0 0 0 0 0 0 0 0 0 0 0 0 0 0 0 0 0 0.25 0"/>
<feBlend mode="normal" in2="BackgroundImageFix" result="effect1_dropShadow_1504_19654"/>
<feBlend mode="normal" in="SourceGraphic" in2="effect1_dropShadow_1504_19654" result="shape"/>
</filter>
<filter id="filter2_d_1504_19654" x="105.751" y="578.64" width="110.488" height="110.36" filterUnits="userSpaceOnUse" color-interpolation-filters="sRGB">
<feFlood flood-opacity="0" result="BackgroundImageFix"/>
<feColorMatrix in="SourceAlpha" type="matrix" values="0 0 0 0 0 0 0 0 0 0 0 0 0 0 0 0 0 0 127 0" result="hardAlpha"/>
<feOffset dy="10"/>
<feGaussianBlur stdDeviation="15"/>
<feColorMatrix type="matrix" values="0 0 0 0 1 0 0 0 0 0.647059 0 0 0 0 0.380392 0 0 0 0.2 0"/>
<feBlend mode="normal" in2="BackgroundImageFix" result="effect1_dropShadow_1504_19654"/>
<feBlend mode="normal" in="SourceGraphic" in2="effect1_dropShadow_1504_19654" result="shape"/>
</filter>
<filter id="filter3_d_1504_19654" x="289.075" y="313.901" width="382.293" height="398.764" filterUnits="userSpaceOnUse" color-interpolation-filters="sRGB">
<feFlood flood-opacity="0" result="BackgroundImageFix"/>
<feColorMatrix in="SourceAlpha" type="matrix" values="0 0 0 0 0 0 0 0 0 0 0 0 0 0 0 0 0 0 127 0" result="hardAlpha"/>
<feOffset dy="7.32585"/>
<feGaussianBlur stdDeviation="9.15732"/>
<feColorMatrix type="matrix" values="0 0 0 0 0 0 0 0 0 0 0 0 0 0 0 0 0 0 0.25 0"/>
<feBlend mode="normal" in2="BackgroundImageFix" result="effect1_dropShadow_1504_19654"/>
<feBlend mode="normal" in="SourceGraphic" in2="effect1_dropShadow_1504_19654" result="shape"/>
</filter>
<filter id="filter4_d_1504_19654" x="381.758" y="402.742" width="123.513" height="123.472" filterUnits="userSpaceOnUse" color-interpolation-filters="sRGB">
<feFlood flood-opacity="0" result="BackgroundImageFix"/>
<feColorMatrix in="SourceAlpha" type="matrix" values="0 0 0 0 0 0 0 0 0 0 0 0 0 0 0 0 0 0 127 0" result="hardAlpha"/>
<feOffset dy="10"/>
<feGaussianBlur stdDeviation="15"/>
<feColorMatrix type="matrix" values="0 0 0 0 0 0 0 0 0 0 0 0 0 0 0 0 0 0 0.2 0"/>
<feBlend mode="normal" in2="BackgroundImageFix" result="effect1_dropShadow_1504_19654"/>
<feBlend mode="normal" in="SourceGraphic" in2="effect1_dropShadow_1504_19654" result="shape"/>
</filter>
<filter id="filter5_d_1504_19654" x="277.509" y="179" width="383.491" height="144.469" filterUnits="userSpaceOnUse" color-interpolation-filters="sRGB">
<feFlood flood-opacity="0" result="BackgroundImageFix"/>
<feColorMatrix in="SourceAlpha" type="matrix" values="0 0 0 0 0 0 0 0 0 0 0 0 0 0 0 0 0 0 127 0" result="hardAlpha"/>
<feOffset dy="10"/>
<feGaussianBlur stdDeviation="15"/>
<feColorMatrix type="matrix" values="0 0 0 0 0 0 0 0 0 0 0 0 0 0 0 0 0 0 0.2 0"/>
<feBlend mode="normal" in2="BackgroundImageFix" result="effect1_dropShadow_1504_19654"/>
<feBlend mode="normal" in="SourceGraphic" in2="effect1_dropShadow_1504_19654" result="shape"/>
</filter>
<filter id="filter6_d_1504_19654" x="6" y="175" width="192" height="191" filterUnits="userSpaceOnUse" color-interpolation-filters="sRGB">
<feFlood flood-opacity="0" result="BackgroundImageFix"/>
<feColorMatrix in="SourceAlpha" type="matrix" values="0 0 0 0 0 0 0 0 0 0 0 0 0 0 0 0 0 0 127 0" result="hardAlpha"/>
<feOffset dy="20"/>
<feGaussianBlur stdDeviation="15"/>
<feColorMatrix type="matrix" values="0 0 0 0 0 0 0 0 0 0 0 0 0 0 0 0 0 0 0.2 0"/>
<feBlend mode="normal" in2="BackgroundImageFix" result="effect1_dropShadow_1504_19654"/>
<feBlend mode="normal" in="SourceGraphic" in2="effect1_dropShadow_1504_19654" result="shape"/>
</filter>
<filter id="filter7_d_1504_19654" x="165" y="70" width="553" height="134" filterUnits="userSpaceOnUse" color-interpolation-filters="sRGB">
<feFlood flood-opacity="0" result="BackgroundImageFix"/>
<feColorMatrix in="SourceAlpha" type="matrix" values="0 0 0 0 0 0 0 0 0 0 0 0 0 0 0 0 0 0 127 0" result="hardAlpha"/>
<feOffset dy="10"/>
<feGaussianBlur stdDeviation="15"/>
<feColorMatrix type="matrix" values="0 0 0 0 0 0 0 0 0 0 0 0 0 0 0 0 0 0 0.2 0"/>
<feBlend mode="normal" in2="BackgroundImageFix" result="effect1_dropShadow_1504_19654"/>
<feBlend mode="normal" in="SourceGraphic" in2="effect1_dropShadow_1504_19654" result="shape"/>
</filter>
<linearGradient id="paint0_linear_1504_19654" x1="303" y1="716.867" x2="326.235" y2="717.409" gradientUnits="userSpaceOnUse">
<stop stop-color="#3BD3E9"/>
<stop offset="0.527778" stop-color="#9C7EEA"/>
<stop offset="0.983091" stop-color="#6AE0C9"/>
</linearGradient>
<linearGradient id="paint1_linear_1504_19654" x1="666.26" y1="657.718" x2="57.7598" y2="752.916" gradientUnits="userSpaceOnUse">
<stop offset="0.0625" stop-color="#FFA0F6"/>
<stop offset="0.651042" stop-color="#2698EA"/>
</linearGradient>
<linearGradient id="paint2_linear_1504_19654" x1="687.961" y1="661.443" x2="575.962" y2="276.348" gradientUnits="userSpaceOnUse">
<stop stop-color="#37EBAA"/>
<stop offset="1" stop-color="#37EBAA" stop-opacity="0"/>
</linearGradient>
<linearGradient id="paint3_linear_1504_19654" x1="98" y1="28.3331" x2="621.646" y2="44.3003" gradientUnits="userSpaceOnUse">
<stop stop-color="#3BD3E9"/>
<stop offset="0.527778" stop-color="#9C7EEA"/>
<stop offset="0.983091" stop-color="#6AE0C9"/>
</linearGradient>
<radialGradient id="paint4_radial_1504_19654" cx="0" cy="0" r="1" gradientUnits="userSpaceOnUse" gradientTransform="translate(105.5 306.5) rotate(90) scale(1.5)">
<stop offset="0.916667"/>
<stop offset="1" stop-color="#181818"/>
</radialGradient>
<linearGradient id="paint5_linear_1504_19654" x1="106.438" y1="305.563" x2="105.5" y2="307.344" gradientUnits="userSpaceOnUse">
<stop stop-color="#0C1D27"/>
<stop offset="1" stop-color="#0D1615" stop-opacity="0"/>
</linearGradient>
<linearGradient id="paint6_linear_1504_19654" x1="105.5" y1="305.357" x2="105.071" y2="306.286" gradientUnits="userSpaceOnUse">
<stop stop-color="#59AFFF"/>
<stop offset="0.432292" stop-color="#25487C"/>
<stop offset="1" stop-color="#135766" stop-opacity="0"/>
</linearGradient>
<linearGradient id="paint7_linear_1504_19654" x1="104.357" y1="306.714" x2="105.214" y2="306" gradientUnits="userSpaceOnUse">
<stop stop-color="#2775EA"/>
<stop offset="0.286458" stop-color="#134366"/>
<stop offset="0.541667" stop-color="#557D9A" stop-opacity="0"/>
<stop offset="0.765625" stop-color="white" stop-opacity="0.47"/>
<stop offset="1" stop-color="white" stop-opacity="0"/>
</linearGradient>
<linearGradient id="paint8_linear_1504_19654" x1="427.646" y1="597.199" x2="500.578" y2="603.738" gradientUnits="userSpaceOnUse">
<stop stop-color="#3BD3E9"/>
<stop offset="0.527778" stop-color="#9C7EEA"/>
<stop offset="0.983091" stop-color="#6AE0C9"/>
</linearGradient>
<linearGradient id="paint9_linear_1504_19654" x1="420.102" y1="413.926" x2="465.92" y2="493.285" gradientUnits="userSpaceOnUse">
<stop stop-color="#00D764"/>
<stop offset="1" stop-color="#2698EA"/>
</linearGradient>
<linearGradient id="paint10_linear_1504_19654" x1="443.514" y1="422.757" x2="443.514" y2="486.198" gradientUnits="userSpaceOnUse">
<stop stop-color="#00D764"/>
<stop offset="1" stop-color="#2698EA"/>
</linearGradient>
<linearGradient id="paint11_linear_1504_19654" x1="336.804" y1="223.611" x2="365.436" y2="224.354" gradientUnits="userSpaceOnUse">
<stop stop-color="#3BD3E9"/>
<stop offset="0.527778" stop-color="#9C7EEA"/>
<stop offset="0.983091" stop-color="#6AE0C9"/>
</linearGradient>
<linearGradient id="paint12_linear_1504_19654" x1="75.6004" y1="216.142" x2="75.6004" y2="243.222" gradientUnits="userSpaceOnUse">
<stop stop-color="#00D764"/>
<stop offset="1" stop-color="#2698EA"/>
</linearGradient>
<linearGradient id="paint13_linear_1504_19654" x1="76.1001" y1="227.99" x2="76.1001" y2="236.452" gradientUnits="userSpaceOnUse">
<stop stop-color="#00D764"/>
<stop offset="1" stop-color="#2698EA"/>
</linearGradient>
<linearGradient id="paint14_linear_1504_19654" x1="74.0092" y1="233.27" x2="74.0092" y2="236.452" gradientUnits="userSpaceOnUse">
<stop stop-color="#00D764"/>
<stop offset="1" stop-color="#2698EA"/>
</linearGradient>
<linearGradient id="paint15_linear_1504_19654" x1="77.1909" y1="233.27" x2="77.1909" y2="236.452" gradientUnits="userSpaceOnUse">
<stop stop-color="#00D764"/>
<stop offset="1" stop-color="#2698EA"/>
</linearGradient>
<linearGradient id="paint16_linear_1504_19654" x1="657" y1="0" x2="657" y2="32" gradientUnits="userSpaceOnUse">
<stop stop-color="#00D764"/>
<stop offset="1" stop-color="#2698EA"/>
</linearGradient>
<clipPath id="clip0_1504_19654">
<rect width="497" height="381" fill="white" transform="translate(97 116)"/>
</clipPath>
<clipPath id="clip1_1504_19654">
<rect width="28.2324" height="28.1958" fill="white" transform="translate(423.048 448.27) rotate(-30)"/>
</clipPath>
<clipPath id="clip2_1504_19654">
<rect width="40.6154" height="40.6202" fill="white" transform="translate(55.2925 209.372)"/>
</clipPath>
<clipPath id="clip3_1504_19654">
<rect width="18.0733" height="18.5" fill="white" transform="translate(222.11 117.75)"/>
</clipPath>
</defs>
</svg>
