<svg width="121" height="105" viewBox="0 0 121 105" fill="none" xmlns="http://www.w3.org/2000/svg">
<g clip-path="url(#clip0_545_628)">
<path d="M115.093 50.046C115.379 49.1669 116.623 49.1669 116.909 50.046C117.037 50.4389 117.404 50.705 117.817 50.705C118.741 50.705 119.126 51.8874 118.379 52.4298C118.044 52.6725 117.904 53.1033 118.032 53.4964C118.318 54.3749 117.31 55.1044 116.562 54.5619C116.228 54.3193 115.774 54.3193 115.44 54.5619C114.692 55.1044 113.684 54.3749 113.97 53.4964C114.098 53.1033 113.958 52.6725 113.623 52.4298C112.876 51.8874 113.261 50.705 114.185 50.705C114.598 50.705 114.965 50.4389 115.093 50.046Z" fill="#FBC67A"/>
<path d="M36.417 15.1785L15.2025 36.3607C6.41592 45.134 6.41592 59.3582 15.2025 68.1315L36.417 89.3137C45.2036 98.0869 59.4495 98.0869 68.2361 89.3137L89.4506 68.1315C98.2372 59.3582 98.2372 45.134 89.4506 36.3607L68.2361 15.1785C59.4495 6.40525 45.2036 6.40525 36.417 15.1785Z" stroke="#00D764" stroke-dasharray="3 3"/>
<path d="M39.7865 22.5049L22.64 39.6254C15.6591 46.5956 15.6591 57.8966 22.64 64.8668L39.7865 81.9873C46.7673 88.9575 58.0855 88.9575 65.0664 81.9873L82.2129 64.8668C89.1938 57.8966 89.1938 46.5956 82.2129 39.6254L65.0664 22.5049C58.0855 15.5347 46.7673 15.5347 39.7865 22.5049Z" fill="url(#paint0_linear_545_628)"/>
<path d="M88.2726 86.4298C88.5015 85.7265 89.4967 85.7265 89.7256 86.4298C89.8279 86.7441 90.1213 86.957 90.4518 86.957C91.1908 86.957 91.4994 87.9029 90.9012 88.3368C90.6335 88.531 90.5215 88.8757 90.6239 89.1901C90.8525 89.8929 90.0464 90.4765 89.4482 90.0425C89.1806 89.8484 88.8176 89.8484 88.55 90.0425C87.9518 90.4765 87.1457 89.8929 87.3743 89.1901C87.4767 88.8757 87.3647 88.531 87.097 88.3368C86.4988 87.9029 86.8074 86.957 87.5464 86.957C87.8769 86.957 88.1703 86.7441 88.2726 86.4298Z" fill="#FBC67A"/>
<path d="M8.09273 86.9875C8.37883 86.1083 9.62291 86.1083 9.90901 86.9875C10.0369 87.3803 10.4036 87.6464 10.8168 87.6464C11.7406 87.6464 12.1263 88.8288 11.3785 89.3712C11.0439 89.614 10.9039 90.0448 11.0319 90.4379C11.3177 91.3163 10.3101 92.0458 9.5623 91.5033C9.2278 91.2607 8.77394 91.2607 8.43944 91.5033C7.69169 92.0458 6.68406 91.3163 6.96992 90.4379C7.09784 90.0448 6.95784 89.614 6.62323 89.3712C5.87549 88.8288 6.26122 87.6464 7.18499 87.6464C7.59815 87.6464 7.96488 87.3803 8.09273 86.9875Z" fill="#FBC67A"/>
<path d="M10.0928 14.1007C10.3789 13.2216 11.6229 13.2216 11.909 14.1007C12.0369 14.4936 12.4036 14.7597 12.8168 14.7597C13.7406 14.7597 14.1263 15.9421 13.3785 16.4845C13.0439 16.7272 12.9039 17.158 13.0319 17.5511C13.3177 18.4296 12.3101 19.1591 11.5623 18.6166C11.2278 18.374 10.774 18.374 10.4395 18.6166C9.69168 19.1591 8.68406 18.4296 8.96992 17.5511C9.09784 17.158 8.95784 16.7272 8.62323 16.4845C7.87549 15.9421 8.26122 14.7597 9.18499 14.7597C9.59815 14.7597 9.96488 14.4936 10.0928 14.1007Z" fill="#FBC67A"/>
<path d="M89.0928 3.11642C89.3789 2.23723 90.6229 2.23723 90.909 3.11642C91.0369 3.5093 91.4036 3.77535 91.8168 3.77535C92.7406 3.77535 93.1263 4.95774 92.3785 5.50018C92.0439 5.74292 91.9039 6.17372 92.0319 6.56681C92.3177 7.44525 91.3101 8.17474 90.5623 7.6323C90.2278 7.38964 89.774 7.38964 89.4395 7.6323C88.6917 8.17474 87.6841 7.44525 87.9699 6.56681C88.0979 6.17372 87.9579 5.74292 87.6233 5.50018C86.8755 4.95774 87.2612 3.77535 88.185 3.77535C88.5982 3.77535 88.9649 3.5093 89.0928 3.11642Z" fill="#FBC67A"/>
<g clip-path="url(#clip1_545_628)">
<path d="M44.5517 39.9887C44.6155 39.9883 44.6155 39.9883 44.6806 39.988C44.8228 39.9874 44.9651 39.9875 45.1074 39.9876C45.2095 39.9873 45.3116 39.987 45.4137 39.9866C45.6909 39.9858 45.9681 39.9856 46.2452 39.9855C46.4766 39.9854 46.708 39.9851 46.9393 39.9848C47.485 39.984 48.0308 39.9838 48.5765 39.9838C49.1396 39.9839 49.7028 39.9829 50.2659 39.9814C50.7494 39.9802 51.2328 39.9797 51.7163 39.9797C52.005 39.9798 52.2938 39.9795 52.5826 39.9785C52.8541 39.9776 53.1255 39.9776 53.397 39.9783C53.4967 39.9784 53.5963 39.9782 53.696 39.9776C53.832 39.9769 53.9679 39.9773 54.1039 39.978C54.1434 39.9775 54.1829 39.9771 54.2236 39.9766C54.608 39.9811 54.814 40.1762 55.0767 40.4413C55.1018 40.4662 55.1268 40.4912 55.1526 40.5168C55.236 40.5998 55.319 40.6831 55.402 40.7664C55.4619 40.8262 55.5218 40.8859 55.5818 40.9457C55.7441 41.1076 55.9061 41.2698 56.0681 41.432C56.2377 41.6019 56.4075 41.7715 56.5773 41.9411C56.8623 42.226 57.1471 42.511 57.4318 42.7961C57.761 43.1258 58.0905 43.4552 58.4202 43.7844C58.7034 44.0671 58.9863 44.35 59.2691 44.633C59.438 44.802 59.607 44.971 59.7761 45.1398C59.935 45.2984 60.0936 45.4573 60.2521 45.6163C60.3103 45.6746 60.3686 45.7329 60.427 45.7911C60.5066 45.8705 60.586 45.9501 60.6652 46.0298C60.7001 46.0644 60.7001 46.0644 60.7356 46.0996C60.9457 46.3121 61.0113 46.4489 61.0117 46.7481C61.012 46.8053 61.0123 46.8626 61.0126 46.9216C61.0125 46.9852 61.0124 47.0489 61.0122 47.1125C61.0124 47.18 61.0126 47.2476 61.0129 47.3151C61.0134 47.5009 61.0134 47.6867 61.0133 47.8726C61.0133 48.0729 61.0138 48.2732 61.0142 48.4735C61.015 48.8661 61.0153 49.2587 61.0153 49.6513C61.0154 49.9704 61.0156 50.2895 61.0159 50.6087C61.0167 51.5133 61.0171 52.4179 61.0171 53.3226C61.0171 53.3714 61.017 53.4202 61.017 53.4704C61.017 53.5193 61.017 53.5681 61.017 53.6185C61.017 54.4099 61.0179 55.2013 61.0192 55.9928C61.0206 56.8053 61.0212 57.6178 61.0211 58.4303C61.0211 58.8865 61.0214 59.3427 61.0224 59.799C61.0232 60.1875 61.0234 60.5759 61.0228 60.9644C61.0225 61.1626 61.0225 61.3608 61.0233 61.559C61.024 61.7406 61.0239 61.9221 61.0231 62.1037C61.0229 62.1692 61.0231 62.2348 61.0236 62.3003C61.0264 62.6754 61.0042 62.971 60.8122 63.2981C60.7944 63.3287 60.7767 63.3593 60.7584 63.3908C60.5606 63.7156 60.2318 63.8974 59.8747 64.0012C59.7392 64.0131 59.7392 64.0131 59.5953 64.0133C59.5401 64.0136 59.4849 64.0139 59.4281 64.0142C59.3679 64.014 59.3078 64.0139 59.2458 64.0137C59.1809 64.0139 59.1159 64.0141 59.051 64.0144C58.8729 64.015 58.6948 64.0149 58.5167 64.0148C58.3245 64.0148 58.1323 64.0153 57.9401 64.0158C57.5636 64.0166 57.1871 64.0168 56.8106 64.0169C56.5046 64.0169 56.1986 64.0171 55.8925 64.0174C55.0248 64.0182 54.157 64.0187 53.2892 64.0186C53.2425 64.0186 53.1957 64.0186 53.1475 64.0186C53.1007 64.0186 53.0538 64.0186 53.0056 64.0186C52.2466 64.0185 51.4876 64.0194 50.7286 64.0207C49.9491 64.0221 49.1697 64.0227 48.3902 64.0227C47.9526 64.0226 47.5151 64.0229 47.0775 64.0239C46.705 64.0247 46.3324 64.0249 45.9599 64.0243C45.7699 64.024 45.5799 64.024 45.3898 64.0248C45.2157 64.0256 45.0417 64.0254 44.8676 64.0246C44.775 64.0244 44.6825 64.0251 44.59 64.0258C44.2518 64.0232 43.9969 63.9846 43.7028 63.8137C43.6722 63.796 43.6415 63.7782 43.61 63.76C43.2872 63.5631 43.0995 63.233 42.9997 62.8762C42.9911 62.7501 42.9869 62.629 42.9876 62.5031C42.9874 62.4662 42.9873 62.4293 42.9871 62.3912C42.9867 62.2673 42.9869 62.1434 42.9871 62.0195C42.987 61.9298 42.9867 61.8402 42.9865 61.7505C42.9859 61.504 42.9859 61.2575 42.986 61.0109C42.9861 60.7451 42.9855 60.4793 42.9851 60.2135C42.9843 59.6926 42.9841 59.1718 42.984 58.6509C42.984 58.2276 42.9838 57.8043 42.9835 57.381C42.9828 56.3765 42.9822 55.3719 42.9823 54.3674C42.9823 54.3353 42.9823 54.3032 42.9823 54.2701C42.9823 54.1072 42.9823 53.9444 42.9823 53.7816C42.9823 53.7493 42.9823 53.7169 42.9823 53.6836C42.9823 53.6182 42.9823 53.5528 42.9823 53.4874C42.9824 52.47 42.9817 51.4526 42.9804 50.4352C42.9789 49.2921 42.9781 48.149 42.9782 47.0059C42.9782 46.4007 42.978 45.7955 42.977 45.1902C42.9761 44.6749 42.9759 44.1597 42.9766 43.6444C42.9769 43.3815 42.9769 43.1186 42.9761 42.8556C42.9753 42.6149 42.9755 42.3742 42.9763 42.1335C42.9764 42.0464 42.9762 41.9594 42.9757 41.8723C42.9711 41.0418 42.9711 41.0418 43.1872 40.7043C43.2049 40.674 43.2226 40.6436 43.2409 40.6124C43.5274 40.1374 44.029 39.9867 44.5517 39.9887ZM44.4997 41.5012C44.4997 48.4312 44.4997 55.3612 44.4997 62.5012C49.4497 62.5012 54.3997 62.5012 59.4997 62.5012C59.4997 57.5512 59.4997 52.6012 59.4997 47.5012C57.8909 47.4857 56.2822 47.4703 54.6247 47.4543C54.1133 47.227 53.8099 47.0588 53.5906 46.5397C53.5322 46.3231 53.5321 46.1202 53.5316 45.8968C53.5311 45.8484 53.5306 45.8001 53.5302 45.7502C53.5287 45.5943 53.5279 45.4383 53.5271 45.2823C53.5263 45.1858 53.5255 45.0893 53.5246 44.9928C53.5217 44.6356 53.5195 44.2783 53.5172 43.9211C53.5114 43.1225 53.5056 42.324 53.4997 41.5012C50.5297 41.5012 47.5597 41.5012 44.4997 41.5012ZM54.9997 42.6262C54.9997 43.74 54.9997 44.8537 54.9997 46.0012C56.1134 46.0012 57.2272 46.0012 58.3747 46.0012C58.1825 45.777 57.9909 45.5638 57.7825 45.3561C57.7529 45.3264 57.7232 45.2966 57.6926 45.2659C57.5955 45.1687 57.4983 45.0716 57.4011 44.9745C57.3333 44.9067 57.2655 44.8389 57.1977 44.771C57.0562 44.6294 56.9146 44.488 56.773 44.3466C56.5911 44.1649 56.4093 43.983 56.2276 43.801C56.088 43.6612 55.9482 43.5215 55.8084 43.3818C55.7413 43.3147 55.6742 43.2476 55.6072 43.1804C55.5139 43.0871 55.4205 42.9939 55.3271 42.9007C55.2992 42.8727 55.2713 42.8447 55.2426 42.8159C55.1382 42.6862 55.1382 42.6862 54.9997 42.6262Z" fill="#3E47DD"/>
<path d="M54.4885 49.5431C55.444 50.083 56.1453 50.8283 56.4583 51.8948C56.5082 52.1034 56.5171 52.3058 56.5174 52.5197C56.5186 52.5559 56.5197 52.5921 56.5209 52.6294C56.5222 52.8791 56.477 53.0189 56.3124 53.217C56.1146 53.3796 55.9598 53.447 55.703 53.4513C55.4719 53.41 55.3176 53.3441 55.1434 53.1847C55.0118 52.9733 54.9706 52.7742 54.9351 52.5323C54.8827 52.1947 54.797 51.8418 54.5471 51.5925C54.4842 51.5295 54.4842 51.5295 54.4842 51.4357C54.4569 51.423 54.4295 51.4102 54.4013 51.3971C54.2673 51.3264 54.1564 51.2361 54.0384 51.1418C53.9294 51.066 53.8197 51.0024 53.7035 50.9385C53.6654 50.9174 53.6273 50.8964 53.5881 50.8748C53.559 50.8588 53.5299 50.8428 53.4999 50.8263C53.5002 50.8901 53.5002 50.8901 53.5005 50.9551C53.5057 51.9903 53.5096 53.0256 53.512 54.0609C53.5132 54.5615 53.5149 55.0622 53.5176 55.5628C53.5199 55.9994 53.5214 56.4359 53.5219 56.8724C53.5222 57.1034 53.5229 57.3344 53.5247 57.5654C53.5263 57.7832 53.5267 58.0009 53.5264 58.2187C53.5264 58.2983 53.5269 58.3779 53.5278 58.4574C53.5347 59.0983 53.4223 59.5965 52.9947 60.0961C52.3241 60.7737 51.4238 61.0149 50.4999 61.0217C49.5736 61.0143 48.6936 60.7784 48.0155 60.1076C47.8893 59.9595 47.785 59.8071 47.6874 59.6388C47.667 59.6044 47.6466 59.57 47.6257 59.5345C47.4231 59.1237 47.4328 58.6013 47.5396 58.1634C47.8043 57.4688 48.3349 57.057 48.99 56.7493C49.8624 56.381 50.9212 56.3555 51.8124 56.6857C51.8588 56.7012 51.9052 56.7167 51.953 56.7326C51.953 56.6957 51.953 56.6589 51.9531 56.6209C51.9538 55.7234 51.9558 54.8259 51.9592 53.9284C51.9608 53.4944 51.962 53.0603 51.9622 52.6263C51.9623 52.2479 51.9633 51.8696 51.9652 51.4912C51.9662 51.2909 51.9668 51.0907 51.9664 50.8904C51.9661 50.7017 51.9668 50.513 51.9684 50.3243C51.9688 50.2553 51.9687 50.1862 51.9683 50.1171C51.9661 49.7395 51.9651 49.4262 52.2342 49.1388C52.8275 48.6868 53.9228 49.2457 54.4885 49.5431ZM49.1405 58.467C49.0307 58.6316 49.0235 58.695 49.0467 58.8888C49.2072 59.1879 49.5482 59.3037 49.8539 59.4101C50.4386 59.5461 51.1107 59.5064 51.6346 59.2042C51.772 59.1118 51.8607 59.0272 51.953 58.8888C51.9745 58.7243 51.9674 58.6344 51.8885 58.4875C51.4331 58.0646 50.8547 58.0188 50.2644 58.0303C49.8309 58.0498 49.4707 58.187 49.1405 58.467Z" fill="#3E47DD"/>
</g>
</g>
<defs>
<linearGradient id="paint0_linear_545_628" x1="31.2132" y1="31.0651" x2="73.5751" y2="73.4915" gradientUnits="userSpaceOnUse">
<stop stop-color="#00D764"/>
<stop offset="1" stop-color="#2698EA"/>
</linearGradient>
<clipPath id="clip0_545_628">
<rect width="121" height="105" fill="white"/>
</clipPath>
<clipPath id="clip1_545_628">
<rect width="24" height="24" fill="white" transform="translate(40 40)"/>
</clipPath>
</defs>
</svg>
