<svg width="117" height="55" viewBox="0 0 117 55" fill="none" xmlns="http://www.w3.org/2000/svg">
<path d="M10.3881 22.7366C10.3881 28.8961 11.8398 30.8658 14.2134 30.8658C16.5864 30.8658 18.0382 28.8961 18.0382 22.7366C18.0382 16.5771 16.5864 14.608 14.2134 14.608C11.8398 14.608 10.3881 16.5771 10.3881 22.7366ZM22.8701 46.8708C22.8701 45.323 22.1718 44.4804 19.5748 44.4804H9.74473C8.40522 45.7743 7.7905 47.7988 7.7905 49.0373C7.7905 52.3279 10.6109 54.016 14.2134 54.016C18.8208 54.016 22.8701 51.3999 22.8701 46.8708ZM19.2391 14.129C23.6241 15.2549 26.5282 18.0112 26.5282 22.7366C26.5282 29.0658 21.25 31.9063 14.2134 31.9063C12.4259 31.9063 10.7507 31.7378 9.27089 31.3436C7.34473 32.4967 6.00412 33.4253 6.00412 34.8882C6.00412 36.2104 6.81311 36.8013 8.34963 36.8013H21.5015C25.662 36.8013 29.2369 38.292 29.2369 42.9892C29.2369 48.5306 24.0435 55 12.6774 55C4.04935 55 0 52.777 0 50.0212C0 46.3652 5.61284 46.5903 8.65673 44.4804H7.31611C5.13845 44.4804 0.922353 43.7215 0.922353 39.1358C0.922353 35.8728 2.76432 33.6226 8.2104 31.0349C4.38395 29.7693 1.92672 27.0684 1.92672 22.7366C1.92672 16.3792 7.17632 13.5669 14.2134 13.5669C15.7208 13.5669 17.1737 13.7071 18.4862 13.961L19.2391 14.129Z" fill="#B1B1B5"/>
<path d="M28.4142 0C28.4142 0 29.2055 5.00424 26.6344 8.60482C24.0616 12.2071 19.1003 13.0425 19.1003 13.0425C19.1003 13.0425 18.3079 8.03937 20.8796 4.43712C23.4518 0.835423 28.4142 0 28.4142 0Z" fill="#B1B1B5"/>
<path d="M29.7797 12.916C29.7797 12.916 27.8584 14.2193 25.3561 14.4632C22.8532 14.7061 20.719 13.798 20.719 13.798C20.719 13.798 22.6402 12.4947 25.1426 12.2502C27.6449 12.0074 29.7797 12.916 29.7797 12.916Z" fill="#B1B1B5"/>
<path d="M17.9727 12.7203C17.9727 12.7203 15.9101 11.6615 14.4825 9.576C13.0566 7.49048 12.8101 5.16992 12.8101 5.16992C12.8101 5.16992 14.8738 6.22987 16.3003 8.31482C17.7256 10.3998 17.9727 12.7203 17.9727 12.7203Z" fill="#B1B1B5"/>
<path d="M33.4706 52.588H34.2449C35.3164 52.588 36.1463 52.0663 36.1463 50.9021C36.1463 49.7374 35.3164 49.2158 34.2449 49.2158H33.4706V52.588ZM33.0947 48.8721H34.3418C36.4374 48.8721 36.5227 50.6039 36.5227 50.9021C36.5227 51.1998 36.4374 52.9322 34.3418 52.9322H33.0947V48.8721Z" fill="#B1B1B5"/>
<path d="M38.0076 48.8716H38.3834V52.9317H38.0076V48.8716Z" fill="#B1B1B5"/>
<path d="M40.4726 50.6611H41.269C42.0603 50.6611 42.2144 50.2198 42.2144 49.9382C42.2144 49.6566 42.0603 49.2158 41.269 49.2158H40.4726V50.6611ZM40.0962 48.8716H41.155C41.4742 48.8716 42.5903 48.8716 42.5903 49.9382C42.5903 50.7126 42.0036 50.9249 41.5595 50.982L42.7323 52.9323H42.3052L41.1726 51.0048H40.4726V52.9323H40.0962V48.8716Z" fill="#B1B1B5"/>
<path d="M44.092 48.8716H46.557V49.2158H44.4679V50.6611H46.426V51.0053H44.4679V52.5875H46.6483V52.9317H44.092V48.8716Z" fill="#B1B1B5"/>
<path d="M51.3581 52.2952C50.9773 52.8224 50.4528 53.0353 49.8612 53.0353C48.6312 53.0353 47.7771 52.1406 47.7771 50.9016C47.7771 49.6631 48.6312 48.7678 49.8612 48.7678C50.4077 48.7678 50.8975 48.9519 51.2502 49.4042L50.9426 49.6631C50.6922 49.2839 50.2657 49.1121 49.8612 49.1121C48.8079 49.1121 48.153 49.8915 48.153 50.9016C48.153 51.9111 48.8079 52.6911 49.8612 52.6911C50.2657 52.6911 50.7665 52.4959 51.051 52.0602L51.3581 52.2952Z" fill="#B1B1B5"/>
<path d="M53.6871 49.2158H52.3096V48.8721H55.441V49.2158H54.0629V52.9322H53.6871V49.2158Z" fill="#B1B1B5"/>
<path d="M59.0072 52.588H59.781C60.8519 52.588 61.6829 52.0663 61.6829 50.9021C61.6829 49.7374 60.8519 49.2158 59.781 49.2158H59.0072V52.588ZM58.6313 48.8721H59.8784C61.9735 48.8721 62.0594 50.6039 62.0594 50.9021C62.0594 51.1998 61.9735 52.9322 59.8784 52.9322H58.6313V48.8721Z" fill="#B1B1B5"/>
<path d="M63.5364 48.8716H66.0019V49.2158H63.9128V50.6611H65.8709V51.0053H63.9128V52.5875H66.0932V52.9317H63.5364V48.8716Z" fill="#B1B1B5"/>
<path d="M67.4668 48.8716H67.8427V52.5875H69.7215V52.9317H67.4668V48.8716Z" fill="#B1B1B5"/>
<path d="M70.9736 48.8716H71.3501V52.9317H70.9736V48.8716Z" fill="#B1B1B5"/>
<path d="M72.5696 48.8716H72.973L74.2718 52.4328L75.581 48.8716H75.9794L74.4479 52.9317H74.072L72.5696 48.8716Z" fill="#B1B1B5"/>
<path d="M77.2048 48.8716H79.6698V49.2158H77.5807V50.6611H79.5388V51.0053H77.5807V52.5875H79.7611V52.9317H77.2048V48.8716Z" fill="#B1B1B5"/>
<path d="M81.5112 50.6611H82.3081C83.0994 50.6611 83.253 50.2198 83.253 49.9382C83.253 49.6566 83.0994 49.2158 82.3081 49.2158H81.5112V50.6611ZM81.1348 48.8716H82.1941C82.5128 48.8716 83.6289 48.8716 83.6289 49.9382C83.6289 50.7126 83.0422 50.9249 82.5981 50.982L83.7708 52.9323H83.3438L82.2107 51.0048H81.5112V52.9323H81.1348V48.8716Z" fill="#B1B1B5"/>
<path d="M86.0201 51.1822L84.5403 48.8716H84.9899L86.2083 50.7986L87.4548 48.8716H87.8758L86.3965 51.1822V52.9317H86.0201V51.1822Z" fill="#B1B1B5"/>
<path d="M91.1244 52.1805C91.3236 52.5181 91.6478 52.6911 92.0468 52.6911C92.5537 52.6911 92.9521 52.3812 92.9521 51.8933C92.9521 50.7585 90.874 51.4238 90.874 49.881C90.874 49.1581 91.4888 48.7678 92.1673 48.7678C92.6048 48.7678 92.9923 48.917 93.2652 49.279L92.9405 49.5134C92.7529 49.2501 92.5025 49.1121 92.1547 49.1121C91.6709 49.1121 91.2499 49.3649 91.2499 49.881C91.2499 51.1023 93.328 50.3683 93.328 51.8933C93.328 52.6278 92.7303 53.0353 92.076 53.0353C91.546 53.0353 91.0788 52.8624 90.7656 52.4211L91.1244 52.1805Z" fill="#B1B1B5"/>
<path d="M94.7732 48.8716H97.2387V49.2158H95.1496V50.6611H97.1077V51.0053H95.1496V52.5875H97.3295V52.9317H94.7732V48.8716Z" fill="#B1B1B5"/>
<path d="M99.0805 50.6611H99.8769C100.668 50.6611 100.822 50.2198 100.822 49.9382C100.822 49.6566 100.668 49.2158 99.8769 49.2158H99.0805V50.6611ZM98.7041 48.8716H99.7629C100.082 48.8716 101.198 48.8716 101.198 49.9382C101.198 50.7126 100.611 50.9249 100.167 50.982L101.34 52.9323H100.913L99.78 51.0048H99.0805V52.9323H98.7041V48.8716Z" fill="#B1B1B5"/>
<path d="M102.177 48.8716H102.581L103.88 52.4328L105.189 48.8716H105.588L104.056 52.9317H103.679L102.177 48.8716Z" fill="#B1B1B5"/>
<path d="M106.813 48.8716H107.188V52.9317H106.813V48.8716Z" fill="#B1B1B5"/>
<path d="M112.245 52.2952C111.864 52.8224 111.34 53.0353 110.748 53.0353C109.517 53.0353 108.664 52.1406 108.664 50.9016C108.664 49.6631 109.517 48.7678 110.748 48.7678C111.294 48.7678 111.785 48.9519 112.136 49.4042L111.829 49.6631C111.579 49.2839 111.153 49.1121 110.748 49.1121C109.695 49.1121 109.04 49.8915 109.04 50.9016C109.04 51.9111 109.695 52.6911 110.748 52.6911C111.153 52.6911 111.652 52.4959 111.936 52.0602L112.245 52.2952Z" fill="#B1B1B5"/>
<path d="M113.553 48.8716H116.018V49.2158H113.929V50.6611H115.887V51.0053H113.929V52.5875H116.109V52.9317H113.553V48.8716Z" fill="#B1B1B5"/>
<path d="M36.372 39.6081C36.372 39.2473 36.3989 38.9767 36.2999 38.8054C36.2107 38.6336 36.0142 38.5537 35.5575 38.5892V40.0588H37.0791V41.5645H35.5575V42.5474C35.5575 42.8362 35.5305 43.125 35.8167 43.3057V44.6761H32.9076V43.3057C33.1943 43.125 33.1674 42.8362 33.1674 42.5474V39.0765C33.1674 38.6707 33.1404 38.4268 32.863 38.3181V36.9478H38.4395V39.6081H36.372Z" fill="#B1B1B5"/>
<path d="M41.375 42.5562C41.375 42.6111 41.348 43.1604 41.8406 43.1604C42.3331 43.1604 42.3056 42.6111 42.3056 42.5562V39.0576C42.3056 39.0038 42.3331 38.4622 41.8406 38.4622C41.348 38.4622 41.375 39.0038 41.375 39.0576V42.5562ZM44.6962 42.4392C44.6962 44.3512 43.5323 44.8291 41.8406 44.8291C40.1483 44.8291 38.9849 44.3512 38.9849 42.4392V39.1834C38.9849 37.2726 40.1483 36.7947 41.8406 36.7947C43.5323 36.7947 44.6962 37.2726 44.6962 39.1834V42.4392Z" fill="#B1B1B5"/>
<path d="M47.8167 42.5562C47.8167 42.6111 47.7897 43.1604 48.2822 43.1604C48.7742 43.1604 48.7473 42.6111 48.7473 42.5562V39.0576C48.7473 39.0038 48.7742 38.4622 48.2822 38.4622C47.7897 38.4622 47.8167 39.0038 47.8167 39.0576V42.5562ZM51.1374 42.4392C51.1374 44.3512 49.974 44.8291 48.2822 44.8291C46.59 44.8291 45.426 44.3512 45.426 42.4392V39.1834C45.426 37.2726 46.59 36.7947 48.2822 36.7947C49.974 36.7947 51.1374 37.2726 51.1374 39.1834V42.4392Z" fill="#B1B1B5"/>
<path d="M54.5208 43.0435H54.7091C55.2275 43.0435 55.3893 42.8539 55.3893 42.2951V39.3825C55.3893 38.8232 55.2275 38.6341 54.7091 38.6341H54.5208V43.0435ZM55.1383 36.9478C55.7921 36.9478 56.5439 36.9572 57.0898 37.3807C57.7166 37.8769 57.7793 38.5804 57.7793 39.3193V42.2142C57.7793 42.9715 57.743 43.5574 57.1619 44.1079C56.6154 44.6307 55.9346 44.6756 55.2104 44.6756H51.8264V43.3057C52.0944 43.1877 52.1219 42.9537 52.1302 42.6915V38.9313C52.1219 38.6618 52.1032 38.4351 51.8264 38.3187V36.9478H55.1383Z" fill="#B1B1B5"/>
<path d="M64.8187 39.2832C64.8187 38.9411 64.8099 38.4627 64.3449 38.4627C64.0405 38.4627 63.8787 38.6878 63.8787 38.9766C63.8787 39.1307 63.8969 39.2832 64.0224 39.4101C64.1567 39.5537 64.4962 39.6623 64.6932 39.7161C65.2661 39.8691 66.0366 40.077 66.5198 40.4019C66.7977 40.5909 67.0035 40.8165 67.1108 41.1414C67.2363 41.4745 67.2897 41.8443 67.2897 42.2052V42.2412C67.2897 43.7291 66.6359 44.829 64.3531 44.829C63.3779 44.829 62.3483 44.6394 61.5696 44.018V41.9435H63.9057C63.9057 42.4036 63.8969 42.7457 63.9773 42.9081C64.0582 43.0611 64.2282 43.1604 64.4071 43.1604C64.7295 43.1604 64.8726 42.8455 64.8726 42.5655C64.8726 41.7722 64.3801 41.709 63.7175 41.5472C62.2674 41.1857 61.4529 40.8348 61.4529 39.1662V38.9943C61.4887 38.165 61.6224 37.7503 62.2498 37.2725C62.7599 36.885 63.5023 36.7952 64.2188 36.7952C65.2573 36.7952 66.1797 37.002 67.0481 37.6062V39.4278H64.8187V39.2832Z" fill="#B1B1B5"/>
<path d="M71.1426 36.9478H73.9174V38.3187C73.5954 38.4989 73.6218 38.7871 73.6218 39.0765V42.2048C73.6037 43.0258 73.5409 43.6749 72.8877 44.252C72.3236 44.7476 71.5449 44.8291 70.8559 44.8291C70.1663 44.8291 69.3876 44.7476 68.8235 44.252C68.1708 43.6749 68.1075 43.0258 68.0899 42.2048V39.0765C68.0899 38.7871 68.1163 38.4989 67.8296 38.3187V36.9478H70.7397V38.3187C70.453 38.4989 70.48 38.7871 70.48 39.0765V42.6017C70.48 42.7553 70.5152 43.1516 70.9538 43.1516C71.393 43.1516 71.4287 42.7553 71.4287 42.6017V39.0765C71.4199 38.7871 71.4464 38.4989 71.1426 38.3187V36.9478Z" fill="#B1B1B5"/>
<path d="M77.2368 40.825H77.4602C78.1674 40.825 78.141 40.4197 78.141 39.698C78.141 38.9679 78.1674 38.5621 77.4602 38.5621H77.2368V40.825ZM74.8461 39.0765C74.8461 38.7871 74.8736 38.4989 74.5869 38.3187V36.9478H77.7111C78.3649 36.9478 79.2422 36.9389 79.7793 37.3536C80.6565 38.0299 80.531 39.2656 80.531 39.464V40.0766C80.531 41.5473 80.0473 42.4576 78.0876 42.4576H77.2368C77.2368 42.8368 77.2098 43.1245 77.4965 43.3058V44.6756H74.5869V43.3058C74.8736 43.1245 74.8461 42.8368 74.8461 42.5474V39.0765Z" fill="#B1B1B5"/>
<path d="M83.7622 40.825H83.9856C84.6928 40.825 84.6664 40.4197 84.6664 39.698C84.6664 38.9679 84.6928 38.5621 83.9856 38.5621H83.7622V40.825ZM81.3715 39.0765C81.3715 38.7871 81.3985 38.4989 81.1123 38.3187V36.9478H84.236C84.8903 36.9478 85.7676 36.9389 86.3041 37.3536C87.1819 38.0299 87.0564 39.2656 87.0564 39.464V40.0766C87.0564 41.5473 86.5727 42.4576 84.6124 42.4576H83.7622C83.7622 42.8368 83.7352 43.1245 84.0219 43.3058V44.6756H81.1123V43.3058C81.3985 43.1245 81.3715 42.8368 81.3715 42.5474V39.0765Z" fill="#B1B1B5"/>
<path d="M87.5605 44.6756V43.3052C87.8473 43.1245 87.8208 42.8368 87.8208 42.5474V39.076C87.8208 38.7871 87.8473 38.4983 87.5605 38.3181V36.9478H90.4707V38.3181C90.1845 38.4983 90.2098 38.7871 90.2098 39.076V43.0347H90.4432C91.0524 43.0347 91.043 42.6643 91.043 42.1776V40.9242H93.147V44.6756H87.5605Z" fill="#B1B1B5"/>
<path d="M94.0815 39.0765C94.0815 38.7877 94.1085 38.4989 93.8218 38.3187V36.9478H96.7308V38.3187C96.4452 38.4989 96.4722 38.7877 96.4722 39.0765V42.5479C96.4722 42.8368 96.4452 43.125 96.7308 43.3057V44.6761H93.8218V43.3057C94.1085 43.125 94.0815 42.8368 94.0815 42.5479V39.0765Z" fill="#B1B1B5"/>
<path d="M103.164 41.8805V44.6756H97.417V43.3052C97.7026 43.1245 97.6767 42.8368 97.6767 42.5474V39.076C97.6767 38.7871 97.7026 38.4983 97.417 38.3181V36.9478H103.164V39.5627H100.962V39.3282C100.962 38.8054 100.89 38.5887 100.246 38.5887H100.102V39.9685H101.615V41.4747H100.102V43.0347H100.246C100.962 43.0347 100.952 42.7641 100.962 42.1327V41.8805H103.164Z" fill="#B1B1B5"/>
<path d="M106.43 40.1221H106.671C107.192 40.1221 107.352 39.8516 107.352 39.31C107.352 38.8144 107.192 38.5433 106.671 38.5433H106.43V40.1221ZM106.43 42.5475C106.43 42.8363 106.403 43.1246 106.69 43.3053V44.6757H103.78V43.3053C104.067 43.1246 104.04 42.8363 104.04 42.5475V39.0761C104.04 38.7872 104.067 38.4984 103.78 38.3182V36.9473H107.101C107.692 36.9473 108.435 36.939 108.954 37.2544C109.581 37.6242 109.796 38.2828 109.796 38.9851C109.796 39.8333 109.544 40.5728 108.65 40.7979V40.8162C109.402 40.9964 109.653 41.3212 109.653 42.1056V42.5475C109.653 42.8091 109.653 43.1872 109.949 43.3053V44.6757H107.38C107.281 44.2516 107.217 43.8912 107.244 42.6018C107.244 41.9887 107.182 41.6816 106.528 41.6638H106.43V42.5475Z" fill="#B1B1B5"/>
<path d="M113.928 39.2832C113.928 38.9411 113.919 38.4627 113.454 38.4627C113.149 38.4627 112.988 38.6878 112.988 38.9766C112.988 39.1307 113.005 39.2832 113.131 39.4101C113.266 39.5537 113.605 39.6623 113.802 39.7161C114.375 39.8691 115.144 40.077 115.629 40.4019C115.907 40.5909 116.113 40.8165 116.219 41.1414C116.345 41.4745 116.399 41.8443 116.399 42.2052V42.2412C116.399 43.7291 115.745 44.829 113.462 44.829C112.486 44.829 111.457 44.6394 110.678 44.018V41.9435H113.015C113.015 42.4036 113.005 42.7457 113.087 42.9081C113.168 43.0611 113.338 43.1604 113.516 43.1604C113.838 43.1604 113.981 42.8455 113.981 42.5655C113.981 41.7722 113.489 41.709 112.827 41.5472C111.376 41.1857 110.562 40.8348 110.562 39.1662V38.9943C110.597 38.165 110.732 37.7503 111.357 37.2725C111.869 36.885 112.612 36.7952 113.328 36.7952C114.367 36.7952 115.29 37.002 116.157 37.6062V39.4278H113.928V39.2832Z" fill="#B1B1B5"/>
<path d="M44.5071 23.9545H39.4237V23.5758C39.4237 22.8186 39.5816 21.3645 38.4149 21.3645C37.4254 21.3645 37.3462 22.3014 37.3462 23.0381V30.6295C37.3462 30.8086 37.4254 31.7455 38.4149 31.7455C39.5816 31.7455 39.4237 30.2908 39.4237 29.5136V28.7564H38.5129V25.4291H44.5071V33.5782C42.8451 35.0927 40.3334 35.4314 38.1772 35.4314C36.6538 35.4314 34.9132 35.3123 33.7068 34.2956C32.1439 32.9606 32.0652 31.4068 32.0652 29.533V23.0381C32.0652 21.5236 32.2429 20.049 33.4691 19.0129C34.6958 17.9574 36.3776 17.678 37.9394 17.678C40.2536 17.678 42.6475 18.2157 44.5071 19.6504V23.9545Z" fill="#B1B1B5"/>
<path d="M51.7779 25.0312H52.3123C53.4592 25.0312 53.8152 24.433 53.8152 23.2378C53.8152 22.1418 53.4592 21.5437 52.3123 21.5437H51.7779V25.0312ZM51.7779 30.3908C51.7779 31.0283 51.7185 31.6664 52.3513 32.0649V35.0929H45.9224V32.0649C46.5558 31.6664 46.4958 31.0283 46.4958 30.3908V22.7195C46.4958 22.082 46.5558 21.4439 45.9224 21.0459V18.0174H53.261C54.5664 18.0174 56.2086 17.9974 57.3561 18.6943C58.7401 19.5114 59.2151 20.9666 59.2151 22.5205C59.2151 24.3937 58.6614 26.0274 56.683 26.5252V26.5657C58.345 26.9637 58.8986 27.6805 58.8986 29.414V30.3908C58.8986 30.9684 58.8986 31.8061 59.5513 32.0649V35.0929H53.8746C53.6567 34.1565 53.518 33.3594 53.578 30.5099C53.578 29.1551 53.4394 28.4782 51.9958 28.4377H51.7779V30.3908Z" fill="#B1B1B5"/>
<path d="M73.686 28.9156V35.0929H60.9866V32.0644C61.6195 31.6658 61.5606 31.0283 61.5606 30.3902V22.7189C61.5606 22.0814 61.6195 21.4434 60.9866 21.0453V18.0168H73.686V23.795H68.82V23.2766C68.82 22.1214 68.6615 21.6429 67.2372 21.6429H66.9208V24.6919H70.2635V28.0192H66.9208V31.4668H67.2372C68.82 31.4668 68.8002 30.8686 68.82 29.4744V28.9156H73.686Z" fill="#B1B1B5"/>
<path d="M87.6768 28.9156V35.0929H74.9773V32.0644C75.6102 31.6658 75.5513 31.0283 75.5513 30.3902V22.7189C75.5513 22.0814 75.6102 21.4434 74.9773 21.0453V18.0168H87.6768V23.795H82.8102V23.2766C82.8102 22.1214 82.6522 21.6429 81.228 21.6429H80.9115V24.6919H84.2543V28.0192H80.9115V31.4668H81.228C82.8102 31.4668 82.7909 30.8686 82.8102 29.4744V28.9156H87.6768Z" fill="#B1B1B5"/>
<path d="M97.7467 25.728H97.7852V22.7189C97.7852 22.0814 97.8457 21.4434 97.2123 21.0453V18.0168H102.632V21.0453C101.999 21.4434 102.058 22.0814 102.058 22.7189V35.0929H96.9349L93.7904 27.4216H93.7507V30.3902C93.7507 31.0283 93.6913 31.6658 94.3242 32.0644V35.0929H89.063V32.0644C89.6953 31.6658 89.637 31.0283 89.637 30.3902V22.7189C89.637 22.0814 89.6953 21.4434 89.063 21.0453V18.0168H94.7997L97.7467 25.728Z" fill="#B1B1B5"/>
<path d="M111.54 23.1772C111.54 22.4205 111.521 21.3645 110.491 21.3645C109.82 21.3645 109.464 21.8629 109.464 22.4998C109.464 22.8391 109.503 23.1772 109.78 23.4566C110.077 23.7749 110.829 24.0143 111.263 24.1335C112.529 24.4728 114.23 24.9307 115.298 25.6486C115.911 26.0671 116.367 26.565 116.604 27.2817C116.88 28.019 116.999 28.8367 116.999 29.6334V29.7126C116.999 33.0011 115.555 35.4314 110.513 35.4314C108.355 35.4314 106.081 35.0135 104.36 33.6386V29.0557H109.523C109.523 30.0719 109.503 30.8291 109.681 31.1872C109.858 31.5265 110.234 31.7455 110.631 31.7455C111.343 31.7455 111.66 31.0475 111.66 30.4305C111.66 28.6771 110.57 28.5379 109.107 28.1782C105.902 27.3815 104.102 26.6054 104.102 22.9184V22.5397C104.183 20.707 104.478 19.7907 105.863 18.734C106.99 17.877 108.633 17.678 110.215 17.678C112.51 17.678 114.547 18.1359 116.466 19.4708V23.496H111.54V23.1772Z" fill="#B1B1B5"/>
<path d="M33.0947 47.1546C32.8994 47.1546 32.7419 46.9938 32.7419 46.797C32.7419 46.6002 32.8994 46.4417 33.0947 46.4417H116.018C116.212 46.4417 116.37 46.6002 116.37 46.797C116.37 46.9938 116.212 47.1546 116.018 47.1546H33.0947Z" fill="#B1B1B5"/>
</svg>
