<svg width="631" height="521" viewBox="0 0 631 521" fill="none" xmlns="http://www.w3.org/2000/svg">
<rect x="68.5" y="44.5" width="385" height="385" rx="24.5" stroke="url(#paint0_linear_1507_20138)" stroke-dasharray="3 3"/>
<g filter="url(#filter0_d_1507_20138)">
<rect x="30" y="406" width="56" height="51" rx="15.7647" fill="url(#paint1_linear_1507_20138)"/>
</g>
<path d="M53.092 429.252C53.092 429.775 52.966 430.265 52.714 430.722C52.4713 431.179 52.084 431.548 51.552 431.828C51.0293 432.108 50.3667 432.248 49.564 432.248H47.926V436H45.966V426.228H49.564C50.32 426.228 50.964 426.359 51.496 426.62C52.028 426.881 52.4247 427.241 52.686 427.698C52.9567 428.155 53.092 428.673 53.092 429.252ZM49.48 430.666C50.0213 430.666 50.4227 430.545 50.684 430.302C50.9453 430.05 51.076 429.7 51.076 429.252C51.076 428.3 50.544 427.824 49.48 427.824H47.926V430.666H49.48ZM57.8996 426.228C58.9262 426.228 59.8269 426.429 60.6016 426.83C61.3856 427.231 61.9876 427.805 62.4076 428.552C62.8369 429.289 63.0516 430.148 63.0516 431.128C63.0516 432.108 62.8369 432.967 62.4076 433.704C61.9876 434.432 61.3856 434.997 60.6016 435.398C59.8269 435.799 58.9262 436 57.8996 436H54.4836V426.228H57.8996ZM57.8296 434.334C58.8562 434.334 59.6496 434.054 60.2096 433.494C60.7696 432.934 61.0496 432.145 61.0496 431.128C61.0496 430.111 60.7696 429.317 60.2096 428.748C59.6496 428.169 58.8562 427.88 57.8296 427.88H56.4436V434.334H57.8296ZM70.5527 426.228V427.81H66.4787V430.316H69.6007V431.87H66.4787V436H64.5187V426.228H70.5527Z" fill="#F3F4F8"/>
<g filter="url(#filter1_d_1507_20138)">
<rect x="128" y="97" width="384" height="384" rx="12" fill="#2F3142"/>
</g>
<g filter="url(#filter2_d_1507_20138)">
<rect x="473" y="289" width="128" height="153" rx="12" fill="#2F3142"/>
</g>
<path d="M496.63 414H497.974L494.46 404.298H492.99L489.462 414H490.806L491.59 411.83H495.846L496.63 414ZM495.482 410.794H491.954L493.718 405.866L495.482 410.794ZM500.786 409.828C500.786 408.05 501.71 407.504 502.928 407.504H503.264V406.188C502.046 406.188 501.22 406.72 500.786 407.574V406.328H499.512V414H500.786V409.828ZM504.258 410.15C504.258 412.586 505.812 414.126 507.996 414.126C509.9 414.126 511.146 413.062 511.538 411.536H510.166C509.886 412.502 509.13 413.048 507.996 413.048C506.596 413.048 505.56 412.054 505.56 410.15C505.56 408.274 506.596 407.28 507.996 407.28C509.13 407.28 509.9 407.868 510.166 408.792H511.538C511.146 407.182 509.9 406.202 507.996 406.202C505.812 406.202 504.258 407.742 504.258 410.15ZM513.238 414H514.512V409.758C514.512 408.106 515.408 407.294 516.71 407.294C517.998 407.294 518.852 408.092 518.852 409.66V414H520.112V409.478C520.112 407.28 518.754 406.188 517.046 406.188C515.968 406.188 515.016 406.622 514.512 407.434V403.64H513.238V414ZM522.193 414H523.467V406.328H522.193V414ZM522.851 405.082C523.313 405.082 523.691 404.704 523.691 404.214C523.691 403.724 523.313 403.346 522.851 403.346C522.361 403.346 521.983 403.724 521.983 404.214C521.983 404.704 522.361 405.082 522.851 405.082ZM524.729 406.328L527.739 414H529.223L532.233 406.328H530.875L528.495 412.824L526.101 406.328H524.729ZM536.748 407.28C538.064 407.28 539.184 408.106 539.17 409.604H534.326C534.466 408.106 535.502 407.28 536.748 407.28ZM540.332 411.634H538.96C538.68 412.46 537.952 413.048 536.804 413.048C535.502 413.048 534.41 412.194 534.312 410.64H540.444C540.472 410.374 540.486 410.15 540.486 409.87C540.486 407.77 539.03 406.202 536.804 406.202C534.564 406.202 533.01 407.728 533.01 410.15C533.01 412.586 534.62 414.126 536.804 414.126C538.708 414.126 539.94 413.034 540.332 411.634ZM541.692 410.136C541.692 412.516 543.274 414.126 545.332 414.126C546.732 414.126 547.726 413.412 548.188 412.558V414H549.476V403.64H548.188V407.7C547.656 406.818 546.55 406.202 545.346 406.202C543.274 406.202 541.692 407.742 541.692 410.136ZM548.188 410.15C548.188 411.956 546.984 413.006 545.584 413.006C544.184 413.006 542.994 411.942 542.994 410.136C542.994 408.33 544.184 407.308 545.584 407.308C546.984 407.308 548.188 408.372 548.188 410.15ZM555.599 414H556.873V407.378H558.483V406.328H556.873V405.782C556.873 404.788 557.251 404.368 558.399 404.368V403.304C556.439 403.304 555.599 404.074 555.599 405.782V406.328H554.605V407.378H555.599V414ZM559.969 414H561.243V406.328H559.969V414ZM560.627 405.082C561.089 405.082 561.467 404.704 561.467 404.214C561.467 403.724 561.089 403.346 560.627 403.346C560.137 403.346 559.759 403.724 559.759 404.214C559.759 404.704 560.137 405.082 560.627 405.082ZM563.414 414H564.688V403.64H563.414V414ZM570.121 407.28C571.437 407.28 572.557 408.106 572.543 409.604H567.699C567.839 408.106 568.875 407.28 570.121 407.28ZM573.705 411.634H572.333C572.053 412.46 571.325 413.048 570.177 413.048C568.875 413.048 567.783 412.194 567.685 410.64H573.817C573.845 410.374 573.859 410.15 573.859 409.87C573.859 407.77 572.403 406.202 570.177 406.202C567.937 406.202 566.383 407.728 566.383 410.15C566.383 412.586 567.993 414.126 570.177 414.126C572.081 414.126 573.313 413.034 573.705 411.634ZM581.057 411.914C581.001 409.17 576.549 410.164 576.549 408.344C576.549 407.728 577.109 407.28 578.047 407.28C579.069 407.28 579.657 407.84 579.713 408.61H580.987C580.903 407.112 579.783 406.202 578.089 406.202C576.381 406.202 575.275 407.168 575.275 408.344C575.275 411.2 579.811 410.206 579.811 411.914C579.811 412.544 579.251 413.048 578.243 413.048C577.165 413.048 576.507 412.488 576.437 411.746H575.121C575.205 413.146 576.465 414.126 578.257 414.126C579.951 414.126 581.057 413.174 581.057 411.914Z" fill="#B1B1B5"/>
<path d="M489.928 378.216H491.704C491.816 377.4 492.408 376.632 493.688 376.632C494.936 376.632 495.592 377.304 495.592 378.312C495.592 379.56 494.584 380.04 492.936 380.056H492.504V381.56H492.92C494.824 381.56 495.816 382.088 495.816 383.624C495.816 384.712 495.144 385.544 493.784 385.544C492.408 385.544 491.608 384.712 491.528 383.624H489.768C489.88 385.912 491.592 387.064 493.8 387.064C496.232 387.064 497.544 385.656 497.544 383.8C497.544 382.184 496.76 381.176 495.544 380.808V380.744C496.456 380.44 497.336 379.496 497.336 378.104C497.336 376.408 496.072 375.064 493.752 375.064C491.624 375.064 490.056 376.2 489.928 378.216ZM499.316 386.84H507.092V385.32H502.02C503.892 383.608 506.772 381.448 506.772 378.616C506.772 376.52 505.428 375.096 503.06 375.096C500.996 375.096 499.364 376.328 499.3 378.856H501.06C501.108 377.544 501.796 376.648 503.076 376.648C504.436 376.648 504.964 377.48 504.964 378.696C504.964 380.984 502.068 383.096 499.316 385.512V386.84ZM518.163 375.736C515.027 375.736 512.483 378.088 512.483 381.416C512.483 384.76 515.027 387.096 518.163 387.096C521.155 387.096 523.331 384.904 523.667 382.328V380.904H517.539V382.36H521.715C521.443 384.232 520.179 385.448 518.163 385.448C515.955 385.448 514.355 383.864 514.355 381.416C514.355 378.968 515.955 377.4 518.163 377.4C519.491 377.4 520.547 377.96 521.139 379.08H523.331C522.483 376.904 520.483 375.736 518.163 375.736ZM531.738 383.816C531.738 384.888 530.986 385.512 529.754 385.512H527.29V382.04H529.69C530.906 382.04 531.738 382.712 531.738 383.816ZM531.45 378.968C531.45 379.992 530.73 380.552 529.546 380.552H527.29V377.368H529.546C530.73 377.368 531.45 377.96 531.45 378.968ZM533.562 384.008C533.562 382.68 532.602 381.496 531.418 381.288C532.49 380.904 533.306 380.088 533.306 378.744C533.306 377.176 532.058 375.88 529.706 375.88H525.466V387H529.914C532.186 387 533.562 385.704 533.562 384.008Z" fill="#3D6BF5"/>
<circle cx="513" cy="329" r="24" fill="#3D6BF5"/>
<path fill-rule="evenodd" clip-rule="evenodd" d="M520 338H506C504.895 338 504 337.105 504 336V322C504 320.895 504.895 320 506 320H520C521.105 320 522 320.895 522 322V336C522 337.105 521.105 338 520 338Z" stroke="#F3F4F8" stroke-width="1.5" stroke-linecap="round" stroke-linejoin="round"/>
<path d="M508 328H518" stroke="#F3F4F8" stroke-width="1.5" stroke-linecap="round" stroke-linejoin="round"/>
<path d="M505 332H509" stroke="#F3F4F8" stroke-width="1.5" stroke-linecap="round" stroke-linejoin="round"/>
<path d="M521 332H517" stroke="#F3F4F8" stroke-width="1.5" stroke-linecap="round" stroke-linejoin="round"/>
<path d="M509 332L510 334" stroke="#F3F4F8" stroke-width="1.5" stroke-linecap="round" stroke-linejoin="round"/>
<path d="M517 332L516 334" stroke="#F3F4F8" stroke-width="1.5" stroke-linecap="round" stroke-linejoin="round"/>
<path d="M510 334H516" stroke="#F3F4F8" stroke-width="1.5" stroke-linecap="round" stroke-linejoin="round"/>
<path d="M508 324H518" stroke="#F3F4F8" stroke-width="1.5" stroke-linecap="round" stroke-linejoin="round"/>
<rect x="176" y="424" width="8" height="8" rx="4" fill="#007AFF"/>
<path d="M195.588 425.388C195.444 424.176 194.604 423.144 192.948 423.144C190.752 423.144 189.876 424.824 189.876 427.548C189.876 430.176 190.488 432.024 193.056 432.024C194.952 432.024 195.888 430.728 195.888 429.144C195.888 427.32 194.796 426.252 193.176 426.252C192.144 426.252 191.196 426.732 190.824 427.584C190.812 425.004 191.556 424.056 192.936 424.056C193.92 424.056 194.412 424.548 194.58 425.388H195.588ZM192.948 427.176C194.196 427.176 194.832 427.956 194.832 429.18C194.832 430.356 194.124 431.112 192.996 431.112C191.628 431.112 190.956 430.212 190.956 429.06C190.956 427.764 191.952 427.176 192.948 427.176ZM197.361 427.572C197.361 430.092 197.985 432 200.385 432C202.773 432 203.397 430.092 203.397 427.572C203.397 425.088 202.773 423.192 200.385 423.192C197.985 423.192 197.361 425.088 197.361 427.572ZM202.317 427.572C202.317 429.444 202.089 431.004 200.385 431.004C198.669 431.004 198.441 429.444 198.441 427.572C198.441 425.772 198.669 424.188 200.385 424.188C202.089 424.188 202.317 425.772 202.317 427.572ZM212.068 423.54C209.716 423.54 207.868 425.304 207.868 427.812C207.868 430.32 209.716 432.072 212.068 432.072C214.336 432.072 215.98 430.404 216.172 428.328V427.488H211.672V428.376H215.008C214.84 430.032 213.712 431.088 212.068 431.088C210.304 431.088 208.984 429.816 208.984 427.812C208.984 425.796 210.304 424.524 212.068 424.524C213.244 424.524 214.156 425.088 214.612 426.06H215.92C215.296 424.452 213.832 423.54 212.068 423.54ZM222.367 429.648C222.367 430.56 221.719 431.1 220.639 431.1H218.707V428.148H220.603C221.671 428.148 222.367 428.724 222.367 429.648ZM222.151 425.892C222.151 426.744 221.563 427.248 220.543 427.248H218.707V424.536H220.519C221.587 424.536 222.151 425.064 222.151 425.892ZM223.459 429.756C223.459 428.724 222.715 427.848 221.803 427.692C222.607 427.428 223.267 426.816 223.267 425.76C223.267 424.596 222.379 423.636 220.615 423.636H217.615V432H220.735C222.463 432 223.459 431.016 223.459 429.756Z" fill="#B1B1B5"/>
<path d="M176.825 451.173C176.825 453.164 178.123 454.077 179.707 454.077C181.291 454.077 182.6 453.164 182.6 451.173V446.333H181.599V451.184C181.599 452.592 180.851 453.197 179.718 453.197C178.585 453.197 177.826 452.592 177.826 451.184V446.333H176.825V451.173ZM185.271 449.083V447.972H184.27V456.86H185.271V452.889C185.645 453.505 186.426 454.099 187.526 454.099C189.143 454.099 190.386 452.834 190.386 450.964C190.386 449.083 189.143 447.873 187.526 447.873C186.426 447.873 185.634 448.445 185.271 449.083ZM189.363 450.964C189.363 452.383 188.428 453.219 187.317 453.219C186.228 453.219 185.271 452.394 185.271 450.975C185.271 449.578 186.228 448.742 187.317 448.742C188.428 448.742 189.363 449.545 189.363 450.964ZM191.703 454H192.704V445.86H191.703V454ZM200.13 450.975C200.13 449.072 198.799 447.873 197.083 447.873C195.378 447.873 194.036 449.072 194.036 450.975C194.036 452.889 195.334 454.099 197.039 454.099C198.755 454.099 200.13 452.889 200.13 450.975ZM195.059 450.975C195.059 449.457 196.016 448.742 197.072 448.742C198.106 448.742 199.107 449.457 199.107 450.975C199.107 452.504 198.084 453.219 197.039 453.219C195.994 453.219 195.059 452.504 195.059 450.975ZM201.073 450.964C201.073 452.834 202.316 454.099 203.922 454.099C205.033 454.099 205.814 453.527 206.177 452.878V454H207.189V447.972H206.177V449.072C205.825 448.445 205.055 447.873 203.933 447.873C202.316 447.873 201.073 449.083 201.073 450.964ZM206.177 450.975C206.177 452.394 205.231 453.219 204.131 453.219C203.031 453.219 202.096 452.383 202.096 450.964C202.096 449.545 203.031 448.742 204.131 448.742C205.231 448.742 206.177 449.578 206.177 450.975ZM208.506 450.964C208.506 452.834 209.749 454.099 211.366 454.099C212.466 454.099 213.247 453.538 213.61 452.867V454H214.622V445.86H213.61V449.05C213.192 448.357 212.323 447.873 211.377 447.873C209.749 447.873 208.506 449.083 208.506 450.964ZM213.61 450.975C213.61 452.394 212.664 453.219 211.564 453.219C210.464 453.219 209.529 452.383 209.529 450.964C209.529 449.545 210.464 448.742 211.564 448.742C212.664 448.742 213.61 449.578 213.61 450.975ZM218.877 448.72C219.911 448.72 220.791 449.369 220.78 450.546H216.974C217.084 449.369 217.898 448.72 218.877 448.72ZM221.693 452.141H220.615C220.395 452.79 219.823 453.252 218.921 453.252C217.898 453.252 217.04 452.581 216.963 451.36H221.781C221.803 451.151 221.814 450.975 221.814 450.755C221.814 449.105 220.67 447.873 218.921 447.873C217.161 447.873 215.94 449.072 215.94 450.975C215.94 452.889 217.205 454.099 218.921 454.099C220.417 454.099 221.385 453.241 221.693 452.141ZM222.761 450.964C222.761 452.834 224.004 454.099 225.621 454.099C226.721 454.099 227.502 453.538 227.865 452.867V454H228.877V445.86H227.865V449.05C227.447 448.357 226.578 447.873 225.632 447.873C224.004 447.873 222.761 449.083 222.761 450.964ZM227.865 450.975C227.865 452.394 226.919 453.219 225.819 453.219C224.719 453.219 223.784 452.383 223.784 450.964C223.784 449.545 224.719 448.742 225.819 448.742C226.919 448.742 227.865 449.578 227.865 450.975ZM233.721 452.35C233.721 453.56 234.326 454 235.393 454H236.295V453.153H235.558C234.942 453.153 234.722 452.944 234.722 452.35V448.797H236.295V447.972H234.722V446.454H233.721V447.972H232.94V448.797H233.721V452.35ZM237.508 454H238.509V450.667C238.509 449.369 239.213 448.731 240.236 448.731C241.248 448.731 241.919 449.358 241.919 450.59V454H242.909V450.447C242.909 448.72 241.842 447.862 240.5 447.862C239.653 447.862 238.905 448.203 238.509 448.841V445.86H237.508V454ZM244.544 454H245.545V447.972H244.544V454ZM245.061 446.993C245.424 446.993 245.721 446.696 245.721 446.311C245.721 445.926 245.424 445.629 245.061 445.629C244.676 445.629 244.379 445.926 244.379 446.311C244.379 446.696 244.676 446.993 245.061 446.993ZM251.585 452.361C251.541 450.205 248.043 450.986 248.043 449.556C248.043 449.072 248.483 448.72 249.22 448.72C250.023 448.72 250.485 449.16 250.529 449.765H251.53C251.464 448.588 250.584 447.873 249.253 447.873C247.911 447.873 247.042 448.632 247.042 449.556C247.042 451.8 250.606 451.019 250.606 452.361C250.606 452.856 250.166 453.252 249.374 453.252C248.527 453.252 248.01 452.812 247.955 452.229H246.921C246.987 453.329 247.977 454.099 249.385 454.099C250.716 454.099 251.585 453.351 251.585 452.361ZM264.632 454H265.622V450.447C265.622 448.72 264.555 447.862 263.18 447.862C262.256 447.862 261.398 448.335 261.046 449.204C260.65 448.302 259.825 447.862 258.835 447.862C258.043 447.862 257.328 448.203 256.932 448.841V447.972H255.931V454H256.932V450.678C256.932 449.38 257.625 448.731 258.637 448.731C259.627 448.731 260.287 449.358 260.287 450.59V454H261.277V450.678C261.277 449.38 261.97 448.731 262.982 448.731C263.972 448.731 264.632 449.358 264.632 450.59V454ZM272.984 450.975C272.984 449.072 271.653 447.873 269.937 447.873C268.232 447.873 266.89 449.072 266.89 450.975C266.89 452.889 268.188 454.099 269.893 454.099C271.609 454.099 272.984 452.889 272.984 450.975ZM267.913 450.975C267.913 449.457 268.87 448.742 269.926 448.742C270.96 448.742 271.961 449.457 271.961 450.975C271.961 452.504 270.938 453.219 269.893 453.219C268.848 453.219 267.913 452.504 267.913 450.975ZM278.711 454H279.701V450.447C279.701 448.72 278.634 447.862 277.237 447.862C276.423 447.862 275.697 448.203 275.301 448.83V447.972H274.3V454H275.301V450.667C275.301 449.369 276.005 448.731 277.028 448.731C278.04 448.731 278.711 449.358 278.711 450.59V454ZM281.556 452.35C281.556 453.56 282.161 454 283.228 454H284.13V453.153H283.393C282.777 453.153 282.557 452.944 282.557 452.35V448.797H284.13V447.972H282.557V446.454H281.556V447.972H280.775V448.797H281.556V452.35ZM285.343 454H286.344V450.667C286.344 449.369 287.048 448.731 288.071 448.731C289.083 448.731 289.754 449.358 289.754 450.59V454H290.744V450.447C290.744 448.72 289.677 447.862 288.335 447.862C287.488 447.862 286.74 448.203 286.344 448.841V445.86H285.343V454Z" fill="#B1B1B5"/>
<rect x="348" y="424" width="8" height="8" rx="4" fill="url(#paint2_linear_1507_20138)"/>
<path d="M367.588 425.388C367.444 424.176 366.604 423.144 364.948 423.144C362.752 423.144 361.876 424.824 361.876 427.548C361.876 430.176 362.488 432.024 365.056 432.024C366.952 432.024 367.888 430.728 367.888 429.144C367.888 427.32 366.796 426.252 365.176 426.252C364.144 426.252 363.196 426.732 362.824 427.584C362.812 425.004 363.556 424.056 364.936 424.056C365.92 424.056 366.412 424.548 366.58 425.388H367.588ZM364.948 427.176C366.196 427.176 366.832 427.956 366.832 429.18C366.832 430.356 366.124 431.112 364.996 431.112C363.628 431.112 362.956 430.212 362.956 429.06C362.956 427.764 363.952 427.176 364.948 427.176ZM369.361 427.572C369.361 430.092 369.985 432 372.385 432C374.773 432 375.397 430.092 375.397 427.572C375.397 425.088 374.773 423.192 372.385 423.192C369.985 423.192 369.361 425.088 369.361 427.572ZM374.317 427.572C374.317 429.444 374.089 431.004 372.385 431.004C370.669 431.004 370.441 429.444 370.441 427.572C370.441 425.772 370.669 424.188 372.385 424.188C374.089 424.188 374.317 425.772 374.317 427.572ZM384.068 423.54C381.716 423.54 379.868 425.304 379.868 427.812C379.868 430.32 381.716 432.072 384.068 432.072C386.336 432.072 387.98 430.404 388.172 428.328V427.488H383.672V428.376H387.008C386.84 430.032 385.712 431.088 384.068 431.088C382.304 431.088 380.984 429.816 380.984 427.812C380.984 425.796 382.304 424.524 384.068 424.524C385.244 424.524 386.156 425.088 386.612 426.06H387.92C387.296 424.452 385.832 423.54 384.068 423.54ZM394.367 429.648C394.367 430.56 393.719 431.1 392.639 431.1H390.707V428.148H392.603C393.671 428.148 394.367 428.724 394.367 429.648ZM394.151 425.892C394.151 426.744 393.563 427.248 392.543 427.248H390.707V424.536H392.519C393.587 424.536 394.151 425.064 394.151 425.892ZM395.459 429.756C395.459 428.724 394.715 427.848 393.803 427.692C394.607 427.428 395.267 426.816 395.267 425.76C395.267 424.596 394.379 423.636 392.615 423.636H389.615V432H392.735C394.463 432 395.459 431.016 395.459 429.756Z" fill="#B1B1B5"/>
<path d="M354.995 454H356.051L353.29 446.377H352.135L349.363 454H350.419L351.035 452.295H354.379L354.995 454ZM354.093 451.481H351.321L352.707 447.609L354.093 451.481ZM356.544 447.972L358.909 454H360.075L362.44 447.972H361.373L359.503 453.076L357.622 447.972H356.544ZM363.051 450.964C363.051 452.834 364.294 454.099 365.9 454.099C367.011 454.099 367.792 453.527 368.155 452.878V454H369.167V447.972H368.155V449.072C367.803 448.445 367.033 447.873 365.911 447.873C364.294 447.873 363.051 449.083 363.051 450.964ZM368.155 450.975C368.155 452.394 367.209 453.219 366.109 453.219C365.009 453.219 364.074 452.383 364.074 450.964C364.074 449.545 365.009 448.742 366.109 448.742C367.209 448.742 368.155 449.578 368.155 450.975ZM370.859 454H371.86V447.972H370.859V454ZM371.376 446.993C371.739 446.993 372.036 446.696 372.036 446.311C372.036 445.926 371.739 445.629 371.376 445.629C370.991 445.629 370.694 445.926 370.694 446.311C370.694 446.696 370.991 446.993 371.376 446.993ZM373.566 454H374.567V445.86H373.566V454ZM375.899 450.964C375.899 452.834 377.142 454.099 378.748 454.099C379.859 454.099 380.64 453.527 381.003 452.878V454H382.015V447.972H381.003V449.072C380.651 448.445 379.881 447.873 378.759 447.873C377.142 447.873 375.899 449.083 375.899 450.964ZM381.003 450.975C381.003 452.394 380.057 453.219 378.957 453.219C377.857 453.219 376.922 452.383 376.922 450.964C376.922 449.545 377.857 448.742 378.957 448.742C380.057 448.742 381.003 449.578 381.003 450.975ZM384.707 449.094V445.86H383.706V454H384.707V452.889C385.081 453.549 385.862 454.099 386.962 454.099C388.579 454.099 389.822 452.834 389.822 450.964C389.822 449.083 388.59 447.873 386.962 447.873C385.895 447.873 385.092 448.423 384.707 449.094ZM388.799 450.964C388.799 452.383 387.864 453.219 386.753 453.219C385.664 453.219 384.707 452.394 384.707 450.975C384.707 449.578 385.664 448.742 386.753 448.742C387.864 448.742 388.799 449.545 388.799 450.964ZM391.14 454H392.141V445.86H391.14V454ZM396.41 448.72C397.444 448.72 398.324 449.369 398.313 450.546H394.507C394.617 449.369 395.431 448.72 396.41 448.72ZM399.226 452.141H398.148C397.928 452.79 397.356 453.252 396.454 453.252C395.431 453.252 394.573 452.581 394.496 451.36H399.314C399.336 451.151 399.347 450.975 399.347 450.755C399.347 449.105 398.203 447.873 396.454 447.873C394.694 447.873 393.473 449.072 393.473 450.975C393.473 452.889 394.738 454.099 396.454 454.099C397.95 454.099 398.918 453.241 399.226 452.141ZM407.935 452.361C407.891 450.205 404.393 450.986 404.393 449.556C404.393 449.072 404.833 448.72 405.57 448.72C406.373 448.72 406.835 449.16 406.879 449.765H407.88C407.814 448.588 406.934 447.873 405.603 447.873C404.261 447.873 403.392 448.632 403.392 449.556C403.392 451.8 406.956 451.019 406.956 452.361C406.956 452.856 406.516 453.252 405.724 453.252C404.877 453.252 404.36 452.812 404.305 452.229H403.271C403.337 453.329 404.327 454.099 405.735 454.099C407.066 454.099 407.935 453.351 407.935 452.361ZM410.349 449.083V447.972H409.348V456.86H410.349V452.889C410.723 453.505 411.504 454.099 412.604 454.099C414.221 454.099 415.464 452.834 415.464 450.964C415.464 449.083 414.221 447.873 412.604 447.873C411.504 447.873 410.712 448.445 410.349 449.083ZM414.441 450.964C414.441 452.383 413.506 453.219 412.395 453.219C411.306 453.219 410.349 452.394 410.349 450.975C410.349 449.578 411.306 448.742 412.395 448.742C413.506 448.742 414.441 449.545 414.441 450.964ZM416.408 450.964C416.408 452.834 417.651 454.099 419.257 454.099C420.368 454.099 421.149 453.527 421.512 452.878V454H422.524V447.972H421.512V449.072C421.16 448.445 420.39 447.873 419.268 447.873C417.651 447.873 416.408 449.083 416.408 450.964ZM421.512 450.975C421.512 452.394 420.566 453.219 419.466 453.219C418.366 453.219 417.431 452.383 417.431 450.964C417.431 449.545 418.366 448.742 419.466 448.742C420.566 448.742 421.512 449.578 421.512 450.975ZM423.841 450.975C423.841 452.889 425.062 454.099 426.778 454.099C428.274 454.099 429.253 453.263 429.561 452.064H428.483C428.263 452.823 427.669 453.252 426.778 453.252C425.678 453.252 424.864 452.471 424.864 450.975C424.864 449.501 425.678 448.72 426.778 448.72C427.669 448.72 428.274 449.182 428.483 449.908H429.561C429.253 448.643 428.274 447.873 426.778 447.873C425.062 447.873 423.841 449.083 423.841 450.975ZM433.46 448.72C434.494 448.72 435.374 449.369 435.363 450.546H431.557C431.667 449.369 432.481 448.72 433.46 448.72ZM436.276 452.141H435.198C434.978 452.79 434.406 453.252 433.504 453.252C432.481 453.252 431.623 452.581 431.546 451.36H436.364C436.386 451.151 436.397 450.975 436.397 450.755C436.397 449.105 435.253 447.873 433.504 447.873C431.744 447.873 430.523 449.072 430.523 450.975C430.523 452.889 431.788 454.099 433.504 454.099C435 454.099 435.968 453.241 436.276 452.141Z" fill="#B1B1B5"/>
<path opacity="0.7" d="M381 294.5C381 328.466 353.466 356 319.5 356C285.534 356 258 328.466 258 294.5C258 260.534 285.534 233 319.5 233C353.466 233 381 260.534 381 294.5ZM267.225 294.5C267.225 323.371 290.629 346.775 319.5 346.775C348.371 346.775 371.775 323.371 371.775 294.5C371.775 265.629 348.371 242.225 319.5 242.225C290.629 242.225 267.225 265.629 267.225 294.5Z" fill="#64646C"/>
<path d="M319.5 370.025C319.5 372.22 317.719 374.01 315.526 373.901C299.083 373.078 283.263 367.166 270.282 356.933C256.258 345.877 246.365 330.423 242.197 313.059C238.028 295.695 239.827 277.433 247.303 261.217C254.779 245 267.497 231.772 283.408 223.665C299.319 215.558 317.496 213.044 335.01 216.528C352.524 220.011 368.355 229.29 379.952 242.869C391.55 256.448 398.238 273.535 398.939 291.379C399.588 307.895 395.072 324.169 386.072 337.956C384.872 339.794 382.377 340.183 380.601 338.892V338.892C378.825 337.602 378.442 335.122 379.631 333.277C387.587 320.94 391.574 306.423 390.995 291.691C390.364 275.632 384.345 260.253 373.907 248.032C363.469 235.811 349.221 227.46 333.459 224.325C317.696 221.189 301.337 223.452 287.017 230.748C272.697 238.045 261.251 249.95 254.522 264.545C247.794 279.14 246.175 295.576 249.927 311.203C253.679 326.83 262.583 340.74 275.204 350.689C286.782 359.817 300.87 365.125 315.527 365.94C317.719 366.062 319.5 367.83 319.5 370.025V370.025Z" fill="url(#paint3_linear_1507_20138)"/>
<path d="M320 386.2C320 388.851 317.85 391.013 315.202 390.88C300.44 390.141 286.025 386.002 273.092 378.76C258.761 370.734 246.729 359.165 238.147 345.16C229.564 331.155 224.719 315.182 224.074 298.769C223.429 282.356 227.006 266.052 234.463 251.417C241.92 236.782 253.008 224.304 266.665 215.179C280.323 206.053 296.093 200.585 312.468 199.296C328.843 198.007 345.275 200.942 360.191 207.818C373.653 214.024 385.474 223.253 394.748 234.761C396.412 236.826 395.927 239.836 393.782 241.394V241.394C391.638 242.952 388.646 242.467 386.971 240.412C378.671 230.228 368.142 222.054 356.172 216.536C342.747 210.347 327.959 207.706 313.221 208.866C298.484 210.026 284.29 214.948 271.999 223.161C259.707 231.374 249.728 242.603 243.017 255.775C236.306 268.947 233.086 283.62 233.667 298.392C234.247 313.164 238.608 327.539 246.332 340.144C254.056 352.748 264.885 363.16 277.783 370.384C289.283 376.824 302.084 380.537 315.202 381.267C317.849 381.414 320 383.549 320 386.2V386.2Z" fill="#007AFF"/>
<path d="M305.832 292H308.355V276.004H303.791V278.286H305.832V292ZM311.594 291.781H322.258V289.696H315.302C317.87 287.348 321.819 284.386 321.819 280.502C321.819 277.627 319.976 275.675 316.729 275.675C313.898 275.675 311.66 277.364 311.572 280.831H313.986C314.052 279.032 314.995 277.803 316.751 277.803C318.616 277.803 319.34 278.944 319.34 280.612C319.34 283.749 315.368 286.646 311.594 289.959V291.781ZM324.456 283.793C324.456 288.445 325.685 291.956 330.161 291.956C334.637 291.956 335.866 288.445 335.866 283.793C335.866 279.229 334.637 275.718 330.161 275.718C325.685 275.718 324.456 279.229 324.456 283.793ZM333.409 283.793C333.409 286.931 333.079 289.674 330.161 289.674C327.243 289.674 326.913 286.931 326.913 283.793C326.913 280.809 327.243 278 330.161 278C333.079 278 333.409 280.809 333.409 283.793Z" fill="#ED5158"/>
<path d="M314.97 304.701C312.103 304.701 309.777 306.852 309.777 309.895C309.777 312.952 312.103 315.088 314.97 315.088C317.706 315.088 319.695 313.084 320.002 310.728V309.427H314.4V310.758H318.218C317.969 312.469 316.813 313.581 314.97 313.581C312.951 313.581 311.489 312.133 311.489 309.895C311.489 307.656 312.951 306.223 314.97 306.223C316.184 306.223 317.15 306.735 317.691 307.759H319.695C318.92 305.769 317.091 304.701 314.97 304.701ZM327.382 312.089C327.382 313.069 326.694 313.64 325.568 313.64H323.315V310.465H325.509C326.621 310.465 327.382 311.08 327.382 312.089ZM327.118 307.656C327.118 308.593 326.46 309.105 325.377 309.105H323.315V306.194H325.377C326.46 306.194 327.118 306.735 327.118 307.656ZM329.049 312.264C329.049 311.05 328.171 309.968 327.089 309.778C328.069 309.427 328.815 308.68 328.815 307.452C328.815 306.018 327.674 304.833 325.524 304.833H321.647V315H325.714C327.791 315 329.049 313.815 329.049 312.264Z" fill="#ED5158"/>
<path d="M183.44 155.168C182.272 155.168 181.216 154.968 180.272 154.568C179.344 154.168 178.608 153.592 178.064 152.84C177.52 152.088 177.24 151.2 177.224 150.176H180.824C180.872 150.864 181.112 151.408 181.544 151.808C181.992 152.208 182.6 152.408 183.368 152.408C184.152 152.408 184.768 152.224 185.216 151.856C185.664 151.472 185.888 150.976 185.888 150.368C185.888 149.872 185.736 149.464 185.432 149.144C185.128 148.824 184.744 148.576 184.28 148.4C183.832 148.208 183.208 148 182.408 147.776C181.32 147.456 180.432 147.144 179.744 146.84C179.072 146.52 178.488 146.048 177.992 145.424C177.512 144.784 177.272 143.936 177.272 142.88C177.272 141.888 177.52 141.024 178.016 140.288C178.512 139.552 179.208 138.992 180.104 138.608C181 138.208 182.024 138.008 183.176 138.008C184.904 138.008 186.304 138.432 187.376 139.28C188.464 140.112 189.064 141.28 189.176 142.784H185.48C185.448 142.208 185.2 141.736 184.736 141.368C184.288 140.984 183.688 140.792 182.936 140.792C182.28 140.792 181.752 140.96 181.352 141.296C180.968 141.632 180.776 142.12 180.776 142.76C180.776 143.208 180.92 143.584 181.208 143.888C181.512 144.176 181.88 144.416 182.312 144.608C182.76 144.784 183.384 144.992 184.184 145.232C185.272 145.552 186.16 145.872 186.848 146.192C187.536 146.512 188.128 146.992 188.624 147.632C189.12 148.272 189.368 149.112 189.368 150.152C189.368 151.048 189.136 151.88 188.672 152.648C188.208 153.416 187.528 154.032 186.632 154.496C185.736 154.944 184.672 155.168 183.44 155.168ZM199.769 141.512C200.777 141.512 201.673 141.736 202.457 142.184C203.241 142.616 203.849 143.264 204.281 144.128C204.729 144.976 204.953 146 204.953 147.2V155H201.593V147.656C201.593 146.6 201.329 145.792 200.801 145.232C200.273 144.656 199.553 144.368 198.641 144.368C197.713 144.368 196.977 144.656 196.433 145.232C195.905 145.792 195.641 146.6 195.641 147.656V155H192.281V137.24H195.641V143.36C196.073 142.784 196.649 142.336 197.369 142.016C198.089 141.68 198.889 141.512 199.769 141.512ZM207.284 148.304C207.284 146.96 207.548 145.768 208.076 144.728C208.62 143.688 209.348 142.888 210.26 142.328C211.188 141.768 212.22 141.488 213.356 141.488C214.348 141.488 215.212 141.688 215.948 142.088C216.7 142.488 217.3 142.992 217.748 143.6V141.704H221.132V155H217.748V153.056C217.316 153.68 216.716 154.2 215.948 154.616C215.196 155.016 214.324 155.216 213.332 155.216C212.212 155.216 211.188 154.928 210.26 154.352C209.348 153.776 208.62 152.968 208.076 151.928C207.548 150.872 207.284 149.664 207.284 148.304ZM217.748 148.352C217.748 147.536 217.588 146.84 217.268 146.264C216.948 145.672 216.516 145.224 215.972 144.92C215.428 144.6 214.844 144.44 214.22 144.44C213.596 144.44 213.02 144.592 212.492 144.896C211.964 145.2 211.532 145.648 211.196 146.24C210.876 146.816 210.716 147.504 210.716 148.304C210.716 149.104 210.876 149.808 211.196 150.416C211.532 151.008 211.964 151.464 212.492 151.784C213.036 152.104 213.612 152.264 214.22 152.264C214.844 152.264 215.428 152.112 215.972 151.808C216.516 151.488 216.948 151.04 217.268 150.464C217.588 149.872 217.748 149.168 217.748 148.352ZM227.774 143.768C228.206 143.064 228.766 142.512 229.454 142.112C230.158 141.712 230.958 141.512 231.854 141.512V145.04H230.966C229.91 145.04 229.11 145.288 228.566 145.784C228.038 146.28 227.774 147.144 227.774 148.376V155H224.414V141.704H227.774V143.768ZM246.477 148.064C246.477 148.544 246.445 148.976 246.381 149.36H236.661C236.741 150.32 237.077 151.072 237.669 151.616C238.261 152.16 238.989 152.432 239.853 152.432C241.101 152.432 241.989 151.896 242.517 150.824H246.141C245.757 152.104 245.021 153.16 243.933 153.992C242.845 154.808 241.509 155.216 239.925 155.216C238.645 155.216 237.493 154.936 236.469 154.376C235.461 153.8 234.669 152.992 234.093 151.952C233.533 150.912 233.253 149.712 233.253 148.352C233.253 146.976 233.533 145.768 234.093 144.728C234.653 143.688 235.437 142.888 236.445 142.328C237.453 141.768 238.613 141.488 239.925 141.488C241.189 141.488 242.317 141.76 243.309 142.304C244.317 142.848 245.093 143.624 245.637 144.632C246.197 145.624 246.477 146.768 246.477 148.064ZM242.997 147.104C242.981 146.24 242.669 145.552 242.061 145.04C241.453 144.512 240.709 144.248 239.829 144.248C238.997 144.248 238.293 144.504 237.717 145.016C237.157 145.512 236.813 146.208 236.685 147.104H242.997ZM248.065 148.304C248.065 146.96 248.329 145.768 248.857 144.728C249.401 143.688 250.137 142.888 251.065 142.328C251.993 141.768 253.025 141.488 254.161 141.488C255.025 141.488 255.849 141.68 256.633 142.064C257.417 142.432 258.041 142.928 258.505 143.552V137.24H261.913V155H258.505V153.032C258.089 153.688 257.505 154.216 256.753 154.616C256.001 155.016 255.129 155.216 254.137 155.216C253.017 155.216 251.993 154.928 251.065 154.352C250.137 153.776 249.401 152.968 248.857 151.928C248.329 150.872 248.065 149.664 248.065 148.304ZM258.529 148.352C258.529 147.536 258.369 146.84 258.049 146.264C257.729 145.672 257.297 145.224 256.753 144.92C256.209 144.6 255.625 144.44 255.001 144.44C254.377 144.44 253.801 144.592 253.273 144.896C252.745 145.2 252.313 145.648 251.977 146.24C251.657 146.816 251.497 147.504 251.497 148.304C251.497 149.104 251.657 149.808 251.977 150.416C252.313 151.008 252.745 151.464 253.273 151.784C253.817 152.104 254.393 152.264 255.001 152.264C255.625 152.264 256.209 152.112 256.753 151.808C257.297 151.488 257.729 151.04 258.049 150.464C258.369 149.872 258.529 149.168 258.529 148.352ZM277.01 144.464H274.682V155H271.274V144.464H269.762V141.704H271.274V141.032C271.274 139.4 271.738 138.2 272.666 137.432C273.594 136.664 274.994 136.304 276.866 136.352V139.184C276.05 139.168 275.482 139.304 275.162 139.592C274.842 139.88 274.682 140.4 274.682 141.152V141.704H277.01V144.464ZM280.891 140.12C280.299 140.12 279.803 139.936 279.403 139.568C279.019 139.184 278.827 138.712 278.827 138.152C278.827 137.592 279.019 137.128 279.403 136.76C279.803 136.376 280.299 136.184 280.891 136.184C281.483 136.184 281.971 136.376 282.355 136.76C282.755 137.128 282.955 137.592 282.955 138.152C282.955 138.712 282.755 139.184 282.355 139.568C281.971 139.936 281.483 140.12 280.891 140.12ZM282.547 141.704V155H279.187V141.704H282.547ZM289.227 137.24V155H285.867V137.24H289.227ZM304.907 148.064C304.907 148.544 304.875 148.976 304.811 149.36H295.091C295.171 150.32 295.507 151.072 296.099 151.616C296.691 152.16 297.419 152.432 298.283 152.432C299.531 152.432 300.419 151.896 300.947 150.824H304.571C304.187 152.104 303.451 153.16 302.363 153.992C301.275 154.808 299.939 155.216 298.355 155.216C297.075 155.216 295.923 154.936 294.899 154.376C293.891 153.8 293.099 152.992 292.523 151.952C291.963 150.912 291.683 149.712 291.683 148.352C291.683 146.976 291.963 145.768 292.523 144.728C293.083 143.688 293.867 142.888 294.875 142.328C295.883 141.768 297.043 141.488 298.355 141.488C299.619 141.488 300.747 141.76 301.739 142.304C302.747 142.848 303.523 143.624 304.067 144.632C304.627 145.624 304.907 146.768 304.907 148.064ZM301.427 147.104C301.411 146.24 301.099 145.552 300.491 145.04C299.883 144.512 299.139 144.248 298.259 144.248C297.427 144.248 296.723 144.504 296.147 145.016C295.587 145.512 295.243 146.208 295.115 147.104H301.427ZM312.447 155.216C311.359 155.216 310.383 155.024 309.519 154.64C308.655 154.24 307.967 153.704 307.455 153.032C306.959 152.36 306.687 151.616 306.639 150.8H310.023C310.087 151.312 310.335 151.736 310.767 152.072C311.215 152.408 311.767 152.576 312.423 152.576C313.063 152.576 313.559 152.448 313.911 152.192C314.279 151.936 314.463 151.608 314.463 151.208C314.463 150.776 314.239 150.456 313.791 150.248C313.359 150.024 312.663 149.784 311.703 149.528C310.711 149.288 309.895 149.04 309.255 148.784C308.631 148.528 308.087 148.136 307.623 147.608C307.175 147.08 306.951 146.368 306.951 145.472C306.951 144.736 307.159 144.064 307.575 143.456C308.007 142.848 308.615 142.368 309.399 142.016C310.199 141.664 311.135 141.488 312.207 141.488C313.791 141.488 315.055 141.888 315.999 142.688C316.943 143.472 317.463 144.536 317.559 145.88H314.343C314.295 145.352 314.071 144.936 313.671 144.632C313.287 144.312 312.767 144.152 312.111 144.152C311.503 144.152 311.031 144.264 310.695 144.488C310.375 144.712 310.215 145.024 310.215 145.424C310.215 145.872 310.439 146.216 310.887 146.456C311.335 146.68 312.031 146.912 312.975 147.152C313.935 147.392 314.727 147.64 315.351 147.896C315.975 148.152 316.511 148.552 316.959 149.096C317.423 149.624 317.663 150.328 317.679 151.208C317.679 151.976 317.463 152.664 317.031 153.272C316.615 153.88 316.007 154.36 315.207 154.712C314.423 155.048 313.503 155.216 312.447 155.216Z" fill="#F3F4F8"/>
<g filter="url(#filter3_d_1507_20138)">
<circle cx="495.5" cy="125.5" r="69.5" fill="url(#paint4_linear_1507_20138)"/>
</g>
<g filter="url(#filter4_d_1507_20138)">
<circle cx="495.5" cy="125.5" r="45.5" fill="url(#paint5_linear_1507_20138)"/>
</g>
<path d="M475.88 142.408C475.933 141.341 476.307 140.52 477 139.944C477.704 139.357 478.627 139.064 479.768 139.064C480.547 139.064 481.213 139.203 481.768 139.48C482.323 139.747 482.739 140.115 483.016 140.584C483.304 141.043 483.448 141.565 483.448 142.152C483.448 142.824 483.272 143.395 482.92 143.864C482.579 144.323 482.168 144.632 481.688 144.792V144.856C482.307 145.048 482.787 145.389 483.128 145.88C483.48 146.371 483.656 147 483.656 147.768C483.656 148.408 483.507 148.979 483.208 149.48C482.92 149.981 482.488 150.376 481.912 150.664C481.347 150.941 480.664 151.08 479.864 151.08C478.659 151.08 477.677 150.776 476.92 150.168C476.163 149.56 475.763 148.664 475.72 147.48H477.896C477.917 148.003 478.093 148.424 478.424 148.744C478.765 149.053 479.229 149.208 479.816 149.208C480.36 149.208 480.776 149.059 481.064 148.76C481.363 148.451 481.512 148.056 481.512 147.576C481.512 146.936 481.309 146.477 480.904 146.2C480.499 145.923 479.869 145.784 479.016 145.784H478.552V143.944H479.016C480.531 143.944 481.288 143.437 481.288 142.424C481.288 141.965 481.149 141.608 480.872 141.352C480.605 141.096 480.216 140.968 479.704 140.968C479.203 140.968 478.813 141.107 478.536 141.384C478.269 141.651 478.115 141.992 478.072 142.408H475.88ZM486.13 148.472C487.154 147.619 487.97 146.909 488.578 146.344C489.186 145.768 489.693 145.171 490.098 144.552C490.503 143.933 490.706 143.325 490.706 142.728C490.706 142.184 490.578 141.757 490.322 141.448C490.066 141.139 489.671 140.984 489.138 140.984C488.605 140.984 488.194 141.165 487.906 141.528C487.618 141.88 487.469 142.365 487.458 142.984H485.282C485.325 141.704 485.703 140.733 486.418 140.072C487.143 139.411 488.061 139.08 489.17 139.08C490.386 139.08 491.319 139.405 491.97 140.056C492.621 140.696 492.946 141.544 492.946 142.6C492.946 143.432 492.722 144.227 492.274 144.984C491.826 145.741 491.314 146.403 490.738 146.968C490.162 147.523 489.41 148.195 488.482 148.984H493.202V150.84H485.298V149.176L486.13 148.472ZM506.458 143.192C506.202 142.723 505.85 142.365 505.402 142.12C504.954 141.875 504.431 141.752 503.834 141.752C503.173 141.752 502.586 141.901 502.074 142.2C501.562 142.499 501.162 142.925 500.874 143.48C500.586 144.035 500.442 144.675 500.442 145.4C500.442 146.147 500.586 146.797 500.874 147.352C501.173 147.907 501.583 148.333 502.106 148.632C502.629 148.931 503.237 149.08 503.93 149.08C504.783 149.08 505.482 148.856 506.026 148.408C506.57 147.949 506.927 147.315 507.098 146.504H503.258V144.792H509.306V146.744C509.157 147.523 508.837 148.243 508.346 148.904C507.855 149.565 507.221 150.099 506.442 150.504C505.674 150.899 504.81 151.096 503.85 151.096C502.773 151.096 501.797 150.856 500.922 150.376C500.058 149.885 499.375 149.208 498.874 148.344C498.383 147.48 498.138 146.499 498.138 145.4C498.138 144.301 498.383 143.32 498.874 142.456C499.375 141.581 500.058 140.904 500.922 140.424C501.797 139.933 502.767 139.688 503.834 139.688C505.093 139.688 506.186 139.997 507.114 140.616C508.042 141.224 508.682 142.083 509.034 143.192H506.458ZM517.299 145.272C517.929 145.389 518.446 145.704 518.851 146.216C519.257 146.728 519.459 147.315 519.459 147.976C519.459 148.573 519.31 149.101 519.011 149.56C518.723 150.008 518.302 150.36 517.747 150.616C517.193 150.872 516.537 151 515.779 151H510.963V139.832H515.571C516.329 139.832 516.979 139.955 517.523 140.2C518.078 140.445 518.494 140.787 518.771 141.224C519.059 141.661 519.203 142.157 519.203 142.712C519.203 143.363 519.027 143.907 518.675 144.344C518.334 144.781 517.875 145.091 517.299 145.272ZM513.203 144.44H515.251C515.785 144.44 516.195 144.323 516.483 144.088C516.771 143.843 516.915 143.496 516.915 143.048C516.915 142.6 516.771 142.253 516.483 142.008C516.195 141.763 515.785 141.64 515.251 141.64H513.203V144.44ZM515.459 149.176C516.003 149.176 516.425 149.048 516.723 148.792C517.033 148.536 517.187 148.173 517.187 147.704C517.187 147.224 517.027 146.851 516.707 146.584C516.387 146.307 515.955 146.168 515.411 146.168H513.203V149.176H515.459Z" fill="#3E47DD"/>
<path d="M503.551 101.552L499.781 97.7813C499.281 97.2813 498.602 97 497.895 97H488.333C486.859 97 485.666 98.1933 485.666 99.6667V118.333C485.666 119.807 486.859 121 488.333 121H501.666C503.139 121 504.333 119.807 504.333 118.333V103.437C504.333 102.731 504.051 102.052 503.551 101.552V101.552Z" stroke="#3E47DD" stroke-width="1.5" stroke-linecap="round" stroke-linejoin="round"/>
<path d="M504.333 103.667H498.999C498.263 103.667 497.666 103.069 497.666 102.333V97" stroke="#3E47DD" stroke-width="1.5" stroke-linecap="round" stroke-linejoin="round"/>
<path d="M491.934 117L493.467 107.787" stroke="#3E47DD" stroke-width="1.5" stroke-linecap="round" stroke-linejoin="round"/>
<path d="M496.533 117L498.067 107.787" stroke="#3E47DD" stroke-width="1.5" stroke-linecap="round" stroke-linejoin="round"/>
<path d="M500.066 110.133H490.732" stroke="#3E47DD" stroke-width="1.5" stroke-linecap="round" stroke-linejoin="round"/>
<path d="M499.267 114.667H489.934" stroke="#3E47DD" stroke-width="1.5" stroke-linecap="round" stroke-linejoin="round"/>
<path d="M434.841 126.545C434.841 93.9105 461.297 67.4549 493.931 67.4549C526.566 67.4549 553.021 93.9105 553.021 126.545" stroke="#3E47DD" stroke-width="1.04584"/>
<circle cx="553.5" cy="126.5" r="1.5" transform="rotate(-180 553.5 126.5)" fill="#3E47DD"/>
<circle cx="434.5" cy="126.5" r="1.5" transform="rotate(-180 434.5 126.5)" fill="#3E47DD"/>
<g filter="url(#filter5_d_1507_20138)">
<rect x="50" y="20" width="56" height="51" rx="15.7647" fill="url(#paint6_linear_1507_20138)"/>
</g>
<path d="M70.968 48.348H75.364V50H68.7V48.488L73.068 41.88H68.7V40.228H75.364V41.74L70.968 48.348ZM78.9924 40.228V50H77.0324V40.228H78.9924ZM88.0549 43.252C88.0549 43.7747 87.9289 44.2647 87.6769 44.722C87.4342 45.1793 87.0469 45.548 86.5149 45.828C85.9922 46.108 85.3296 46.248 84.5269 46.248H82.8889V50H80.9289V40.228H84.5269C85.2829 40.228 85.9269 40.3587 86.4589 40.62C86.9909 40.8813 87.3876 41.2407 87.6489 41.698C87.9196 42.1553 88.0549 42.6733 88.0549 43.252ZM84.4429 44.666C84.9842 44.666 85.3856 44.5447 85.6469 44.302C85.9082 44.05 86.0389 43.7 86.0389 43.252C86.0389 42.3 85.5069 41.824 84.4429 41.824H82.8889V44.666H84.4429Z" fill="#F3F4F8"/>
<defs>
<filter id="filter0_d_1507_20138" x="0" y="386" width="116" height="111" filterUnits="userSpaceOnUse" color-interpolation-filters="sRGB">
<feFlood flood-opacity="0" result="BackgroundImageFix"/>
<feColorMatrix in="SourceAlpha" type="matrix" values="0 0 0 0 0 0 0 0 0 0 0 0 0 0 0 0 0 0 127 0" result="hardAlpha"/>
<feOffset dy="10"/>
<feGaussianBlur stdDeviation="15"/>
<feColorMatrix type="matrix" values="0 0 0 0 0.243137 0 0 0 0 0.278431 0 0 0 0 0.866667 0 0 0 0.25 0"/>
<feBlend mode="normal" in2="BackgroundImageFix" result="effect1_dropShadow_1507_20138"/>
<feBlend mode="normal" in="SourceGraphic" in2="effect1_dropShadow_1507_20138" result="shape"/>
</filter>
<filter id="filter1_d_1507_20138" x="98" y="77" width="444" height="444" filterUnits="userSpaceOnUse" color-interpolation-filters="sRGB">
<feFlood flood-opacity="0" result="BackgroundImageFix"/>
<feColorMatrix in="SourceAlpha" type="matrix" values="0 0 0 0 0 0 0 0 0 0 0 0 0 0 0 0 0 0 127 0" result="hardAlpha"/>
<feOffset dy="10"/>
<feGaussianBlur stdDeviation="15"/>
<feColorMatrix type="matrix" values="0 0 0 0 0 0 0 0 0 0 0 0 0 0 0 0 0 0 0.25 0"/>
<feBlend mode="normal" in2="BackgroundImageFix" result="effect1_dropShadow_1507_20138"/>
<feBlend mode="normal" in="SourceGraphic" in2="effect1_dropShadow_1507_20138" result="shape"/>
</filter>
<filter id="filter2_d_1507_20138" x="443" y="269" width="188" height="213" filterUnits="userSpaceOnUse" color-interpolation-filters="sRGB">
<feFlood flood-opacity="0" result="BackgroundImageFix"/>
<feColorMatrix in="SourceAlpha" type="matrix" values="0 0 0 0 0 0 0 0 0 0 0 0 0 0 0 0 0 0 127 0" result="hardAlpha"/>
<feOffset dy="10"/>
<feGaussianBlur stdDeviation="15"/>
<feColorMatrix type="matrix" values="0 0 0 0 0 0 0 0 0 0 0 0 0 0 0 0 0 0 0.25 0"/>
<feBlend mode="normal" in2="BackgroundImageFix" result="effect1_dropShadow_1507_20138"/>
<feBlend mode="normal" in="SourceGraphic" in2="effect1_dropShadow_1507_20138" result="shape"/>
</filter>
<filter id="filter3_d_1507_20138" x="410.312" y="45.5416" width="170.375" height="170.375" filterUnits="userSpaceOnUse" color-interpolation-filters="sRGB">
<feFlood flood-opacity="0" result="BackgroundImageFix"/>
<feColorMatrix in="SourceAlpha" type="matrix" values="0 0 0 0 0 0 0 0 0 0 0 0 0 0 0 0 0 0 127 0" result="hardAlpha"/>
<feOffset dy="5.22922"/>
<feGaussianBlur stdDeviation="7.84383"/>
<feColorMatrix type="matrix" values="0 0 0 0 0 0 0 0 0 0 0 0 0 0 0 0 0 0 0.2 0"/>
<feBlend mode="normal" in2="BackgroundImageFix" result="effect1_dropShadow_1507_20138"/>
<feBlend mode="normal" in="SourceGraphic" in2="effect1_dropShadow_1507_20138" result="shape"/>
</filter>
<filter id="filter4_d_1507_20138" x="420" y="60" width="151" height="151" filterUnits="userSpaceOnUse" color-interpolation-filters="sRGB">
<feFlood flood-opacity="0" result="BackgroundImageFix"/>
<feColorMatrix in="SourceAlpha" type="matrix" values="0 0 0 0 0 0 0 0 0 0 0 0 0 0 0 0 0 0 127 0" result="hardAlpha"/>
<feOffset dy="10"/>
<feGaussianBlur stdDeviation="15"/>
<feColorMatrix type="matrix" values="0 0 0 0 0.121569 0 0 0 0 0.113725 0 0 0 0 0.168627 0 0 0 0.25 0"/>
<feBlend mode="normal" in2="BackgroundImageFix" result="effect1_dropShadow_1507_20138"/>
<feBlend mode="normal" in="SourceGraphic" in2="effect1_dropShadow_1507_20138" result="shape"/>
</filter>
<filter id="filter5_d_1507_20138" x="20" y="0" width="116" height="111" filterUnits="userSpaceOnUse" color-interpolation-filters="sRGB">
<feFlood flood-opacity="0" result="BackgroundImageFix"/>
<feColorMatrix in="SourceAlpha" type="matrix" values="0 0 0 0 0 0 0 0 0 0 0 0 0 0 0 0 0 0 127 0" result="hardAlpha"/>
<feOffset dy="10"/>
<feGaussianBlur stdDeviation="15"/>
<feColorMatrix type="matrix" values="0 0 0 0 0.243137 0 0 0 0 0.278431 0 0 0 0 0.866667 0 0 0 0.25 0"/>
<feBlend mode="normal" in2="BackgroundImageFix" result="effect1_dropShadow_1507_20138"/>
<feBlend mode="normal" in="SourceGraphic" in2="effect1_dropShadow_1507_20138" result="shape"/>
</filter>
<linearGradient id="paint0_linear_1507_20138" x1="261" y1="45" x2="261" y2="429" gradientUnits="userSpaceOnUse">
<stop stop-color="#00D764"/>
<stop offset="1" stop-color="#2698EA"/>
</linearGradient>
<linearGradient id="paint1_linear_1507_20138" x1="30" y1="394.1" x2="89.1373" y2="395.617" gradientUnits="userSpaceOnUse">
<stop stop-color="#3BD3E9"/>
<stop offset="0.527778" stop-color="#9C7EEA"/>
<stop offset="0.983091" stop-color="#6AE0C9"/>
</linearGradient>
<linearGradient id="paint2_linear_1507_20138" x1="352" y1="424" x2="352" y2="432" gradientUnits="userSpaceOnUse">
<stop stop-color="#00D764"/>
<stop offset="1" stop-color="#2698EA"/>
</linearGradient>
<linearGradient id="paint3_linear_1507_20138" x1="319.5" y1="215" x2="319.5" y2="374" gradientUnits="userSpaceOnUse">
<stop stop-color="#00D764"/>
<stop offset="1" stop-color="#2698EA"/>
</linearGradient>
<linearGradient id="paint4_linear_1507_20138" x1="447.385" y1="68.8308" x2="565" y2="195" gradientUnits="userSpaceOnUse">
<stop stop-color="#2698EA"/>
<stop offset="1" stop-color="#5A82F6" stop-opacity="0.8"/>
</linearGradient>
<linearGradient id="paint5_linear_1507_20138" x1="473.136" y1="87.7119" x2="514.78" y2="171" gradientUnits="userSpaceOnUse">
<stop offset="0.225926" stop-color="#DEE6FD"/>
<stop offset="0.496296" stop-color="#E3E9FC" stop-opacity="0.820096"/>
<stop offset="1" stop-color="#F3F4F8" stop-opacity="0.2"/>
</linearGradient>
<linearGradient id="paint6_linear_1507_20138" x1="58.6154" y1="24.7077" x2="101.302" y2="74.9883" gradientUnits="userSpaceOnUse">
<stop stop-color="#2698EA"/>
<stop offset="1" stop-color="#5A82F6" stop-opacity="0.8"/>
</linearGradient>
</defs>
</svg>
