<svg width="40" height="40" viewBox="0 0 40 40" fill="none" xmlns="http://www.w3.org/2000/svg">
<circle cx="20" cy="20" r="20" fill="#2F3142"/>
<path d="M24.145 17.852C24.6752 17.852 25.105 17.4222 25.105 16.892C25.105 16.3618 24.6752 15.932 24.145 15.932C23.6148 15.932 23.185 16.3618 23.185 16.892C23.185 17.4222 23.6148 17.852 24.145 17.852Z" fill="#F3F4F8"/>
<path d="M20 25C17.794 25 16 23.206 16 21C16 18.794 17.794 17 20 17C22.206 17 24 18.794 24 21C24 23.206 22.206 25 20 25ZM20 19C18.897 19 18 19.897 18 21C18 22.103 18.897 23 20 23C21.103 23 22 22.103 22 21C22 19.897 21.103 19 20 19Z" fill="#F3F4F8"/>
<path d="M24 29H16C13.944 29 12 27.056 12 25V17C12 14.944 13.944 13 16 13H24C26.056 13 28 14.944 28 17V25C28 27.056 26.056 29 24 29ZM16 15C15.065 15 14 16.065 14 17V25C14 25.953 15.047 27 16 27H24C24.935 27 26 25.935 26 25V17C26 16.065 24.935 15 24 15H16Z" fill="#F3F4F8"/>
</svg>
