<svg width="47" height="41" viewBox="0 0 47 41" fill="none" xmlns="http://www.w3.org/2000/svg">
<path d="M4.57956 27.9347C1.87462 23.2496 7.16118 26.3272 8.89558 27.3847C12.3354 29.4814 16.0194 29.6238 19.2338 28.6337C22.2483 27.7121 24.6798 25.4777 26.5094 22.8071C27.1594 21.8586 30.1788 12.6169 29.7325 12.5938C28.7335 12.5388 26.0923 16.1811 25.2669 16.8097C23.9362 17.8236 20.1925 20.0669 18.4187 17.2658C17.005 15.0405 18.9339 13.7864 20.056 12.8579C22.2811 11 24.0904 8.82065 26.1696 6.78967C27.5933 5.39447 28.8689 2.65765 30.9152 2.38866C33.2144 2.07897 33.4514 3.98929 34.3447 6.04712C35.3453 8.37056 36.3727 10.2457 37.9817 12.1711C38.9221 13.2893 39.9444 14.4537 41.017 15.402C42.0675 16.328 43.7881 16.867 44.6792 17.7563C46.3288 19.4009 45.9893 20.5679 43.6487 20.5506C41.0488 20.5309 38.2925 17.9109 36.2261 16.039C33.5026 13.5873 34.4903 16.0001 34.2247 18.7153C33.9034 22.0359 33.047 24.7647 31.4794 27.3308C26.6796 35.1322 11.9244 40.6564 4.57956 27.9347Z" fill="#3D6BF5"/>
</svg>
