<svg width="40" height="40" viewBox="0 0 40 40" fill="none" xmlns="http://www.w3.org/2000/svg">
<circle cx="20" cy="20" r="20" fill="#2F3142"/>
<path d="M28 20.0481C28.0003 18.5192 27.5625 17.0222 26.7385 15.7344C25.9144 14.4466 24.7385 13.4219 23.3501 12.7816C21.9617 12.1414 20.4189 11.9124 18.9044 12.1218C17.3899 12.3311 15.9671 12.9701 14.8045 13.9631C13.6419 14.956 12.7882 16.2613 12.3444 17.7244C11.9006 19.1875 11.8854 20.7471 12.3005 22.2186C12.7157 23.6901 13.5438 25.0118 14.6868 26.0272C15.8298 27.0426 17.2399 27.7092 18.75 27.9481V22.3601H16.719V20.0481H18.75V18.2851C18.7063 17.8736 18.7536 17.4574 18.8886 17.0662C19.0237 16.675 19.2431 16.3183 19.5314 16.0213C19.8196 15.7244 20.1697 15.4944 20.5567 15.3479C20.9438 15.2013 21.3583 15.1416 21.771 15.1731C22.371 15.181 22.9696 15.2332 23.562 15.3291V17.3001H22.554C22.3823 17.2777 22.2077 17.2941 22.0432 17.3482C21.8787 17.4024 21.7285 17.4928 21.6037 17.6128C21.4789 17.7328 21.3826 17.8794 21.3221 18.0416C21.2616 18.2039 21.2383 18.3777 21.254 18.5501V20.0501H23.473L23.118 22.3621H21.25V27.9531C23.1322 27.6554 24.8464 26.6955 26.0838 25.2463C27.3213 23.7971 28.0008 21.9538 28 20.0481V20.0481Z" fill="#F3F4F8"/>
</svg>
