<svg width="64" height="64" viewBox="0 0 64 64" fill="none" xmlns="http://www.w3.org/2000/svg">
<path d="M47.9993 20.8747C47.9993 19.4613 47.4367 18.104 46.4367 17.104L38.8953 9.56267C37.8953 8.56267 36.538 8 35.1247 8H15.9993C13.0527 8 10.666 10.3867 10.666 13.3333V50.6667C10.666 53.6133 13.0527 56 15.9993 56H29.3327" stroke="#ED5158" stroke-width="1.5" stroke-linecap="round" stroke-linejoin="round"/>
<path d="M48 32V20.88" stroke="#ED5158" stroke-width="1.5" stroke-linecap="round" stroke-linejoin="round"/>
<path d="M18.666 24H39.9993" stroke="#ED5158" stroke-width="1.5" stroke-linecap="round" stroke-linejoin="round"/>
<path d="M18.666 32H39.9993" stroke="#ED5158" stroke-width="1.5" stroke-linecap="round" stroke-linejoin="round"/>
<path d="M18.666 40H29.3327" stroke="#ED5158" stroke-width="1.5" stroke-linecap="round" stroke-linejoin="round"/>
<path d="M46.6667 56C46.6667 56 53.3333 52.8 53.3333 48V42.4L48.472 40.6507C47.304 40.2293 46.0267 40.2293 44.8587 40.6507L40 42.4V48C40 52.8 46.6667 56 46.6667 56Z" stroke="#ED5158" stroke-width="1.5" stroke-linecap="round" stroke-linejoin="round"/>
</svg>
