<svg width="40" height="40" viewBox="0 0 40 40" fill="none" xmlns="http://www.w3.org/2000/svg">
<circle cx="20" cy="20" r="20" fill="#2F3142"/>
<path d="M28 15.5C27.4 15.8 26.8 15.9 26.1 16C26.8 15.6 27.3 15 27.5 14.2C26.9 14.6 26.2 14.8 25.4 15C24.8 14.4 23.9 14 23 14C21.3 14 19.8 15.5 19.8 17.3C19.8 17.6 19.8 17.8 19.9 18C17.2 17.9 14.7 16.6 13.1 14.6C12.8 15.1 12.7 15.6 12.7 16.3C12.7 17.4 13.3 18.4 14.2 19C13.7 19 13.2 18.8 12.7 18.6C12.7 20.2 13.8 21.5 15.3 21.8C15 21.9 14.7 21.9 14.4 21.9C14.2 21.9 14 21.9 13.8 21.8C14.2 23.1 15.4 24.1 16.9 24.1C15.8 25 14.4 25.5 12.8 25.5C12.5 25.5 12.3 25.5 12 25.5C13.5 26.4 15.2 27 17 27C23 27 26.3 22 26.3 17.7C26.3 17.6 26.3 17.4 26.3 17.3C27 16.8 27.6 16.2 28 15.5Z" fill="#F3F4F8"/>
</svg>
