<svg width="64" height="64" viewBox="0 0 64 64" fill="none" xmlns="http://www.w3.org/2000/svg">
<path d="M16 34.6666H34.6667" stroke="#FFA561" stroke-width="1.5" stroke-linecap="round" stroke-linejoin="round"/>
<path d="M16 42.6666H26.6667" stroke="#FFA561" stroke-width="1.5" stroke-linecap="round" stroke-linejoin="round"/>
<path d="M26.6667 56H13.3333C10.3867 56 8 53.6133 8 50.6667V13.3333C8 10.3867 10.3867 8 13.3333 8H45.3333C48.28 8 50.6667 10.3867 50.6667 13.3333V24" stroke="#FFA561" stroke-width="1.5" stroke-linecap="round" stroke-linejoin="round"/>
<path d="M21.3333 26.6667L17 23.2C16.368 22.6933 16 21.928 16 21.1173V18.6667C16 17.1947 17.1947 16 18.6667 16H24C25.472 16 26.6667 17.1947 26.6667 18.6667V21.1173C26.6667 21.928 26.2987 22.6933 25.6667 23.2L21.3333 26.6667" stroke="#FFA561" stroke-width="1.5" stroke-linecap="round" stroke-linejoin="round"/>
<path d="M34.6152 56H38.4872C39.1939 56 39.8712 55.72 40.3726 55.2186L56.1219 39.48C57.5006 38.104 57.5006 35.8693 56.1219 34.4933C54.7459 33.1173 52.5112 33.1173 51.1352 34.4933L35.3966 50.2426C34.8979 50.744 34.6152 51.4213 34.6152 52.128V56V56Z" stroke="#FFA561" stroke-width="1.5" stroke-linecap="round" stroke-linejoin="round"/>
</svg>
