<svg width="30" height="28" viewBox="0 0 30 28" fill="none" xmlns="http://www.w3.org/2000/svg">
<path d="M24 8L13 19L8 14" stroke="#3D6BF5" stroke-width="2" stroke-linecap="round" stroke-linejoin="round"/>
<path d="M24.6766 15C25.4075 15 26.007 15.594 25.9327 16.3211C25.686 18.7365 24.7664 21.0443 23.266 22.9755C21.494 25.2565 19.0128 26.8823 16.214 27.5964C13.4153 28.3105 10.4584 28.0722 7.8102 26.9191C5.16194 25.766 2.97313 23.7638 1.58924 21.2285C0.205356 18.6932 -0.294778 15.7693 0.167783 12.9181C0.630344 10.067 2.02925 7.45112 4.1437 5.48338C6.25815 3.51565 8.96771 2.30813 11.8447 2.05144C14.2806 1.8341 16.719 2.30886 18.884 3.40782C19.5357 3.73863 19.7111 4.56415 19.3158 5.17888V5.17888C18.9205 5.79362 18.1044 5.96285 17.4442 5.64911C15.7813 4.85876 13.9297 4.52266 12.0799 4.6877C9.78866 4.89214 7.63076 5.85381 5.9468 7.42092C4.26284 8.98803 3.14875 11.0713 2.78036 13.342C2.41197 15.6126 2.81028 17.9413 3.91242 19.9604C5.01455 21.9796 6.75773 23.5741 8.86681 24.4925C10.9759 25.4108 13.3308 25.6006 15.5597 25.0319C17.7886 24.4631 19.7647 23.1683 21.1759 21.3517C22.3153 19.8852 23.0341 18.146 23.2688 16.3198C23.362 15.5949 23.9458 15 24.6766 15V15Z" fill="#FFA561"/>
</svg>
