<svg width="320" height="331" viewBox="0 0 320 331" fill="none" xmlns="http://www.w3.org/2000/svg">
<path d="M250.076 182.73L181.775 222.163C173.261 227.079 163.141 219.273 165.69 209.86L194.821 102.583C197.371 93.1695 210.08 91.4153 214.97 99.8841L254.139 167.727C257.108 173.086 255.316 179.705 250.076 182.73Z" fill="url(#paint0_linear_1504_19923)"/>
<path d="M250.076 182.73L181.775 222.163C173.261 227.079 163.141 219.273 165.69 209.86L194.821 102.583C197.371 93.1695 210.08 91.4153 214.97 99.8841L254.139 167.727C257.108 173.086 255.316 179.705 250.076 182.73Z" fill="url(#paint1_linear_1504_19923)"/>
<path d="M214.189 45.3316L150.063 28.4681C146.953 27.6503 143.574 28.1076 140.748 29.7393L10.7398 104.799C4.80464 108.226 2.7483 115.76 6.14326 121.64L97.5377 279.94C99.1543 282.74 101.848 284.794 104.958 285.612L169.084 302.476C179.747 305.28 188.492 293.884 183.049 284.457L103.833 147.251C100.492 141.464 102.549 133.93 108.484 130.504L217.2 67.7359C226.621 62.2968 224.852 48.1357 214.189 45.3316Z" fill="url(#paint2_linear_1504_19923)"/>
<path d="M214.189 45.3316L150.063 28.4681C146.953 27.6503 143.574 28.1076 140.748 29.7393L10.7398 104.799C4.80464 108.226 2.7483 115.76 6.14326 121.64L97.5377 279.94C99.1543 282.74 101.848 284.794 104.958 285.612L169.084 302.476C179.747 305.28 188.492 293.884 183.049 284.457L103.833 147.251C100.492 141.464 102.549 133.93 108.484 130.504L217.2 67.7359C226.621 62.2968 224.852 48.1357 214.189 45.3316Z" fill="url(#paint3_linear_1504_19923)"/>
<defs>
<linearGradient id="paint0_linear_1504_19923" x1="9.57673" y1="113.581" x2="174.549" y2="-0.378924" gradientUnits="userSpaceOnUse">
<stop offset="0.0625" stop-color="#FFA0F6"/>
<stop offset="0.651042" stop-color="#2698EA"/>
</linearGradient>
<linearGradient id="paint1_linear_1504_19923" x1="2.35225" y1="115.074" x2="197.327" y2="230.859" gradientUnits="userSpaceOnUse">
<stop stop-color="#37EBAA"/>
<stop offset="1" stop-color="#37EBAA" stop-opacity="0"/>
</linearGradient>
<linearGradient id="paint2_linear_1504_19923" x1="9.57673" y1="113.581" x2="174.549" y2="-0.378924" gradientUnits="userSpaceOnUse">
<stop offset="0.0625" stop-color="#FFA0F6"/>
<stop offset="0.651042" stop-color="#2698EA"/>
</linearGradient>
<linearGradient id="paint3_linear_1504_19923" x1="2.35225" y1="115.074" x2="197.327" y2="230.859" gradientUnits="userSpaceOnUse">
<stop stop-color="#37EBAA"/>
<stop offset="1" stop-color="#37EBAA" stop-opacity="0"/>
</linearGradient>
</defs>
</svg>
