<svg width="121" height="105" viewBox="0 0 121 105" fill="none" xmlns="http://www.w3.org/2000/svg">
<path d="M115.092 50.0524C115.378 49.1732 116.622 49.1732 116.908 50.0524V50.0524C117.036 50.4453 117.403 50.7114 117.816 50.7114V50.7114C118.74 50.7114 119.125 51.8939 118.378 52.4365V52.4365C118.043 52.6793 117.903 53.1101 118.031 53.5032V53.5032C118.317 54.3818 117.309 55.1115 116.561 54.5689V54.5689C116.227 54.3262 115.773 54.3262 115.439 54.5689V54.5689C114.691 55.1115 113.683 54.3818 113.969 53.5032V53.5032C114.097 53.1101 113.957 52.6793 113.622 52.4365V52.4365C112.875 51.8939 113.26 50.7114 114.184 50.7114V50.7114C114.597 50.7114 114.964 50.4453 115.092 50.0524V50.0524Z" fill="#FBC67A"/>
<rect x="-0.70759" width="74.9494" height="74.9494" rx="22.4824" transform="matrix(0.70759 -0.706623 0.70759 0.706623 -0.206906 51.7544)" stroke="#00D764" stroke-dasharray="3 3"/>
<rect width="59.959" height="59.959" rx="17.862" transform="matrix(0.707591 -0.706623 0.707591 0.706623 10 52.2544)" fill="url(#paint0_linear_1329_14581)"/>
<path d="M88.2735 86.4435C88.5023 85.7401 89.4977 85.7401 89.7265 86.4435V86.4435C89.8288 86.7579 90.1222 86.9707 90.4527 86.9707V86.9707C91.1919 86.9707 91.5004 87.9167 90.9021 88.3508V88.3508C90.6344 88.545 90.5224 88.8897 90.6247 89.2042V89.2042C90.8534 89.907 90.0474 90.4908 89.4491 90.0567V90.0567C89.1815 89.8626 88.8185 89.8626 88.5509 90.0567V90.0567C87.9526 90.4908 87.1466 89.907 87.3753 89.2042V89.2042C87.4776 88.8897 87.3656 88.545 87.0979 88.3508V88.3508C86.4996 87.9167 86.8081 86.9707 87.5473 86.9707V86.9707C87.8778 86.9707 88.1712 86.7579 88.2735 86.4435V86.4435Z" fill="#FBC67A"/>
<path d="M8.09185 87.0017C8.37793 86.1225 9.62207 86.1225 9.90815 87.0017V87.0017C10.036 87.3947 10.4027 87.6608 10.8159 87.6608V87.6608C11.7398 87.6608 12.1254 88.8433 11.3776 89.3859V89.3859C11.043 89.6286 10.903 90.0595 11.0309 90.4526V90.4526C11.3168 91.3312 10.3092 92.0609 9.56142 91.5183V91.5183C9.2269 91.2756 8.7731 91.2756 8.43858 91.5183V91.5183C7.69078 92.0609 6.68321 91.3312 6.96907 90.4526V90.4526C7.09698 90.0595 6.95697 89.6286 6.62236 89.3859V89.3859C5.87455 88.8433 6.26017 87.6608 7.18407 87.6608V87.6608C7.59729 87.6608 7.964 87.3947 8.09185 87.0017V87.0017Z" fill="#FBC67A"/>
<path d="M10.0919 14.1016C10.3779 13.2223 11.6221 13.2223 11.9081 14.1016V14.1016C12.036 14.4945 12.4027 14.7606 12.8159 14.7606V14.7606C13.7398 14.7606 14.1254 15.9431 13.3776 16.4857V16.4857C13.043 16.7285 12.903 17.1593 13.0309 17.5524V17.5524C13.3168 18.431 12.3092 19.1607 11.5614 18.6181V18.6181C11.2269 18.3754 10.7731 18.3754 10.4386 18.6181V18.6181C9.69078 19.1607 8.68321 18.431 8.96907 17.5524V17.5524C9.09698 17.1593 8.95697 16.7285 8.62236 16.4857V16.4857C7.87455 15.9431 8.26017 14.7606 9.18407 14.7606V14.7606C9.59729 14.7606 9.964 14.4945 10.0919 14.1016V14.1016Z" fill="#FBC67A"/>
<path d="M89.0919 3.11661C89.3779 2.23736 90.6221 2.23736 90.9081 3.11661V3.11661C91.036 3.50955 91.4027 3.77563 91.8159 3.77563V3.77563C92.7398 3.77563 93.1254 4.95815 92.3776 5.50072V5.50072C92.043 5.7435 91.903 6.17433 92.0309 6.56746V6.56746C92.3168 7.44603 91.3092 8.17573 90.5614 7.63316V7.63316C90.2269 7.39045 89.7731 7.39045 89.4386 7.63316V7.63316C88.6908 8.17573 87.6832 7.44603 87.9691 6.56746V6.56746C88.097 6.17433 87.957 5.7435 87.6224 5.50073V5.50073C86.8746 4.95815 87.2602 3.77563 88.1841 3.77563V3.77563C88.5973 3.77563 88.964 3.50955 89.0919 3.11661V3.11661Z" fill="#FBC67A"/>
<path d="M59.0572 42.9092L49.0158 52.9369C48.5794 53.3738 48.3333 53.9669 48.3333 54.5844V56.9145H50.6666C51.2849 56.9145 51.8788 56.6687 52.3163 56.2318L62.3577 46.204" stroke="#3E47DD" stroke-width="1.5" stroke-linecap="round" stroke-linejoin="round"/>
<path d="M64.3248 44.2397L62.2329 46.3287L58.9336 43.0339L61.0254 40.9449C61.4816 40.4894 62.2201 40.4894 62.6751 40.9449L64.3248 42.5923C64.7809 43.0479 64.7809 43.7854 64.3248 44.2397V44.2397Z" stroke="#3E47DD" stroke-width="1.5" stroke-linecap="round" stroke-linejoin="round"/>
<path d="M47.3729 43.8685C47.4868 43.9824 47.4868 44.1671 47.3729 44.281C47.259 44.3949 47.0743 44.3949 46.9604 44.281C46.8465 44.1671 46.8465 43.9824 46.9604 43.8685C47.0743 43.7546 47.259 43.7546 47.3729 43.8685Z" stroke="#3E47DD" stroke-width="1.5" stroke-linecap="round" stroke-linejoin="round"/>
<path d="M42.7062 43.8685C42.8201 43.9824 42.8201 44.1671 42.7062 44.281C42.5923 44.3949 42.4076 44.3949 42.2937 44.281C42.1798 44.1671 42.1798 43.9824 42.2937 43.8685C42.4076 43.7546 42.5923 43.7546 42.7062 43.8685Z" stroke="#3E47DD" stroke-width="1.5" stroke-linecap="round" stroke-linejoin="round"/>
<path d="M52.0394 43.8685C52.1533 43.9824 52.1533 44.1671 52.0394 44.281C51.9255 44.3949 51.7408 44.3949 51.6269 44.281C51.513 44.1671 51.513 43.9824 51.6269 43.8685C51.7408 43.7546 51.9255 43.7546 52.0394 43.8685Z" stroke="#3E47DD" stroke-width="1.5" stroke-linecap="round" stroke-linejoin="round"/>
<path d="M42.7062 48.5881C42.8201 48.702 42.8201 48.8867 42.7062 49.0006C42.5923 49.1145 42.4076 49.1145 42.2937 49.0006C42.1798 48.8867 42.1798 48.702 42.2937 48.5881C42.4076 48.4742 42.5923 48.4742 42.7062 48.5881Z" stroke="#3E47DD" stroke-width="1.5" stroke-linecap="round" stroke-linejoin="round"/>
<path d="M42.7062 53.2484C42.8201 53.3623 42.8201 53.547 42.7062 53.6609C42.5923 53.7748 42.4076 53.7748 42.2937 53.6609C42.1798 53.547 42.1798 53.3623 42.2937 53.2484C42.4076 53.1345 42.5923 53.1345 42.7062 53.2484Z" stroke="#3E47DD" stroke-width="1.5" stroke-linecap="round" stroke-linejoin="round"/>
<path d="M42.7062 57.9087C42.8201 58.0226 42.8201 58.2072 42.7062 58.3211C42.5923 58.435 42.4076 58.435 42.2937 58.3211C42.1798 58.2072 42.1798 58.0226 42.2937 57.9087C42.4076 57.7948 42.5923 57.7948 42.7062 57.9087Z" stroke="#3E47DD" stroke-width="1.5" stroke-linecap="round" stroke-linejoin="round"/>
<path d="M42.7062 62.5689C42.8201 62.6829 42.8201 62.8675 42.7062 62.9814C42.5923 63.0953 42.4076 63.0953 42.2937 62.9814C42.1798 62.8675 42.1798 62.6829 42.2937 62.5689C42.4076 62.455 42.5923 62.455 42.7062 62.5689Z" stroke="#3E47DD" stroke-width="1.5" stroke-linecap="round" stroke-linejoin="round"/>
<path d="M47.3729 62.5689C47.4868 62.6829 47.4868 62.8675 47.3729 62.9814C47.259 63.0953 47.0743 63.0953 46.9604 62.9814C46.8465 62.8675 46.8465 62.6829 46.9604 62.5689C47.0743 62.455 47.259 62.455 47.3729 62.5689Z" stroke="#3E47DD" stroke-width="1.5" stroke-linecap="round" stroke-linejoin="round"/>
<path d="M52.0394 62.5689C52.1533 62.6829 52.1533 62.8675 52.0394 62.9814C51.9255 63.0953 51.7408 63.0953 51.6269 62.9814C51.513 62.8675 51.513 62.6829 51.6269 62.5689C51.7408 62.455 51.9255 62.455 52.0394 62.5689Z" stroke="#3E47DD" stroke-width="1.5" stroke-linecap="round" stroke-linejoin="round"/>
<path d="M56.7062 62.534C56.8201 62.6479 56.8201 62.8326 56.7062 62.9465C56.5923 63.0604 56.4076 63.0604 56.2937 62.9465C56.1798 62.8326 56.1798 62.6479 56.2937 62.534C56.4076 62.4201 56.5923 62.4201 56.7062 62.534Z" stroke="#3E47DD" stroke-width="1.5" stroke-linecap="round" stroke-linejoin="round"/>
<path d="M61.3729 62.534C61.4868 62.6479 61.4868 62.8326 61.3729 62.9465C61.259 63.0604 61.0743 63.0604 60.9604 62.9465C60.8465 62.8326 60.8465 62.6479 60.9604 62.534C61.0743 62.4201 61.259 62.4201 61.3729 62.534Z" stroke="#3E47DD" stroke-width="1.5" stroke-linecap="round" stroke-linejoin="round"/>
<path d="M61.3729 53.2135C61.4868 53.3274 61.4868 53.5121 61.3729 53.626C61.259 53.7399 61.0743 53.7399 60.9604 53.626C60.8465 53.5121 60.8465 53.3274 60.9604 53.2135C61.0743 53.0996 61.259 53.0996 61.3729 53.2135Z" stroke="#3E47DD" stroke-width="1.5" stroke-linecap="round" stroke-linejoin="round"/>
<path d="M61.3729 57.8738C61.4868 57.9877 61.4868 58.1723 61.3729 58.2862C61.259 58.4001 61.0743 58.4001 60.9604 58.2862C60.8465 58.1723 60.8465 57.9877 60.9604 57.8738C61.0743 57.7599 61.259 57.7599 61.3729 57.8738Z" stroke="#3E47DD" stroke-width="1.5" stroke-linecap="round" stroke-linejoin="round"/>
<defs>
<linearGradient id="paint0_linear_1329_14581" x1="29.9795" y1="0" x2="29.9795" y2="59.959" gradientUnits="userSpaceOnUse">
<stop stop-color="#00D764"/>
<stop offset="1" stop-color="#2698EA"/>
</linearGradient>
</defs>
</svg>
