<svg width="121" height="105" viewBox="0 0 121 105" fill="none" xmlns="http://www.w3.org/2000/svg">
<path d="M115.092 50.0446C115.378 49.1655 116.622 49.1655 116.908 50.0446V50.0446C117.036 50.4375 117.403 50.7036 117.816 50.7036V50.7036C118.74 50.7036 119.125 51.886 118.378 52.4284V52.4284C118.043 52.6711 117.903 53.1019 118.031 53.495V53.495C118.317 54.3735 117.309 55.103 116.561 54.5605V54.5605C116.227 54.3179 115.773 54.3179 115.439 54.5605V54.5605C114.691 55.103 113.683 54.3735 113.969 53.495V53.495C114.097 53.1019 113.957 52.6711 113.622 52.4284V52.4284C112.875 51.886 113.26 50.7036 114.184 50.7036V50.7036C114.597 50.7036 114.964 50.4375 115.092 50.0446V50.0446Z" fill="#FBC67A"/>
<rect x="-0.707645" width="74.9438" height="74.9438" rx="22.4824" transform="matrix(0.707645 -0.706569 0.707645 0.706569 -0.206884 51.7463)" stroke="#00D764" stroke-dasharray="3 3"/>
<rect width="59.9544" height="59.9544" rx="17.862" transform="matrix(0.707645 -0.706569 0.707645 0.706569 10 52.2463)" fill="url(#paint0_linear_1329_14512)"/>
<path d="M88.2735 86.4302C88.5024 85.7269 89.4976 85.7269 89.7265 86.4302V86.4302C89.8288 86.7445 90.1222 86.9574 90.4527 86.9574V86.9574C91.1917 86.9574 91.5003 87.9033 90.9021 88.3372V88.3372C90.6344 88.5314 90.5224 88.8761 90.6248 89.1905V89.1905C90.8534 89.8933 90.0473 90.4769 89.4491 90.0429V90.0429C89.1815 89.8488 88.8185 89.8488 88.5509 90.0429V90.0429C87.9527 90.4769 87.1466 89.8933 87.3752 89.1905V89.1905C87.4776 88.8761 87.3656 88.5314 87.0979 88.3372V88.3372C86.4997 87.9033 86.8083 86.9574 87.5473 86.9574V86.9574C87.8778 86.9574 88.1712 86.7445 88.2735 86.4302V86.4302Z" fill="#FBC67A"/>
<path d="M8.09186 86.9884C8.37796 86.1092 9.62204 86.1092 9.90814 86.9884V86.9884C10.036 87.3812 10.4027 87.6473 10.8159 87.6473V87.6473C11.7397 87.6473 12.1254 88.8297 11.3776 89.3721V89.3721C11.043 89.6149 10.903 90.0457 11.031 90.4388V90.4388C11.3168 91.3172 10.3092 92.0467 9.56143 91.5042V91.5042C9.22693 91.2616 8.77307 91.2616 8.43857 91.5042V91.5042C7.69082 92.0467 6.68319 91.3172 6.96905 90.4388V90.4388C7.09697 90.0457 6.95697 89.6149 6.62236 89.3721V89.3721C5.87462 88.8297 6.26035 87.6473 7.18412 87.6473V87.6473C7.59728 87.6473 7.96401 87.3812 8.09186 86.9884V86.9884Z" fill="#FBC67A"/>
<path d="M10.0919 14.0994C10.378 13.2203 11.622 13.2203 11.9081 14.0994V14.0994C12.036 14.4923 12.4027 14.7584 12.8159 14.7584V14.7584C13.7397 14.7584 14.1254 15.9408 13.3776 16.4832V16.4832C13.043 16.7259 12.903 17.1567 13.031 17.5498V17.5498C13.3168 18.4283 12.3092 19.1578 11.5614 18.6153V18.6153C11.2269 18.3727 10.7731 18.3727 10.4386 18.6153V18.6153C9.69082 19.1578 8.68319 18.4283 8.96905 17.5498V17.5498C9.09697 17.1567 8.95697 16.7259 8.62236 16.4832V16.4832C7.87462 15.9408 8.26035 14.7584 9.18412 14.7584V14.7584C9.59728 14.7584 9.96401 14.4923 10.0919 14.0994V14.0994Z" fill="#FBC67A"/>
<path d="M89.0919 3.11617C89.378 2.23698 90.622 2.23698 90.9081 3.11617V3.11617C91.036 3.50905 91.4027 3.7751 91.8159 3.7751V3.7751C92.7397 3.7751 93.1254 4.95749 92.3776 5.49993V5.49993C92.043 5.74267 91.903 6.17347 92.031 6.56656V6.56656C92.3168 7.445 91.3092 8.17449 90.5614 7.63205V7.63205C90.2269 7.38939 89.7731 7.38939 89.4386 7.63205V7.63205C88.6908 8.17449 87.6832 7.445 87.969 6.56656V6.56656C88.097 6.17347 87.957 5.74267 87.6224 5.49993V5.49993C86.8746 4.95749 87.2603 3.7751 88.1841 3.7751V3.7751C88.5973 3.7751 88.964 3.50905 89.0919 3.11617V3.11617Z" fill="#FBC67A"/>
<path d="M62.0335 50.5754C62.6122 50.5754 63.0835 51.0468 63.0835 51.6254V53.0254C63.0835 53.6041 62.6122 54.0754 62.0335 54.0754H60.6335C60.0548 54.0754 59.5835 53.6041 59.5835 53.0254V51.6254C59.5835 51.0468 60.0548 50.5754 60.6335 50.5754H62.0335ZM62.0335 48.8254H60.6335C59.0877 48.8254 57.8335 50.0796 57.8335 51.6254V53.0254C57.8335 54.5724 59.0877 55.8254 60.6335 55.8254H62.0335C63.5793 55.8254 64.8335 54.5713 64.8335 53.0254V51.6254C64.8335 50.0796 63.5793 48.8254 62.0335 48.8254Z" fill="#3E47DD"/>
<path d="M43.3667 50.5754C43.9454 50.5754 44.4167 51.0468 44.4167 51.6254V53.0254C44.4167 53.6041 43.9454 54.0754 43.3667 54.0754H41.9667C41.3881 54.0754 40.9167 53.6041 40.9167 53.0254V51.6254C40.9167 51.0468 41.3881 50.5754 41.9667 50.5754H43.3667ZM43.3667 48.8254H41.9667C40.4209 48.8254 39.1667 50.0796 39.1667 51.6254V53.0254C39.1667 54.5713 40.4209 55.8254 41.9667 55.8254H43.3667C44.9126 55.8254 46.1667 54.5713 46.1667 53.0254V51.6254C46.1667 50.0796 44.9126 48.8254 43.3667 48.8254Z" fill="#3E47DD"/>
<path d="M52.7 41.2421C53.2787 41.2421 53.75 41.7134 53.75 42.2921V43.6921C53.75 44.2707 53.2787 44.7421 52.7 44.7421H51.3C50.7213 44.7421 50.25 44.2707 50.25 43.6921V42.2921C50.25 41.7134 50.7213 41.2421 51.3 41.2421H52.7V41.2421ZM52.7 39.4921H51.3C49.7542 39.4921 48.5 40.7462 48.5 42.2921V43.6921C48.5 45.2379 49.7542 46.4921 51.3 46.4921H52.7C54.2458 46.4921 55.5 45.2379 55.5 43.6921V42.2921C55.5 40.7462 54.2458 39.4921 52.7 39.4921Z" fill="#3E47DD"/>
<path d="M52.7 59.9087C53.2787 59.9087 53.75 60.38 53.75 60.9587V62.3587C53.75 62.9374 53.2787 63.4087 52.7 63.4087H51.3C50.7213 63.4087 50.25 62.9374 50.25 62.3587V60.9587C50.25 60.38 50.7213 59.9087 51.3 59.9087H52.7ZM52.7 58.1587H51.3C49.7542 58.1587 48.5 59.4129 48.5 60.9587V62.3587C48.5 63.9057 49.7542 65.1587 51.3 65.1587H52.7C54.2458 65.1587 55.5 63.9045 55.5 62.3587V60.9587C55.5 59.4129 54.2458 58.1587 52.7 58.1587Z" fill="#3E47DD"/>
<path d="M44.5801 46.6718C45.3384 45.6778 46.2916 44.8413 47.3836 44.2183" stroke="#3E47DD" stroke-width="1.5" stroke-linecap="round" stroke-linejoin="round" stroke-dasharray="0.01 2.13"/>
<path d="M59.42 57.9791C58.6616 58.9731 57.7085 59.8096 56.6165 60.4326" stroke="#3E47DD" stroke-width="1.5" stroke-linecap="round" stroke-linejoin="round" stroke-dasharray="0.01 2.13"/>
<path d="M46.3463 59.7454C45.3523 58.9871 44.5158 58.0339 43.8928 56.9419" stroke="#3E47DD" stroke-width="1.5" stroke-linecap="round" stroke-linejoin="round" stroke-dasharray="0.01 2.13"/>
<path d="M57.6536 44.9054C58.6476 45.6637 59.4841 46.6169 60.1071 47.7089" stroke="#3E47DD" stroke-width="1.5" stroke-linecap="round" stroke-linejoin="round" stroke-dasharray="0.01 2.13"/>
<defs>
<linearGradient id="paint0_linear_1329_14512" x1="29.9772" y1="0" x2="29.9772" y2="59.9544" gradientUnits="userSpaceOnUse">
<stop stop-color="#00D764"/>
<stop offset="1" stop-color="#2698EA"/>
</linearGradient>
</defs>
</svg>
