<svg width="121" height="105" viewBox="0 0 121 105" fill="none" xmlns="http://www.w3.org/2000/svg">
<path d="M115.092 50.0447C115.378 49.1655 116.622 49.1655 116.908 50.0447V50.0447C117.036 50.4376 117.403 50.7036 117.816 50.7036V50.7036C118.74 50.7036 119.125 51.886 118.378 52.4285V52.4285C118.043 52.6712 117.903 53.102 118.031 53.4951V53.4951C118.317 54.3735 117.309 55.103 116.561 54.5606V54.5606C116.227 54.3179 115.773 54.3179 115.439 54.5606V54.5606C114.691 55.103 113.683 54.3735 113.969 53.4951V53.4951C114.097 53.102 113.957 52.6712 113.622 52.4285V52.4285C112.875 51.886 113.26 50.7036 114.184 50.7036V50.7036C114.597 50.7036 114.964 50.4376 115.092 50.0447V50.0447Z" fill="#FBC67A"/>
<rect x="-0.707645" width="74.9438" height="74.9438" rx="22.4824" transform="matrix(0.707645 -0.706569 0.707645 0.706569 -0.206884 51.7463)" stroke="#00D764" stroke-dasharray="3 3"/>
<rect width="59.9544" height="59.9544" rx="17.862" transform="matrix(0.707645 -0.706569 0.707645 0.706569 10 52.2463)" fill="url(#paint0_linear_1329_14608)"/>
<path d="M88.2735 86.4303C88.5024 85.7269 89.4976 85.7269 89.7265 86.4303V86.4303C89.8288 86.7446 90.1222 86.9574 90.4527 86.9574V86.9574C91.1917 86.9574 91.5003 87.9033 90.9021 88.3373V88.3373C90.6344 88.5315 90.5224 88.8761 90.6248 89.1906V89.1906C90.8534 89.8933 90.0473 90.4769 89.4491 90.043V90.043C89.1815 89.8488 88.8185 89.8488 88.5509 90.043V90.043C87.9527 90.4769 87.1466 89.8933 87.3752 89.1906V89.1906C87.4776 88.8761 87.3656 88.5315 87.0979 88.3373V88.3373C86.4997 87.9033 86.8083 86.9574 87.5473 86.9574V86.9574C87.8778 86.9574 88.1712 86.7446 88.2735 86.4303V86.4303Z" fill="#FBC67A"/>
<path d="M8.09186 86.9884C8.37796 86.1092 9.62204 86.1092 9.90814 86.9884V86.9884C10.036 87.3813 10.4027 87.6474 10.8159 87.6474V87.6474C11.7397 87.6474 12.1254 88.8297 11.3776 89.3722V89.3722C11.043 89.6149 10.903 90.0457 11.031 90.4388V90.4388C11.3168 91.3173 10.3092 92.0467 9.56143 91.5043V91.5043C9.22693 91.2616 8.77307 91.2616 8.43857 91.5043V91.5043C7.69082 92.0467 6.68319 91.3173 6.96905 90.4388V90.4388C7.09697 90.0457 6.95697 89.6149 6.62236 89.3722V89.3722C5.87462 88.8297 6.26035 87.6474 7.18412 87.6474V87.6474C7.59728 87.6474 7.96401 87.3813 8.09186 86.9884V86.9884Z" fill="#FBC67A"/>
<path d="M10.0919 14.0994C10.378 13.2202 11.622 13.2202 11.9081 14.0994V14.0994C12.036 14.4923 12.4027 14.7583 12.8159 14.7583V14.7583C13.7397 14.7583 14.1254 15.9407 13.3776 16.4831V16.4831C13.043 16.7259 12.903 17.1567 13.031 17.5498V17.5498C13.3168 18.4282 12.3092 19.1577 11.5614 18.6153V18.6153C11.2269 18.3726 10.7731 18.3726 10.4386 18.6153V18.6153C9.69082 19.1577 8.68319 18.4282 8.96905 17.5498V17.5498C9.09697 17.1567 8.95697 16.7259 8.62236 16.4831V16.4831C7.87462 15.9407 8.26035 14.7583 9.18412 14.7583V14.7583C9.59728 14.7583 9.96401 14.4923 10.0919 14.0994V14.0994Z" fill="#FBC67A"/>
<path d="M89.0919 3.11617C89.378 2.23698 90.622 2.23698 90.9081 3.11617V3.11617C91.036 3.50905 91.4027 3.7751 91.8159 3.7751V3.7751C92.7397 3.7751 93.1254 4.95749 92.3776 5.49993V5.49993C92.043 5.74267 91.903 6.17347 92.031 6.56656V6.56656C92.3168 7.445 91.3092 8.17449 90.5614 7.63205V7.63205C90.2269 7.38939 89.7731 7.38939 89.4386 7.63205V7.63205C88.6908 8.17449 87.6832 7.445 87.969 6.56656V6.56656C88.097 6.17347 87.957 5.74267 87.6224 5.49993V5.49993C86.8746 4.95749 87.2603 3.7751 88.1841 3.7751V3.7751C88.5973 3.7751 88.964 3.50905 89.0919 3.11617V3.11617Z" fill="#FBC67A"/>
<path d="M49.4677 58.3913L45.102 54.0323C44.1372 53.0689 44.1372 51.5079 45.102 50.5446L51.675 43.9816L59.5337 51.8283L52.9607 58.3913C51.9959 59.3535 50.4314 59.3535 49.4677 58.3913V58.3913Z" stroke="#3E47DD" stroke-width="1.5" stroke-linecap="round" stroke-linejoin="round"/>
<path d="M63.0301 55.3113C63.0301 55.3113 60.5603 57.987 60.5603 59.6272C60.5603 60.9831 61.6721 62.0933 63.0301 62.0933C64.3881 62.0933 65.5 60.9831 65.5 59.626C65.5 57.987 63.0301 55.3113 63.0301 55.3113V55.3113Z" stroke="#3E47DD" stroke-width="1.5" stroke-linecap="round" stroke-linejoin="round"/>
<path d="M52.7367 45.0323L50.4033 42.6909" stroke="#3E47DD" stroke-width="1.5" stroke-linecap="round" stroke-linejoin="round"/>
<path d="M58.5 51.8236H45.3167" stroke="#3E47DD" stroke-width="1.5" stroke-linecap="round" stroke-linejoin="round"/>
<path d="M44.99 64.2414H55" stroke="#3E47DD" stroke-width="1.5" stroke-linecap="round" stroke-linejoin="round"/>
<defs>
<linearGradient id="paint0_linear_1329_14608" x1="29.9772" y1="0" x2="29.9772" y2="59.9544" gradientUnits="userSpaceOnUse">
<stop stop-color="#00D764"/>
<stop offset="1" stop-color="#2698EA"/>
</linearGradient>
</defs>
</svg>
