<svg width="572" height="545" viewBox="0 0 572 545" fill="none" xmlns="http://www.w3.org/2000/svg">
<circle cx="86" cy="248" r="8" fill="url(#paint0_linear_1504_19788)"/>
<rect x="177.044" y="90.0141" width="150.154" height="150.154" transform="rotate(35 177.044 90.0141)" stroke="url(#paint1_linear_1504_19788)"/>
<rect x="175.878" y="83.3984" width="10.5003" height="10.5003" transform="rotate(35 175.878 83.3984)" fill="#F3F4F8" stroke="url(#paint2_linear_1504_19788)"/>
<rect x="90.3262" y="205.578" width="10.5003" height="10.5003" transform="rotate(35 90.3262 205.578)" fill="#F3F4F8" stroke="url(#paint3_linear_1504_19788)"/>
<rect x="-0.122788" y="-0.696365" width="10.5003" height="10.5003" transform="matrix(0.819152 0.573577 -0.573576 0.819153 212.208 291.77)" fill="#F3F4F8" stroke="url(#paint4_linear_1504_19788)"/>
<rect x="-0.122788" y="-0.696365" width="10.5003" height="10.5003" transform="matrix(0.819152 0.573577 -0.573576 0.819152 297.759 169.59)" fill="#F3F4F8" stroke="url(#paint5_linear_1504_19788)"/>
<rect x="216.138" y="312.956" width="150.154" height="150.154" transform="rotate(35 216.138 312.956)" stroke="url(#paint6_linear_1504_19788)"/>
<rect x="214.972" y="306.341" width="10.5003" height="10.5003" transform="rotate(35 214.972 306.341)" fill="#F3F4F8" stroke="url(#paint7_linear_1504_19788)"/>
<rect x="129.421" y="428.521" width="10.5003" height="10.5003" transform="rotate(35 129.421 428.521)" fill="#F3F4F8" stroke="url(#paint8_linear_1504_19788)"/>
<rect x="251.601" y="514.072" width="10.5003" height="10.5003" transform="rotate(35 251.601 514.072)" fill="#F3F4F8" stroke="url(#paint9_linear_1504_19788)"/>
<rect x="-0.122788" y="-0.696365" width="10.5003" height="10.5003" transform="matrix(0.819151 0.573577 -0.573576 0.819153 336.853 392.533)" fill="#F3F4F8" stroke="url(#paint10_linear_1504_19788)"/>
<rect x="399.987" y="50.9198" width="150.154" height="150.154" transform="rotate(35 399.987 50.9198)" stroke="url(#paint11_linear_1504_19788)"/>
<rect x="398.821" y="44.3036" width="10.5003" height="10.5003" transform="rotate(35 398.821 44.3036)" fill="#F3F4F8" stroke="url(#paint12_linear_1504_19788)"/>
<rect x="313.269" y="166.484" width="10.5003" height="10.5003" transform="rotate(35 313.269 166.484)" fill="#F3F4F8" stroke="url(#paint13_linear_1504_19788)"/>
<rect x="-0.122788" y="-0.696365" width="10.5003" height="10.5003" transform="matrix(0.819152 0.573577 -0.573576 0.819152 435.151 252.676)" fill="#F3F4F8" stroke="url(#paint14_linear_1504_19788)"/>
<rect x="521.001" y="129.855" width="10.5003" height="10.5003" transform="rotate(35 521.001 129.855)" fill="#F3F4F8" stroke="url(#paint15_linear_1504_19788)"/>
<rect x="439.081" y="273.862" width="150.154" height="150.154" transform="rotate(35 439.081 273.862)" stroke="url(#paint16_linear_1504_19788)"/>
<rect x="437.915" y="267.247" width="10.5003" height="10.5003" transform="rotate(35 437.915 267.247)" fill="#F3F4F8" stroke="url(#paint17_linear_1504_19788)"/>
<rect x="352.364" y="389.427" width="10.5003" height="10.5003" transform="rotate(35 352.364 389.427)" fill="#F3F4F8" stroke="url(#paint18_linear_1504_19788)"/>
<rect x="474.544" y="474.978" width="10.5003" height="10.5003" transform="rotate(35 474.544 474.978)" fill="#F3F4F8" stroke="url(#paint19_linear_1504_19788)"/>
<rect x="-0.122788" y="-0.696365" width="10.5003" height="10.5003" transform="matrix(0.819151 0.573577 -0.573576 0.819153 559.796 353.439)" fill="#F3F4F8" stroke="url(#paint20_linear_1504_19788)"/>
<g filter="url(#filter0_d_1504_19788)">
<rect x="446" y="452" width="58" height="53" rx="15.7647" fill="url(#paint21_linear_1504_19788)"/>
</g>
<path d="M469.628 475.84C469.628 476.363 469.502 476.853 469.25 477.31C469.007 477.768 468.62 478.136 468.088 478.416C467.565 478.696 466.902 478.836 466.1 478.836H464.462V482.588H462.502V472.816H466.1C466.856 472.816 467.5 472.947 468.032 473.208C468.564 473.47 468.96 473.829 469.222 474.286C469.492 474.744 469.628 475.262 469.628 475.84ZM466.016 477.254C466.557 477.254 466.958 477.133 467.22 476.89C467.481 476.638 467.612 476.288 467.612 475.84C467.612 474.888 467.08 474.412 466.016 474.412H464.462V477.254H466.016ZM474.435 472.816C475.462 472.816 476.363 473.017 477.137 473.418C477.921 473.82 478.523 474.394 478.943 475.14C479.373 475.878 479.587 476.736 479.587 477.716C479.587 478.696 479.373 479.555 478.943 480.292C478.523 481.02 477.921 481.585 477.137 481.986C476.363 482.388 475.462 482.588 474.435 482.588H471.019V472.816H474.435ZM474.365 480.922C475.392 480.922 476.185 480.642 476.745 480.082C477.305 479.522 477.585 478.734 477.585 477.716C477.585 476.699 477.305 475.906 476.745 475.336C476.185 474.758 475.392 474.468 474.365 474.468H472.979V480.922H474.365ZM487.089 472.816V474.398H483.015V476.904H486.137V478.458H483.015V482.588H481.055V472.816H487.089Z" fill="#F3F4F8"/>
<g filter="url(#filter1_d_1504_19788)">
<rect x="374" y="474.116" width="344" height="89.1162" rx="20" transform="rotate(-180 374 474.116)" fill="#252836"/>
</g>
<path opacity="0.7" d="M240.9 429.558C240.9 445.224 228.446 457.924 213.083 457.924C197.719 457.924 185.265 445.224 185.265 429.558C185.265 413.892 197.719 401.192 213.083 401.192C228.446 401.192 240.9 413.892 240.9 429.558ZM190.828 429.558C190.828 442.091 200.792 452.251 213.083 452.251C225.373 452.251 235.337 442.091 235.337 429.558C235.337 417.025 225.373 406.866 213.083 406.866C200.792 406.866 190.828 417.025 190.828 429.558Z" fill="#9CB4FA"/>
<path d="M213.083 404.029C213.083 402.462 214.356 401.177 215.914 401.34C221.662 401.939 227.11 404.353 231.479 408.281C236.56 412.849 239.832 419.15 240.681 426.003C241.53 432.856 239.898 439.789 236.09 445.502C232.82 450.409 228.138 454.126 222.725 456.166C221.251 456.721 219.687 455.787 219.302 454.26V454.26C218.923 452.752 219.838 451.238 221.28 450.655C225.405 448.989 228.97 446.092 231.489 442.313C234.535 437.743 235.841 432.196 235.161 426.714C234.482 421.232 231.865 416.191 227.8 412.536C224.448 409.523 220.301 407.623 215.911 407.05C214.358 406.847 213.083 405.596 213.083 404.029V404.029Z" fill="url(#paint22_linear_1504_19788)"/>
<path d="M207.1 433.352H208.048V431.655H209.102V430.822H208.048V425.805H206.899L203.2 430.928V431.655H207.1V433.352ZM204.307 430.822L207.142 426.807V430.822H204.307ZM215.193 427.544C215.066 426.48 214.329 425.573 212.874 425.573C210.945 425.573 210.176 427.049 210.176 429.441C210.176 431.75 210.714 433.373 212.969 433.373C214.634 433.373 215.456 432.234 215.456 430.843C215.456 429.241 214.497 428.303 213.074 428.303C212.168 428.303 211.335 428.725 211.009 429.473C210.998 427.207 211.652 426.374 212.864 426.374C213.728 426.374 214.16 426.807 214.308 427.544H215.193ZM212.874 429.115C213.97 429.115 214.529 429.8 214.529 430.875C214.529 431.908 213.907 432.572 212.916 432.572C211.715 432.572 211.125 431.781 211.125 430.769C211.125 429.631 211.999 429.115 212.874 429.115ZM216.539 427.45C216.539 428.44 217.203 429.03 218.078 429.03C218.963 429.03 219.617 428.44 219.617 427.45C219.617 426.469 218.963 425.879 218.078 425.879C217.203 425.879 216.539 426.469 216.539 427.45ZM218.078 426.469C218.542 426.469 218.858 426.786 218.858 427.45C218.858 428.103 218.542 428.44 218.078 428.44C217.614 428.44 217.309 428.103 217.309 427.45C217.309 426.786 217.614 426.469 218.078 426.469ZM217.477 433.352H218.426L222.694 425.995H221.746L217.477 433.352ZM220.576 431.897C220.576 432.877 221.229 433.478 222.115 433.478C222.989 433.478 223.643 432.877 223.643 431.897C223.643 430.906 222.989 430.316 222.115 430.316C221.229 430.316 220.576 430.906 220.576 431.897ZM222.104 430.917C222.568 430.917 222.884 431.233 222.884 431.897C222.884 432.551 222.568 432.867 222.104 432.867C221.64 432.867 221.324 432.551 221.324 431.897C221.324 431.233 221.64 430.917 222.104 430.917Z" fill="#F3F4F8"/>
<path d="M68.4763 414.933H65.4676V424.597H68.4763C71.6513 424.597 73.6063 422.781 73.6063 419.786C73.6063 416.791 71.6513 414.933 68.4763 414.933ZM66.7293 423.557V415.959H68.4763C70.9997 415.959 72.3169 417.429 72.3169 419.786C72.3169 422.143 70.9997 423.557 68.4763 423.557H66.7293ZM82.4802 420.784C82.4802 418.386 80.8026 416.874 78.6397 416.874C76.4906 416.874 74.7991 418.386 74.7991 420.784C74.7991 423.197 76.4352 424.722 78.5842 424.722C80.7471 424.722 82.4802 423.197 82.4802 420.784ZM76.0885 420.784C76.0885 418.871 77.2948 417.97 78.6258 417.97C79.9291 417.97 81.1908 418.871 81.1908 420.784C81.1908 422.712 79.9014 423.613 78.5842 423.613C77.2671 423.613 76.0885 422.712 76.0885 420.784ZM83.6677 420.784C83.6677 423.197 85.2067 424.722 87.3697 424.722C89.2553 424.722 90.4893 423.668 90.8775 422.157H89.5187C89.2414 423.114 88.4927 423.654 87.3697 423.654C85.9832 423.654 84.9572 422.67 84.9572 420.784C84.9572 418.926 85.9832 417.942 87.3697 417.942C88.4927 417.942 89.2553 418.524 89.5187 419.439H90.8775C90.4893 417.845 89.2553 416.874 87.3697 416.874C85.2067 416.874 83.6677 418.4 83.6677 420.784ZM99.2993 416.999H98.0376V421.173C98.0376 422.809 97.1641 423.613 95.8608 423.613C94.5852 423.613 93.7395 422.822 93.7395 421.283V416.999H92.4916V421.45C92.4916 423.627 93.8643 424.708 95.6112 424.708C96.6234 424.708 97.5523 424.264 98.0376 423.474V424.597H99.2993V416.999ZM112.397 424.597H113.645V420.119C113.645 417.942 112.3 416.861 110.567 416.861C109.402 416.861 108.32 417.457 107.877 418.552C107.378 417.415 106.338 416.861 105.09 416.861C104.092 416.861 103.19 417.29 102.691 418.095V416.999H101.43V424.597H102.691V420.41C102.691 418.774 103.565 417.956 104.84 417.956C106.088 417.956 106.92 418.746 106.92 420.299V424.597H108.168V420.41C108.168 418.774 109.041 417.956 110.317 417.956C111.565 417.956 112.397 418.746 112.397 420.299V424.597ZM118.945 417.942C120.248 417.942 121.357 418.76 121.343 420.244H116.546C116.685 418.76 117.711 417.942 118.945 417.942ZM122.494 422.254H121.135C120.858 423.072 120.137 423.654 119 423.654C117.711 423.654 116.629 422.809 116.532 421.27H122.605C122.633 421.006 122.647 420.784 122.647 420.507C122.647 418.427 121.205 416.874 119 416.874C116.782 416.874 115.243 418.386 115.243 420.784C115.243 423.197 116.837 424.722 119 424.722C120.886 424.722 122.106 423.64 122.494 422.254ZM129.872 424.597H131.12V420.119C131.12 417.942 129.775 416.861 128.014 416.861C126.988 416.861 126.073 417.29 125.574 418.081V416.999H124.312V424.597H125.574V420.396C125.574 418.76 126.461 417.956 127.751 417.956C129.026 417.956 129.872 418.746 129.872 420.299V424.597ZM133.458 422.517C133.458 424.043 134.221 424.597 135.565 424.597H136.702V423.53H135.773C134.997 423.53 134.72 423.266 134.72 422.517V418.039H136.702V416.999H134.72V415.086H133.458V416.999H132.474V418.039H133.458V422.517ZM143.694 422.531C143.638 419.814 139.229 420.798 139.229 418.996C139.229 418.386 139.784 417.942 140.713 417.942C141.725 417.942 142.307 418.497 142.363 419.259H143.625C143.541 417.776 142.432 416.874 140.754 416.874C139.063 416.874 137.968 417.831 137.968 418.996C137.968 421.824 142.46 420.84 142.46 422.531C142.46 423.155 141.905 423.654 140.907 423.654C139.839 423.654 139.188 423.1 139.118 422.365H137.815C137.898 423.751 139.146 424.722 140.921 424.722C142.599 424.722 143.694 423.779 143.694 422.531ZM66.7293 437.4V435.999H65.4676V447.202H66.7293V442.197C67.2007 442.973 68.1851 443.722 69.5716 443.722C71.6098 443.722 73.1765 442.127 73.1765 439.77C73.1765 437.4 71.6098 435.874 69.5716 435.874C68.1851 435.874 67.1869 436.595 66.7293 437.4ZM71.8871 439.77C71.8871 441.559 70.7085 442.613 69.3082 442.613C67.9356 442.613 66.7293 441.573 66.7293 439.784C66.7293 438.023 67.9356 436.97 69.3082 436.97C70.7085 436.97 71.8871 437.982 71.8871 439.77ZM76.0989 439.465C76.0989 437.705 77.014 437.164 78.2203 437.164H78.553V435.861C77.3468 435.861 76.5287 436.387 76.0989 437.233V435.999H74.8372V443.597H76.0989V439.465ZM87.2192 439.784C87.2192 437.386 85.5416 435.874 83.3786 435.874C81.2296 435.874 79.5381 437.386 79.5381 439.784C79.5381 442.197 81.1741 443.722 83.3232 443.722C85.4861 443.722 87.2192 442.197 87.2192 439.784ZM80.8275 439.784C80.8275 437.871 82.0338 436.97 83.3648 436.97C84.6681 436.97 85.9298 437.871 85.9298 439.784C85.9298 441.712 84.6403 442.613 83.3232 442.613C82.006 442.613 80.8275 441.712 80.8275 439.784ZM87.9769 435.999L90.9578 443.597H92.4275L95.4085 435.999H94.0636L91.7066 442.433L89.3357 435.999H87.9769ZM96.65 443.597H97.9117V435.999H96.65V443.597ZM97.3017 434.765C97.7592 434.765 98.1336 434.391 98.1336 433.906C98.1336 433.42 97.7592 433.046 97.3017 433.046C96.8164 433.046 96.4421 433.42 96.4421 433.906C96.4421 434.391 96.8164 434.765 97.3017 434.765ZM99.5907 439.77C99.5907 442.127 101.157 443.722 103.196 443.722C104.582 443.722 105.566 443.015 106.024 442.169V443.597H107.3V433.337H106.024V437.358C105.497 436.484 104.402 435.874 103.209 435.874C101.157 435.874 99.5907 437.4 99.5907 439.77ZM106.024 439.784C106.024 441.573 104.832 442.613 103.445 442.613C102.059 442.613 100.88 441.559 100.88 439.77C100.88 437.982 102.059 436.97 103.445 436.97C104.832 436.97 106.024 438.023 106.024 439.784ZM112.662 436.942C113.966 436.942 115.075 437.76 115.061 439.244H110.264C110.402 437.76 111.428 436.942 112.662 436.942ZM116.212 441.254H114.853C114.576 442.072 113.855 442.654 112.718 442.654C111.428 442.654 110.347 441.809 110.25 440.27H116.323C116.35 440.006 116.364 439.784 116.364 439.507C116.364 437.427 114.922 435.874 112.718 435.874C110.499 435.874 108.96 437.386 108.96 439.784C108.96 442.197 110.555 443.722 112.718 443.722C114.603 443.722 115.823 442.64 116.212 441.254ZM117.558 439.77C117.558 442.127 119.125 443.722 121.163 443.722C122.549 443.722 123.534 443.015 123.991 442.169V443.597H125.267V433.337H123.991V437.358C123.465 436.484 122.369 435.874 121.177 435.874C119.125 435.874 117.558 437.4 117.558 439.77ZM123.991 439.784C123.991 441.573 122.799 442.613 121.413 442.613C120.026 442.613 118.848 441.559 118.848 439.77C118.848 437.982 120.026 436.97 121.413 436.97C122.799 436.97 123.991 438.023 123.991 439.784Z" fill="#F3F4F8"/>
<path d="M296.691 416.753H297.532V411.974L299.667 416.753H300.259L302.385 411.983V416.753H303.226V410.357H302.329L299.963 415.644L297.597 410.357H296.691V416.753ZM304.338 414.202C304.338 415.773 305.383 416.836 306.732 416.836C307.666 416.836 308.322 416.355 308.627 415.81V416.753H309.477V411.688H308.627V412.612C308.331 412.085 307.684 411.604 306.741 411.604C305.383 411.604 304.338 412.621 304.338 414.202ZM308.627 414.211C308.627 415.403 307.832 416.097 306.908 416.097C305.983 416.097 305.198 415.394 305.198 414.202C305.198 413.009 305.983 412.335 306.908 412.335C307.832 412.335 308.627 413.037 308.627 414.211ZM313.542 416.753H314.494L312.858 414.193L314.485 411.688H313.607L312.461 413.564L311.259 411.688H310.307L311.943 414.239L310.307 416.753H311.185L312.341 414.867L313.542 416.753ZM317.888 410.061V413.832H318.683C318.905 413.305 319.394 412.954 320.069 412.954C321.04 412.954 321.53 413.509 321.53 414.461C321.53 415.376 321.077 416.06 320.06 416.06C319.274 416.06 318.729 415.644 318.572 414.941H317.749C317.916 416.023 318.72 416.771 320.051 416.771C321.613 416.771 322.334 415.736 322.334 414.442C322.334 413.407 321.816 412.233 320.189 412.233C319.533 412.233 318.942 412.529 318.664 412.908V410.8H321.909V410.061H317.888ZM324.117 416.753H324.968V410.07H323.23V410.837H324.117V416.753ZM326.311 416.679H330.757V415.976H327.577C328.769 415.006 330.563 413.592 330.563 411.928C330.563 410.689 329.749 409.95 328.492 409.95C327.29 409.95 326.394 410.689 326.338 412.113H327.152C327.189 411.272 327.632 410.671 328.501 410.671C329.407 410.671 329.731 411.225 329.731 411.965C329.731 413.333 328.067 414.664 326.311 416.078V416.679Z" fill="#B1B1B5"/>
<path d="M294.982 431.076H297.286C297.518 429.264 298.838 428.022 301.038 428.022C303.29 428.022 304.48 429.264 304.48 431.05C304.48 433.224 302.798 434.182 299.667 434.208H299.045V436.175H299.641C303.005 436.175 304.843 437.184 304.843 439.824C304.843 441.739 303.652 443.214 301.142 443.214C298.657 443.214 297.208 441.687 296.975 439.694H294.697C294.982 443.318 297.622 445.207 301.168 445.207C305.076 445.207 307.094 442.93 307.094 440.031C307.094 437.339 305.619 435.735 303.445 435.217V435.088C305.412 434.648 306.758 432.965 306.758 430.817C306.758 428.126 304.765 426.003 301.116 426.003C297.648 426.003 295.215 427.867 294.982 431.076ZM312.138 445.078H314.519V426.366H309.653V428.514H312.138V445.078ZM318.28 444.871H330.729V442.904H321.825C325.164 440.186 330.185 436.226 330.185 431.568C330.185 428.1 327.907 426.029 324.388 426.029C321.023 426.029 318.513 428.1 318.357 432.085H320.635C320.738 429.73 321.981 428.048 324.414 428.048C326.95 428.048 327.856 429.601 327.856 431.671C327.856 435.502 323.197 439.229 318.28 443.188V444.871Z" fill="#ED5158"/>
<g filter="url(#filter2_d_1504_19788)">
<rect x="380" y="193" width="181" height="164.943" rx="36.2348" fill="#252836"/>
</g>
<ellipse cx="470.317" cy="275.288" rx="62.837" ry="62.8615" fill="#9CB4FA"/>
<path d="M420.376 313.44C426.647 321.656 434.848 328.198 444.25 332.486C453.653 336.774 463.967 338.677 474.28 338.025C484.593 337.372 494.587 334.186 503.375 328.747C512.163 323.309 519.474 315.786 524.662 306.846C529.849 297.905 532.753 287.823 533.115 277.491C533.477 267.16 531.287 256.899 526.738 247.617C522.189 238.334 515.422 230.318 507.037 224.277C498.651 218.236 488.906 214.357 478.664 212.984L473.957 248.118C478.423 248.717 482.673 250.409 486.33 253.043C489.987 255.677 492.938 259.173 494.921 263.221C496.905 267.269 497.86 271.744 497.702 276.249C497.544 280.754 496.278 285.151 494.016 289.05C491.754 292.949 488.565 296.229 484.733 298.601C480.9 300.973 476.543 302.362 472.045 302.647C467.548 302.931 463.05 302.101 458.949 300.231C454.849 298.361 451.273 295.508 448.538 291.926L420.376 313.44Z" fill="url(#paint23_linear_1504_19788)"/>
<g filter="url(#filter3_d_1504_19788)">
<ellipse cx="470.317" cy="275.288" rx="39.7695" ry="39.7541" transform="rotate(-90 470.317 275.288)" fill="#252836"/>
</g>
<path d="M460.108 257.491C460.108 258.939 461.052 259.603 462.204 259.603C463.356 259.603 464.308 258.939 464.308 257.491V253.971H463.58V257.499C463.58 258.523 463.036 258.963 462.212 258.963C461.388 258.963 460.836 258.523 460.836 257.499V253.971H460.108V257.491ZM468.675 258.355C468.643 256.787 466.099 257.355 466.099 256.315C466.099 255.963 466.419 255.707 466.955 255.707C467.539 255.707 467.875 256.027 467.907 256.467H468.635C468.587 255.611 467.947 255.091 466.979 255.091C466.003 255.091 465.371 255.643 465.371 256.315C465.371 257.947 467.963 257.379 467.963 258.355C467.963 258.715 467.643 259.003 467.067 259.003C466.451 259.003 466.075 258.683 466.035 258.259H465.283C465.331 259.059 466.051 259.619 467.075 259.619C468.043 259.619 468.675 259.075 468.675 258.355ZM471.567 255.707C472.319 255.707 472.959 256.179 472.951 257.035H470.183C470.263 256.179 470.855 255.707 471.567 255.707ZM473.615 258.195H472.831C472.671 258.667 472.255 259.003 471.599 259.003C470.855 259.003 470.231 258.515 470.175 257.627H473.679C473.695 257.475 473.703 257.347 473.703 257.187C473.703 255.987 472.871 255.091 471.599 255.091C470.319 255.091 469.431 255.963 469.431 257.347C469.431 258.739 470.351 259.619 471.599 259.619C472.687 259.619 473.391 258.995 473.615 258.195ZM474.391 257.339C474.391 258.699 475.295 259.619 476.471 259.619C477.271 259.619 477.839 259.211 478.103 258.723V259.547H478.839V253.627H478.103V255.947C477.799 255.443 477.167 255.091 476.479 255.091C475.295 255.091 474.391 255.971 474.391 257.339ZM478.103 257.347C478.103 258.379 477.415 258.979 476.615 258.979C475.815 258.979 475.135 258.371 475.135 257.339C475.135 256.307 475.815 255.723 476.615 255.723C477.415 255.723 478.103 256.331 478.103 257.347Z" fill="#F3F4F8"/>
<path d="M451.856 297.603H455.704V296.995H452.952C453.984 296.155 455.536 294.931 455.536 293.491C455.536 292.419 454.832 291.779 453.744 291.779C452.704 291.779 451.928 292.419 451.88 293.651H452.584C452.616 292.923 453 292.403 453.752 292.403C454.536 292.403 454.816 292.883 454.816 293.523C454.816 294.707 453.376 295.859 451.856 297.083V297.603ZM456.457 297.603H460.305V296.995H457.553C458.585 296.155 460.137 294.931 460.137 293.491C460.137 292.419 459.433 291.779 458.345 291.779C457.305 291.779 456.529 292.419 456.481 293.651H457.185C457.217 292.923 457.601 292.403 458.353 292.403C459.137 292.403 459.417 292.883 459.417 293.523C459.417 294.707 457.977 295.859 456.457 297.083V297.603ZM460.635 298.811H461.123L462.019 296.659H461.219L460.635 298.811ZM462.941 291.875V295.139H463.629C463.821 294.683 464.245 294.379 464.829 294.379C465.669 294.379 466.093 294.859 466.093 295.683C466.093 296.475 465.701 297.067 464.821 297.067C464.141 297.067 463.669 296.707 463.533 296.099H462.821C462.965 297.035 463.661 297.683 464.813 297.683C466.165 297.683 466.789 296.787 466.789 295.667C466.789 294.771 466.341 293.755 464.933 293.755C464.365 293.755 463.853 294.011 463.613 294.339V292.515H466.421V291.875H462.941ZM467.684 299.027H468.404L470.596 290.131H469.868L467.684 299.027ZM475.457 293.259C475.361 292.451 474.801 291.763 473.697 291.763C472.233 291.763 471.649 292.883 471.649 294.699C471.649 296.451 472.057 297.683 473.769 297.683C475.033 297.683 475.657 296.819 475.657 295.763C475.657 294.547 474.929 293.835 473.849 293.835C473.161 293.835 472.529 294.155 472.281 294.723C472.273 293.003 472.769 292.371 473.689 292.371C474.345 292.371 474.673 292.699 474.785 293.259H475.457ZM473.697 294.451C474.529 294.451 474.953 294.971 474.953 295.787C474.953 296.571 474.481 297.075 473.729 297.075C472.817 297.075 472.369 296.475 472.369 295.707C472.369 294.843 473.033 294.451 473.697 294.451ZM476.639 294.715C476.639 296.395 477.055 297.667 478.655 297.667C480.247 297.667 480.663 296.395 480.663 294.715C480.663 293.059 480.247 291.795 478.655 291.795C477.055 291.795 476.639 293.059 476.639 294.715ZM479.943 294.715C479.943 295.963 479.791 297.003 478.655 297.003C477.511 297.003 477.359 295.963 477.359 294.715C477.359 293.515 477.511 292.459 478.655 292.459C479.791 292.459 479.943 293.515 479.943 294.715ZM484.31 292.027C482.742 292.027 481.51 293.203 481.51 294.875C481.51 296.547 482.742 297.715 484.31 297.715C485.822 297.715 486.918 296.603 487.046 295.219V294.659H484.046V295.251H486.27C486.158 296.355 485.406 297.059 484.31 297.059C483.134 297.059 482.254 296.211 482.254 294.875C482.254 293.531 483.134 292.683 484.31 292.683C485.094 292.683 485.702 293.059 486.006 293.707H486.878C486.462 292.635 485.486 292.027 484.31 292.027ZM491.177 296.099C491.177 296.707 490.745 297.067 490.025 297.067H488.737V295.099H490.001C490.713 295.099 491.177 295.483 491.177 296.099ZM491.033 293.595C491.033 294.163 490.641 294.499 489.961 294.499H488.737V292.691H489.945C490.657 292.691 491.033 293.043 491.033 293.595ZM491.905 296.171C491.905 295.483 491.409 294.899 490.801 294.795C491.337 294.619 491.777 294.211 491.777 293.507C491.777 292.731 491.185 292.091 490.009 292.091H488.009V297.667H490.089C491.241 297.667 491.905 297.011 491.905 296.171Z" fill="#B1B1B5"/>
<path d="M460.78 274.26C459.484 274.644 458.636 275.7 458.636 277.156C458.636 279.252 460.284 280.596 462.716 280.596C465.164 280.596 466.828 279.252 466.828 277.156C466.828 275.716 465.98 274.66 464.668 274.26C465.804 273.812 466.524 272.852 466.524 271.604C466.524 269.924 465.228 268.532 462.716 268.532C460.204 268.532 458.924 269.908 458.924 271.604C458.924 272.9 459.596 273.796 460.78 274.26ZM462.716 273.78C461.308 273.78 460.332 272.996 460.332 271.796C460.332 270.436 461.292 269.748 462.716 269.748C464.172 269.748 465.116 270.452 465.116 271.78C465.116 272.98 464.14 273.78 462.716 273.78ZM462.716 274.9C464.236 274.9 465.388 275.62 465.388 277.108C465.388 278.452 464.364 279.38 462.716 279.38C461.068 279.38 460.028 278.468 460.028 277.108C460.028 275.572 461.228 274.9 462.716 274.9ZM468.762 274.372C468.762 277.732 469.594 280.276 472.794 280.276C475.978 280.276 476.81 277.732 476.81 274.372C476.81 271.06 475.978 268.532 472.794 268.532C469.594 268.532 468.762 271.06 468.762 274.372ZM475.37 274.372C475.37 276.868 475.066 278.948 472.794 278.948C470.506 278.948 470.202 276.868 470.202 274.372C470.202 271.972 470.506 269.86 472.794 269.86C475.066 269.86 475.37 271.972 475.37 274.372Z" fill="#ED5158"/>
<path d="M480.362 270.095C480.362 270.847 480.866 271.295 481.53 271.295C482.202 271.295 482.698 270.847 482.698 270.095C482.698 269.351 482.202 268.903 481.53 268.903C480.866 268.903 480.362 269.351 480.362 270.095ZM481.53 269.351C481.882 269.351 482.122 269.591 482.122 270.095C482.122 270.591 481.882 270.847 481.53 270.847C481.178 270.847 480.946 270.591 480.946 270.095C480.946 269.591 481.178 269.351 481.53 269.351ZM481.074 274.575H481.794L485.034 268.991H484.314L481.074 274.575ZM483.426 273.471C483.426 274.215 483.922 274.671 484.594 274.671C485.258 274.671 485.754 274.215 485.754 273.471C485.754 272.719 485.258 272.271 484.594 272.271C483.922 272.271 483.426 272.719 483.426 273.471ZM484.586 272.727C484.938 272.727 485.178 272.967 485.178 273.471C485.178 273.967 484.938 274.207 484.586 274.207C484.234 274.207 483.994 273.967 483.994 273.471C483.994 272.967 484.234 272.727 484.586 272.727Z" fill="#ED5158"/>
<g filter="url(#filter4_d_1504_19788)">
<rect x="116" y="134" width="233" height="211.572" rx="40" fill="#252836"/>
<rect x="143.356" y="301.847" width="163.666" height="5.64191" rx="2.82095" fill="#F3F4F8"/>
<rect x="143.356" y="301.847" width="76.8806" height="5.64191" rx="2.82095" fill="url(#paint24_linear_1504_19788)"/>
<g filter="url(#filter5_dd_1504_19788)">
<path fill-rule="evenodd" clip-rule="evenodd" d="M217.576 310.31C220.701 310.31 223.235 307.784 223.235 304.668C223.235 301.552 220.701 299.026 217.576 299.026C214.45 299.026 211.916 301.552 211.916 304.668C211.916 307.784 214.45 310.31 217.576 310.31Z" fill="white"/>
</g>
<path d="M217.575 309.056C220.007 309.056 221.978 307.091 221.978 304.667C221.978 302.244 220.007 300.279 217.575 300.279C215.144 300.279 213.173 302.244 213.173 304.667C213.173 307.091 215.144 309.056 217.575 309.056Z" fill="url(#paint25_linear_1504_19788)"/>
<path d="M219.725 303.277L216.76 306.232L215.412 304.889" stroke="white" stroke-width="0.467611" stroke-linecap="round" stroke-linejoin="round"/>
</g>
<path d="M193.104 171.789H174.028C173.052 171.789 172.138 171.307 171.59 170.502L167.448 164.434C166.9 163.632 165.989 163.15 165.013 163.15H151.833C148.576 163.15 145.938 165.78 145.938 169.027V204.289C145.938 207.536 148.576 210.166 151.833 210.166H193.104C196.361 210.166 198.999 207.536 198.999 204.289V177.666C198.999 174.422 196.361 171.789 193.104 171.789V171.789Z" stroke="url(#paint26_linear_1504_19788)" stroke-width="3.71964" stroke-linecap="round" stroke-linejoin="round"/>
<path d="M172.469 198.412V183.719" stroke="url(#paint27_linear_1504_19788)" stroke-width="3.71964" stroke-linecap="round" stroke-linejoin="round"/>
<path d="M166.927 192.888L172.469 198.412" stroke="url(#paint28_linear_1504_19788)" stroke-width="3.71964" stroke-linecap="round" stroke-linejoin="round"/>
<path d="M178.011 192.888L172.469 198.412" stroke="url(#paint29_linear_1504_19788)" stroke-width="3.71964" stroke-linecap="round" stroke-linejoin="round"/>
<path d="M151.258 230.861C151.258 231.28 151.157 231.673 150.955 232.04C150.76 232.406 150.45 232.702 150.023 232.926C149.604 233.151 149.073 233.263 148.43 233.263H147.117V236.271H145.546V228.437H148.43C149.036 228.437 149.552 228.542 149.979 228.751C150.405 228.961 150.723 229.249 150.932 229.615C151.149 229.982 151.258 230.397 151.258 230.861ZM148.362 231.995C148.796 231.995 149.118 231.897 149.328 231.703C149.537 231.501 149.642 231.22 149.642 230.861C149.642 230.098 149.215 229.716 148.362 229.716H147.117V231.995H148.362ZM155.875 229.963C156.346 229.963 156.765 230.068 157.132 230.278C157.498 230.48 157.783 230.783 157.985 231.187C158.194 231.583 158.299 232.062 158.299 232.623V236.271H156.728V232.836C156.728 232.343 156.604 231.965 156.358 231.703C156.111 231.434 155.774 231.299 155.347 231.299C154.914 231.299 154.569 231.434 154.315 231.703C154.068 231.965 153.945 232.343 153.945 232.836V236.271H152.373V227.966H153.945V230.828C154.147 230.558 154.416 230.349 154.753 230.199C155.089 230.042 155.463 229.963 155.875 229.963ZM162.554 236.372C161.955 236.372 161.417 236.241 160.938 235.979C160.459 235.709 160.081 235.332 159.804 234.845C159.535 234.359 159.4 233.798 159.4 233.162C159.4 232.526 159.539 231.965 159.816 231.478C160.1 230.992 160.485 230.618 160.972 230.356C161.458 230.087 162 229.952 162.599 229.952C163.197 229.952 163.74 230.087 164.226 230.356C164.712 230.618 165.094 230.992 165.371 231.478C165.655 231.965 165.797 232.526 165.797 233.162C165.797 233.798 165.651 234.359 165.36 234.845C165.075 235.332 164.686 235.709 164.192 235.979C163.706 236.241 163.16 236.372 162.554 236.372ZM162.554 235.002C162.838 235.002 163.104 234.935 163.351 234.8C163.605 234.658 163.807 234.449 163.957 234.172C164.106 233.895 164.181 233.558 164.181 233.162C164.181 232.571 164.024 232.118 163.71 231.804C163.403 231.482 163.025 231.321 162.576 231.321C162.127 231.321 161.75 231.482 161.443 231.804C161.144 232.118 160.994 232.571 160.994 233.162C160.994 233.753 161.14 234.209 161.432 234.531C161.731 234.845 162.105 235.002 162.554 235.002ZM168.779 231.344V234.351C168.779 234.561 168.828 234.714 168.925 234.812C169.03 234.901 169.202 234.946 169.441 234.946H170.171V236.271H169.183C167.859 236.271 167.197 235.627 167.197 234.34V231.344H166.456V230.053H167.197V228.516H168.779V230.053H170.171V231.344H168.779ZM174.062 236.372C173.463 236.372 172.924 236.241 172.445 235.979C171.967 235.709 171.589 235.332 171.312 234.845C171.043 234.359 170.908 233.798 170.908 233.162C170.908 232.526 171.046 231.965 171.323 231.478C171.608 230.992 171.993 230.618 172.479 230.356C172.965 230.087 173.508 229.952 174.106 229.952C174.705 229.952 175.247 230.087 175.734 230.356C176.22 230.618 176.602 230.992 176.878 231.478C177.163 231.965 177.305 232.526 177.305 233.162C177.305 233.798 177.159 234.359 176.867 234.845C176.583 235.332 176.194 235.709 175.7 235.979C175.214 236.241 174.668 236.372 174.062 236.372ZM174.062 235.002C174.346 235.002 174.611 234.935 174.858 234.8C175.113 234.658 175.315 234.449 175.464 234.172C175.614 233.895 175.689 233.558 175.689 233.162C175.689 232.571 175.532 232.118 175.217 231.804C174.911 231.482 174.533 231.321 174.084 231.321C173.635 231.321 173.257 231.482 172.95 231.804C172.651 232.118 172.502 232.571 172.502 233.162C172.502 233.753 172.647 234.209 172.939 234.531C173.239 234.845 173.613 235.002 174.062 235.002ZM180.837 236.372C180.328 236.372 179.871 236.282 179.467 236.102C179.063 235.915 178.742 235.664 178.502 235.35C178.27 235.036 178.143 234.688 178.121 234.307H179.703C179.733 234.546 179.849 234.744 180.051 234.901C180.261 235.058 180.519 235.137 180.825 235.137C181.125 235.137 181.357 235.077 181.521 234.957C181.693 234.838 181.779 234.684 181.779 234.497C181.779 234.295 181.675 234.146 181.465 234.048C181.263 233.944 180.938 233.831 180.489 233.712C180.025 233.6 179.643 233.484 179.344 233.364C179.052 233.244 178.798 233.061 178.581 232.814C178.371 232.567 178.267 232.234 178.267 231.815C178.267 231.471 178.364 231.157 178.558 230.872C178.76 230.588 179.045 230.364 179.411 230.199C179.785 230.034 180.223 229.952 180.724 229.952C181.465 229.952 182.056 230.139 182.498 230.513C182.939 230.88 183.182 231.377 183.227 232.006H181.723C181.701 231.759 181.596 231.564 181.409 231.422C181.229 231.273 180.986 231.198 180.679 231.198C180.395 231.198 180.174 231.25 180.017 231.355C179.868 231.46 179.793 231.606 179.793 231.793C179.793 232.002 179.898 232.163 180.107 232.275C180.317 232.38 180.642 232.488 181.084 232.601C181.532 232.713 181.903 232.829 182.195 232.949C182.486 233.068 182.737 233.255 182.946 233.51C183.163 233.757 183.276 234.086 183.283 234.497C183.283 234.856 183.182 235.178 182.98 235.462C182.786 235.747 182.501 235.971 182.127 236.136C181.761 236.293 181.33 236.372 180.837 236.372Z" fill="#F3F4F8"/>
<ellipse cx="318.804" cy="165.021" rx="1.87701" ry="1.87104" fill="#F3F4F8"/>
<ellipse cx="318.804" cy="170.202" rx="1.87701" ry="1.87104" fill="#F3F4F8"/>
<ellipse cx="318.804" cy="175.384" rx="1.87701" ry="1.87105" fill="#F3F4F8"/>
<path d="M145.899 258.189H146.673V252.103H145.091V252.802H145.899V258.189ZM147.45 259.393H147.964L148.907 257.128H148.065L147.45 259.393ZM149.565 258.122H153.614V257.482H150.718C151.804 256.598 153.437 255.31 153.437 253.795C153.437 252.667 152.696 251.994 151.552 251.994C150.457 251.994 149.641 252.667 149.59 253.964H150.331C150.365 253.198 150.769 252.651 151.56 252.651C152.385 252.651 152.679 253.156 152.679 253.829C152.679 255.075 151.164 256.287 149.565 257.575V258.122ZM154.718 252.095V255.529H155.442C155.644 255.049 156.09 254.73 156.704 254.73C157.588 254.73 158.034 255.235 158.034 256.102C158.034 256.935 157.622 257.558 156.696 257.558C155.981 257.558 155.484 257.179 155.341 256.539H154.592C154.743 257.524 155.476 258.206 156.688 258.206C158.11 258.206 158.767 257.263 158.767 256.085C158.767 255.142 158.295 254.073 156.814 254.073C156.216 254.073 155.678 254.342 155.425 254.687V252.768H158.379V252.095H154.718ZM159.784 255.083C159.784 256.851 160.222 258.189 161.906 258.189C163.581 258.189 164.018 256.851 164.018 255.083C164.018 253.341 163.581 252.011 161.906 252.011C160.222 252.011 159.784 253.341 159.784 255.083ZM163.261 255.083C163.261 256.396 163.101 257.49 161.906 257.49C160.702 257.49 160.542 256.396 160.542 255.083C160.542 253.821 160.702 252.709 161.906 252.709C163.101 252.709 163.261 253.821 163.261 255.083ZM167.583 258.189H168.349V254.208H169.317V253.576H168.349V253.248C168.349 252.651 168.576 252.398 169.266 252.398V251.758C168.088 251.758 167.583 252.221 167.583 253.248V253.576H166.985V254.208H167.583V258.189ZM170.21 258.189H170.976V253.576H170.21V258.189ZM170.606 252.827C170.883 252.827 171.111 252.6 171.111 252.305C171.111 252.011 170.883 251.784 170.606 251.784C170.311 251.784 170.084 252.011 170.084 252.305C170.084 252.6 170.311 252.827 170.606 252.827ZM172.281 258.189H173.047V251.96H172.281V258.189ZM176.314 254.149C177.105 254.149 177.779 254.645 177.77 255.546H174.858C174.942 254.645 175.565 254.149 176.314 254.149ZM178.469 256.766H177.644C177.476 257.263 177.038 257.617 176.348 257.617C175.565 257.617 174.908 257.103 174.849 256.169H178.536C178.553 256.009 178.561 255.874 178.561 255.706C178.561 254.443 177.686 253.501 176.348 253.501C175.001 253.501 174.067 254.418 174.067 255.874C174.067 257.339 175.035 258.265 176.348 258.265C177.492 258.265 178.233 257.608 178.469 256.766ZM182.889 256.935C182.855 255.285 180.178 255.883 180.178 254.788C180.178 254.418 180.515 254.149 181.079 254.149C181.693 254.149 182.047 254.485 182.081 254.948H182.847C182.796 254.048 182.123 253.501 181.104 253.501C180.077 253.501 179.412 254.081 179.412 254.788C179.412 256.506 182.14 255.908 182.14 256.935C182.14 257.314 181.803 257.617 181.197 257.617C180.549 257.617 180.153 257.28 180.111 256.834H179.32C179.37 257.676 180.128 258.265 181.205 258.265C182.224 258.265 182.889 257.692 182.889 256.935Z" fill="#B1B1B5"/>
<path d="M276.342 253.041V254.13H280.494L277.34 261.189H278.631L281.751 253.995V253.041H276.342ZM283.183 252.985V257.71H284.395C284.608 257.104 285.113 256.689 285.865 256.689C286.931 256.689 287.458 257.295 287.458 258.361C287.458 259.371 286.965 260.123 285.865 260.123C285.001 260.123 284.417 259.674 284.249 258.978H283.003C283.194 260.257 284.17 261.189 285.854 261.189C287.75 261.189 288.682 259.954 288.682 258.327C288.682 257.093 288.064 255.6 286.056 255.6C285.326 255.6 284.664 255.937 284.361 256.341V254.107H288.121V252.985H283.183ZM290.014 256.992C290.014 259.371 290.642 261.167 292.931 261.167C295.221 261.167 295.849 259.371 295.849 256.992C295.849 254.657 295.221 252.862 292.931 252.862C290.642 252.862 290.014 254.657 290.014 256.992ZM294.592 256.992C294.592 258.597 294.424 259.999 292.931 259.999C291.439 259.999 291.27 258.597 291.27 256.992C291.27 255.465 291.439 254.029 292.931 254.029C294.424 254.029 294.592 255.465 294.592 256.992ZM300.287 261.189H301.566V255.847L303.956 261.189H304.843L307.222 255.847V261.189H308.502V253.389H307.132L304.405 259.506L301.667 253.389H300.287V261.189ZM314.583 258.956C314.583 259.708 314.055 260.145 313.191 260.145H311.463V257.71H313.146C313.999 257.71 314.583 258.181 314.583 258.956ZM314.381 255.555C314.381 256.273 313.875 256.666 313.045 256.666H311.463V254.433H313.045C313.875 254.433 314.381 254.848 314.381 255.555ZM315.862 259.09C315.862 258.159 315.189 257.328 314.358 257.182C315.11 256.913 315.682 256.341 315.682 255.398C315.682 254.298 314.807 253.389 313.157 253.389H310.183V261.189H313.303C314.897 261.189 315.862 260.28 315.862 259.09Z" fill="#00D764"/>
<path d="M276.322 281.16H280.371V280.52H277.475C278.561 279.636 280.194 278.348 280.194 276.833C280.194 275.705 279.453 275.032 278.308 275.032C277.214 275.032 276.398 275.705 276.347 277.002H277.088C277.122 276.236 277.526 275.689 278.317 275.689C279.142 275.689 279.436 276.194 279.436 276.867C279.436 278.113 277.921 279.325 276.322 280.613V281.16ZM283.34 278.904C283.34 280.335 284.291 281.303 285.528 281.303C286.37 281.303 286.968 280.874 287.246 280.36V281.227H288.02V274.998H287.246V277.439C286.926 276.909 286.261 276.539 285.537 276.539C284.291 276.539 283.34 277.465 283.34 278.904ZM287.246 278.912C287.246 279.998 286.522 280.629 285.68 280.629C284.838 280.629 284.123 279.99 284.123 278.904C284.123 277.818 284.838 277.204 285.68 277.204C286.522 277.204 287.246 277.843 287.246 278.912ZM289.028 278.904C289.028 280.335 289.979 281.303 291.208 281.303C292.058 281.303 292.656 280.865 292.934 280.369V281.227H293.708V276.615H292.934V277.456C292.664 276.976 292.075 276.539 291.217 276.539C289.979 276.539 289.028 277.465 289.028 278.904ZM292.934 278.912C292.934 279.998 292.21 280.629 291.368 280.629C290.526 280.629 289.811 279.99 289.811 278.904C289.811 277.818 290.526 277.204 291.368 277.204C292.21 277.204 292.934 277.843 292.934 278.912ZM296.753 280.352L295.305 276.615H294.455L296.315 281.177L295.406 283.399H296.198L298.975 276.615H298.184L296.753 280.352ZM303.061 279.973C303.028 278.323 300.351 278.921 300.351 277.827C300.351 277.456 300.688 277.187 301.252 277.187C301.866 277.187 302.22 277.524 302.253 277.987H303.019C302.969 277.086 302.295 276.539 301.277 276.539C300.25 276.539 299.585 277.12 299.585 277.827C299.585 279.544 302.312 278.946 302.312 279.973C302.312 280.352 301.976 280.655 301.37 280.655C300.721 280.655 300.326 280.318 300.284 279.872H299.493C299.543 280.714 300.301 281.303 301.378 281.303C302.396 281.303 303.061 280.73 303.061 279.973ZM306.1 278.904C306.1 280.335 307.052 281.303 308.28 281.303C309.131 281.303 309.728 280.865 310.006 280.369V281.227H310.78V276.615H310.006V277.456C309.737 276.976 309.147 276.539 308.289 276.539C307.052 276.539 306.1 277.465 306.1 278.904ZM310.006 278.912C310.006 279.998 309.282 280.629 308.44 280.629C307.599 280.629 306.883 279.99 306.883 278.904C306.883 277.818 307.599 277.204 308.44 277.204C309.282 277.204 310.006 277.843 310.006 278.912ZM311.789 278.904C311.789 280.335 312.74 281.303 313.977 281.303C314.819 281.303 315.416 280.857 315.694 280.36V281.328C315.694 282.313 315.08 282.835 314.263 282.835C313.506 282.835 312.958 282.456 312.79 281.9H312.033C312.184 282.885 313.051 283.5 314.263 283.5C315.618 283.5 316.468 282.599 316.468 281.328V276.615H315.694V277.456C315.425 276.96 314.819 276.539 313.977 276.539C312.74 276.539 311.789 277.465 311.789 278.904ZM315.694 278.912C315.694 279.998 314.97 280.629 314.128 280.629C313.287 280.629 312.571 279.99 312.571 278.904C312.571 277.818 313.287 277.204 314.128 277.204C314.97 277.204 315.694 277.843 315.694 278.912ZM322.14 278.912C322.14 277.456 321.121 276.539 319.808 276.539C318.503 276.539 317.477 277.456 317.477 278.912C317.477 280.377 318.47 281.303 319.774 281.303C321.087 281.303 322.14 280.377 322.14 278.912ZM318.259 278.912C318.259 277.751 318.992 277.204 319.8 277.204C320.591 277.204 321.357 277.751 321.357 278.912C321.357 280.082 320.574 280.629 319.774 280.629C318.975 280.629 318.259 280.082 318.259 278.912Z" fill="#F3F4F8"/>
<path d="M149.35 281.876H150.607V280.17H151.651V279.059H150.607V273.796H149.058L145.287 279.205V280.17H149.35V281.876ZM146.758 279.059L149.406 275.097V279.059H146.758ZM152.711 277.679C152.711 280.058 153.339 281.854 155.629 281.854C157.918 281.854 158.547 280.058 158.547 277.679C158.547 275.344 157.918 273.549 155.629 273.549C153.339 273.549 152.711 275.344 152.711 277.679ZM157.29 277.679C157.29 279.284 157.121 280.686 155.629 280.686C154.136 280.686 153.968 279.284 153.968 277.679C153.968 276.152 154.136 274.716 155.629 274.716C157.121 274.716 157.29 276.152 157.29 277.679ZM159.698 275.67C159.698 276.792 160.428 277.432 161.404 277.432C162.381 277.432 163.11 276.792 163.11 275.67C163.11 274.559 162.381 273.919 161.404 273.919C160.428 273.919 159.698 274.559 159.698 275.67ZM161.404 274.693C161.831 274.693 162.111 274.974 162.111 275.67C162.111 276.366 161.831 276.657 161.404 276.657C160.967 276.657 160.697 276.366 160.697 275.67C160.697 274.974 160.967 274.693 161.404 274.693ZM160.809 281.876H162.066L166.544 274.065H165.287L160.809 281.876ZM164.266 280.26C164.266 281.382 164.995 282.022 165.972 282.022C166.937 282.022 167.666 281.382 167.666 280.26C167.666 279.138 166.937 278.509 165.972 278.509C164.995 278.509 164.266 279.138 164.266 280.26ZM165.961 279.284C166.387 279.284 166.668 279.564 166.668 280.26C166.668 280.956 166.387 281.236 165.961 281.236C165.534 281.236 165.254 280.956 165.254 280.26C165.254 279.564 165.534 279.284 165.961 279.284Z" fill="#F3F4F8"/>
<g filter="url(#filter6_d_1504_19788)">
<circle cx="405" cy="63" r="43" fill="#252836"/>
</g>
<path d="M415.93 72.2145H403.564C402.022 72.2145 401.26 70.404 402.344 69.3506L414.71 57.3515C415.795 56.2981 417.658 57.0388 417.658 58.5366V70.5356C417.641 71.4738 416.879 72.2145 415.93 72.2145Z" fill="url(#paint30_linear_1504_19788)"/>
<path d="M415.93 72.2145H403.564C402.022 72.2145 401.26 70.404 402.344 69.3506L414.71 57.3515C415.795 56.2981 417.658 57.0388 417.658 58.5366V70.5356C417.641 71.4738 416.879 72.2145 415.93 72.2145Z" fill="url(#paint31_linear_1504_19788)"/>
<path d="M421.829 51.2405L414.443 44.0926C414.085 43.7459 413.59 43.5479 413.079 43.5479H389.54C388.465 43.5479 387.595 44.3898 387.595 45.4298V73.4272C387.595 73.9225 387.8 74.4012 388.158 74.7479L395.544 81.8958C396.772 83.0844 398.853 82.2425 398.853 80.5752V56.3085C398.853 55.285 399.723 54.4431 400.797 54.4431H420.481C422.187 54.4431 423.057 52.4291 421.829 51.2405Z" fill="url(#paint32_linear_1504_19788)"/>
<path d="M421.829 51.2405L414.443 44.0926C414.085 43.7459 413.59 43.5479 413.079 43.5479H389.54C388.465 43.5479 387.595 44.3898 387.595 45.4298V73.4272C387.595 73.9225 387.8 74.4012 388.158 74.7479L395.544 81.8958C396.772 83.0844 398.853 82.2425 398.853 80.5752V56.3085C398.853 55.285 399.723 54.4431 400.797 54.4431H420.481C422.187 54.4431 423.057 52.4291 421.829 51.2405Z" fill="url(#paint33_linear_1504_19788)"/>
<defs>
<filter id="filter0_d_1504_19788" x="416" y="432" width="118" height="113" filterUnits="userSpaceOnUse" color-interpolation-filters="sRGB">
<feFlood flood-opacity="0" result="BackgroundImageFix"/>
<feColorMatrix in="SourceAlpha" type="matrix" values="0 0 0 0 0 0 0 0 0 0 0 0 0 0 0 0 0 0 127 0" result="hardAlpha"/>
<feOffset dy="10"/>
<feGaussianBlur stdDeviation="15"/>
<feColorMatrix type="matrix" values="0 0 0 0 0.929412 0 0 0 0 0.317647 0 0 0 0 0.345098 0 0 0 0.25 0"/>
<feBlend mode="normal" in2="BackgroundImageFix" result="effect1_dropShadow_1504_19788"/>
<feBlend mode="normal" in="SourceGraphic" in2="effect1_dropShadow_1504_19788" result="shape"/>
</filter>
<filter id="filter1_d_1504_19788" x="0" y="365" width="404" height="149.116" filterUnits="userSpaceOnUse" color-interpolation-filters="sRGB">
<feFlood flood-opacity="0" result="BackgroundImageFix"/>
<feColorMatrix in="SourceAlpha" type="matrix" values="0 0 0 0 0 0 0 0 0 0 0 0 0 0 0 0 0 0 127 0" result="hardAlpha"/>
<feOffset dy="10"/>
<feGaussianBlur stdDeviation="15"/>
<feColorMatrix type="matrix" values="0 0 0 0 0 0 0 0 0 0 0 0 0 0 0 0 0 0 0.2 0"/>
<feBlend mode="normal" in2="BackgroundImageFix" result="effect1_dropShadow_1504_19788"/>
<feBlend mode="normal" in="SourceGraphic" in2="effect1_dropShadow_1504_19788" result="shape"/>
</filter>
<filter id="filter2_d_1504_19788" x="369.13" y="185.753" width="202.741" height="186.684" filterUnits="userSpaceOnUse" color-interpolation-filters="sRGB">
<feFlood flood-opacity="0" result="BackgroundImageFix"/>
<feColorMatrix in="SourceAlpha" type="matrix" values="0 0 0 0 0 0 0 0 0 0 0 0 0 0 0 0 0 0 127 0" result="hardAlpha"/>
<feOffset dy="3.62348"/>
<feGaussianBlur stdDeviation="5.43522"/>
<feColorMatrix type="matrix" values="0 0 0 0 0 0 0 0 0 0 0 0 0 0 0 0 0 0 0.2 0"/>
<feBlend mode="normal" in2="BackgroundImageFix" result="effect1_dropShadow_1504_19788"/>
<feBlend mode="normal" in="SourceGraphic" in2="effect1_dropShadow_1504_19788" result="shape"/>
</filter>
<filter id="filter3_d_1504_19788" x="423.316" y="231.17" width="94.002" height="94.033" filterUnits="userSpaceOnUse" color-interpolation-filters="sRGB">
<feFlood flood-opacity="0" result="BackgroundImageFix"/>
<feColorMatrix in="SourceAlpha" type="matrix" values="0 0 0 0 0 0 0 0 0 0 0 0 0 0 0 0 0 0 127 0" result="hardAlpha"/>
<feOffset dy="2.89879"/>
<feGaussianBlur stdDeviation="3.62348"/>
<feColorMatrix type="matrix" values="0 0 0 0 0.147222 0 0 0 0 0.147222 0 0 0 0 0.147222 0 0 0 0.2 0"/>
<feBlend mode="normal" in2="BackgroundImageFix" result="effect1_dropShadow_1504_19788"/>
<feBlend mode="normal" in="SourceGraphic" in2="effect1_dropShadow_1504_19788" result="shape"/>
</filter>
<filter id="filter4_d_1504_19788" x="85.0551" y="110.791" width="294.89" height="273.462" filterUnits="userSpaceOnUse" color-interpolation-filters="sRGB">
<feFlood flood-opacity="0" result="BackgroundImageFix"/>
<feColorMatrix in="SourceAlpha" type="matrix" values="0 0 0 0 0 0 0 0 0 0 0 0 0 0 0 0 0 0 127 0" result="hardAlpha"/>
<feOffset dy="7.73622"/>
<feGaussianBlur stdDeviation="15.4724"/>
<feColorMatrix type="matrix" values="0 0 0 0 0.121569 0 0 0 0 0.113725 0 0 0 0 0.168627 0 0 0 0.3 0"/>
<feBlend mode="normal" in2="BackgroundImageFix" result="effect1_dropShadow_1504_19788"/>
<feBlend mode="normal" in="SourceGraphic" in2="effect1_dropShadow_1504_19788" result="shape"/>
</filter>
<filter id="filter5_dd_1504_19788" x="210.045" y="298.091" width="15.0607" height="15.0246" filterUnits="userSpaceOnUse" color-interpolation-filters="sRGB">
<feFlood flood-opacity="0" result="BackgroundImageFix"/>
<feColorMatrix in="SourceAlpha" type="matrix" values="0 0 0 0 0 0 0 0 0 0 0 0 0 0 0 0 0 0 127 0" result="hardAlpha"/>
<feOffset dy="0.935223"/>
<feGaussianBlur stdDeviation="0.935223"/>
<feColorMatrix type="matrix" values="0 0 0 0 0.196487 0 0 0 0 0.196487 0 0 0 0 0.279476 0 0 0 0.06 0"/>
<feBlend mode="multiply" in2="BackgroundImageFix" result="effect1_dropShadow_1504_19788"/>
<feColorMatrix in="SourceAlpha" type="matrix" values="0 0 0 0 0 0 0 0 0 0 0 0 0 0 0 0 0 0 127 0" result="hardAlpha"/>
<feOffset dy="0.935223"/>
<feGaussianBlur stdDeviation="0.467611"/>
<feColorMatrix type="matrix" values="0 0 0 0 0.196487 0 0 0 0 0.196487 0 0 0 0 0.279476 0 0 0 0.06 0"/>
<feBlend mode="multiply" in2="effect1_dropShadow_1504_19788" result="effect2_dropShadow_1504_19788"/>
<feBlend mode="normal" in="SourceGraphic" in2="effect2_dropShadow_1504_19788" result="shape"/>
</filter>
<filter id="filter6_d_1504_19788" x="332" y="0" width="146" height="146" filterUnits="userSpaceOnUse" color-interpolation-filters="sRGB">
<feFlood flood-opacity="0" result="BackgroundImageFix"/>
<feColorMatrix in="SourceAlpha" type="matrix" values="0 0 0 0 0 0 0 0 0 0 0 0 0 0 0 0 0 0 127 0" result="hardAlpha"/>
<feOffset dy="10"/>
<feGaussianBlur stdDeviation="15"/>
<feColorMatrix type="matrix" values="0 0 0 0 0 0 0 0 0 0 0 0 0 0 0 0 0 0 0.2 0"/>
<feBlend mode="normal" in2="BackgroundImageFix" result="effect1_dropShadow_1504_19788"/>
<feBlend mode="normal" in="SourceGraphic" in2="effect1_dropShadow_1504_19788" result="shape"/>
</filter>
<linearGradient id="paint0_linear_1504_19788" x1="86" y1="240" x2="86" y2="256" gradientUnits="userSpaceOnUse">
<stop stop-color="#00D764"/>
<stop offset="1" stop-color="#2698EA"/>
</linearGradient>
<linearGradient id="paint1_linear_1504_19788" x1="251.744" y1="90.7105" x2="251.744" y2="239.865" gradientUnits="userSpaceOnUse">
<stop stop-color="#00D764"/>
<stop offset="1" stop-color="#2698EA"/>
</linearGradient>
<linearGradient id="paint2_linear_1504_19788" x1="180.751" y1="84.0947" x2="180.751" y2="93.595" gradientUnits="userSpaceOnUse">
<stop stop-color="#00D764"/>
<stop offset="1" stop-color="#2698EA"/>
</linearGradient>
<linearGradient id="paint3_linear_1504_19788" x1="95.1991" y1="206.274" x2="95.1991" y2="215.775" gradientUnits="userSpaceOnUse">
<stop stop-color="#00D764"/>
<stop offset="1" stop-color="#2698EA"/>
</linearGradient>
<linearGradient id="paint4_linear_1504_19788" x1="4.75013" y1="0" x2="4.75013" y2="9.50027" gradientUnits="userSpaceOnUse">
<stop stop-color="#00D764"/>
<stop offset="1" stop-color="#2698EA"/>
</linearGradient>
<linearGradient id="paint5_linear_1504_19788" x1="4.75014" y1="0" x2="4.75014" y2="9.50027" gradientUnits="userSpaceOnUse">
<stop stop-color="#00D764"/>
<stop offset="1" stop-color="#2698EA"/>
</linearGradient>
<linearGradient id="paint6_linear_1504_19788" x1="216.261" y1="278.85" x2="373.789" y2="282.53" gradientUnits="userSpaceOnUse">
<stop stop-color="#3BD3E9"/>
<stop offset="0.527778" stop-color="#9C7EEA"/>
<stop offset="0.983091" stop-color="#6AE0C9"/>
</linearGradient>
<linearGradient id="paint7_linear_1504_19788" x1="215.095" y1="304.82" x2="225.128" y2="305.055" gradientUnits="userSpaceOnUse">
<stop stop-color="#3BD3E9"/>
<stop offset="0.527778" stop-color="#9C7EEA"/>
<stop offset="0.983091" stop-color="#6AE0C9"/>
</linearGradient>
<linearGradient id="paint8_linear_1504_19788" x1="129.544" y1="427" x2="139.577" y2="427.235" gradientUnits="userSpaceOnUse">
<stop stop-color="#3BD3E9"/>
<stop offset="0.527778" stop-color="#9C7EEA"/>
<stop offset="0.983091" stop-color="#6AE0C9"/>
</linearGradient>
<linearGradient id="paint9_linear_1504_19788" x1="251.724" y1="512.552" x2="261.757" y2="512.786" gradientUnits="userSpaceOnUse">
<stop stop-color="#3BD3E9"/>
<stop offset="0.527778" stop-color="#9C7EEA"/>
<stop offset="0.983091" stop-color="#6AE0C9"/>
</linearGradient>
<linearGradient id="paint10_linear_1504_19788" x1="1.37011e-07" y1="-2.21674" x2="10.0336" y2="-1.98234" gradientUnits="userSpaceOnUse">
<stop stop-color="#3BD3E9"/>
<stop offset="0.527778" stop-color="#9C7EEA"/>
<stop offset="0.983091" stop-color="#6AE0C9"/>
</linearGradient>
<linearGradient id="paint11_linear_1504_19788" x1="400.11" y1="16.8135" x2="557.638" y2="20.4935" gradientUnits="userSpaceOnUse">
<stop stop-color="#3BD3E9"/>
<stop offset="0.527778" stop-color="#9C7EEA"/>
<stop offset="0.983091" stop-color="#6AE0C9"/>
</linearGradient>
<linearGradient id="paint12_linear_1504_19788" x1="398.943" y1="42.7833" x2="408.977" y2="43.0177" gradientUnits="userSpaceOnUse">
<stop stop-color="#3BD3E9"/>
<stop offset="0.527778" stop-color="#9C7EEA"/>
<stop offset="0.983091" stop-color="#6AE0C9"/>
</linearGradient>
<linearGradient id="paint13_linear_1504_19788" x1="313.392" y1="164.963" x2="323.426" y2="165.198" gradientUnits="userSpaceOnUse">
<stop stop-color="#3BD3E9"/>
<stop offset="0.527778" stop-color="#9C7EEA"/>
<stop offset="0.983091" stop-color="#6AE0C9"/>
</linearGradient>
<linearGradient id="paint14_linear_1504_19788" x1="1.37011e-07" y1="-2.21674" x2="10.0336" y2="-1.98234" gradientUnits="userSpaceOnUse">
<stop stop-color="#3BD3E9"/>
<stop offset="0.527778" stop-color="#9C7EEA"/>
<stop offset="0.983091" stop-color="#6AE0C9"/>
</linearGradient>
<linearGradient id="paint15_linear_1504_19788" x1="521.124" y1="128.335" x2="531.157" y2="128.569" gradientUnits="userSpaceOnUse">
<stop stop-color="#3BD3E9"/>
<stop offset="0.527778" stop-color="#9C7EEA"/>
<stop offset="0.983091" stop-color="#6AE0C9"/>
</linearGradient>
<linearGradient id="paint16_linear_1504_19788" x1="513.781" y1="274.559" x2="513.781" y2="423.713" gradientUnits="userSpaceOnUse">
<stop stop-color="#00D764"/>
<stop offset="1" stop-color="#2698EA"/>
</linearGradient>
<linearGradient id="paint17_linear_1504_19788" x1="442.788" y1="267.943" x2="442.788" y2="277.443" gradientUnits="userSpaceOnUse">
<stop stop-color="#00D764"/>
<stop offset="1" stop-color="#2698EA"/>
</linearGradient>
<linearGradient id="paint18_linear_1504_19788" x1="357.236" y1="390.123" x2="357.236" y2="399.623" gradientUnits="userSpaceOnUse">
<stop stop-color="#00D764"/>
<stop offset="1" stop-color="#2698EA"/>
</linearGradient>
<linearGradient id="paint19_linear_1504_19788" x1="479.417" y1="475.674" x2="479.417" y2="485.175" gradientUnits="userSpaceOnUse">
<stop stop-color="#00D764"/>
<stop offset="1" stop-color="#2698EA"/>
</linearGradient>
<linearGradient id="paint20_linear_1504_19788" x1="4.75014" y1="0" x2="4.75014" y2="9.50028" gradientUnits="userSpaceOnUse">
<stop stop-color="#00D764"/>
<stop offset="1" stop-color="#2698EA"/>
</linearGradient>
<linearGradient id="paint21_linear_1504_19788" x1="475" y1="452" x2="475" y2="505" gradientUnits="userSpaceOnUse">
<stop stop-color="#FBC67A"/>
<stop offset="0.0001" stop-color="#5A82F6"/>
<stop offset="1" stop-color="#ED5158"/>
</linearGradient>
<linearGradient id="paint22_linear_1504_19788" x1="185.265" y1="387.955" x2="244.025" y2="389.301" gradientUnits="userSpaceOnUse">
<stop stop-color="#3BD3E9"/>
<stop offset="0.527778" stop-color="#9C7EEA"/>
<stop offset="0.983091" stop-color="#6AE0C9"/>
</linearGradient>
<linearGradient id="paint23_linear_1504_19788" x1="407.48" y1="183.091" x2="540.209" y2="186.191" gradientUnits="userSpaceOnUse">
<stop stop-color="#3BD3E9"/>
<stop offset="0.527778" stop-color="#9C7EEA"/>
<stop offset="0.983091" stop-color="#6AE0C9"/>
</linearGradient>
<linearGradient id="paint24_linear_1504_19788" x1="181.797" y1="301.847" x2="181.797" y2="307.489" gradientUnits="userSpaceOnUse">
<stop stop-color="#00D764"/>
<stop offset="1" stop-color="#2698EA"/>
</linearGradient>
<linearGradient id="paint25_linear_1504_19788" x1="217.575" y1="300.279" x2="217.575" y2="309.056" gradientUnits="userSpaceOnUse">
<stop stop-color="#00D764"/>
<stop offset="1" stop-color="#2698EA"/>
</linearGradient>
<linearGradient id="paint26_linear_1504_19788" x1="172.468" y1="163.15" x2="172.468" y2="210.166" gradientUnits="userSpaceOnUse">
<stop stop-color="#00D764"/>
<stop offset="1" stop-color="#2698EA"/>
</linearGradient>
<linearGradient id="paint27_linear_1504_19788" x1="172.969" y1="183.719" x2="172.969" y2="198.412" gradientUnits="userSpaceOnUse">
<stop stop-color="#00D764"/>
<stop offset="1" stop-color="#2698EA"/>
</linearGradient>
<linearGradient id="paint28_linear_1504_19788" x1="169.698" y1="192.888" x2="169.698" y2="198.412" gradientUnits="userSpaceOnUse">
<stop stop-color="#00D764"/>
<stop offset="1" stop-color="#2698EA"/>
</linearGradient>
<linearGradient id="paint29_linear_1504_19788" x1="175.24" y1="192.888" x2="175.24" y2="198.412" gradientUnits="userSpaceOnUse">
<stop stop-color="#00D764"/>
<stop offset="1" stop-color="#2698EA"/>
</linearGradient>
<linearGradient id="paint30_linear_1504_19788" x1="388.693" y1="44.6237" x2="420.02" y2="42.0231" gradientUnits="userSpaceOnUse">
<stop offset="0.0625" stop-color="#FFA0F6"/>
<stop offset="0.651042" stop-color="#2698EA"/>
</linearGradient>
<linearGradient id="paint31_linear_1504_19788" x1="387.595" y1="44.2684" x2="404.381" y2="74.8947" gradientUnits="userSpaceOnUse">
<stop stop-color="#37EBAA"/>
<stop offset="1" stop-color="#37EBAA" stop-opacity="0"/>
</linearGradient>
<linearGradient id="paint32_linear_1504_19788" x1="388.693" y1="44.6237" x2="420.02" y2="42.0231" gradientUnits="userSpaceOnUse">
<stop offset="0.0625" stop-color="#FFA0F6"/>
<stop offset="0.651042" stop-color="#2698EA"/>
</linearGradient>
<linearGradient id="paint33_linear_1504_19788" x1="387.595" y1="44.2684" x2="404.381" y2="74.8947" gradientUnits="userSpaceOnUse">
<stop stop-color="#37EBAA"/>
<stop offset="1" stop-color="#37EBAA" stop-opacity="0"/>
</linearGradient>
</defs>
</svg>
