<svg width="140" height="42" viewBox="0 0 140 42" fill="none" xmlns="http://www.w3.org/2000/svg">
<path d="M29.7528 30.9474H16.7676C15.1489 30.9474 14.3485 28.9928 15.4869 27.8555L28.4721 14.9019C29.6105 13.7647 31.5671 14.5643 31.5671 16.1813V29.1349C31.5494 30.1478 30.7489 30.9474 29.7528 30.9474Z" fill="url(#paint0_linear_1504_19873)"/>
<path d="M29.7528 30.9474H16.7676C15.1489 30.9474 14.3485 28.9928 15.4869 27.8555L28.4721 14.9019C29.6105 13.7647 31.5671 14.5643 31.5671 16.1813V29.1349C31.5494 30.1478 30.7489 30.9474 29.7528 30.9474Z" fill="url(#paint1_linear_1504_19873)"/>
<path d="M35.9467 8.30472L28.1914 0.588103C27.8152 0.213856 27.2958 0 26.7585 0H2.04181C0.913443 0 0 0.908886 0 2.03163V32.2565C0 32.7912 0.214928 33.308 0.591052 33.6823L8.34636 41.3989C9.63593 42.682 11.821 41.7731 11.821 39.9732V13.7759C11.821 12.6709 12.7345 11.7621 13.8628 11.7621H34.5317C36.3228 11.7621 37.2363 9.58786 35.9467 8.30472Z" fill="url(#paint2_linear_1504_19873)"/>
<path d="M35.9467 8.30472L28.1914 0.588103C27.8152 0.213856 27.2958 0 26.7585 0H2.04181C0.913443 0 0 0.908886 0 2.03163V32.2565C0 32.7912 0.214928 33.308 0.591052 33.6823L8.34636 41.3989C9.63593 42.682 11.821 41.7731 11.821 39.9732V13.7759C11.821 12.6709 12.7345 11.7621 13.8628 11.7621H34.5317C36.3228 11.7621 37.2363 9.58786 35.9467 8.30472Z" fill="url(#paint3_linear_1504_19873)"/>
<path d="M47.2805 31.1693V11.7653H59.6715V14.6205H50.7895V20.0536H57.9718V22.8533H50.7895V31.1693H47.2805Z" fill="#007AFF"/>
<path d="M64.1887 15.2858C63.549 15.2858 63.0191 15.0917 62.5987 14.7037C62.1966 14.3156 61.9956 13.8259 61.9956 13.2345C61.9956 12.6431 62.1966 12.1627 62.5987 11.7931C63.0191 11.405 63.549 11.2109 64.1887 11.2109C64.8283 11.2109 65.3492 11.405 65.7513 11.7931C66.1716 12.1627 66.3818 12.6431 66.3818 13.2345C66.3818 13.8259 66.1716 14.3156 65.7513 14.7037C65.3492 15.0917 64.8283 15.2858 64.1887 15.2858ZM62.4342 31.1693V17.4202H65.9432V31.1693H62.4342Z" fill="#007AFF"/>
<path d="M69.6057 31.1693V11.2109H73.1146V31.1693H69.6057Z" fill="#007AFF"/>
<path d="M83.3067 31.502C81.936 31.502 80.7207 31.2063 79.6607 30.6149C78.6007 30.0236 77.7691 29.192 77.166 28.1201C76.5629 27.0483 76.2614 25.8101 76.2614 24.4057C76.2614 22.9827 76.5538 21.7168 77.1386 20.608C77.7417 19.4992 78.5641 18.6399 79.6058 18.0301C80.6658 17.4017 81.9086 17.0876 83.3341 17.0876C84.6682 17.0876 85.847 17.3833 86.8704 17.9746C87.8939 18.566 88.6889 19.3791 89.2554 20.414C89.8402 21.4304 90.1326 22.5669 90.1326 23.8235C90.1326 24.0268 90.1235 24.2393 90.1052 24.4611C90.1052 24.6829 90.0961 24.9139 90.0778 25.1541H79.7429C79.816 26.2259 80.1815 27.0668 80.8394 27.6766C81.5156 28.2865 82.3289 28.5914 83.2793 28.5914C83.992 28.5914 84.586 28.4343 85.0611 28.1201C85.5546 27.7875 85.9201 27.3625 86.1577 26.845H89.7214C89.4656 27.7136 89.0361 28.5082 88.433 29.2289C87.8482 29.9312 87.1172 30.4856 86.2399 30.8921C85.381 31.2987 84.4032 31.502 83.3067 31.502ZM83.3341 19.9705C82.4751 19.9705 81.7167 20.2199 81.0588 20.7189C80.4008 21.1994 79.9805 21.9386 79.7977 22.9365H86.5689C86.5141 22.031 86.1851 21.3103 85.582 20.7743C84.9789 20.2384 84.2296 19.9705 83.3341 19.9705Z" fill="#007AFF"/>
<path d="M101.143 31.502C100.12 31.502 99.2245 31.3079 98.457 30.9199C97.6894 30.5318 97.068 29.9866 96.5928 29.2844L96.209 31.1693H93.0839V11.2109H96.5928V19.3883C97.0314 18.7785 97.6071 18.2426 98.3199 17.7806C99.0509 17.3186 99.9921 17.0876 101.143 17.0876C102.423 17.0876 103.565 17.4017 104.57 18.0301C105.575 18.6584 106.37 19.5177 106.955 20.608C107.54 21.6983 107.832 22.9365 107.832 24.3225C107.832 25.7085 107.54 26.9467 106.955 28.037C106.37 29.1088 105.575 29.9589 104.57 30.5872C103.565 31.1971 102.423 31.502 101.143 31.502ZM100.403 28.3973C101.518 28.3973 102.441 28.0185 103.172 27.2608C103.903 26.5031 104.269 25.5237 104.269 24.3225C104.269 23.1213 103.903 22.1326 103.172 21.3565C102.441 20.5803 101.518 20.1922 100.403 20.1922C99.2702 20.1922 98.3382 20.5803 97.6071 21.3565C96.8944 22.1141 96.538 23.0936 96.538 24.2948C96.538 25.496 96.8944 26.4847 97.6071 27.2608C98.3382 28.0185 99.2702 28.3973 100.403 28.3973Z" fill="#007AFF"/>
<path d="M117.491 31.502C116.176 31.502 114.988 31.1971 113.928 30.5872C112.886 29.9774 112.054 29.1365 111.433 28.0647C110.83 26.9744 110.528 25.7177 110.528 24.2948C110.528 22.8718 110.839 21.6244 111.46 20.5526C112.082 19.4623 112.913 18.6122 113.955 18.0023C115.015 17.3925 116.203 17.0876 117.519 17.0876C118.816 17.0876 119.986 17.3925 121.028 18.0023C122.088 18.6122 122.919 19.4623 123.522 20.5526C124.144 21.6244 124.454 22.8718 124.454 24.2948C124.454 25.7177 124.144 26.9744 123.522 28.0647C122.919 29.1365 122.088 29.9774 121.028 30.5872C119.968 31.1971 118.789 31.502 117.491 31.502ZM117.491 28.4251C118.405 28.4251 119.2 28.0832 119.876 27.3994C120.553 26.6972 120.891 25.6623 120.891 24.2948C120.891 22.9273 120.553 21.9016 119.876 21.2179C119.2 20.5156 118.414 20.1645 117.519 20.1645C116.587 20.1645 115.783 20.5156 115.106 21.2179C114.448 21.9016 114.12 22.9273 114.12 24.2948C114.12 25.6623 114.448 26.6972 115.106 27.3994C115.783 28.0832 116.578 28.4251 117.491 28.4251Z" fill="#007AFF"/>
<path d="M125.581 31.1693L130.515 24.2948L125.581 17.4202H129.336L132.79 22.2989L136.217 17.4202H140L135.038 24.2948L140 31.1693H136.217L132.79 26.2906L129.336 31.1693H125.581Z" fill="#007AFF"/>
<defs>
<linearGradient id="paint0_linear_1504_19873" x1="1.15302" y1="1.16142" x2="34.0594" y2="-1.49564" gradientUnits="userSpaceOnUse">
<stop offset="0.0625" stop-color="#FFA0F6"/>
<stop offset="0.651042" stop-color="#2698EA"/>
</linearGradient>
<linearGradient id="paint1_linear_1504_19873" x1="2.72288e-07" y1="0.777909" x2="18.3889" y2="33.411" gradientUnits="userSpaceOnUse">
<stop stop-color="#37EBAA"/>
<stop offset="1" stop-color="#37EBAA" stop-opacity="0"/>
</linearGradient>
<linearGradient id="paint2_linear_1504_19873" x1="1.15302" y1="1.16142" x2="34.0594" y2="-1.49564" gradientUnits="userSpaceOnUse">
<stop offset="0.0625" stop-color="#FFA0F6"/>
<stop offset="0.651042" stop-color="#2698EA"/>
</linearGradient>
<linearGradient id="paint3_linear_1504_19873" x1="2.72288e-07" y1="0.777909" x2="18.3889" y2="33.411" gradientUnits="userSpaceOnUse">
<stop stop-color="#37EBAA"/>
<stop offset="1" stop-color="#37EBAA" stop-opacity="0"/>
</linearGradient>
</defs>
</svg>
