<svg width="129" height="38" viewBox="0 0 129 38" fill="none" xmlns="http://www.w3.org/2000/svg">
<path d="M27.2201 28H15.3403C13.8594 28 13.1271 26.2316 14.1686 25.2026L26.0484 13.4827C27.0899 12.4538 28.88 13.1772 28.88 14.6402V26.3602C28.8637 27.2765 28.1314 28 27.2201 28Z" fill="url(#paint0_linear_1504_8070)"/>
<path d="M27.2201 28H15.3403C13.8594 28 13.1271 26.2316 14.1686 25.2026L26.0484 13.4827C27.0899 12.4538 28.88 13.1772 28.88 14.6402V26.3602C28.8637 27.2765 28.1314 28 27.2201 28Z" fill="url(#paint1_linear_1504_8070)"/>
<path d="M32.8867 7.5138L25.7916 0.532093C25.4475 0.193488 24.9723 0 24.4807 0H1.86801C0.835687 0 0 0.822325 0 1.83814V29.1845C0 29.6682 0.196632 30.1358 0.540738 30.4744L7.63588 37.4561C8.81567 38.6171 10.8148 37.7947 10.8148 36.1662V12.4639C10.8148 11.4642 11.6505 10.6419 12.6828 10.6419H31.5922C33.2308 10.6419 34.0665 8.67473 32.8867 7.5138Z" fill="url(#paint2_linear_1504_8070)"/>
<path d="M32.8867 7.5138L25.7916 0.532093C25.4475 0.193488 24.9723 0 24.4807 0H1.86801C0.835687 0 0 0.822325 0 1.83814V29.1845C0 29.6682 0.196632 30.1358 0.540738 30.4744L7.63588 37.4561C8.81567 38.6171 10.8148 37.7947 10.8148 36.1662V12.4639C10.8148 11.4642 11.6505 10.6419 12.6828 10.6419H31.5922C33.2308 10.6419 34.0665 8.67473 32.8867 7.5138Z" fill="url(#paint3_linear_1504_8070)"/>
<path d="M43.2556 28.2007V10.6447H54.5918V13.2279H46.4659V18.1436H53.0368V20.6767H46.4659V28.2007H43.2556Z" fill="white"/>
<path d="M58.7245 13.8298C58.1393 13.8298 57.6544 13.6543 57.2698 13.3031C56.902 12.952 56.7181 12.5089 56.7181 11.9739C56.7181 11.4389 56.902 11.0041 57.2698 10.6697C57.6544 10.3186 58.1393 10.1431 58.7245 10.1431C59.3097 10.1431 59.7862 10.3186 60.1541 10.6697C60.5386 11.0041 60.7309 11.4389 60.7309 11.9739C60.7309 12.5089 60.5386 12.952 60.1541 13.3031C59.7862 13.6543 59.3097 13.8298 58.7245 13.8298ZM57.1194 28.2007V15.761H60.3296V28.2007H57.1194Z" fill="white"/>
<path d="M63.6803 28.2007V10.1431H66.8906V28.2007H63.6803Z" fill="white"/>
<path d="M76.215 28.5016C74.961 28.5016 73.8492 28.2341 72.8794 27.6991C71.9096 27.164 71.1489 26.4116 70.5971 25.4419C70.0454 24.4721 69.7695 23.3519 69.7695 22.0811C69.7695 20.7937 70.037 19.6484 70.572 18.6452C71.1238 17.642 71.8762 16.8645 72.8292 16.3127C73.799 15.7443 74.936 15.46 76.2401 15.46C77.4607 15.46 78.5391 15.7275 79.4754 16.2626C80.4118 16.7976 81.1391 17.5333 81.6574 18.4696C82.1924 19.3892 82.46 20.4175 82.46 21.5545C82.46 21.7384 82.4516 21.9307 82.4349 22.1313C82.4349 22.3319 82.4265 22.5409 82.4098 22.7583H72.9546C73.0215 23.7281 73.3559 24.4888 73.9578 25.0406C74.5765 25.5923 75.3205 25.8682 76.19 25.8682C76.842 25.8682 77.3854 25.7261 77.8202 25.4419C78.2716 25.1409 78.606 24.7563 78.8234 24.2882H82.0838C81.8497 25.074 81.4568 25.793 80.905 26.4451C80.37 27.0804 79.7012 27.582 78.8986 27.9499C78.1128 28.3177 77.2182 28.5016 76.215 28.5016ZM76.2401 18.0683C75.4543 18.0683 74.7604 18.2941 74.1585 18.7455C73.5566 19.1802 73.172 19.849 73.0048 20.7519H79.1996C79.1494 19.9326 78.8484 19.2805 78.2967 18.7957C77.7449 18.3108 77.0594 18.0683 76.2401 18.0683Z" fill="white"/>
<path d="M92.5335 28.5016C91.5972 28.5016 90.7779 28.3261 90.0757 27.9749C89.3734 27.6238 88.8049 27.1306 88.3702 26.4952L88.0191 28.2007H85.16V10.1431H88.3702V17.5417C88.7715 16.9899 89.2982 16.505 89.9503 16.087C90.6191 15.669 91.4801 15.46 92.5335 15.46C93.7039 15.46 94.7489 15.7443 95.6685 16.3127C96.5881 16.8812 97.3154 17.6587 97.8505 18.6452C98.3855 19.6317 98.653 20.7519 98.653 22.0059C98.653 23.2599 98.3855 24.3801 97.8505 25.3666C97.3154 26.3364 96.5881 27.1055 95.6685 27.674C94.7489 28.2257 93.7039 28.5016 92.5335 28.5016ZM91.8563 25.6927C92.8763 25.6927 93.7206 25.3499 94.3894 24.6644C95.0582 23.9789 95.3926 23.0927 95.3926 22.0059C95.3926 20.9191 95.0582 20.0246 94.3894 19.3223C93.7206 18.6201 92.8763 18.269 91.8563 18.269C90.8197 18.269 89.967 18.6201 89.2982 19.3223C88.6461 20.0079 88.3201 20.894 88.3201 21.9808C88.3201 23.0676 88.6461 23.9621 89.2982 24.6644C89.967 25.3499 90.8197 25.6927 91.8563 25.6927Z" fill="white"/>
<path d="M107.49 28.5016C106.286 28.5016 105.199 28.2257 104.229 27.674C103.276 27.1222 102.516 26.3615 101.947 25.3917C101.395 24.4052 101.119 23.2683 101.119 21.9808C101.119 20.6934 101.404 19.5648 101.972 18.595C102.541 17.6085 103.301 16.8394 104.254 16.2877C105.224 15.7359 106.311 15.46 107.515 15.46C108.702 15.46 109.772 15.7359 110.725 16.2877C111.695 16.8394 112.456 17.6085 113.007 18.595C113.576 19.5648 113.86 20.6934 113.86 21.9808C113.86 23.2683 113.576 24.4052 113.007 25.3917C112.456 26.3615 111.695 27.1222 110.725 27.674C109.755 28.2257 108.677 28.5016 107.49 28.5016ZM107.49 25.7177C108.326 25.7177 109.053 25.4084 109.672 24.7898C110.29 24.1544 110.6 23.2181 110.6 21.9808C110.6 20.7435 110.29 19.8156 109.672 19.1969C109.053 18.5616 108.334 18.2439 107.515 18.2439C106.662 18.2439 105.926 18.5616 105.308 19.1969C104.706 19.8156 104.405 20.7435 104.405 21.9808C104.405 23.2181 104.706 24.1544 105.308 24.7898C105.926 25.4084 106.654 25.7177 107.49 25.7177Z" fill="white"/>
<path d="M114.89 28.2007L119.405 21.9808L114.89 15.761H118.326L121.486 20.1751L124.621 15.761H128.082L123.543 21.9808L128.082 28.2007H124.621L121.486 23.7866L118.326 28.2007H114.89Z" fill="white"/>
<defs>
<linearGradient id="paint0_linear_1504_8070" x1="1.05487" y1="1.05081" x2="31.1557" y2="-1.40688" gradientUnits="userSpaceOnUse">
<stop offset="0.0625" stop-color="#FFA0F6"/>
<stop offset="0.651042" stop-color="#2698EA"/>
</linearGradient>
<linearGradient id="paint1_linear_1504_8070" x1="2.4911e-07" y1="0.703823" x2="16.5413" y2="30.3863" gradientUnits="userSpaceOnUse">
<stop stop-color="#37EBAA"/>
<stop offset="1" stop-color="#37EBAA" stop-opacity="0"/>
</linearGradient>
<linearGradient id="paint2_linear_1504_8070" x1="1.05487" y1="1.05081" x2="31.1557" y2="-1.40688" gradientUnits="userSpaceOnUse">
<stop offset="0.0625" stop-color="#FFA0F6"/>
<stop offset="0.651042" stop-color="#2698EA"/>
</linearGradient>
<linearGradient id="paint3_linear_1504_8070" x1="2.4911e-07" y1="0.703823" x2="16.5413" y2="30.3863" gradientUnits="userSpaceOnUse">
<stop stop-color="#37EBAA"/>
<stop offset="1" stop-color="#37EBAA" stop-opacity="0"/>
</linearGradient>
</defs>
</svg>
