<svg width="92" height="92" viewBox="0 0 92 92" fill="none" xmlns="http://www.w3.org/2000/svg">
<path d="M50.6404 9.52148C27.9499 9.52148 9.55733 27.9141 9.55733 50.6046C9.55733 73.2937 27.9499 91.6863 50.6404 91.6863C73.3296 91.6863 91.7222 73.2937 91.7222 50.6046C91.7222 27.9141 73.3296 9.52148 50.6404 9.52148Z" fill="#3E47DD"/>
<path d="M2.99986 44.0831C2.99986 21.3935 21.3934 2.99998 44.0829 2.99998C66.7725 2.99998 85.166 21.3935 85.166 44.0831C85.166 66.7726 66.7725 85.1661 44.0829 85.1661C21.3934 85.1661 2.99986 66.7726 2.99986 44.0831Z" stroke="url(#paint0_linear_1504_19950)" stroke-width="5.24454" stroke-miterlimit="10" stroke-linecap="round" stroke-linejoin="round"/>
<g clip-path="url(#clip0_1504_19950)">
<rect x="41.942" y="41.8264" width="7.4131" height="8.23677" rx="2.05919" fill="#FFA561"/>
<rect x="41.942" y="51.9161" width="7.4131" height="8.23677" rx="2.05919" fill="#F3F4F8"/>
<rect x="37" y="27" width="12.3552" height="12.9729" rx="2.05919" fill="#3D6BF5"/>
<rect x="51.209" y="31.7362" width="7.4131" height="8.23677" rx="2.05919" fill="#FFA561"/>
<rect x="51.209" y="41.8264" width="7.4131" height="8.23677" rx="2.05919" fill="#3D6BF5"/>
</g>
<defs>
<linearGradient id="paint0_linear_1504_19950" x1="104.338" y1="85.1661" x2="102.311" y2="-1.61304" gradientUnits="userSpaceOnUse">
<stop stop-color="#3BD3E9"/>
<stop offset="0.527778" stop-color="#9C7EEA"/>
<stop offset="0.983091" stop-color="#6AE0C9"/>
</linearGradient>
<clipPath id="clip0_1504_19950">
<rect width="21" height="33" fill="white" transform="translate(37 27)"/>
</clipPath>
</defs>
</svg>
