<svg width="129" height="38" viewBox="0 0 129 38" fill="none" xmlns="http://www.w3.org/2000/svg">
<path d="M27.2201 28H15.3403C13.8594 28 13.1271 26.2316 14.1686 25.2026L26.0484 13.4827C27.0899 12.4538 28.88 13.1772 28.88 14.6402V26.3602C28.8637 27.2765 28.1314 28 27.2201 28Z" fill="url(#paint0_linear_1504_19785)"/>
<path d="M27.2201 28H15.3403C13.8594 28 13.1271 26.2316 14.1686 25.2026L26.0484 13.4827C27.0899 12.4538 28.88 13.1772 28.88 14.6402V26.3602C28.8637 27.2765 28.1314 28 27.2201 28Z" fill="url(#paint1_linear_1504_19785)"/>
<path d="M32.8867 7.5138L25.7916 0.532093C25.4475 0.193488 24.9723 0 24.4807 0H1.86801C0.835687 0 0 0.822325 0 1.83814V29.1845C0 29.6682 0.196632 30.1358 0.540738 30.4744L7.63588 37.4561C8.81567 38.6171 10.8148 37.7947 10.8148 36.1662V12.4639C10.8148 11.4642 11.6505 10.6419 12.6828 10.6419H31.5922C33.2308 10.6419 34.0665 8.67473 32.8867 7.5138Z" fill="url(#paint2_linear_1504_19785)"/>
<path d="M32.8867 7.5138L25.7916 0.532093C25.4475 0.193488 24.9723 0 24.4807 0H1.86801C0.835687 0 0 0.822325 0 1.83814V29.1845C0 29.6682 0.196632 30.1358 0.540738 30.4744L7.63588 37.4561C8.81567 38.6171 10.8148 37.7947 10.8148 36.1662V12.4639C10.8148 11.4642 11.6505 10.6419 12.6828 10.6419H31.5922C33.2308 10.6419 34.0665 8.67473 32.8867 7.5138Z" fill="url(#paint3_linear_1504_19785)"/>
<path d="M43.2557 28.2007V10.6447H54.5919V13.2279H46.466V18.1436H53.0369V20.6767H46.466V28.2007H43.2557Z" fill="#15141E"/>
<path d="M58.7246 13.8298C58.1394 13.8298 57.6545 13.6543 57.27 13.3031C56.9021 12.952 56.7182 12.5089 56.7182 11.9739C56.7182 11.4389 56.9021 11.0041 57.27 10.6697C57.6545 10.3186 58.1394 10.1431 58.7246 10.1431C59.3098 10.1431 59.7863 10.3186 60.1542 10.6697C60.5387 11.0041 60.731 11.4389 60.731 11.9739C60.731 12.5089 60.5387 12.952 60.1542 13.3031C59.7863 13.6543 59.3098 13.8298 58.7246 13.8298ZM57.1195 28.2007V15.761H60.3297V28.2007H57.1195Z" fill="#15141E"/>
<path d="M63.6805 28.2007V10.1431H66.8907V28.2007H63.6805Z" fill="#15141E"/>
<path d="M76.2152 28.5016C74.9612 28.5016 73.8493 28.2341 72.8795 27.6991C71.9098 27.164 71.149 26.4116 70.5972 25.4419C70.0455 24.4721 69.7696 23.3519 69.7696 22.0811C69.7696 20.7937 70.0371 19.6484 70.5722 18.6452C71.1239 17.642 71.8763 16.8645 72.8294 16.3127C73.7991 15.7443 74.9361 15.46 76.2402 15.46C77.4608 15.46 78.5392 15.7275 79.4756 16.2626C80.4119 16.7976 81.1392 17.5333 81.6575 18.4696C82.1926 19.3892 82.4601 20.4175 82.4601 21.5545C82.4601 21.7384 82.4517 21.9307 82.435 22.1313C82.435 22.3319 82.4266 22.5409 82.4099 22.7583H72.9548C73.0216 23.7281 73.356 24.4888 73.958 25.0406C74.5766 25.5923 75.3206 25.8682 76.1901 25.8682C76.8422 25.8682 77.3856 25.7261 77.8203 25.4419C78.2717 25.1409 78.6061 24.7563 78.8235 24.2882H82.0839C81.8498 25.074 81.4569 25.793 80.9051 26.4451C80.3701 27.0804 79.7013 27.582 78.8987 27.9499C78.1129 28.3177 77.2184 28.5016 76.2152 28.5016ZM76.2402 18.0683C75.4544 18.0683 74.7605 18.2941 74.1586 18.7455C73.5567 19.1802 73.1721 19.849 73.0049 20.7519H79.1997C79.1495 19.9326 78.8486 19.2805 78.2968 18.7957C77.745 18.3108 77.0595 18.0683 76.2402 18.0683Z" fill="#15141E"/>
<path d="M92.5336 28.5016C91.5973 28.5016 90.778 28.3261 90.0758 27.9749C89.3735 27.6238 88.8051 27.1306 88.3703 26.4952L88.0192 28.2007H85.1601V10.1431H88.3703V17.5417C88.7716 16.9899 89.2983 16.505 89.9504 16.087C90.6192 15.669 91.4803 15.46 92.5336 15.46C93.704 15.46 94.749 15.7443 95.6686 16.3127C96.5882 16.8812 97.3155 17.6587 97.8506 18.6452C98.3856 19.6317 98.6531 20.7519 98.6531 22.0059C98.6531 23.2599 98.3856 24.3801 97.8506 25.3666C97.3155 26.3364 96.5882 27.1055 95.6686 27.674C94.749 28.2257 93.704 28.5016 92.5336 28.5016ZM91.8565 25.6927C92.8764 25.6927 93.7207 25.3499 94.3895 24.6644C95.0583 23.9789 95.3927 23.0927 95.3927 22.0059C95.3927 20.9191 95.0583 20.0246 94.3895 19.3223C93.7207 18.6201 92.8764 18.269 91.8565 18.269C90.8198 18.269 89.9671 18.6201 89.2983 19.3223C88.6462 20.0079 88.3202 20.894 88.3202 21.9808C88.3202 23.0676 88.6462 23.9621 89.2983 24.6644C89.9671 25.3499 90.8198 25.6927 91.8565 25.6927Z" fill="#15141E"/>
<path d="M107.49 28.5016C106.286 28.5016 105.199 28.2257 104.23 27.674C103.276 27.1222 102.516 26.3615 101.947 25.3917C101.395 24.4052 101.12 23.2683 101.12 21.9808C101.12 20.6934 101.404 19.5648 101.972 18.595C102.541 17.6085 103.302 16.8394 104.255 16.2877C105.224 15.7359 106.311 15.46 107.515 15.46C108.702 15.46 109.772 15.7359 110.725 16.2877C111.695 16.8394 112.456 17.6085 113.008 18.595C113.576 19.5648 113.86 20.6934 113.86 21.9808C113.86 23.2683 113.576 24.4052 113.008 25.3917C112.456 26.3615 111.695 27.1222 110.725 27.674C109.755 28.2257 108.677 28.5016 107.49 28.5016ZM107.49 25.7177C108.326 25.7177 109.053 25.4084 109.672 24.7898C110.291 24.1544 110.6 23.2181 110.6 21.9808C110.6 20.7435 110.291 19.8156 109.672 19.1969C109.053 18.5616 108.334 18.2439 107.515 18.2439C106.662 18.2439 105.927 18.5616 105.308 19.1969C104.706 19.8156 104.405 20.7435 104.405 21.9808C104.405 23.2181 104.706 24.1544 105.308 24.7898C105.927 25.4084 106.654 25.7177 107.49 25.7177Z" fill="#15141E"/>
<path d="M114.89 28.2007L119.405 21.9808L114.89 15.761H118.326L121.487 20.1751L124.622 15.761H128.083L123.543 21.9808L128.083 28.2007H124.622L121.487 23.7866L118.326 28.2007H114.89Z" fill="#15141E"/>
<defs>
<linearGradient id="paint0_linear_1504_19785" x1="1.05487" y1="1.05081" x2="31.1557" y2="-1.40688" gradientUnits="userSpaceOnUse">
<stop offset="0.0625" stop-color="#FFA0F6"/>
<stop offset="0.651042" stop-color="#2698EA"/>
</linearGradient>
<linearGradient id="paint1_linear_1504_19785" x1="2.4911e-07" y1="0.703823" x2="16.5413" y2="30.3863" gradientUnits="userSpaceOnUse">
<stop stop-color="#37EBAA"/>
<stop offset="1" stop-color="#37EBAA" stop-opacity="0"/>
</linearGradient>
<linearGradient id="paint2_linear_1504_19785" x1="1.05487" y1="1.05081" x2="31.1557" y2="-1.40688" gradientUnits="userSpaceOnUse">
<stop offset="0.0625" stop-color="#FFA0F6"/>
<stop offset="0.651042" stop-color="#2698EA"/>
</linearGradient>
<linearGradient id="paint3_linear_1504_19785" x1="2.4911e-07" y1="0.703823" x2="16.5413" y2="30.3863" gradientUnits="userSpaceOnUse">
<stop stop-color="#37EBAA"/>
<stop offset="1" stop-color="#37EBAA" stop-opacity="0"/>
</linearGradient>
</defs>
</svg>
