<svg width="393" height="661" viewBox="0 0 393 661" fill="none" xmlns="http://www.w3.org/2000/svg">
<path fill-rule="evenodd" clip-rule="evenodd" d="M140.844 237.608C108.624 269.627 56.3849 269.627 24.1649 237.608C-8.05499 205.589 -8.05497 153.675 24.165 121.656L122.418 24.0146C154.638 -8.00464 206.877 -8.00464 239.097 24.0146C271.317 56.0338 271.317 107.947 239.097 139.966L140.844 237.608ZM268.288 636.944C236.068 668.963 183.829 668.963 151.609 636.944C119.389 604.924 119.389 553.011 151.609 520.992L249.863 423.35C282.082 391.331 334.321 391.331 366.541 423.35C398.761 455.37 398.761 507.283 366.541 539.302L268.288 636.944ZM24.4049 499.716C56.6249 531.736 108.864 531.736 141.084 499.716L367.841 274.371C400.061 242.352 400.061 190.438 367.841 158.419C335.622 126.4 283.383 126.4 251.163 158.419L24.4049 383.764C-7.81498 415.784 -7.81499 467.697 24.4049 499.716Z" fill="url(#paint0_linear_1504_19781)"/>
<defs>
<linearGradient id="paint0_linear_1504_19781" x1="-91.4684" y1="660.958" x2="-64" y2="-36.4068" gradientUnits="userSpaceOnUse">
<stop stop-color="#3BD3E9"/>
<stop offset="0.527778" stop-color="#9C7EEA"/>
<stop offset="0.983091" stop-color="#6AE0C9"/>
</linearGradient>
</defs>
</svg>
