<svg width="136" height="80" viewBox="0 0 136 80" fill="none" xmlns="http://www.w3.org/2000/svg">
<path fill-rule="evenodd" clip-rule="evenodd" d="M48.7566 51.7157C55.2114 58.1862 55.2113 68.6768 48.7566 75.1472C42.3018 81.6176 31.8366 81.6176 25.3818 75.1472L4.8403 54.5559C-1.61447 48.0855 -1.61446 37.5949 4.8403 31.1244C11.2951 24.654 21.7603 24.654 28.2151 31.1244L48.7566 51.7157ZM131.157 25.6896C137.612 32.16 137.612 42.6506 131.157 49.1211C124.702 55.5915 114.237 55.5915 107.782 49.1211L87.2407 28.5298C80.7859 22.0594 80.7859 11.5687 87.2407 5.09832C93.6955 -1.37209 104.161 -1.37209 110.615 5.09832L131.157 25.6896ZM103.02 75.1472C109.475 68.6768 109.475 58.1861 103.02 51.7157L56.2707 4.85281C49.8159 -1.61761 39.3507 -1.61761 32.8959 4.85281C26.4411 11.3232 26.4411 21.8139 32.8959 28.2843L79.6455 75.1472C86.1002 81.6176 96.5655 81.6176 103.02 75.1472Z" fill="url(#paint0_linear_1508_20216)"/>
<defs>
<linearGradient id="paint0_linear_1508_20216" x1="135.998" y1="98.6667" x2="-7.48819" y2="92.9684" gradientUnits="userSpaceOnUse">
<stop stop-color="#3BD3E9"/>
<stop offset="0.527778" stop-color="#9C7EEA"/>
<stop offset="0.983091" stop-color="#6AE0C9"/>
</linearGradient>
</defs>
</svg>
