<svg width="16" height="16" viewBox="0 0 16 16" fill="none" xmlns="http://www.w3.org/2000/svg">
<path d="M8.00011 0C3.58883 0 0 3.58877 0 8C0 12.4112 3.58883 16 8.00011 16C12.4113 16 16.0001 12.4112 16.0001 8C16.0001 3.58877 12.4113 0 8.00011 0ZM8.00011 14.6885C4.31197 14.6885 1.31148 11.6881 1.31148 8C1.31148 4.31192 4.31197 1.31148 8.00011 1.31148C11.6882 1.31148 14.6886 4.31192 14.6886 8C14.6886 11.6881 11.6882 14.6885 8.00011 14.6885Z" fill="black"/>
<path d="M11.461 4.93031L6.71103 9.68032L4.53933 7.50862C4.28323 7.25257 3.86807 7.25257 3.61196 7.50862C3.35591 7.76473 3.35591 8.17989 3.61196 8.43599L6.24735 11.0714C6.3754 11.1994 6.54321 11.2634 6.71103 11.2634C6.87885 11.2634 7.04666 11.1994 7.17472 11.0714L12.3884 5.85774C12.6444 5.60163 12.6444 5.18647 12.3884 4.93037C12.1323 4.67426 11.717 4.67426 11.461 4.93031Z" fill="black"/>
</svg>
