<svg width="601" height="355" viewBox="0 0 601 355" fill="none" xmlns="http://www.w3.org/2000/svg">
<path fill-rule="evenodd" clip-rule="evenodd" d="M214.742 228.158C243.55 257.148 243.55 304.149 214.742 333.139C185.934 362.129 139.228 362.129 110.42 333.139L21.6062 243.763C-7.20135 214.773 -7.20135 167.772 21.6062 138.782C50.4138 109.792 97.1201 109.792 125.928 138.782L214.742 228.158ZM578.742 112.158C607.55 141.148 607.55 188.149 578.742 217.139C549.934 246.129 503.228 246.129 474.42 217.139L385.606 127.763C356.799 98.7734 356.799 51.7718 385.606 22.7821C414.414 -6.20764 461.12 -6.20764 489.928 22.7821L578.742 112.158ZM453.742 333.139C482.55 304.149 482.55 257.147 453.742 228.158L248.623 21.7422C219.816 -7.24747 173.109 -7.24747 144.302 21.7422C115.494 50.732 115.494 97.7336 144.302 126.723L349.42 333.139C378.228 362.129 424.934 362.129 453.742 333.139Z" fill="url(#paint0_linear_1507_20205)"/>
<defs>
<linearGradient id="paint0_linear_1507_20205" x1="600.348" y1="437.687" x2="-33.0613" y2="412.655" gradientUnits="userSpaceOnUse">
<stop stop-color="#3BD3E9"/>
<stop offset="0.527778" stop-color="#9C7EEA"/>
<stop offset="0.983091" stop-color="#6AE0C9"/>
</linearGradient>
</defs>
</svg>
