<svg width="106" height="120" viewBox="0 0 106 120" fill="none" xmlns="http://www.w3.org/2000/svg">
<path d="M104.246 23.7278L81.7556 1.68029C80.6648 0.611016 79.1586 0 77.6003 0L5.92131 0C2.64901 0 0 2.59682 0 5.80465L0 92.1616C0 93.6891 0.623296 95.1657 1.71406 96.235L24.2046 118.282C27.9444 121.949 34.2813 119.352 34.2813 114.209L34.2813 39.3596C34.2813 36.2027 36.9303 33.6059 40.2026 33.6059L100.143 33.6059C105.337 33.6059 107.986 27.3939 104.246 23.7278Z" fill="url(#paint0_linear_1509_20227)"/>
<path d="M104.246 23.7278L81.7556 1.68029C80.6648 0.611016 79.1586 0 77.6003 0L5.92131 0C2.64901 0 0 2.59682 0 5.80465L0 92.1616C0 93.6891 0.623296 95.1657 1.71406 96.235L24.2046 118.282C27.9444 121.949 34.2813 119.352 34.2813 114.209L34.2813 39.3596C34.2813 36.2027 36.9303 33.6059 40.2026 33.6059L100.143 33.6059C105.337 33.6059 107.986 27.3939 104.246 23.7278Z" fill="url(#paint1_linear_1509_20227)"/>
<defs>
<linearGradient id="paint0_linear_1509_20227" x1="3.3438" y1="3.31835" x2="98.7543" y2="-4.5013" gradientUnits="userSpaceOnUse">
<stop offset="0.0625" stop-color="#FFA0F6"/>
<stop offset="0.651042" stop-color="#2698EA"/>
</linearGradient>
<linearGradient id="paint1_linear_1509_20227" x1="8.21408e-07" y1="2.2226" x2="52.1316" y2="96.1242" gradientUnits="userSpaceOnUse">
<stop stop-color="#37EBAA"/>
<stop offset="1" stop-color="#37EBAA" stop-opacity="0"/>
</linearGradient>
</defs>
</svg>
